<svg width="36" height="36" viewBox="0 0 36 36" fill="none" xmlns="http://www.w3.org/2000/svg">
<g clip-path="url(#clip0_8826_1398)">
<path d="M19.75 18.0097L24.48 10.7197H22.31L25.99 5.05966H24.62L27.41 0.899658L30.21 5.05966H28.83L32.52 10.7197H30.34L35.08 18.0097H19.75Z" fill="white"/>
<path d="M27.4101 1.78963L29.2601 4.54963H27.9001L28.9001 6.08963L31.5801 10.2096H29.4101L30.4101 11.7596L34.1401 17.4996H20.6501L24.3801 11.7596L25.3801 10.2096H23.2101L25.8901 6.08963L26.8901 4.54963H25.5301L27.3801 1.78963M27.4101 -0.000366211L23.6801 5.55963H25.0701L21.3901 11.2296H23.5601L18.8201 18.5096H35.9901L31.2501 11.2296H33.4201L29.7401 5.55963H31.1301L27.4001 -0.000366211L27.4101 -0.000366211Z" fill="#274247"/>
<path d="M0.870117 24.6097L6.85012 14.3497H3.98012L8.73012 6.65966H6.98012L10.8501 0.899658L14.7201 6.65966H12.9701L17.7201 14.3497H14.8401L20.8301 24.6097H0.870117Z" fill="white"/>
<path d="M10.85 1.78963L13.78 6.15963H12.07L13.01 7.68963L16.82 13.8496H13.97L14.85 15.3496L19.95 24.0996H1.74L6.84 15.3496L7.72 13.8496H4.87L8.68 7.68963L9.62 6.15963H7.91L10.84 1.78963M10.85 -0.000366211L6.04 7.15963H7.83L3.08 14.8496H5.98L0 25.1096H21.7L15.72 14.8596H18.62L13.87 7.16963H15.66L10.85 -0.000366211Z" fill="#274247"/>
<path d="M36.0001 35.9996L28.5001 24.4696H32.6201L26.3801 14.8496H28.7301L22.4001 5.41962L16.0701 14.8496H18.4301L12.1801 24.4696H16.3001L8.81006 35.9996H36.0001Z" fill="#274247"/>
</g>
<defs>
<clipPath id="clip0_8826_1398">
<rect width="36" height="36" fill="white"/>
</clipPath>
</defs>
</svg>
