<svg width="36" height="36" viewBox="0 0 36 36" fill="none" xmlns="http://www.w3.org/2000/svg">
<g clip-path="url(#clip0_8826_1224)">
<path d="M0.486572 10.3525L18.0293 0.486511L35.5136 10.3525H0.486572Z" fill="#274247"/>
<path d="M17.848 0.0351709C17.9839 -0.01941 18.1385 -0.0102556 18.268 0.0627258L35.753 9.92833C35.9454 10.0369 36.0399 10.2619 35.9839 10.4756C35.9277 10.6895 35.7346 10.8386 35.5135 10.8386H0.486524C0.265316 10.8386 0.0722361 10.6896 0.0161902 10.4756C-0.0398531 10.2616 0.0552249 10.0368 0.248031 9.92833L17.791 0.0627258L17.848 0.0351709ZM2.34505 9.86562H33.6607L18.0285 1.04425L2.34505 9.86562Z" fill="#274247"/>
<path d="M9.86588 14.76H2.36426V18.5351H9.86588V14.76Z" fill="white"/>
<path d="M9.866 14.2735C10.1347 14.2735 10.3525 14.4913 10.3525 14.76V18.535C10.3525 18.8037 10.1347 19.0215 9.866 19.0215H2.36442C2.09574 19.0215 1.87793 18.8037 1.87793 18.535V14.76C1.87793 14.4913 2.09574 14.2735 2.36442 14.2735H9.866ZM2.8509 18.0485H9.37951V15.2465H2.8509V18.0485Z" fill="#274247"/>
<path d="M8.30929 18.2141H3.93091V31.427H8.30929V18.2141Z" fill="#274247"/>
<path d="M33.6357 14.76H26.134V18.5351H33.6357V14.76Z" fill="white"/>
<path d="M33.6355 14.2735L33.7334 14.283C33.9552 14.3283 34.122 14.5248 34.122 14.76V18.535C34.122 18.8037 33.9042 19.0215 33.6355 19.0215H26.1339C25.8653 19.0215 25.6475 18.8037 25.6475 18.535V14.76C25.6475 14.4913 25.8653 14.2735 26.1339 14.2735H33.6355ZM26.6204 18.0485H33.149V15.2465H26.6204V18.0485Z" fill="#274247"/>
<path d="M32.0693 18.2141H27.6909V31.427H32.0693V18.2141Z" fill="#274247"/>
<path d="M21.746 14.76H14.2444V18.5351H21.746V14.76Z" fill="white"/>
<path d="M21.7459 14.2735C22.0146 14.2735 22.2324 14.4913 22.2324 14.76V18.535C22.2324 18.8037 22.0146 19.0215 21.7459 19.0215H14.2443C13.9756 19.0215 13.7578 18.8037 13.7578 18.535V14.76C13.7578 14.4913 13.9756 14.2735 14.2443 14.2735H21.7459ZM14.7308 18.0485H21.2594V15.2465H14.7308V18.0485Z" fill="#274247"/>
<path d="M20.1892 18.2141H15.8108V31.427H20.1892V18.2141Z" fill="#274247"/>
<path d="M35.5136 10.3524H0.486572V14.76H35.5136V10.3524Z" fill="white"/>
<path d="M35.5135 9.86597C35.7822 9.86597 36 10.0838 36 10.3525V14.7603C35.9999 15.0288 35.7821 15.2468 35.5135 15.2468H0.486486C0.217896 15.2468 0.000143866 15.0288 0 14.7603V10.3525C0 10.0838 0.217807 9.86597 0.486486 9.86597H35.5135ZM0.972973 14.2738H35.027V10.8389H0.972973V14.2738Z" fill="#274247"/>
<path d="M35.5136 31.106H0.486572V35.5135H35.5136V31.106Z" fill="white"/>
<path d="M35.5135 30.6194C35.7822 30.6194 36 30.8373 36 31.1059V35.5138C35.9999 35.7823 35.7821 36.0003 35.5135 36.0003H0.486486C0.217896 36.0003 0.000143365 35.7823 0 35.5138V31.1059C0 30.8373 0.217807 30.6194 0.486486 30.6194H35.5135ZM0.972973 35.0273H35.027V31.5924H0.972973V35.0273Z" fill="#274247"/>
</g>
<defs>
<clipPath id="clip0_8826_1224">
<rect width="36" height="36" fill="white"/>
</clipPath>
</defs>
</svg>
