<svg width="36" height="36" viewBox="0 0 36 36" fill="none" xmlns="http://www.w3.org/2000/svg">
<g clip-path="url(#clip0_8826_1291)">
<path d="M10.5277 20.6507C16.0732 20.6507 20.5687 16.159 20.5687 10.6183C20.5687 5.07753 16.0732 0.585876 10.5277 0.585876C4.98212 0.585876 0.486572 5.07753 0.486572 10.6183C0.486572 16.159 4.98212 20.6507 10.5277 20.6507Z" fill="white"/>
<path d="M20.0818 10.5174C20.0817 5.24384 15.8037 0.970415 10.5279 0.97025C5.25195 0.97025 0.973055 5.24374 0.972973 10.5174C0.972973 15.7911 5.2519 20.0645 10.5279 20.0645C15.8037 20.0643 20.0818 15.791 20.0818 10.5174ZM21.0548 10.5174C21.0548 16.325 16.3428 21.0346 10.5279 21.0347C4.71277 21.0347 0 16.3251 0 10.5174C8.20886e-05 4.70965 4.71282 0 10.5279 0C16.3428 0.000164331 21.0547 4.70976 21.0548 10.5174Z" fill="#274247"/>
<path d="M8.59131 35.3883V9.3763C8.59131 9.10837 8.80912 8.89117 9.0778 8.89117C9.34647 8.89117 9.56428 9.10837 9.56428 9.3763V35.3883C9.56428 35.6562 9.34647 35.8734 9.0778 35.8734C8.80912 35.8734 8.59131 35.6562 8.59131 35.3883Z" fill="#274247"/>
<path d="M5.12069 14.1217C5.29736 13.9199 5.60526 13.8991 5.80767 14.0753L9.3974 17.2001C9.59973 17.3763 9.62058 17.6824 9.44396 17.8842C9.26729 18.0859 8.96031 18.1068 8.75794 17.9307L5.16725 14.8067C4.9649 14.6306 4.94407 14.3235 5.12069 14.1217Z" fill="#274247"/>
<path d="M12.0673 10.6387C12.2492 10.4419 12.5566 10.4291 12.7542 10.6103C12.9519 10.7917 12.9647 11.0992 12.7828 11.2963L9.52367 14.8277C9.34173 15.0248 9.03345 15.0375 8.83575 14.8561C8.63834 14.6747 8.62566 14.3681 8.80725 14.171L12.0673 10.6387Z" fill="#274247"/>
<path d="M29.7828 10.8123H25.8228V17.41H29.7828V10.8123Z" fill="white"/>
<path d="M29.783 10.3271C30.0515 10.3273 30.2695 10.5444 30.2695 10.8123V17.4098C30.2695 17.6776 30.0515 17.8947 29.783 17.8949H25.8227C25.554 17.8949 25.3362 17.6777 25.3362 17.4098V10.8123C25.3362 10.5443 25.554 10.3271 25.8227 10.3271H29.783ZM26.3092 16.9247H29.2965V11.2974H26.3092V16.9247Z" fill="#274247"/>
<path d="M32.4098 35.1753V22.4747H35.5136V19.4669L22.2714 11.4332L9.07788 19.4669V22.4747H12.1817V35.1753H32.4098Z" fill="#274247"/>
<path d="M22.078 10.9879C22.2216 10.9259 22.3886 10.9366 22.5246 11.0192L35.7661 19.0521C35.9112 19.1402 35.9999 19.2978 35.9999 19.4672V22.4746C35.9999 22.7425 35.7821 22.9597 35.5134 22.9597H32.8966V35.175C32.8966 35.4428 32.6786 35.6599 32.4101 35.6601H12.182C11.9133 35.6601 11.6955 35.4429 11.6955 35.175V22.9597H9.0778C8.80912 22.9597 8.59131 22.7425 8.59131 22.4746V19.4672C8.59131 19.2982 8.67954 19.1412 8.8241 19.0531L22.0181 11.0192L22.078 10.9879ZM9.56428 19.7391V21.9894H12.182C12.4504 21.9897 12.6684 22.2068 12.6685 22.4746V34.6899H31.9237V22.4746C31.9237 22.2067 32.1415 21.9894 32.4101 21.9894H35.0269V19.7391L22.2709 12.0008L9.56428 19.7391Z" fill="#274247"/>
<path d="M25.3752 26.5303H19.2163V35.3887H25.3752V26.5303Z" fill="white"/>
<path d="M24.8982 19.6124C24.8982 18.1817 23.7352 17.0219 22.3005 17.0219C20.8658 17.0219 19.7028 18.1817 19.7027 19.6124C19.7027 21.0431 20.8658 22.2028 22.3005 22.2029C23.7352 22.2029 24.8982 21.0431 24.8982 19.6124ZM25.8712 19.6124C25.8712 21.579 24.2726 23.1731 22.3005 23.1731C20.3284 23.1731 18.7297 21.5789 18.7297 19.6124C18.7298 17.6459 20.3284 16.0517 22.3005 16.0516C24.2726 16.0516 25.8712 17.6458 25.8712 19.6124Z" fill="white"/>
<path d="M35.5135 35.0297C35.7822 35.0297 36 35.2469 36 35.5148C36 35.7828 35.7822 36 35.5135 36H0.486486C0.217807 36 0 35.7828 0 35.5148C0 35.2469 0.217807 35.0297 0.486486 35.0297H35.5135Z" fill="#274247"/>
</g>
<defs>
<clipPath id="clip0_8826_1291">
<rect width="36" height="36" fill="white"/>
</clipPath>
</defs>
</svg>
