<svg width="36" height="36" viewBox="0 0 36 36" fill="none" xmlns="http://www.w3.org/2000/svg">
<g clip-path="url(#clip0_8826_1428)">
<path d="M31.5853 14.2106V21.1533H30.5933V14.2106H31.5853Z" fill="#274247"/>
<path d="M36.0001 19.2203L33.1429 14.8023H34.8195L32.3691 11.0253H33.2917L30.8116 7.30743L28.3215 11.0253H29.254L26.7937 14.8023H28.4802L25.623 19.2203H36.0001Z" fill="#274247"/>
<path d="M24.9681 26.084V34.0032H23.9761V26.084H24.9681Z" fill="#274247"/>
<path d="M29.3828 32.0701L26.5157 27.6619H28.2022L25.7518 23.875H26.6744L24.1943 20.1671L21.7042 23.875H22.6268L20.1764 27.6619H21.8629L18.9958 32.0701H29.3828Z" fill="#274247"/>
<path d="M26.5753 6.90314V13.8458H25.5833V6.90314H26.5753Z" fill="#274247"/>
<path d="M30.99 11.9129L28.1229 7.49485H29.8094L27.359 3.70798H28.2816L25.7915 0L23.3114 3.70798H24.234L21.7836 7.49485H23.4701L20.603 11.9129H30.99Z" fill="#274247"/>
<path d="M20.9403 15.5913H18.3411C17.9442 15.5913 17.5672 15.4039 17.3391 15.0785L14.353 10.8676C13.8966 10.2266 13.2022 9.75319 12.4085 9.66444C12.3093 9.65458 12.2002 9.64471 12.091 9.64471C11.1684 9.64471 10.345 10.0786 9.8192 10.7492L9.78944 10.8281L5.95015 20.5517L5.91046 25.1768C5.91046 25.6896 5.74181 26.1827 5.43427 26.5969L1.03941 32.5336C0.414412 33.3521 0.583064 34.5059 1.39656 35.1272C2.21997 35.7485 3.39061 35.5808 4.01561 34.7722L9.08508 28.1452C9.18428 28.017 9.25373 27.869 9.29341 27.7112L9.86881 25.4233L12.0414 28.1254C12.4184 28.5593 12.6268 29.1215 12.6268 29.6934V33.6578C12.6268 34.713 13.5196 35.5611 14.591 35.5019C15.5633 35.4526 16.2974 34.6144 16.347 33.6578C16.347 33.6184 16.347 33.5888 16.347 33.5493V27.3365C16.347 26.7349 16.1287 26.163 15.722 25.7192L12.3391 21.9816C11.7637 21.3406 11.5652 20.4432 11.8331 19.6247L13.1426 15.5716L14.5018 17.4946C14.9581 18.1356 15.7022 18.5202 16.5057 18.5202H20.9403C21.7538 18.5202 22.4185 17.8693 22.4185 17.0508C22.4185 16.2323 21.7538 15.5814 20.9403 15.5814V15.5913Z" fill="#274247"/>
<path d="M15.1369 8.31338C16.7313 8.31338 18.0238 7.03297 18.0238 5.4535C18.0238 3.87404 16.7313 2.59363 15.1369 2.59363C13.5425 2.59363 12.25 3.87404 12.25 5.4535C12.25 7.03297 13.5425 8.31338 15.1369 8.31338Z" fill="white"/>
<path d="M17.528 5.45387C17.528 4.14837 16.459 3.08677 15.137 3.08669C13.815 3.08669 12.746 4.14832 12.746 5.45387C12.7462 6.75924 13.8151 7.82009 15.137 7.82009C16.4589 7.82 17.5278 6.75919 17.528 5.45387ZM18.5201 5.45387C18.5199 7.30703 17.0035 8.80617 15.137 8.80625C13.2704 8.80625 11.7541 7.30708 11.7539 5.45387C11.7539 3.60048 13.2703 2.10052 15.137 2.10052C17.0037 2.10061 18.5201 3.60053 18.5201 5.45387Z" fill="#274247"/>
<path d="M12.6172 33.648C12.6172 34.7031 13.51 35.5513 14.5815 35.4921C15.5537 35.4428 16.2878 34.6045 16.3374 33.648V33.1647H12.6172V33.648Z" fill="white"/>
<path d="M1.01964 32.5336C0.394637 33.3521 0.563288 34.5059 1.37678 35.1272C2.2002 35.7485 3.37084 35.5808 3.99584 34.7722" fill="white"/>
<path d="M1.01978 32.5336L3.99598 34.7722L4.33328 34.3382L1.367 32.0701L1.01978 32.5336Z" fill="white"/>
<path d="M20.9404 18.5201C21.7539 18.5201 22.4186 17.8693 22.4186 17.0507C22.4186 16.2322 21.7539 15.5814 20.9404 15.5814" fill="white"/>
<path d="M20.9404 15.5913V18.5202H20.365V15.5715L20.9404 15.5913Z" fill="white"/>
<path d="M1.42654 19.9994L4.0456 20.9757C4.9583 21.311 5.98013 20.8574 6.31743 19.9501L9.77974 10.8084C10.127 9.90109 9.6607 8.8952 8.74799 8.5599L6.12894 7.5836C5.21624 7.2483 4.19441 7.70194 3.85711 8.60921L3.08329 10.6506L0.394793 17.751C0.0475692 18.6582 0.513841 19.6641 1.42654 19.9994Z" fill="white"/>
<path d="M3.1457 9.09472C3.72816 7.57084 5.44042 6.78918 6.98802 7.36893H6.98899L8.24845 7.84179L8.39086 7.89957C9.84065 8.52732 10.5497 10.1719 9.99619 11.6507V11.6526L7.03936 19.4533V19.4543C6.457 20.9783 4.74374 21.7607 3.19607 21.181H3.1951L1.93565 20.7072C0.390515 20.128 -0.383461 18.4247 0.187903 16.8983L0.188871 16.8964L3.14473 9.09568L3.1457 9.09472ZM6.63827 8.29153C5.60666 7.90506 4.46267 8.42511 4.07285 9.44527L4.07188 9.4443L1.117 17.2412L1.11797 17.2421C0.736988 18.2599 1.25234 19.3972 2.28636 19.7846L3.54485 20.2574C4.57638 20.6439 5.72129 20.1247 6.11124 19.1047L9.06709 11.3049C9.44662 10.2878 8.93172 9.15271 7.8987 8.76535L7.89773 8.76439L6.63827 8.29153Z" fill="#274247"/>
<path d="M2.61802 10.4782C2.71385 10.2232 2.9999 10.0932 3.25647 10.1883L9.17883 12.3879C9.43547 12.4832 9.56631 12.7675 9.47045 13.0226C9.3745 13.2775 9.08855 13.4068 8.832 13.3115L2.90963 11.1129C2.65308 11.0176 2.52234 10.7332 2.61802 10.4782Z" fill="#274247"/>
<path d="M11.5175 13.3149C11.7413 13.1579 12.0513 13.2108 12.2092 13.4333L14.8938 17.2152C15.2686 17.7305 15.8649 18.0367 16.4962 18.0367H20.9305C21.4722 18.0367 21.9129 17.6042 21.9129 17.0602C21.9126 16.5164 21.4721 16.0846 20.9305 16.0846H18.3312C17.7793 16.0846 17.2482 15.8236 16.9235 15.3614V15.3623L13.9376 11.1519V11.1509C13.5477 10.6039 12.9711 10.2244 12.3429 10.1541C12.3319 10.1529 12.3209 10.1513 12.31 10.1493C12.2513 10.1387 12.1953 10.1378 12.0813 10.1378C11.3184 10.1378 10.6369 10.4966 10.2009 11.0527C10.0324 11.2673 9.72033 11.3058 9.5043 11.1384C9.28824 10.971 9.24967 10.6607 9.41808 10.446C10.0336 9.66089 10.9991 9.15161 12.0813 9.15161C12.1781 9.15161 12.3075 9.15366 12.4534 9.17665L12.4543 9.17472C13.3529 9.27526 14.1233 9.77929 14.6468 10.4469L14.7485 10.5827V10.5837L17.7344 14.7941L17.7363 14.7961C17.868 14.9838 18.09 15.0984 18.3312 15.0985H20.9305C22.0156 15.0985 22.9047 15.9674 22.905 17.0602C22.905 18.1532 22.0158 19.0229 20.9305 19.0229H16.4962C15.5403 19.0229 14.6474 18.5598 14.0897 17.7931L14.0868 17.7892V17.7883L11.3983 14.0015C11.2406 13.7791 11.2938 13.4719 11.5175 13.3149Z" fill="#274247"/>
<path d="M15.8409 33.5498V27.3362C15.8409 26.855 15.6673 26.4023 15.3459 26.0515L15.343 26.0486L11.9608 22.311L11.9589 22.31C11.2685 21.5409 11.0278 20.4608 11.3514 19.4719L12.6603 15.4203C12.7442 15.1613 13.0235 15.0193 13.2842 15.1025C13.5451 15.1858 13.6887 15.4635 13.6049 15.7227L12.2951 19.7753V19.7772C12.0831 20.4249 12.2385 21.1394 12.6981 21.6522L16.0812 25.3898H16.0802C16.5706 25.926 16.8329 26.6156 16.833 27.3362V33.5498C16.8328 34.7807 15.9081 35.9278 14.5979 35.993L14.5989 35.994C13.2309 36.0689 12.111 34.9934 12.111 33.6576V29.6937C12.111 29.2391 11.9445 28.7911 11.646 28.4475C11.6421 28.4431 11.6381 28.4387 11.6343 28.4341L5.6519 21.008C5.48072 20.7954 5.51559 20.4848 5.7294 20.3146C5.94324 20.1444 6.25573 20.1791 6.42695 20.3916L12.4084 27.8167H12.4074C12.8558 28.3392 13.1031 29.0101 13.1031 29.6937V33.6576C13.1031 34.3837 13.6708 34.9744 14.3964 35.0098H14.5466C15.2586 34.9751 15.8407 34.3295 15.8409 33.5498Z" fill="#274247"/>
<path d="M5.93366 20.3446C6.20745 20.3465 6.4284 20.5685 6.42679 20.8406L6.39675 25.1801V25.1859C6.38498 25.7944 6.19508 26.3874 5.82322 26.8885L1.42867 32.8258L1.42479 32.8315C0.965367 33.4332 1.08136 34.2779 1.68637 34.7345C2.29209 35.1916 3.15148 35.0752 3.61044 34.4745V34.4735L8.68025 27.8468L8.68219 27.8449C8.73692 27.7741 8.77796 27.6884 8.80232 27.5916L9.3778 25.3034C9.44442 25.0394 9.7138 24.8791 9.97943 24.9451C10.2451 25.0113 10.4063 25.279 10.3398 25.5432L9.76436 27.8304C9.70955 28.0483 9.61168 28.2577 9.46887 28.4429L9.46984 28.4439L4.40099 35.0706C3.60989 36.1065 2.12763 36.3057 1.08668 35.5204C0.0449572 34.7344 -0.156281 33.2707 0.634241 32.2354L5.02491 26.3049V26.304C5.26777 25.9769 5.39658 25.5844 5.40469 25.1676L5.43472 20.8348C5.43659 20.5625 5.65974 20.3428 5.93366 20.3446Z" fill="#274247"/>
</g>
<defs>
<clipPath id="clip0_8826_1428">
<rect width="36" height="36" fill="white"/>
</clipPath>
</defs>
</svg>
