<svg width="36" height="36" viewBox="0 0 36 36" fill="none" xmlns="http://www.w3.org/2000/svg">
<g clip-path="url(#clip0_8826_1719)">
<path d="M19.2831 17.0819C18.4173 17.4224 17.4638 17.4126 16.5979 17.0819L6.78125 13.2011V16.829C6.78125 19.1342 11.7625 21.0017 17.9016 21.0017C24.0407 21.0017 29.022 19.1342 29.022 16.829V13.2984L19.2831 17.0917V17.0819Z" fill="#274247"/>
<path d="M28.5357 14.0085L19.4594 17.5447C19.4313 17.5556 19.402 17.5611 19.3729 17.5666C18.4131 17.9189 17.3692 17.8972 16.4238 17.5362L16.419 17.5343L7.26759 13.9154V16.8295C7.26775 17.2167 7.47538 17.6439 7.97827 18.0899C8.48081 18.5356 9.23574 18.9592 10.2101 19.3247C12.1553 20.0544 14.8748 20.5148 17.9012 20.5149C20.9278 20.5149 23.648 20.0544 25.5933 19.3247C26.5676 18.9592 27.3225 18.5356 27.8251 18.0899C28.3279 17.6439 28.5356 17.2167 28.5357 16.8295V14.0085ZM29.5086 16.8295C29.5085 17.5945 29.0928 18.2653 28.4702 18.8175C27.8469 19.3702 26.9725 19.8452 25.9343 20.2347C23.8542 21.0149 21.0136 21.4875 17.9012 21.4875C14.7888 21.4875 11.9481 21.0149 9.86803 20.2347C8.8299 19.8452 7.95542 19.3702 7.33219 18.8175C6.70962 18.2653 6.29484 17.5944 6.29468 16.8295V13.2011L6.29848 13.1413C6.31556 13.0034 6.39111 12.8785 6.5075 12.7993C6.64065 12.7088 6.81001 12.6898 6.95975 12.749L16.7706 16.6272C17.5281 16.9165 18.3568 16.9232 19.105 16.6291C19.1296 16.6194 19.1555 16.6146 19.181 16.6091L28.8455 12.8449C28.9951 12.7867 29.1642 12.8066 29.2968 12.8971C29.4291 12.9877 29.5085 13.1377 29.5086 13.298V16.8295Z" fill="#274247"/>
<path d="M19.283 15.1561L34.7328 9.13551C35.7738 8.727 35.7738 7.25832 34.7328 6.84981L19.2927 0.741646C18.4268 0.401222 17.4539 0.401222 16.588 0.741646L1.26467 6.80118C0.23339 7.20969 0.23339 8.67837 1.26467 9.08688L16.5977 15.1464C17.4636 15.4868 18.4171 15.4868 19.283 15.1464V15.1561Z" fill="#274247"/>
<path d="M16.4101 0.288776C17.3289 -0.0723785 18.3531 -0.0946859 19.2851 0.221338L19.4704 0.288776L19.4713 0.289726L34.9115 6.39721H34.9105C36.3629 6.96736 36.3631 9.01865 34.9105 9.58867H34.9096L19.4599 15.6097C19.4323 15.6205 19.403 15.6251 19.3744 15.6306C18.4172 15.983 17.3713 15.9734 16.4196 15.5993L16.4186 15.5983L1.08578 9.53928H1.08483C-0.355745 8.96837 -0.355754 6.91967 1.08483 6.34876H1.08578L16.4091 0.289726L16.4101 0.288776ZM19.1131 1.19303C18.3621 0.898214 17.5163 0.897809 16.7654 1.19303L16.7663 1.19398L1.44397 7.25301C0.822366 7.49924 0.822366 8.38881 1.44397 8.63503H1.44302L16.7768 14.6941H16.7758C17.5272 14.9894 18.3533 14.9894 19.1046 14.6941C19.127 14.6853 19.1508 14.6814 19.1739 14.676L34.5552 8.68253L34.6654 8.62933C35.1817 8.32761 35.145 7.5341 34.5552 7.30241H34.5533L19.1131 1.19398V1.19303Z" fill="#274247"/>
<path d="M32.2132 16.5083V10.3514L17.9379 8.56761C17.6715 8.53406 17.4827 8.29066 17.516 8.0243C17.5496 7.75801 17.793 7.56925 18.0595 7.60257L32.7595 9.44051C33.0028 9.47094 33.186 9.67793 33.1861 9.92303V16.5083C33.1861 16.7767 32.9681 16.9944 32.6997 16.9946C32.4311 16.9946 32.2133 16.7768 32.2132 16.5083Z" fill="#274247"/>
<path d="M31.4541 17.578C31.4541 16.9944 32.0086 16.5081 32.6897 16.5081C33.3707 16.5081 33.9253 16.9846 33.9253 17.578V20.1263C33.9253 20.4181 33.3707 20.6612 32.6799 20.6612C31.9892 20.6612 31.4443 20.4278 31.4443 20.1263V17.578H31.4541Z" fill="white"/>
<path d="M33.4385 17.5776C33.4382 17.3172 33.1709 16.9945 32.6898 16.9944C32.2116 16.9944 31.9404 17.3242 31.9402 17.5776C31.9402 17.6113 31.9372 17.6446 31.9307 17.6764V20.0263C31.9476 20.0362 31.9691 20.0487 31.9962 20.0605C32.143 20.1237 32.3824 20.1744 32.6794 20.1744C32.974 20.1744 33.2171 20.1219 33.3682 20.0567C33.3984 20.0436 33.4213 20.0307 33.4385 20.0206V17.5776ZM34.4114 20.126C34.4114 20.3636 34.2971 20.5497 34.1748 20.6741C34.0543 20.7966 33.9034 20.8853 33.7549 20.9495C33.4559 21.0787 33.0754 21.1471 32.6794 21.1471C32.2864 21.147 31.9087 21.0819 31.6105 20.9533C31.3588 20.8447 30.9578 20.5932 30.9578 20.126V17.5776C30.9578 17.5361 30.9651 17.4963 30.9749 17.4579C31.0446 16.6085 31.8455 16.0217 32.6898 16.0217C33.5702 16.0219 34.4112 16.6517 34.4114 17.5776V20.126Z" fill="#274247"/>
<path d="M34.3729 33.4321H33.5848L34.0226 33.2181C33.5167 32.2065 33.2443 31.0296 33.2443 29.8139C33.2443 28.5981 33.507 27.4212 34.0226 26.4096L33.5848 26.1956H34.3729C34.9469 26.1956 35.4139 25.7288 35.4139 25.1549C35.4139 24.5811 34.9469 24.1142 34.3729 24.1142H6.08065C2.92842 24.1142 0.379395 26.6722 0.379395 29.8139C0.379395 32.9555 2.92842 35.5135 6.08065 35.5135H34.3729C34.9469 35.5135 35.4139 35.0466 35.4139 34.4728C35.4139 33.8989 34.9469 33.4321 34.3729 33.4321Z" fill="white"/>
<path d="M35.0247 25.1357C35.0247 24.8641 34.8273 24.6373 34.5687 24.5905C34.5397 24.5959 34.5104 24.6 34.4803 24.6H6.18805C3.30506 24.6 0.972971 26.9402 0.97291 29.8137C0.97291 32.6873 3.30502 35.0274 6.18805 35.0274H34.4699C34.7752 35.0274 35.0247 34.778 35.0247 34.4727C35.0247 34.1674 34.7752 33.918 34.4699 33.918H6.14909C3.87628 33.918 2.03329 32.0764 2.03323 29.8042C2.03323 27.532 3.87624 25.6895 6.14909 25.6895H34.4699C34.7751 25.6895 35.0246 25.4409 35.0247 25.1357ZM35.9977 25.1357C35.9975 25.978 35.3125 26.6621 34.4699 26.6621H6.14909C4.41356 26.6621 3.00614 28.0692 3.00614 29.8042C3.0062 31.5392 4.4136 32.9453 6.14909 32.9453H34.4699C35.3125 32.9453 35.9976 33.6303 35.9977 34.4727C35.9977 35.3151 35.3126 36 34.4699 36H6.18805C2.76662 36 0 33.2234 0 29.8137C6.12082e-05 26.4041 2.76666 23.6274 6.18805 23.6274H34.3388C34.381 23.6155 34.4249 23.6084 34.4699 23.6084C35.3126 23.6084 35.9977 24.2933 35.9977 25.1357Z" fill="#274247"/>
<path d="M32.3684 29.8046C32.3684 28.3904 32.6858 27.0691 33.2473 25.9568C33.3683 25.7171 33.6611 25.6212 33.9009 25.7421C34.1408 25.8631 34.2367 26.1558 34.1157 26.3956C33.6265 27.3647 33.3413 28.5345 33.3413 29.8046C33.3414 31.0737 33.6263 32.234 34.1166 33.2145C34.2368 33.4548 34.1393 33.747 33.899 33.8671C33.6588 33.987 33.3664 33.8897 33.2463 33.6496C32.6861 32.5295 32.3685 31.2195 32.3684 29.8046Z" fill="#274247"/>
<path d="M32.8553 29.3178C33.1238 29.318 33.3418 29.5356 33.3418 29.8041C33.3418 30.0726 33.1238 30.2903 32.8553 30.2904H8.7074C8.43874 30.2904 8.22095 30.0727 8.22095 29.8041C8.22095 29.5355 8.43874 29.3178 8.7074 29.3178H32.8553Z" fill="#274247"/>
</g>
<defs>
<clipPath id="clip0_8826_1719">
<rect width="36" height="36" fill="white"/>
</clipPath>
</defs>
</svg>
