<svg width="36" height="36" viewBox="0 0 36 36" fill="none" xmlns="http://www.w3.org/2000/svg">
<g clip-path="url(#clip0_8826_1773)">
<path d="M33.3149 20.9578H2.67578V35.5135H33.3149V20.9578Z" fill="#274247"/>
<path d="M33.315 20.4713L33.4129 20.4808C33.6346 20.5262 33.8015 20.7227 33.8015 20.9578V35.5135C33.8015 35.7821 33.5836 35.9999 33.315 36H2.6757C2.40702 36 2.18921 35.7822 2.18921 35.5135V20.9578C2.18921 20.6891 2.40702 20.4713 2.6757 20.4713H33.315ZM3.16219 35.027H32.8286V21.4443H3.16219V35.027Z" fill="#274247"/>
<path d="M33.3246 18.9048H35.5138V15.0129H0.486572V18.9048H2.67578H33.3246Z" fill="#274247"/>
<path d="M35.5137 14.5264C35.7824 14.5264 36.0002 14.7442 36.0002 15.0129V18.9048C36.0002 19.1735 35.7824 19.3913 35.5137 19.3913H0.48649C0.217809 19.3913 0 19.1735 0 18.9048V15.0129C0 14.7442 0.217809 14.5264 0.48649 14.5264H35.5137ZM0.972979 18.4183H35.0273V15.4993H0.972979V18.4183Z" fill="#274247"/>
<path d="M30.0749 8.70801H5.92553L0.486572 15.0129H35.5138L30.0749 8.70801Z" fill="white"/>
<path d="M30.0749 8.2215L30.1795 8.2329C30.2811 8.2553 30.3744 8.31039 30.4436 8.39063L35.8824 14.695C36.0066 14.8391 36.0348 15.0428 35.9556 15.2157C35.8763 15.3885 35.7039 15.4998 35.5137 15.4998H0.486486C0.296363 15.4998 0.123967 15.3885 0.0446549 15.2157C-0.0345569 15.0428 -0.0063881 14.8391 0.117818 14.695L5.55662 8.39063C5.649 8.28354 5.78386 8.22154 5.92529 8.2215H30.0749ZM1.54878 14.5269H34.4515L29.8526 9.19448H6.14763L1.54878 14.5269Z" fill="#274247"/>
<path d="M14.0303 11.7923L11.1794 8.76638L20.2282 0.486328L26.4941 7.13178L21.3957 11.7923H14.0303Z" fill="white"/>
<path d="M19.9783 0.0691553C20.1704 -0.0462397 20.4231 -0.0164553 20.5826 0.152771L26.8481 6.7983C26.9375 6.89312 26.985 7.01964 26.9802 7.14986C26.9753 7.28006 26.9186 7.40306 26.8224 7.49097L21.7238 12.1516C21.6342 12.2334 21.5173 12.2789 21.396 12.2789H14.0302C13.8964 12.2788 13.7686 12.2233 13.6768 12.1259L10.8253 9.09962C10.7362 9.00485 10.6884 8.87807 10.6932 8.74805C10.6981 8.61817 10.7552 8.49574 10.8509 8.40789L19.9004 0.127116L19.9783 0.0691553ZM11.8724 8.79176L14.2402 11.3059H21.2078L25.801 7.1052L20.2035 1.16851L11.8724 8.79176Z" fill="#274247"/>
<path d="M25.7552 11.3058L25.8531 11.3153C26.0747 11.3608 26.2417 11.5573 26.2417 11.7923C26.2417 12.0274 26.0747 12.2239 25.8531 12.2693L25.7552 12.2788H10.2455C9.97684 12.2788 9.75903 12.061 9.75903 11.7923C9.75903 11.5237 9.97684 11.3058 10.2455 11.3058H25.7552Z" fill="#274247"/>
</g>
<defs>
<clipPath id="clip0_8826_1773">
<rect width="36" height="36" fill="white"/>
</clipPath>
</defs>
</svg>
