<svg width="36" height="36" viewBox="0 0 36 36" fill="none" xmlns="http://www.w3.org/2000/svg">
<g clip-path="url(#clip0_8826_1307)">
<path d="M32.5947 2.98706H3.40549C1.79342 2.98706 0.486572 4.29391 0.486572 5.90598V32.5946C0.486572 34.2067 1.79342 35.5135 3.40549 35.5135H32.5947C34.2068 35.5135 35.5136 34.2067 35.5136 32.5946V5.90598C35.5136 4.29391 34.2068 2.98706 32.5947 2.98706Z" fill="#274247"/>
<path d="M35.027 5.90595C35.027 4.56256 33.938 3.47352 32.5946 3.47352H3.40541C2.06201 3.47352 0.972973 4.56256 0.972973 5.90595V32.5943L0.985325 32.8432C1.10985 34.0699 2.14594 35.0267 3.40541 35.0267H32.5946C33.938 35.0267 35.027 33.9377 35.027 32.5943V5.90595ZM36 32.5943C36 34.4751 34.4753 35.9997 32.5946 35.9997H3.40541C1.58351 35.9997 0.0960838 34.5693 0.00475084 32.7701L0 32.5943V5.90595C1.25371e-07 4.0252 1.52465 2.50055 3.40541 2.50055H32.5946C34.4753 2.50055 36 4.0252 36 5.90595V32.5943Z" fill="#274247"/>
<path d="M3.40549 2.98706H32.5947C34.2098 2.98706 35.5136 4.29084 35.5136 5.90598V7.99787H0.486572V5.90598C0.486572 4.29084 1.79036 2.98706 3.40549 2.98706Z" fill="white"/>
<path d="M35.027 5.90595C35.027 4.5595 33.9411 3.47352 32.5946 3.47352H3.40541C2.05895 3.47352 0.972973 4.5595 0.972973 5.90595V7.51174H35.027V5.90595ZM36 7.99823C35.9998 8.26673 35.7821 8.48471 35.5135 8.48471H0.486486C0.217934 8.48471 0.000204988 8.26673 0 7.99823V5.90595C1.24916e-07 4.02214 1.52159 2.50055 3.40541 2.50055H32.5946C34.4784 2.50055 36 4.02214 36 5.90595V7.99823Z" fill="#274247"/>
<path d="M6.32413 0.486511H12.0258C12.4831 0.486511 12.8528 0.856241 12.8528 1.31354V2.98705H5.50684V1.31354C5.50684 0.856241 5.87657 0.486511 6.33386 0.486511H6.32413Z" fill="#274247"/>
<path d="M12.3663 1.31313C12.3661 1.12476 12.2145 0.973075 12.0261 0.972973H6.33364C6.14533 0.973177 5.99368 1.12482 5.99348 1.31313V2.50084H12.3663V1.31313ZM13.3392 2.98733C13.3391 3.25587 13.1213 3.47382 12.8527 3.47382H5.50699C5.23842 3.47382 5.02067 3.25587 5.02051 2.98733V1.31313C5.02071 0.59413 5.59724 0.0127614 6.31369 0.00190034C6.31718 0.00182548 6.32063 1.07307e-06 6.32414 0H12.0261C12.7519 0.000102602 13.339 0.587395 13.3392 1.31313V2.98733Z" fill="#274247"/>
<path d="M23.9838 0.486511H29.6854C30.1427 0.486511 30.5125 0.856241 30.5125 1.31354V2.98705H23.1665V1.31354C23.1665 0.856241 23.5362 0.486511 23.9935 0.486511H23.9838Z" fill="#274247"/>
<path d="M30.0259 1.31313C30.0257 1.12475 29.8742 0.973074 29.6858 0.972973H23.9933C23.805 0.973177 23.6534 1.12482 23.6531 1.31313V2.50084H30.0259V1.31313ZM30.9989 2.98733C30.9987 3.25587 30.781 3.47382 30.5124 3.47382H23.1667C22.8981 3.47382 22.6803 3.25587 22.6802 2.98733V1.31313C22.6804 0.59413 23.2569 0.0127614 23.9734 0.00190034C23.9768 0.00182548 23.9803 1.07307e-06 23.9838 0H29.6858C30.4115 0.000102101 30.9987 0.587395 30.9989 1.31313V2.98733Z" fill="#274247"/>
<path d="M32.5945 35.5135L3.40532 35.5135C1.79018 35.5135 0.486401 34.2097 0.486401 32.5946V30.5027L35.5134 30.5027V32.5946C35.5134 34.2097 34.2096 35.5135 32.5945 35.5135Z" fill="white"/>
<path d="M0.972973 32.5946C0.972973 33.9411 2.05895 35.027 3.4054 35.027L32.5946 35.027C33.9411 35.027 35.027 33.9411 35.027 32.5946V30.9888L0.972973 30.9888V32.5946ZM0 30.5023C0.000205994 30.2338 0.217934 30.0158 0.486485 30.0158L35.5135 30.0158C35.7821 30.0158 35.9998 30.2338 36 30.5023V32.5946C36 34.4784 34.4784 36 32.5946 36L3.4054 36C1.52159 36 0 34.4784 0 32.5946V30.5023Z" fill="#274247"/>
<path d="M19.9557 11.3935L13.7287 20.4713C13.6801 20.5394 13.7287 20.627 13.8065 20.627H17.2509C17.319 20.627 17.3579 20.6854 17.3482 20.7438L15.7817 27.0584C15.7525 27.1654 15.8984 27.2238 15.9568 27.1362L22.2811 17.9805C22.3298 17.9124 22.2811 17.8248 22.2033 17.8248H18.506C18.4379 17.8248 18.399 17.7665 18.4087 17.6984L20.1309 11.4616C20.1601 11.3546 20.0141 11.2865 19.9557 11.3838V11.3935Z" fill="white"/>
</g>
<defs>
<clipPath id="clip0_8826_1307">
<rect width="36" height="36" fill="white"/>
</clipPath>
</defs>
</svg>
