<svg width="36" height="36" viewBox="0 0 36 36" fill="none" xmlns="http://www.w3.org/2000/svg">
<g clip-path="url(#clip0_8826_1252)">
<path d="M35.5136 4.933V25.0443H17.2217V0.486511H31.0574C31.3103 0.486511 31.5633 0.593538 31.7482 0.768673L35.2217 4.24219C35.4065 4.42705 35.5038 4.6703 35.5038 4.933H35.5136Z" fill="white"/>
<path d="M31.057 0L31.2014 0.00760135C31.4865 0.036981 31.7571 0.151567 31.9768 0.324008L32.0822 0.415224L35.5656 3.89854C35.8169 4.14996 35.9585 4.47328 35.9846 4.81736C35.9937 4.85452 35.9998 4.89331 35.9998 4.93328V25.0446C35.9997 25.3131 35.7819 25.531 35.5133 25.531H17.2216C16.953 25.531 16.7352 25.3131 16.7351 25.0446V0.486486C16.7351 0.217807 16.9529 0 17.2216 0H31.057ZM17.7081 24.5581H35.0268V5.03114C35.0203 4.99955 35.0173 4.96677 35.0173 4.93328C35.0173 4.79486 34.9678 4.67672 34.8776 4.58647L31.4133 1.12215L31.3326 1.05849C31.2749 1.02147 31.2117 0.995477 31.1492 0.982475L31.057 0.972973H17.7081V24.5581Z" fill="#274247"/>
<path d="M32.2054 9.55457C32.4741 9.55457 32.6919 9.77237 32.6919 10.0411C32.6919 10.3097 32.4741 10.5275 32.2054 10.5275H20.5297C20.261 10.5275 20.0432 10.3097 20.0432 10.0411C20.0432 9.77237 20.261 9.55457 20.5297 9.55457H32.2054Z" fill="#274247"/>
<path d="M32.2054 13.3297C32.4741 13.3297 32.6919 13.5475 32.6919 13.8162C32.6919 14.0849 32.4741 14.3027 32.2054 14.3027H20.5297C20.261 14.3027 20.0432 14.0849 20.0432 13.8162C20.0432 13.5475 20.261 13.3297 20.5297 13.3297H32.2054Z" fill="#274247"/>
<path d="M32.2054 17.1146C32.4741 17.1146 32.6919 17.3324 32.6919 17.601C32.6919 17.8697 32.4741 18.0875 32.2054 18.0875H20.5297C20.261 18.0875 20.0432 17.8697 20.0432 17.601C20.0432 17.3324 20.261 17.1146 20.5297 17.1146H32.2054Z" fill="#274247"/>
<path d="M35.0464 4.52431H31.5631C31.5047 4.52431 31.4658 4.48539 31.4658 4.42702V0.953503C31.4658 0.778368 31.6799 0.6908 31.7966 0.817286L35.1826 4.1935C35.3091 4.31999 35.2215 4.52431 35.0464 4.52431Z" fill="#274247"/>
<path d="M30.9795 0.953193C30.9798 0.371943 31.6997 0.0224029 32.1387 0.474308L32.1406 0.472408L35.5261 3.84931H35.527C35.964 4.28632 35.649 5.01041 35.0462 5.01041H31.5629C31.4233 5.01033 31.2691 4.96172 31.1486 4.84128C31.0282 4.72077 30.9795 4.56667 30.9795 4.42701V0.953193ZM31.9525 4.03744H34.3374L31.9525 1.65917V4.03744Z" fill="#274247"/>
<path d="M21.892 7.52112H0.486572V35.5136H21.892V7.52112Z" fill="#274247"/>
<path d="M21.8919 7.03461C22.1606 7.03461 22.3784 7.25241 22.3784 7.52109V35.5131C22.3784 35.7817 22.1606 35.9996 21.8919 35.9996H0.486486C0.217807 35.9996 0 35.7817 0 35.5131V7.52109C0 7.25241 0.217807 7.03461 0.486486 7.03461H21.8919ZM0.972973 35.0266H21.4054V8.00758H0.972973V35.0266Z" fill="#274247"/>
<path d="M14.6919 25.3946H7.68652V35.4162H14.6919V25.3946Z" fill="white"/>
<path d="M7.29741 16.9687H3.40552V20.8509H7.29741V16.9687Z" fill="white"/>
<path d="M7.29741 11.1406H3.40552V15.0227H7.29741V11.1406Z" fill="white"/>
<path d="M13.1353 16.9687H9.24341V20.8509H13.1353V16.9687Z" fill="white"/>
<path d="M13.1353 11.1406H9.24341V15.0227H13.1353V11.1406Z" fill="white"/>
<path d="M18.9732 16.9687H15.0813V20.8509H18.9732V16.9687Z" fill="white"/>
<path d="M18.9732 11.1406H15.0813V15.0227H18.9732V11.1406Z" fill="white"/>
<path d="M20.9677 34.9006V35.8735H1.02173V34.9006H20.9677Z" fill="#274247"/>
</g>
<defs>
<clipPath id="clip0_8826_1252">
<rect width="36" height="36" fill="white"/>
</clipPath>
</defs>
</svg>
