<svg width="36" height="36" viewBox="0 0 36 36" fill="none" xmlns="http://www.w3.org/2000/svg">
<g clip-path="url(#clip0_8826_1745)">
<path d="M20.5394 30.4624C28.8093 30.4624 35.5133 23.7521 35.5133 15.4745C35.5133 7.19694 28.8093 0.486633 20.5394 0.486633C12.2695 0.486633 5.56543 7.19694 5.56543 15.4745C5.56543 23.7521 12.2695 30.4624 20.5394 30.4624Z" fill="white"/>
<path d="M35.027 15.4749C35.027 7.46576 28.5399 0.973239 20.539 0.973239C12.5382 0.973425 6.05182 7.46588 6.05182 15.4749C6.05203 23.4837 12.5383 29.9754 20.539 29.9756C28.5397 29.9756 35.0268 23.4838 35.027 15.4749ZM36 15.4749C35.9998 24.0208 29.0777 30.9488 20.539 30.9488C12.0004 30.9486 5.07906 24.0206 5.07886 15.4749C5.07886 6.92897 12.0002 0.000185712 20.539 0C29.0778 0 36 6.92885 36 15.4749Z" fill="#274247"/>
<path d="M7.31665 12.4088C7.33611 12.3212 7.35557 12.2336 7.37503 12.1558C7.35557 12.2434 7.33611 12.3212 7.31665 12.4088Z" fill="#274247"/>
<path d="M7.14136 13.3334C7.16082 13.1874 7.19001 13.0414 7.21919 12.8954C7.19001 13.0414 7.17055 13.1874 7.14136 13.3334Z" fill="#274247"/>
<path d="M33.1975 10.5596C33.2364 10.657 33.2753 10.7543 33.3045 10.8516C33.2656 10.7543 33.2364 10.657 33.1975 10.5596Z" fill="#274247"/>
<path d="M34.103 15.7664C34.103 15.9124 34.093 16.0681 34.083 16.2141C34.083 16.0681 34.103 15.9124 34.103 15.7664Z" fill="#274247"/>
<path d="M34.1023 15.601C34.1218 14.0438 33.8785 12.5159 33.3823 11.0657C33.8591 12.4964 34.112 14.0244 34.1023 15.601Z" fill="#274247"/>
<path d="M25.55 7.53286C25.7348 7.39661 25.8127 7.68858 25.8613 7.90269C25.91 8.11681 26.0754 8.22386 26.231 8.70075C26.3867 9.17764 26.6786 9.07058 26.6008 9.31389C26.5229 9.5572 26.3867 9.78105 26.1824 9.81998C25.9586 9.8589 25.657 10.0146 25.55 10.0341C25.3067 10.073 25.657 9.11924 25.5986 8.65209C25.5402 8.1752 25.4429 8.22386 25.1802 8.09734C24.9175 7.96109 25.3651 7.66912 25.55 7.54259V7.53286ZM16.55 5.96595C16.336 5.73237 16.443 6.35524 16.2873 6.51096C16.1316 6.66668 16.0733 6.69588 15.7814 7.0949C15.4797 7.49393 15.5576 6.88079 15.3241 6.72507C15.0906 6.56936 15.0127 6.69588 14.7889 6.72507C14.5652 6.75427 14.8279 6.4331 14.9543 6.20926C15.0808 5.98541 15.2462 5.84916 15.4506 5.92702C15.6549 6.00488 15.6549 5.23602 15.4506 5.34307C15.2365 5.45013 15.3727 5.04137 15.2949 4.87592C15.217 4.71047 14.8473 4.56448 14.7208 4.87592C14.5846 5.18736 14.2246 4.93431 13.9619 5.04137C13.5144 5.22628 13.8841 4.85645 13.6214 4.76886C13.3587 4.68127 13.8549 4.35037 14.1468 4.06813C14.4387 3.78589 14.5165 3.79562 14.7208 3.87348C14.9252 3.95134 15.217 3.71776 15.5089 3.63017C15.8008 3.55231 15.8787 3.65937 15.8981 4.19465C15.9273 4.72993 16.083 4.35037 16.443 4.42823C16.8127 4.50609 16.5792 4.82726 16.7835 5.19709C16.9976 5.56692 17.0462 5.4404 17.0462 5.69344C17.0462 5.94648 16.7543 6.18006 16.55 5.95621V5.96595ZM24.8883 8.51583C24.8883 8.80781 25.1024 9.26523 24.8883 9.31389C24.6743 9.36255 24.6354 9.68372 24.3921 9.66426C24.217 9.64479 24.1002 9.5864 24.2073 9.26523C24.3143 8.94406 24.0516 8.78834 24.3921 8.65209C24.7327 8.51583 24.8883 8.22386 24.8883 8.51583ZM23.2538 6.73481C23.1078 6.54016 22.164 6.14113 22.4365 5.93675C22.6019 5.81996 22.2808 5.4112 22.8646 5.43067C23.4581 5.45986 24.0029 5.69344 24.0419 5.35281C24.0808 5.01217 24.6256 5.81023 24.3143 5.93675C24.0029 6.05354 23.39 6.93919 23.244 6.73481H23.2538Z" fill="#274247"/>
<path d="M24.3241 5.93673C24.6355 5.81994 24.0906 5.02188 24.0517 5.35278C24.0128 5.69342 23.4582 5.45011 22.8744 5.43064C22.2906 5.40145 22.602 5.81994 22.4463 5.93673C22.1739 6.14111 23.1176 6.54014 23.2636 6.73478C23.4095 6.93916 24.0225 6.05352 24.3339 5.93673H24.3241Z" fill="#274247"/>
<path d="M25.19 8.08761C25.4527 8.22386 25.55 8.16547 25.6084 8.64236C25.657 9.10951 25.3068 10.0633 25.5597 10.0244C25.6668 10.0049 25.9586 9.84917 26.1922 9.81024C26.3965 9.77131 26.5327 9.54747 26.6105 9.30416C26.6884 9.06085 26.4062 9.1679 26.2408 8.69102C26.0851 8.21413 25.9295 8.10707 25.8711 7.89296C25.8224 7.67885 25.7446 7.38688 25.5597 7.52313C25.3749 7.65938 24.9273 7.95136 25.19 8.07788V8.08761Z" fill="#274247"/>
<path d="M16.443 4.4477C16.0733 4.36984 15.9176 4.7494 15.8981 4.21412C15.8689 3.67884 15.7911 3.57178 15.5089 3.64964C15.217 3.7275 14.9349 3.97081 14.7208 3.89295C14.5068 3.81509 14.4289 3.80536 14.1468 4.0876C13.8549 4.36984 13.3587 4.70074 13.6214 4.78833C13.8841 4.87592 13.5144 5.24575 13.9619 5.06084C14.2246 4.95378 14.5943 5.20683 14.7208 4.89539C14.8473 4.58395 15.217 4.72994 15.2949 4.89539C15.3727 5.06084 15.2462 5.4696 15.4506 5.36254C15.6549 5.24575 15.6549 6.02435 15.4506 5.94649C15.2365 5.86863 15.0808 5.99515 14.9543 6.22873C14.8279 6.45257 14.5652 6.77374 14.7889 6.74454C15.0127 6.71535 15.0906 6.58883 15.3241 6.74454C15.5576 6.90026 15.4895 7.5134 15.7814 7.11437C16.083 6.71535 16.1316 6.68615 16.2873 6.53043C16.443 6.37471 16.336 5.75184 16.55 5.98542C16.7641 6.21899 17.0462 5.98542 17.0462 5.72264C17.0462 5.45987 16.9976 5.59612 16.7835 5.22629C16.5695 4.85646 16.8127 4.53529 16.443 4.45743V4.4477Z" fill="#274247"/>
<path d="M24.2074 9.25547C24.1003 9.57664 24.2074 9.63504 24.3922 9.6545C24.6355 9.6837 24.6841 9.36253 24.8884 9.30414C25.1025 9.25547 24.8884 8.79805 24.8884 8.50608C24.8884 8.21411 24.7328 8.50608 24.3922 8.64233C24.0517 8.77859 24.3144 8.93431 24.2074 9.25547Z" fill="#274247"/>
<path d="M16.2679 28.0877C16.5793 28.2045 16.9393 27.7276 16.735 27.6108C16.5404 27.494 16.4139 27.1728 16.7933 27.2896C17.1631 27.4064 17.4841 27.7179 17.4841 27.2604C17.4841 26.803 17.4452 26.8127 17.7177 26.6473C17.9901 26.4916 17.7566 25.966 17.9512 25.9271C18.1458 25.8882 18.4182 25.8103 18.7782 25.6838C19.1285 25.567 19.6441 24.331 19.4885 24.0487C19.3328 23.7665 20.1987 23.6497 20.082 22.7154C19.9652 21.7714 18.389 21.5378 17.8441 21.3821C17.2896 21.2263 17.2506 21.421 17.4939 20.983C17.7274 20.5451 17.0658 20.0682 16.5501 19.9417C16.0442 19.8249 15.5674 19.4259 15.762 19.1436C15.9566 18.8614 14.8571 19.2215 14.5847 18.949C14.3123 18.6667 14.3123 18.4721 13.7577 18.949C13.2031 19.4259 13.2907 19.9903 12.9696 19.3869C12.6582 18.7835 12.4636 19.0074 12.1815 19.0074C11.8993 19.0074 12.0842 18.3261 12.0647 18.112C12.0453 17.8881 11.6755 17.7908 11.4518 17.7714C11.2377 17.7519 11.8993 17.0122 11.4518 16.9149C11.0042 16.8176 10.5469 17.3529 10.508 17.5086C10.4691 17.6643 9.73934 17.528 9.91447 17.1485C10.0896 16.7689 9.41826 15.2701 10.8388 15.3188C12.2496 15.3674 12.2885 16.146 12.5123 16.146C12.7361 16.146 12.7458 15.2312 12.8626 14.8516C12.9793 14.4721 13.4561 14.0925 13.5923 14.073C13.7285 14.0536 13.3199 13.0122 13.6312 13.1193C13.9426 13.2166 14.3998 12.8565 14.6334 12.7008C14.8669 12.5451 15.1393 11.9222 15.2269 11.6789C15.2269 11.6789 15.3144 11.9416 15.5188 11.9222C16.0052 11.8735 16.6766 11.4648 16.6571 11.2993C16.6377 11.1436 15.9274 11.3966 15.9663 11.0171C16.0052 10.6375 15.3728 10.3553 15.8106 10.2774C16.2388 10.1995 16.6182 10.2579 16.8906 10.2774C17.1631 10.2969 17.1825 10.5986 17.1825 10.6764C17.1825 10.7543 17.416 10.8711 17.7566 10.8127C18.0874 10.7543 17.5231 9.93677 17.309 9.93677C17.095 9.93677 17.6787 9.59614 17.5231 9.25551C17.3674 8.91487 16.6279 7.49394 16.5209 7.75672C16.5209 7.75672 16.2874 8.27253 16.015 8.00003C15.7425 7.71779 15.8593 7.2409 15.3047 7.29929C14.7501 7.35769 14.575 7.07545 14.5166 8.67156C14.575 9.3139 14.108 9.18738 14.0009 9.35283C13.8939 9.51828 13.9231 10.5694 13.5923 10.2871C13.2615 10.0049 13.2809 9.46962 13.3199 9.24577C13.3588 9.02193 12.3566 8.88567 12.1815 8.67156C12.0063 8.44772 12.3372 7.53287 12.7166 7.37715C13.0863 7.22143 13.2031 6.55963 13.5826 6.55963C13.962 6.55963 14.1566 6.54017 14.2734 6.10221C14.3901 5.66425 14.0982 5.64479 13.8842 5.76157C13.6701 5.87836 13.495 5.87836 13.2907 5.8005C13.0961 5.72265 12.6388 5.91729 12.5415 6.08274C12.4442 6.23846 12.0745 6.38445 11.8118 6.32605C11.5588 6.26766 11.5004 6.40391 11.3447 6.58883C11.228 6.71535 10.6053 6.70562 10.2161 6.63749C8.85394 8.22387 7.8907 10.1022 7.38476 12.146C7.3653 12.2336 7.34584 12.3115 7.32638 12.3991C7.28746 12.5645 7.25827 12.7202 7.22908 12.8857C7.19989 13.0317 7.18043 13.1777 7.15124 13.3236C7.13178 13.4307 7.11233 13.528 7.1026 13.6351C7.04422 14.1022 7.0053 14.5694 6.98584 15.0365C7.19016 14.9879 7.14151 16.7494 7.58908 16.5937C8.03664 16.438 7.33611 15.6205 7.70584 15.494C8.07556 15.3772 8.23124 15.8541 8.33826 16.4283C8.43556 17.0025 8.39664 17.966 9.00961 18.0439C9.62258 18.1217 10.2064 17.966 10.3815 18.1412C10.5566 18.3164 11.2474 18.1412 11.6755 19.095C12.1036 20.0487 11.9674 19.3772 12.2496 19.4551C12.522 19.5329 12.882 19.5718 12.882 19.8541C12.882 20.9538 11.8799 20.9928 12.3274 21.7908C12.3274 21.7908 13.3296 23.5621 14.2344 24.0487C14.7307 24.3115 14.6723 26.0634 14.5166 27.6011C15.0323 27.8541 15.5577 28.078 16.1025 28.2629C16.1317 28.1169 16.1706 28.0098 16.2971 28.0585L16.2679 28.0877Z" fill="#274247"/>
<path d="M11.7048 5.71289C11.9383 5.80049 12.094 5.64477 11.9188 5.3236C11.8507 5.19708 11.8215 5.12895 11.8118 5.07056C11.4226 5.40146 11.0529 5.75182 10.7026 6.12166C10.8389 6.19951 10.9751 6.23844 11.1405 6.20925C11.481 6.16058 11.481 5.63504 11.7145 5.72263L11.7048 5.71289Z" fill="#274247"/>
<path d="M13.8258 4.01943C14.0106 3.88318 13.9036 3.51335 14.1955 3.54255C14.4874 3.57174 14.6917 3.6788 14.8766 3.54255C15.0614 3.40629 14.9836 3.17271 15.2171 3.00726C15.2658 2.97807 15.3241 2.93914 15.3825 2.90021C14.6722 3.19218 13.9814 3.55228 13.3198 3.96104C13.5144 4.06809 13.6701 4.12649 13.8258 4.01943Z" fill="#274247"/>
<path d="M16.6764 3.27979C16.9683 3.09487 16.8321 3.36738 17.0461 2.90023H17.8537L18.0094 3.29925C18.1456 3.5231 18.3013 3.4939 18.3013 3.70801C18.3013 3.92213 18.0094 4.46714 18.3013 4.40875C18.5932 4.35035 18.7488 4.37955 18.671 4.53527C18.5932 4.69099 18.0969 4.64232 18.204 4.9051C18.311 5.16787 18.671 5.09975 18.5737 5.21654C18.4667 5.33332 17.1337 6.13138 19.0407 7.6691C19.8483 8.13625 20.0915 6.50121 20.218 6.15085C20.218 6.15085 20.6072 6.02432 20.7921 6.03406C20.9769 6.03406 20.9769 5.5377 21.3953 5.38199C21.8137 5.22627 22.2612 4.8759 22.631 4.98296C23.0007 5.09001 23.0493 4.59366 22.9715 4.53527C22.8937 4.47687 22.2904 4.41848 22.1639 4.40875C22.0375 4.40875 22.0375 3.96106 22.1348 3.95132C22.2515 3.93186 22.7088 3.93186 22.8158 3.95132C23.205 4.08758 23.2439 3.50363 23.2245 3.15327C23.2245 3.03648 23.1272 2.82237 23.0299 2.62772C22.9229 2.54986 22.8061 2.28708 22.6796 2.04377C22.5726 2.02431 22.4656 2.00484 22.3585 1.99511C21.7456 1.90752 21.1326 1.86859 20.5196 1.86859C19.0991 1.86859 17.7078 2.09244 16.3845 2.53039C16.4721 2.90023 16.5694 3.35765 16.6959 3.27979H16.6764Z" fill="#274247"/>
<path d="M33.3045 10.8516C33.2656 10.7543 33.2267 10.657 33.1975 10.5596C32.7402 9.38202 32.1175 8.26279 31.3294 7.22143C30.9402 6.70561 30.5121 6.21899 30.0548 5.7713C29.9867 5.94648 29.8991 6.17033 29.8213 6.4331C29.6364 7.09491 29.8991 6.86133 30.0353 7.23116C30.1618 7.60099 30.5315 7.07544 30.6872 6.90999C30.8429 6.75427 31.1056 7.49393 30.8429 7.4842C30.5802 7.4842 30.4537 7.5426 30.2688 7.67885C30.084 7.8151 30.3467 7.86377 30.2688 8.07788C30.191 8.29199 30.0353 8.07788 29.7142 8.18494C29.4029 8.29199 29.7142 8.79808 29.6072 8.87594C29.5002 8.95379 29.1597 8.98299 28.7705 9.03165C28.3813 9.08032 27.8559 9.14844 27.5932 9.03165C27.3305 8.9246 27.0678 9.44041 27.0191 9.68372C26.9705 9.92703 26.6494 10.1314 26.3478 10.2871C26.0364 10.4429 25.9489 10.5012 25.7251 10.6375C25.5013 10.7738 26.0267 11.0949 26.2018 11.1728C26.3867 11.2506 26.4645 11.6983 26.3283 11.8151C26.1921 11.9319 25.2678 11.6107 25.0927 11.8151C24.9175 12.0195 24.8689 12.584 24.8689 12.7592C24.8689 12.9343 24.9078 13.129 25.0732 13.236C25.2483 13.3431 25.7835 13.3139 25.9002 13.2847C26.017 13.2555 26.3478 13.1777 26.3867 12.8759C26.4743 12.1849 27.2235 11.6497 27.2721 11.6497C27.3207 11.6497 28.0699 11.3869 28.0991 11.6205C28.1283 11.8638 28.8483 12.3796 28.8872 12.4477C28.9261 12.5159 28.897 12.6229 28.8094 12.7786C28.7218 12.9343 29.0332 13.0414 29.0234 12.9246C29.0137 12.8078 29.1986 12.7884 29.3542 12.7786C29.5099 12.7689 29.4613 12.4477 29.2083 12.2823C28.9553 12.1266 28.4883 11.4842 28.4397 11.2312C28.391 10.9781 28.6537 10.91 28.8678 11.2214C29.0915 11.5231 29.7434 12 29.8213 12.2141C29.8991 12.4283 29.9186 12.7202 29.8213 12.8273C29.724 12.9343 30.0548 13.1582 30.0742 13.2944C30.1034 13.4307 30.444 13.2652 30.5705 13.2458C30.6969 13.2166 30.3856 12.7786 30.3369 12.5548C30.2883 12.3309 30.7261 12.3991 30.9305 12.5548C31.1348 12.7105 31.0278 13.3918 30.8915 13.5378C30.7553 13.6935 30.8137 13.4891 30.5023 13.6837C30.191 13.8784 30.5802 13.9757 30.8137 14.073C31.0472 14.1704 30.9499 13.7227 31.164 13.5183C31.378 13.3139 32.3121 13.4015 32.4386 13.5183C32.5553 13.6351 32.7985 14.0536 32.4386 14.2871C32.0883 14.5207 32.458 14.4915 32.2731 14.8516C32.0883 15.2117 30.7261 14.803 30.7261 14.803C30.5121 14.6667 30.804 14.4331 30.2007 14.4039C29.5975 14.3747 30.1521 14.5597 29.8115 14.8808C29.4807 15.202 29.1013 14.6959 29.0429 14.4331C28.9943 14.1704 28.4494 14.219 28.3132 14.112C28.177 14.0049 28.2937 13.674 28.1283 13.4988C27.9629 13.3236 26.7953 13.3042 26.6008 13.421C26.3964 13.5378 26.2991 13.7129 25.6667 13.7421C25.0343 13.7713 24.83 14.3261 24.83 14.3261C24.83 14.3261 24.6159 14.7446 24.8008 15.202C23.9251 15.3869 23.5456 16.3504 23.5456 16.3504C23.5456 16.3504 23.4386 16.8273 23.3802 18.0244C23.3219 19.2215 24.3921 20.3407 24.3921 20.3407C24.5673 20.7397 26.3672 20.0001 26.591 19.9125C27.1553 21.0122 28.0213 20.1558 27.7294 21.2458C27.4375 22.3358 28.0213 22.1509 28.0213 22.5791C28.0213 23.0074 28.3132 24.039 27.6807 24.7105C27.3791 25.0317 27.457 26.0731 27.6126 27.056C28.0018 26.8127 28.3813 26.5597 28.751 26.2775C31.0569 24.5159 32.7013 22.1217 33.5185 19.3869C33.5185 19.3869 33.5088 19.3675 33.4991 19.3577C33.3823 19.0171 32.8472 17.0414 32.244 16.0584C31.6407 15.0755 32.3218 15.3382 32.3218 15.3382C32.3218 15.3382 32.7888 15.9319 32.9542 16.2239C33.1099 16.5159 32.9542 17.0998 33.1099 17.2847C33.2656 17.4696 33.4504 17.421 33.4212 17.6546C33.4018 17.8687 33.5867 18.4331 33.7229 18.6278C33.8299 18.1898 33.9077 17.7324 33.9758 17.2847C34.0245 16.9344 34.0537 16.584 34.0731 16.2336C34.0731 16.0876 34.0926 15.9319 34.0926 15.7859C34.0926 15.7275 34.0926 15.6789 34.0926 15.6205C34.1023 14.0438 33.8494 12.5256 33.3726 11.0852C33.3434 11.0073 33.324 10.9392 33.2948 10.8613L33.3045 10.8516ZM33.1294 12.2433C32.818 12.2628 32.7791 12.4185 32.5261 12.2433C32.2731 12.0682 32.0299 11.9222 31.9326 12.0292C31.845 12.1363 31.845 12.3991 31.7186 12.3309C31.6018 12.2725 31.524 12.2433 31.524 12.2433C31.3002 12.2725 30.9986 12.2044 31.1445 11.9416C31.2905 11.6789 31.4948 11.5037 31.3975 11.3674C31.2905 11.2312 31.3683 11.0755 31.6894 11.1922C32.0007 11.309 32.1467 11.455 32.244 11.2896C32.3315 11.1144 32.5164 10.9976 32.6137 11.2993C32.7013 11.601 32.7207 11.8346 32.8861 11.8832C33.0612 11.9319 33.4504 12.2239 33.1391 12.2433H33.1294Z" fill="#274247"/>
<path d="M27.2041 6.764C26.9998 7.00731 27.2041 7.10464 27.2041 7.4258C27.2041 7.74697 27.3111 7.63992 27.496 7.79564C27.6808 7.95135 27.8073 7.71778 28.0311 7.58152C28.2549 7.44527 28.2257 7.82483 28.2549 8.05841C28.2841 8.30172 28.4398 8.48664 28.5954 8.38931C28.7511 8.29199 28.7803 7.76644 28.9652 7.76644C29.15 7.76644 29.2279 7.44527 29.2571 7.23116C29.2862 7.01704 28.9165 6.88079 28.9165 6.88079C28.9165 6.88079 28.8387 6.63748 28.9944 6.63748C29.15 6.63748 29.3057 6.42337 29.2571 6.19952C29.2084 6.00488 29.4516 5.67397 29.7825 5.49879C29.4225 5.16789 29.0527 4.84672 28.6635 4.55475C28.4787 4.86619 28.4981 5.15816 28.4495 5.34307C28.3717 5.61558 27.4279 6.51096 27.2138 6.75427L27.2041 6.764Z" fill="#274247"/>
<path d="M17.7665 29.3821V32.5646C17.7665 34.1899 13.8941 35.5135 9.12652 35.5135C4.35898 35.5135 0.486572 34.1899 0.486572 32.5646V29.3821" fill="white"/>
<path d="M0 32.5642V29.3821H0.972967V32.5642C0.972967 32.7619 1.08985 33.025 1.47085 33.3321C1.84754 33.6357 2.42249 33.9313 3.17544 34.1885C4.67669 34.7011 6.78147 35.0267 9.12631 35.0267C11.4712 35.0267 13.5759 34.7011 15.0772 34.1885C15.8302 33.9313 16.4051 33.6358 16.7818 33.3321C17.1629 33.0249 17.2797 32.7619 17.2797 32.5642V29.3821H18.2526V32.5642C18.2526 33.1791 17.8856 33.6916 17.3918 34.0896C16.8935 34.4913 16.2026 34.8325 15.3917 35.1094C13.7649 35.6649 11.549 36 9.12631 36C6.70395 36 4.48864 35.6648 2.86189 35.1094C2.05089 34.8325 1.35919 34.4913 0.860847 34.0896C0.367082 33.6916 0 33.179 0 32.5642Z" fill="#274247"/>
<path d="M3.85285 31.3968V34.7642H2.87988V31.3968H3.85285Z" fill="#274247"/>
<path d="M9.12652 32.2629C13.8982 32.2629 17.7665 30.9731 17.7665 29.3821C17.7665 27.7911 13.8982 26.5013 9.12652 26.5013C4.35481 26.5013 0.486572 27.7911 0.486572 29.3821C0.486572 30.9731 4.35481 32.2629 9.12652 32.2629Z" fill="white"/>
<path d="M17.2797 29.3821C17.2796 29.1973 17.1683 28.9436 16.7865 28.6426C16.4102 28.346 15.8354 28.0575 15.0819 27.8063C13.5802 27.3056 11.4743 26.9879 9.12631 26.9879C6.77824 26.988 4.67244 27.3055 3.17069 27.8063C2.41729 28.0575 1.84237 28.346 1.4661 28.6426C1.08447 28.9435 0.972982 29.1974 0.972967 29.3821C0.972967 29.5668 1.08448 29.8206 1.4661 30.1215C1.84236 30.4181 2.4173 30.7067 3.17069 30.9579C4.67244 31.4586 6.77824 31.7762 9.12631 31.7762C11.4744 31.7762 13.5802 31.4586 15.0819 30.9579C15.8354 30.7067 16.4102 30.4181 16.7865 30.1215C17.1683 29.8206 17.2797 29.5668 17.2797 29.3821ZM18.2526 29.3821C18.2526 29.9927 17.8815 30.4973 17.3889 30.8857C16.8908 31.2783 16.1998 31.6107 15.3898 31.8808C13.7645 32.4227 11.5499 32.7495 9.12631 32.7495C6.70276 32.7494 4.48808 32.4227 2.86284 31.8808C2.05301 31.6107 1.3627 31.2782 0.864648 30.8857C0.371997 30.4973 0 29.9928 0 29.3821C1.58149e-05 28.7713 0.372008 28.2669 0.864648 27.8785C1.3627 27.486 2.05302 27.1534 2.86284 26.8834C4.48808 26.3415 6.70276 26.0147 9.12631 26.0147C11.5499 26.0147 13.7645 26.3415 15.3898 26.8834C16.1998 27.1535 16.8908 27.4858 17.3889 27.8785C17.8815 28.2668 18.2526 28.7714 18.2526 29.3821Z" fill="#274247"/>
<path d="M17.7665 24.0779V27.2604C17.7665 28.8857 13.8941 30.2093 9.12652 30.2093C4.35898 30.2093 0.486572 28.8955 0.486572 27.2604V24.3699" fill="white"/>
<path d="M0 27.26V24.3697H0.972967V27.26C0.972967 27.461 1.09129 27.7256 1.4718 28.0327C1.84827 28.3364 2.42277 28.6307 3.17544 28.8871C4.67658 29.3985 6.78108 29.7225 9.12631 29.7225C11.4712 29.7225 13.5759 29.3969 15.0772 28.8843C15.8302 28.6271 16.4051 28.3316 16.7818 28.0279C17.1629 27.7207 17.2797 27.4577 17.2797 27.26V24.0779H18.2526V27.26C18.2526 27.8749 17.8856 28.3874 17.3918 28.7854C16.8935 29.1871 16.2026 29.5283 15.3917 29.8052C13.7649 30.3607 11.549 30.6958 9.12631 30.6958C6.7042 30.6958 4.48877 30.3632 2.86189 29.809C2.05105 29.5328 1.3594 29.1924 0.860847 28.7902C0.3663 28.3911 0 27.8765 0 27.26Z" fill="#274247"/>
<path d="M3.85285 26.3846V29.2748H2.87988V26.3846H3.85285Z" fill="#274247"/>
<path d="M9.12652 27.2507C13.8982 27.2507 17.7665 25.9609 17.7665 24.3699C17.7665 22.7789 13.8982 21.4891 9.12652 21.4891C4.35481 21.4891 0.486572 22.7789 0.486572 24.3699C0.486572 25.9609 4.35481 27.2507 9.12652 27.2507Z" fill="white"/>
<path d="M17.2797 24.3699C17.2796 24.1851 17.1683 23.9314 16.7865 23.6304C16.4102 23.3338 15.8354 23.0453 15.0819 22.7941C13.5802 22.2934 11.4743 21.9757 9.12631 21.9757C6.77824 21.9758 4.67244 22.2933 3.17069 22.7941C2.41729 23.0453 1.84237 23.3338 1.4661 23.6304C1.08447 23.9313 0.972982 24.1852 0.972967 24.3699C0.972967 24.5546 1.08447 24.8084 1.4661 25.1093C1.84236 25.4059 2.4173 25.6945 3.17069 25.9457C4.67244 26.4464 6.77824 26.764 9.12631 26.764C11.4744 26.764 13.5802 26.4464 15.0819 25.9457C15.8354 25.6945 16.4102 25.4059 16.7865 25.1093C17.1683 24.8084 17.2797 24.5546 17.2797 24.3699ZM18.2526 24.3699C18.2526 24.9805 17.8815 25.4851 17.3889 25.8735C16.8908 26.2661 16.1998 26.5985 15.3898 26.8686C13.7645 27.4105 11.5499 27.7372 9.12631 27.7372C6.70276 27.7372 4.48808 27.4105 2.86284 26.8686C2.05301 26.5985 1.3627 26.266 0.864648 25.8735C0.371997 25.4851 0 24.9806 0 24.3699C1.50618e-05 23.7591 0.372007 23.2546 0.864648 22.8663C1.3627 22.4737 2.05302 22.1412 2.86284 21.8712C4.48808 21.3293 6.70276 21.0025 9.12631 21.0025C11.5499 21.0025 13.7645 21.3293 15.3898 21.8712C16.1998 22.1413 16.8908 22.4736 17.3889 22.8663C17.8815 23.2546 18.2526 23.7592 18.2526 24.3699Z" fill="#274247"/>
</g>
<defs>
<clipPath id="clip0_8826_1745">
<rect width="36" height="36" fill="white"/>
</clipPath>
</defs>
</svg>
