<svg width="36" height="36" viewBox="0 0 36 36" fill="none" xmlns="http://www.w3.org/2000/svg">
<g clip-path="url(#clip0_10013_4055)">
<path d="M14.2542 35.4996H21.7559L21.7559 0.490288H14.2542L14.2542 35.4996Z" fill="white"/>
<path d="M14.2541 35.9902C13.9854 35.9902 13.7676 35.7705 13.7676 35.4996L13.7676 0.490597C13.7676 0.219646 13.9854 -3.8147e-06 14.2541 -3.8147e-06H21.7557C22.0244 -3.8147e-06 22.2422 0.219646 22.2422 0.490597L22.2422 35.4996C22.2422 35.7705 22.0244 35.9902 21.7557 35.9902H14.2541ZM21.2692 0.981197H14.7406L14.7406 35.009H21.2692L21.2692 0.981197Z" fill="#274247"/>
<path d="M13.9331 12.0587L22.0671 12.0587V0.1763L13.9331 0.1763L13.9331 12.0587Z" fill="#274247"/>
<path d="M25.0929 35.5094H32.5945V10.4986H25.0929L25.0929 35.5094Z" fill="white"/>
<path d="M25.093 36L24.9951 35.9904C24.7733 35.9448 24.6065 35.7466 24.6065 35.5094L24.6065 10.4983C24.6066 10.2275 24.8244 10.0077 25.093 10.0077H32.5946C32.8632 10.0077 33.0809 10.2275 33.0811 10.4983V35.5094C33.0811 35.7804 32.8632 36 32.5946 36H25.093ZM32.1081 10.9889H25.5795L25.5795 35.0188H32.1081V10.9889Z" fill="#274247"/>
<path d="M24.7817 20.183H32.9158V10.1846L24.7817 10.1846V20.183Z" fill="#274247"/>
<path d="M3.41513 35.4996H10.9167L10.9167 23.6172H3.41513L3.41513 35.4996Z" fill="white"/>
<path d="M3.41525 35.9902C3.14657 35.9902 2.92876 35.7705 2.92876 35.4996L2.92876 23.6169C2.92895 23.3461 3.14669 23.1263 3.41525 23.1263H10.9168C11.1854 23.1263 11.4031 23.3461 11.4033 23.6169L11.4033 35.4996L11.3938 35.5983C11.3485 35.8219 11.152 35.9902 10.9168 35.9902H3.41525ZM10.4303 24.1075H3.90174L3.90174 35.009H10.4303L10.4303 24.1075Z" fill="#274247"/>
<path d="M3.09397 30.8094H11.228L11.228 23.3033H3.09397L3.09397 30.8094Z" fill="#274247"/>
<path d="M35.5135 35.009C35.7822 35.009 36 35.2286 36 35.4996C36 35.7705 35.7822 35.9902 35.5135 35.9902H0.486486C0.217807 35.9902 0 35.7705 0 35.4996C0 35.2286 0.217807 35.009 0.486486 35.009H35.5135Z" fill="#274247"/>
<path d="M11.3819 13.9395C11.5621 13.8543 11.7802 13.8885 11.9273 14.0324L23.7911 25.6411L35.2492 19.2537C35.4843 19.1226 35.7805 19.2082 35.9105 19.4453C36.0403 19.6824 35.9546 19.9812 35.7195 20.1122L23.9469 26.6759C23.7597 26.7803 23.5267 26.7493 23.373 26.5993L11.5396 15.0194L0.83596 22.6735C0.616798 22.83 0.312879 22.7775 0.157539 22.5566C0.00231709 22.3356 0.0543471 22.0291 0.27346 21.8724L11.3068 13.9835L11.3819 13.9395Z" fill="#274247"/>
</g>
<defs>
<clipPath id="clip0_10013_4055">
<rect width="36" height="36" fill="white"/>
</clipPath>
</defs>
</svg>
