<svg width="36" height="36" viewBox="0 0 36 36" fill="none" xmlns="http://www.w3.org/2000/svg">
<g clip-path="url(#clip0_8826_1320)">
<path d="M18.0001 35.5135C27.6725 35.5135 35.5136 27.6725 35.5136 18C35.5136 8.32758 27.6725 0.486511 18.0001 0.486511C8.32764 0.486511 0.486572 8.32758 0.486572 18C0.486572 27.6725 8.32764 35.5135 18.0001 35.5135Z" fill="white"/>
<path d="M35.027 18C35.027 8.59623 27.4038 0.972973 18 0.972973C8.59623 0.972973 0.972973 8.59623 0.972973 18C0.972973 27.4038 8.59623 35.027 18 35.027C27.4038 35.027 35.027 27.4038 35.027 18ZM36 18C36 27.9411 27.9411 36 18 36C8.05887 36 0 27.9411 0 18C0 8.05887 8.05887 0 18 0C27.9411 0 36 8.05887 36 18Z" fill="#274247"/>
<path d="M18 33.8108C26.7321 33.8108 33.8108 26.7321 33.8108 18C33.8108 9.26795 26.7321 2.18921 18 2.18921C9.26795 2.18921 2.18921 9.26795 2.18921 18C2.18921 26.7321 9.26795 33.8108 18 33.8108Z" fill="#274247"/>
<path d="M25.8227 15.1881H20.8119V10.187H15.1881V15.1881H10.187V20.8119H15.1881V25.8227H20.8119V20.8119H25.8227V15.1881Z" fill="white"/>
</g>
<defs>
<clipPath id="clip0_8826_1320">
<rect width="36" height="36" fill="white"/>
</clipPath>
</defs>
</svg>
