<svg width="36" height="36" viewBox="0 0 36 36" fill="none" xmlns="http://www.w3.org/2000/svg">
<g clip-path="url(#clip0_8826_1364)">
<path d="M16.491 13.3249C18.4439 10.9578 21.4718 9.35999 24.7858 9.35999C30.7036 9.35999 35.5069 14.1633 35.5069 20.0811C35.5069 25.9989 30.7036 30.8022 24.7858 30.8022C18.868 30.8022 14.0647 25.9989 14.0647 20.0811C14.0647 18.8581 14.2718 17.6844 14.6466 16.5896" fill="white"/>
<path d="M13.5715 20.0812C13.5715 18.8021 13.7884 17.5743 14.1803 16.4297L15.1136 16.7495C14.7558 17.7945 14.5578 18.9143 14.5578 20.0812C14.5579 25.7266 19.1405 30.3092 24.7859 30.3092C30.4312 30.3092 35.0139 25.7265 35.0139 20.0812C35.0139 14.4358 30.4313 9.85319 24.7859 9.85312C21.6308 9.85312 18.7382 11.3758 16.8714 13.6384L16.4909 13.3244L16.1105 13.0114C18.1494 10.5399 21.3132 8.86682 24.7859 8.86682C30.976 8.86688 36.0002 13.8911 36.0002 20.0812C36.0002 26.2712 30.976 31.2955 24.7859 31.2955C18.5958 31.2955 13.5716 26.2713 13.5715 20.0812Z" fill="#274247"/>
<path d="M29.964 20.0812C29.964 17.1848 29.3419 14.587 28.3603 12.7311C27.3669 10.8531 26.0791 9.85312 24.786 9.85312C23.4928 9.85312 22.205 10.8531 21.2116 12.7311C20.23 14.587 19.6079 17.1848 19.6079 20.0812C19.6079 22.9776 20.2299 25.5754 21.2116 27.4312C22.205 29.3093 23.4928 30.3092 24.786 30.3092C26.0791 30.3092 27.3669 29.3093 28.3603 27.4312C29.342 25.5754 29.964 22.9776 29.964 20.0812ZM30.9503 20.0812C30.9503 23.1056 30.3029 25.8682 29.232 27.8926C28.1729 29.8948 26.6249 31.2955 24.786 31.2955C22.947 31.2955 21.399 29.8948 20.3399 27.8926C19.269 25.8682 18.6216 23.1056 18.6216 20.0812C18.6216 17.0568 19.2691 14.2941 20.3399 12.2698C21.399 10.2675 22.947 8.86682 24.786 8.86682C26.6249 8.86682 28.1729 10.2675 29.232 12.2698C30.3028 14.2941 30.9503 17.0568 30.9503 20.0812Z" fill="#274247"/>
<path d="M25.279 9.35999V30.8024H24.2927V9.35999H25.279Z" fill="#274247"/>
<path d="M35.5068 18.9567V19.943H14.0942V18.9567H35.5068Z" fill="#274247"/>
<path d="M33.4063 13.2855V14.2718H16.1162V13.2855H33.4063Z" fill="#274247"/>
<path d="M34.2441 24.6378V25.6241H15.3271V24.6378H34.2441Z" fill="#274247"/>
<path d="M12.2499 11.7962C15.3711 11.7962 17.9014 9.26591 17.9014 6.14467C17.9014 3.02343 15.3711 0.493164 12.2499 0.493164C9.12865 0.493164 6.59839 3.02343 6.59839 6.14467C6.59839 9.26591 9.12865 11.7962 12.2499 11.7962Z" fill="white"/>
<path d="M17.4082 6.14512C17.4082 3.29639 15.099 0.986551 12.2503 0.986301C9.40146 0.986301 7.09153 3.29624 7.09153 6.14512C7.09178 8.99378 9.40161 11.303 12.2503 11.303C15.0989 11.3027 17.4079 8.99363 17.4082 6.14512ZM18.3945 6.14512C18.3942 9.53835 15.6436 12.289 12.2503 12.2893C8.8569 12.2893 6.10547 9.5385 6.10522 6.14512C6.10522 2.75152 8.85674 0 12.2503 0C15.6437 0.000249839 18.3945 2.75167 18.3945 6.14512Z" fill="#274247"/>
<path d="M8.42301 13.029C8.97534 13.9759 10.7507 17.0137 11.5496 18.3649C11.7271 18.6805 12.171 18.6904 12.3781 18.3945L16.1162 12.9994C16.2246 12.8416 16.412 12.7627 16.5994 12.7923C18.0986 13.0488 24.4997 14.2816 24.4997 17.1419V30.023C24.4997 30.2301 24.4307 30.4372 24.3123 30.6049L20.7123 35.5956C20.5249 35.852 20.229 36 19.9134 36H4.6652C4.34959 36 4.0537 35.852 3.8663 35.5956L0.187397 30.6049C0.0690411 30.4372 0 30.2301 0 30.023V17.1518C0 14.3014 6.36164 13.0685 7.91999 12.8022C8.11725 12.7726 8.32438 12.8614 8.42301 13.029Z" fill="#274247"/>
</g>
<defs>
<clipPath id="clip0_8826_1364">
<rect width="36" height="36" fill="white"/>
</clipPath>
</defs>
</svg>
