<svg width="36" height="36" viewBox="0 0 36 36" fill="none" xmlns="http://www.w3.org/2000/svg">
<g clip-path="url(#clip0_8826_1335)">
<path d="M10.6981 2.89094C11.018 3.26071 10.2183 5.10954 7.46928 7.45805C6.38966 8.37747 5.42001 8.99708 4.63028 9.37684L3.83057 8.45742C4.75024 8.0177 5.73989 7.35812 6.71955 6.54863C8.33898 5.21947 9.72849 3.57051 10.1883 2.25134L10.6881 2.89094H10.6981Z" fill="white"/>
<path d="M9.31869 1.13205C9.31869 1.13205 9.2987 1.11207 9.2887 1.10207C9.21873 1.04211 9.09877 1.01213 9.0088 1.00214C8.95882 1.00214 8.90884 1.00214 8.85886 1.00214C7.98916 1.00214 6.23978 1.73168 4.23049 3.39063C1.79135 5.39936 0.691736 7.44806 0.991631 7.99772C0.991631 7.99772 0.991631 8.0277 1.01162 8.03769C1.03162 8.05768 1.05161 8.07767 1.0716 8.09765C1.14158 8.13763 1.25154 8.15762 1.32151 8.16761C1.67139 8.20758 2.19121 8.09765 2.83098 7.83782C2.83098 7.83782 2.85098 7.83782 2.86097 7.83782C3.75066 7.46805 4.87026 6.79847 6.09983 5.79911C8.61894 3.73041 9.70856 1.62174 9.32869 1.13205H9.31869Z" fill="white"/>
<path d="M2.88115 8.87714L3.66115 9.77714C3.04115 9.97714 2.62115 9.95714 2.49115 9.79714L1.93115 9.12714C2.23115 9.07714 2.55115 8.99714 2.89115 8.87714H2.88115Z" fill="white"/>
<path d="M35.9491 28.2849V29.2743H29.3714C27.2422 29.2743 25.4228 27.6953 25.2629 25.6766C25.1629 24.5573 25.5328 23.4779 26.2825 22.6585C27.0323 21.839 28.1019 21.3793 29.2015 21.3793H35.9591V22.3686H29.2015C28.3718 22.3686 27.5721 22.7184 27.0123 23.328C26.4425 23.9477 26.1726 24.7571 26.2425 25.5966C26.3825 27.1156 27.752 28.2949 29.3814 28.2949H35.9591L35.9491 28.2849Z" fill="white"/>
<path d="M35.9491 22.3586V28.2849H29.3714C27.742 28.2849 26.3725 27.1056 26.2325 25.5866C26.1626 24.7471 26.4325 23.9376 27.0023 23.318C27.5621 22.7084 28.3618 22.3586 29.1915 22.3586H35.9491ZM30.9209 25.3168C30.9209 24.2774 30.0812 23.438 29.0415 23.438C28.0019 23.438 27.1622 24.2874 27.1622 25.3168C27.1622 26.3461 28.0119 27.1956 29.0415 27.1956C30.0712 27.1956 30.9209 26.3561 30.9209 25.3168Z" fill="#274247"/>
<path d="M33.26 12.295V14.4536H24.803C24.723 13.824 24.3831 13.0745 23.8633 12.295H33.26Z" fill="white"/>
<path d="M29.0417 27.1956C30.0796 27.1956 30.921 26.3544 30.921 25.3167C30.921 24.2791 30.0796 23.4379 29.0417 23.4379C28.0038 23.4379 27.1624 24.2791 27.1624 25.3167C27.1624 26.3544 28.0038 27.1956 29.0417 27.1956Z" fill="white"/>
<path d="M23.8035 14.4536C23.7036 13.9739 23.3437 13.2144 22.6539 12.295C22.524 12.1351 22.394 11.9652 22.2541 11.8053C22.1141 11.6454 21.9742 11.4755 21.8142 11.3156C21.5443 11.0158 21.2444 10.716 20.8946 10.4062C18.9852 8.66728 17.2858 7.89777 16.4661 7.89777H16.4061C16.2962 7.89777 16.1662 7.92775 16.0962 8.0077C15.8263 8.30751 16.2562 9.62667 17.7357 11.3056C17.8756 11.4655 18.0256 11.6354 18.1755 11.7953C18.3355 11.9552 18.5054 12.1251 18.6753 12.285C18.7753 12.3849 18.8753 12.4749 18.9852 12.5748C19.9249 13.4343 20.8146 14.0439 21.5743 14.4436C21.6943 14.5136 21.8042 14.5735 21.9142 14.6235H23.8235C23.8235 14.6235 23.8235 14.5136 23.8035 14.4436V14.4536Z" fill="white"/>
<path d="M19.725 14.4537C19.2552 14.1139 18.7753 13.7341 18.3155 13.3144C17.9556 12.9846 17.6157 12.6448 17.2858 12.295C17.1359 12.1351 16.986 11.9652 16.856 11.8053C16.7161 11.6454 16.5761 11.4755 16.4661 11.3156C16.3662 11.1957 16.2762 11.0758 16.1962 10.9559L15.8364 11.3156L15.3565 11.8053L15.2366 11.9253C15.3165 12.0452 15.4065 12.1751 15.5065 12.295C16.0263 13.0146 16.7161 13.7541 17.5058 14.4537C17.5757 14.5136 17.6357 14.5736 17.7057 14.6335H19.9749C19.8949 14.5736 19.805 14.5136 19.725 14.4537Z" fill="white"/>
<path d="M16.0762 14.4537H7.22928C6.63949 14.4537 6.14966 13.974 6.14966 13.3743C6.14966 12.7747 6.62949 12.285 7.22928 12.285H14.3068C14.7566 12.9846 15.3764 13.7241 16.0862 14.4437L16.0762 14.4537Z" fill="white"/>
<path d="M15.6468 10.0964L14.7268 11.0358C14.3868 10.3462 14.3668 9.89653 14.4868 9.75662L15.1668 9.01709C15.2668 9.35688 15.4268 9.71665 15.6368 10.1064L15.6468 10.0964Z" fill="white"/>
<path d="M29.1914 21.3692H35.9491V14.6335H34.2397V11.8053C34.2397 11.5354 34.0197 11.3156 33.7498 11.3156H23.1236C22.6538 10.7559 22.1139 10.1963 21.5441 9.67661C19.6248 7.92772 17.5556 6.8484 16.336 6.92835C15.8961 6.95833 15.6162 7.11823 15.4363 7.28812C15.4063 7.30811 15.3763 7.33809 15.3463 7.36807L13.7569 9.09698C13.437 9.45675 13.2171 10.1163 13.7569 11.3256H7.2292C6.11959 11.3256 5.19991 12.225 5.16992 13.3443V13.3943L5.18991 33.4916C5.18991 34.7408 6.18956 36 7.40913 36H35.9591V29.2742H29.3814C27.2521 29.2742 25.4328 27.6952 25.2728 25.6765C25.1729 24.5572 25.5427 23.4779 26.2925 22.6584C27.0422 21.8389 28.1118 21.3792 29.2114 21.3792L29.1914 21.3692ZM14.4966 9.75656L15.1764 9.01703C15.2764 9.35682 15.4363 9.71659 15.6462 10.1063L14.7266 11.0457C14.3867 10.3562 14.3667 9.90647 14.4866 9.76656L14.4966 9.75656ZM9.73831 31.9126C9.73831 32.1924 9.51839 32.4023 9.24848 32.4023C8.97858 32.4023 8.75866 32.1824 8.75866 31.9126V18.7209C8.75866 18.4511 8.98857 18.2312 9.24848 18.2312C9.50839 18.2312 9.73831 18.4611 9.73831 18.7209V31.9126ZM7.2292 14.4536C6.6394 14.4536 6.14958 13.9739 6.14958 13.3743C6.14958 12.7747 6.62941 12.285 7.2292 12.285H14.3067C14.7565 12.9845 15.3763 13.7241 16.0861 14.4436H7.2292V14.4536ZM17.7055 14.6335C17.6355 14.5735 17.5755 14.5136 17.5056 14.4536C16.7158 13.754 16.0261 13.0145 15.5063 12.295C15.4063 12.165 15.3163 12.0351 15.2364 11.9252L15.3563 11.8053L15.8362 11.3156L16.196 10.9558C16.276 11.0757 16.366 11.1957 16.4659 11.3156C16.5859 11.4855 16.7258 11.6554 16.8558 11.8053C16.9958 11.9752 17.1457 12.1451 17.2856 12.295C17.6155 12.6447 17.9554 12.9845 18.3153 13.3143C18.7751 13.7341 19.255 14.1238 19.7248 14.4536C19.8048 14.5136 19.8947 14.5735 19.9747 14.6335H17.7055ZM21.5741 14.4536C20.8144 14.0538 19.9147 13.4342 18.9851 12.5848C18.8751 12.4848 18.7751 12.3949 18.6752 12.295C18.4952 12.1251 18.3253 11.9552 18.1753 11.8053C18.0154 11.6354 17.8654 11.4655 17.7355 11.3156C16.256 9.62665 15.8362 8.30748 16.0961 8.01766C16.166 7.93771 16.296 7.91772 16.406 7.90773H16.4659C17.2856 7.90773 18.9851 8.67724 20.8944 10.4161C21.2443 10.726 21.5441 11.0258 21.8141 11.3256C21.984 11.4955 22.1239 11.6654 22.2539 11.8153C22.4038 11.9852 22.5338 12.155 22.6538 12.305C23.3435 13.2244 23.7134 13.9839 23.8034 14.4636C23.8034 14.5335 23.8233 14.5935 23.8233 14.6435H21.914C21.8041 14.5935 21.6941 14.5335 21.5741 14.4636V14.4536ZM24.793 14.4536C24.713 13.824 24.3731 13.0745 23.8533 12.295H33.25V14.4536H24.793Z" fill="#274247"/>
<path d="M9.73879 18.7209V31.9126C9.73879 32.1924 9.51879 32.4022 9.24879 32.4022C8.97879 32.4022 8.75879 32.1824 8.75879 31.9126V18.7209C8.75879 18.4511 8.98879 18.2312 9.24879 18.2312C9.50879 18.2312 9.73879 18.4611 9.73879 18.7209Z" fill="white"/>
<path d="M11.4578 2.27134L10.1382 0.572416C10.1382 0.572416 10.1082 0.532441 10.0982 0.512454C10.0683 0.472479 10.0283 0.422511 9.97829 0.382536C9.80835 0.222637 9.53845 0.062738 9.1086 0.0127696C7.82905 -0.127142 5.67981 0.892214 3.61054 2.60113C1.19139 4.60987 -0.73793 7.28817 0.201739 8.60734C0.201739 8.62733 0.221732 8.63732 0.231728 8.65731C0.271714 8.70728 0.3117 8.75725 0.371679 8.81721L1.7312 10.4462C2.0111 10.776 2.41096 10.9059 2.88079 10.9059C3.40061 10.9059 4.0104 10.736 4.67016 10.4562C5.78977 9.97647 7.02933 9.137 8.10895 8.21759C10.5281 6.14889 12.4974 3.50057 11.4478 2.28134L11.4578 2.27134ZM2.49093 9.79659L1.93113 9.12701C2.23102 9.07704 2.55091 8.99709 2.89079 8.87717L3.67052 9.7766C3.05073 9.97647 2.63088 9.95649 2.50093 9.79659H2.49093ZM4.63018 9.37685L3.83046 8.45743C4.75013 8.01771 5.73979 7.35813 6.71944 6.54864C8.33887 5.21948 9.72838 3.57052 10.1882 2.25136L10.688 2.89095C11.0079 3.26072 10.2082 5.10955 7.45918 7.45807C6.37956 8.37749 5.4099 8.99709 4.62018 9.37685H4.63018ZM4.24031 3.38064C6.23961 1.72169 7.99899 0.992151 8.86868 0.992151C8.91866 0.992151 8.96865 0.992151 9.01863 0.992151C9.1086 0.992151 9.22856 1.03213 9.29853 1.09209C9.29853 1.09209 9.31852 1.11208 9.32852 1.12207C9.70839 1.60177 8.61877 3.71043 6.09966 5.78912C4.88009 6.79848 3.75049 7.46806 2.8608 7.82783C2.8608 7.82783 2.84081 7.82783 2.83081 7.82783C2.19104 8.08767 1.67122 8.1976 1.32134 8.15762C1.25137 8.15762 1.14141 8.12764 1.07143 8.08767C1.05144 8.06768 1.03145 8.04769 1.01145 8.02771C1.01145 8.02771 1.01145 8.00772 0.99146 7.99772C0.681569 7.43808 1.79118 5.38937 4.24031 3.36065V3.38064Z" fill="#274247"/>
</g>
<defs>
<clipPath id="clip0_8826_1335">
<rect width="36" height="36" fill="white"/>
</clipPath>
</defs>
</svg>
