<svg width="36" height="36" viewBox="0 0 36 36" fill="none" xmlns="http://www.w3.org/2000/svg">
<g clip-path="url(#clip0_8826_1200)">
<path d="M19.3513 26.2482V29.7191C19.3513 31.4939 15.1299 32.9335 9.92223 32.9335C4.71455 32.9335 0.493164 31.4939 0.493164 29.7191V26.2482" fill="white"/>
<path d="M0 29.7186V26.2482H0.986304V29.7186L0.993046 29.8091C1.02507 30.0263 1.17662 30.2901 1.54399 30.5862C1.9593 30.9209 2.59013 31.2443 3.41354 31.525C5.05606 32.085 7.35734 32.4407 9.92179 32.4408C12.4863 32.4408 14.7875 32.085 16.4301 31.525C17.2537 31.2442 17.8852 30.9209 18.3006 30.5862C18.7203 30.2479 18.8582 29.9513 18.8582 29.7186V26.2482H19.8446V29.7186C19.8446 30.3733 19.4543 30.9229 18.9199 31.3536C18.3811 31.7879 17.6314 32.1572 16.7489 32.4581C14.9789 33.0616 12.5649 33.4268 9.92179 33.4268C7.2789 33.4268 4.86559 33.0616 3.09568 32.4581C2.21315 32.1572 1.46352 31.7879 0.92466 31.3536C0.423714 30.9499 0.0497406 30.4421 0.00481594 29.8409L0 29.7186Z" fill="#274247"/>
<path d="M4.13254 28.447V32.1148H3.14624V28.447H4.13254Z" fill="#274247"/>
<path d="M9.92223 29.3937C15.1298 29.3937 19.3513 27.9854 19.3513 26.2482C19.3513 24.511 15.1298 23.1028 9.92223 23.1028C4.7147 23.1028 0.493164 24.511 0.493164 26.2482C0.493164 27.9854 4.7147 29.3937 9.92223 29.3937Z" fill="white"/>
<path d="M18.8582 26.2486C18.8582 26.0299 18.7253 25.7428 18.3044 25.4109C17.8891 25.0834 17.258 24.7662 16.4339 24.4913C14.7902 23.943 12.4873 23.5958 9.92179 23.5958C7.3565 23.5958 5.05424 23.943 3.41065 24.4913C2.58631 24.7663 1.95452 25.0833 1.53917 25.4109C1.11848 25.7427 0.986304 26.03 0.986304 26.2486C0.986475 26.4672 1.1188 26.7538 1.53917 27.0854C1.95451 27.413 2.58633 27.73 3.41065 28.005C5.05424 28.5533 7.3565 28.9005 9.92179 28.9005C12.4873 28.9005 14.7902 28.5533 16.4339 28.005C17.258 27.73 17.8891 27.4129 18.3044 27.0854C18.725 26.7537 18.8581 26.4673 18.8582 26.2486ZM19.8446 26.2486C19.8444 26.8982 19.4492 27.439 18.916 27.8596C18.3772 28.2846 17.6278 28.6458 16.746 28.94C14.977 29.5301 12.5639 29.8865 9.92179 29.8865C7.2799 29.8865 4.86745 29.5301 3.09857 28.94C2.21674 28.6458 1.46738 28.2846 0.928513 27.8596C0.395288 27.439 0.000171535 26.8983 0 26.2486C0 25.5988 0.395144 25.0574 0.928513 24.6367C1.46739 24.2117 2.21673 23.8505 3.09857 23.5563C4.86745 22.9662 7.2799 22.6098 9.92179 22.6097C12.5639 22.6097 14.977 22.9662 16.746 23.5563C17.6278 23.8505 18.3772 24.2117 18.916 24.6367C19.4494 25.0574 19.8446 25.5988 19.8446 26.2486Z" fill="#274247"/>
<path d="M19.3513 20.4799V23.9507C19.3513 25.7255 15.1299 27.1651 9.92223 27.1651C4.71455 27.1651 0.493164 25.7157 0.493164 23.9507V20.7954" fill="white"/>
<path d="M0 23.9502V20.7957H0.986304V23.9502C0.986304 24.1797 1.12262 24.4755 1.54303 24.814C1.95863 25.1485 2.5907 25.4713 3.4145 25.7528C5.05712 26.314 7.35774 26.6724 9.92179 26.6724C12.4863 26.6724 14.7875 26.3166 16.4301 25.7567C17.2537 25.4758 17.8852 25.1526 18.3006 24.8178C18.7203 24.4795 18.8582 24.1829 18.8582 23.9502V20.4799H19.8446V23.9502C19.8446 24.6049 19.4543 25.1545 18.9199 25.5853C18.3811 26.0196 17.6314 26.3888 16.7489 26.6897C14.9789 27.2932 12.5649 27.6584 9.92179 27.6584C7.27863 27.6584 4.86547 27.2905 3.09568 26.6859C2.21318 26.3844 1.46331 26.015 0.92466 25.5814C0.390921 25.1517 0 24.6032 0 23.9502Z" fill="#274247"/>
<path d="M4.13254 22.9943V26.1295H3.14624V22.9943H4.13254Z" fill="#274247"/>
<path d="M9.92223 23.9408C15.1298 23.9408 19.3513 22.5326 19.3513 20.7954C19.3513 19.0582 15.1298 17.65 9.92223 17.65C4.7147 17.65 0.493164 19.0582 0.493164 20.7954C0.493164 22.5326 4.7147 23.9408 9.92223 23.9408Z" fill="white"/>
<path d="M18.8582 20.7959C18.8582 20.5772 18.7253 20.2901 18.3044 19.9581C17.8891 19.6306 17.258 19.3135 16.4339 19.0385C14.7902 18.4902 12.4873 18.143 9.92179 18.143C7.3565 18.1431 5.05424 18.4902 3.41065 19.0385C2.58631 19.3135 1.95452 19.6305 1.53917 19.9581C1.11848 20.29 0.986304 20.5772 0.986304 20.7959C0.986475 21.0145 1.1188 21.301 1.53917 21.6326C1.95451 21.9602 2.58633 22.2772 3.41065 22.5522C5.05424 23.1005 7.3565 23.4477 9.92179 23.4477C12.4873 23.4477 14.7902 23.1005 16.4339 22.5522C17.258 22.2773 17.8891 21.9601 18.3044 21.6326C18.725 21.3009 18.8581 21.0145 18.8582 20.7959ZM19.8446 20.7959C19.8444 21.4455 19.4492 21.9863 18.916 22.4068C18.3772 22.8318 17.6278 23.193 16.746 23.4872C14.977 24.0773 12.5639 24.4338 9.92179 24.4338C7.2799 24.4337 4.86745 24.0773 3.09857 23.4872C2.21674 23.193 1.46738 22.8318 0.928513 22.4068C0.395288 21.9862 0.000171535 21.4455 0 20.7959C0 20.146 0.395144 19.6046 0.928513 19.1839C1.46739 18.7589 2.21673 18.3977 3.09857 18.1035C4.86745 17.5135 7.2799 17.157 9.92179 17.157C12.5639 17.157 14.977 17.5134 16.746 18.1035C17.6278 18.3977 18.3772 18.7589 18.916 19.1839C19.4494 19.6046 19.8446 20.146 19.8446 20.7959Z" fill="#274247"/>
<path d="M23.7504 11.793C26.8716 11.793 29.4019 9.26339 29.4019 6.143C29.4019 3.02261 26.8716 0.493042 23.7504 0.493042C20.6291 0.493042 18.0989 3.02261 18.0989 6.143C18.0989 9.26339 20.6291 11.793 23.7504 11.793Z" fill="white"/>
<path d="M28.9087 6.14344C28.9087 3.29549 26.5995 0.986281 23.7508 0.986031C20.902 0.986031 18.592 3.29534 18.592 6.14344C18.5923 8.99132 20.9021 11.2999 23.7508 11.2999C26.5994 11.2996 28.9085 8.99117 28.9087 6.14344ZM29.895 6.14344C29.8948 9.53574 27.1441 12.2857 23.7508 12.2859C20.3574 12.2859 17.606 9.53589 17.6057 6.14344C17.6057 2.75077 20.3572 0 23.7508 0C27.1442 0.000250025 29.895 2.75092 29.895 6.14344Z" fill="#274247"/>
<path d="M29.5297 12.9564L24.4108 18.6458C24.2234 18.8529 23.8979 18.8628 23.6908 18.6656L17.9604 12.9367C17.842 12.8184 17.6744 12.7691 17.5166 12.7987C16.3133 13.055 11.4902 14.2876 11.4902 17.1471V30.0246C11.4902 30.2317 11.5593 30.4388 11.6776 30.6064L15.2875 35.5957C15.4749 35.8521 15.7708 36 16.0864 36H31.3347C31.6503 36 31.9462 35.8521 32.1336 35.5957L35.8125 30.6064C35.9407 30.4388 35.9999 30.2317 35.9999 30.0246V17.1569C35.9999 14.3172 31.2163 13.0846 29.9933 12.8184C29.8158 12.7789 29.6481 12.8381 29.5297 12.9762V12.9564Z" fill="#274247"/>
</g>
<defs>
<clipPath id="clip0_8826_1200">
<rect width="36" height="36" fill="white"/>
</clipPath>
</defs>
</svg>
