<svg width="36" height="36" viewBox="0 0 36 36" fill="none" xmlns="http://www.w3.org/2000/svg">
<g clip-path="url(#clip0_10013_4050)">
<path d="M9.11533 25.6339C11.8897 25.6339 14.1389 23.3819 14.1389 20.6038C14.1389 17.8257 11.8897 15.5737 9.11533 15.5737C6.34091 15.5737 4.0918 17.8257 4.0918 20.6038C4.0918 23.3819 6.34091 25.6339 9.11533 25.6339Z" fill="white"/>
<path d="M13.6409 20.6034C13.6407 18.0933 11.6099 16.0668 9.11495 16.0668C6.62005 16.0669 4.5892 18.0933 4.589 20.6034C4.589 23.1136 6.61993 25.1409 9.11495 25.141C11.6101 25.141 13.6409 23.1137 13.6409 20.6034ZM14.6357 20.6034C14.6357 23.6492 12.1687 26.1273 9.11495 26.1273C6.06132 26.1272 3.59424 23.6492 3.59424 20.6034C3.59445 17.5578 6.06145 15.0806 9.11495 15.0805C12.1685 15.0805 14.6355 17.5577 14.6357 20.6034Z" fill="#274247"/>
<path d="M26.7024 25.9495C29.6527 25.9495 32.0443 23.5561 32.0443 20.6038C32.0443 17.6514 29.6527 15.258 26.7024 15.258C23.7522 15.258 21.3606 17.6514 21.3606 20.6038C21.3606 23.5561 23.7522 25.9495 26.7024 25.9495Z" fill="#274247"/>
<path d="M17.7298 36C18.0083 36 18.2271 35.783 18.2271 35.5069V29.5496C18.2271 27.646 15.3225 26.7781 14.089 26.5019C13.7607 26.423 13.4125 26.5315 13.1738 26.7682L9.47327 30.4274C9.27432 30.6148 8.96595 30.6148 8.76699 30.4274L5.05655 26.7682C4.8178 26.5315 4.46964 26.4329 4.14137 26.5019C2.90787 26.788 0.00317383 27.6559 0.00317383 29.5496V35.5069C0.00317383 35.783 0.222021 36 0.500553 36H17.7298Z" fill="#274247"/>
<path d="M2.95752 34.747V33.1693C2.95752 32.8969 3.1802 32.6761 3.4549 32.6761C3.72959 32.6761 3.95228 32.8969 3.95228 33.1693V34.747C3.95228 35.0194 3.72959 35.2401 3.4549 35.2401C3.1802 35.2401 2.95752 35.0194 2.95752 34.747Z" fill="white"/>
<path d="M3.95228 34.7473V35.9995H2.95752V34.7473H3.95228Z" fill="white"/>
<path d="M14.2681 34.747V33.1693C14.2681 32.8969 14.4908 32.6761 14.7654 32.6761C15.0401 32.6761 15.2628 32.8969 15.2628 33.1693V34.747C15.2628 35.0194 15.0401 35.2401 14.7654 35.2401C14.4908 35.2401 14.2681 35.0194 14.2681 34.747Z" fill="white"/>
<path d="M15.2628 34.7473V35.9995H14.2681V34.7473H15.2628Z" fill="white"/>
<path d="M33.6161 22.1721C34.8303 22.1721 35.8146 21.1873 35.8146 19.9726C35.8146 18.7579 34.8303 17.7732 33.6161 17.7732C32.402 17.7732 31.4177 18.7579 31.4177 19.9726C31.4177 21.1873 32.402 22.1721 33.6161 22.1721Z" fill="#274247"/>
<path d="M19.7887 22.1721C21.0029 22.1721 21.9872 21.1873 21.9872 19.9726C21.9872 18.7579 21.0029 17.7732 19.7887 17.7732C18.5746 17.7732 17.5903 18.7579 17.5903 19.9726C17.5903 21.1873 18.5746 22.1721 19.7887 22.1721Z" fill="#274247"/>
<path d="M35.4961 35.5068V29.5298C35.4961 27.7446 32.7008 27.1331 31.5668 26.9556C31.2783 26.9063 30.9799 26.995 30.761 27.1824L26.7124 30.6641L22.6538 27.1824C22.4349 26.995 22.1365 26.9063 21.848 26.9556C20.714 27.1331 17.9187 27.7446 17.9187 29.5298V35.5068H35.506H35.4961Z" fill="white"/>
<path d="M34.9987 29.5302C34.9987 28.9389 34.5422 28.4633 33.7426 28.0845C32.9677 27.7174 32.0414 27.5295 31.4889 27.443L31.4821 27.4421C31.3474 27.4191 31.1974 27.4601 31.0857 27.5557L27.0387 31.0367C26.8519 31.1973 26.5739 31.1971 26.3868 31.0367L22.3281 27.5557V27.5547C22.2165 27.4596 22.0672 27.4191 21.9328 27.4421L21.926 27.443C21.3734 27.5295 20.4471 27.7174 19.6722 28.0845C18.8727 28.4633 18.4161 28.9389 18.4161 29.5302V35.0136H34.9987V29.5302ZM35.9934 35.4076C36 35.4396 36.0032 35.4728 36.0032 35.5068C36.0032 35.7792 35.7805 35.9999 35.5058 35.9999H17.9188C17.6441 35.9999 17.4214 35.7792 17.4214 35.5068V29.5302C17.4214 28.3364 18.3623 27.6121 19.2438 27.1945C20.1464 26.7669 21.1811 26.5618 21.7637 26.4702V26.4692H21.7667C21.7679 26.469 21.7693 26.4685 21.7705 26.4683V26.4692C22.155 26.4054 22.5427 26.5005 22.8508 26.711L22.979 26.8092L26.7113 30.0109L30.4348 26.8102L30.4358 26.8092C30.7598 26.5318 31.2037 26.3966 31.6433 26.4692L31.6443 26.4683L31.6472 26.4692C31.6485 26.4694 31.6498 26.469 31.6511 26.4692L31.6501 26.4702C32.2326 26.5617 33.2679 26.7667 34.171 27.1945C35.0525 27.6121 35.9934 28.3364 35.9934 29.5302V35.4076Z" fill="#274247"/>
<path d="M21.1816 35.3692V33.1693C21.1816 32.8969 21.4043 32.6761 21.679 32.6761C21.9537 32.6761 22.1764 32.8969 22.1764 33.1693V35.3692C22.1761 35.6414 21.9536 35.8624 21.679 35.8624C21.4045 35.8624 21.1819 35.6414 21.1816 35.3692Z" fill="#274247"/>
<path d="M31.2285 35.3692V33.1693C31.2285 32.8969 31.4512 32.6761 31.7259 32.6761C32.0006 32.6761 32.2233 32.8969 32.2233 33.1693V35.3692C32.223 35.6414 32.0004 35.8624 31.7259 35.8624C31.4514 35.8624 31.2288 35.6414 31.2285 35.3692Z" fill="#274247"/>
<path d="M16.745 14.3506L16.357 12.2498C16.3471 12.1808 16.4068 12.1216 16.4764 12.1315L18.5754 12.526C18.6549 12.5358 18.6848 12.6345 18.6251 12.6936L16.9141 14.3999C16.8544 14.4591 16.7649 14.4295 16.745 14.3506Z" fill="#274247"/>
<path d="M15.8696 9.8334L16.2576 11.9342C16.2675 12.0033 16.2078 12.0624 16.1382 12.0526L14.0393 11.6581C13.9597 11.6482 13.9298 11.5496 13.9895 11.4904L15.7005 9.78408C15.7602 9.7249 15.8497 9.75449 15.8696 9.8334Z" fill="#274247"/>
<path d="M16.4666 11.9934L19.2618 0.493164H27.966V9.19233L16.4666 11.9934Z" fill="white"/>
<path d="M27.9653 0C28.24 0 28.4626 0.220791 28.4626 0.49315V9.19263C28.4625 9.41942 28.3068 9.61707 28.0848 9.67133L16.5848 12.4723C16.4164 12.5132 16.2386 12.4644 16.1156 12.3432C15.9926 12.2218 15.9419 12.0453 15.9825 11.878L18.7783 0.377568L18.8046 0.297624C18.882 0.119497 19.0602 0.000169758 19.2611 0H27.9653ZM17.1414 11.3213L27.4679 8.80447V0.986301H19.6536L17.1414 11.3213Z" fill="#274247"/>
<path d="M18.9319 0.162282C19.127 -0.0290902 19.442 -0.0272194 19.6352 0.166135L28.2995 8.83575C28.4925 9.02925 28.4906 9.34151 28.2956 9.5331C28.1005 9.72443 27.7855 9.72259 27.5923 9.52925L18.928 0.859627C18.735 0.666137 18.7369 0.353876 18.9319 0.162282Z" fill="#274247"/>
<path d="M27.5934 0.165142C27.7869 -0.0278164 28.1019 -0.0284904 28.2967 0.163216C28.4914 0.35508 28.492 0.667349 28.2987 0.860561L16.8988 12.2521C16.7053 12.4452 16.3904 12.4468 16.1955 12.255C16.0005 12.0632 16.0001 11.751 16.1935 11.5577L27.5934 0.165142Z" fill="#274247"/>
<path d="M16.2609 11.5328C16.5338 11.5019 16.7805 11.6966 16.8117 11.9672C16.8428 12.2377 16.6465 12.4824 16.3736 12.5133C16.1762 12.5357 15.9854 12.6479 15.8675 12.8408C15.754 13.0264 15.7403 13.2557 15.8218 13.4524L15.8267 13.4639V13.4649C16.0029 13.9221 15.9971 14.4782 15.7082 14.9511C15.4282 15.409 14.9625 15.6911 14.4637 15.7477C14.1909 15.7785 13.9442 15.5847 13.9129 15.3142C13.8817 15.0436 14.0781 14.799 14.351 14.7681C14.5484 14.7457 14.7392 14.6334 14.8572 14.4406C14.9659 14.2628 14.9802 14.0298 14.898 13.8165V13.8155C14.7068 13.3443 14.7346 12.7904 15.0165 12.3293C15.2964 11.8715 15.7622 11.5893 16.2609 11.5328Z" fill="#274247"/>
</g>
<defs>
<clipPath id="clip0_10013_4050">
<rect width="36" height="36" fill="white"/>
</clipPath>
</defs>
</svg>
