<svg width="36" height="36" viewBox="0 0 36 36" fill="none" xmlns="http://www.w3.org/2000/svg">
<g clip-path="url(#clip0_8826_1452)">
<path d="M0.770744 1.22782C0.961666 1.03215 1.27241 1.03146 1.46467 1.22587L5.21323 5.01599C5.40563 5.21053 5.407 5.52811 5.21611 5.72419C5.0252 5.91999 4.71449 5.9206 4.52218 5.72614L0.772661 1.93505C0.580673 1.74047 0.579993 1.42377 0.770744 1.22782Z" fill="#274247"/>
<path d="M35.5092 1.71051C35.7802 1.71051 35.9999 1.93443 35.9999 2.21065C35.9999 2.48687 35.7802 2.71079 35.5092 2.71079H26.9903L24.6335 5.68525C24.4633 5.90021 24.1543 5.93393 23.9434 5.76046C23.7328 5.58693 23.7004 5.27197 23.8705 5.05714L26.3731 1.89611L26.4507 1.81796C26.5364 1.74903 26.6433 1.71055 26.7545 1.71051H35.5092Z" fill="#274247"/>
<path d="M35.5093 18.7652C35.7803 18.7652 36 18.9891 36 19.2652C36 19.5414 35.7803 19.7652 35.5093 19.7652H0.490735C0.219709 19.7652 0 19.5414 0 19.2652C0 18.9891 0.219709 18.7652 0.490735 18.7652H35.5093Z" fill="#274247"/>
<path d="M21.7783 21.4295C21.9713 21.236 22.2821 21.2388 22.4722 21.4354L27.831 26.977C28.0209 27.1737 28.0182 27.4904 27.8252 27.6842C27.6322 27.8777 27.3214 27.8749 27.1313 27.6783L21.7725 22.1368C21.5826 21.94 21.5854 21.6233 21.7783 21.4295Z" fill="#274247"/>
<path d="M14.5652 24.7668C7.94027 24.7668 2.552 19.3252 2.552 12.6334C2.552 5.94151 7.94027 0.5 14.5652 0.5C21.1901 0.5 26.5784 5.94151 26.5784 12.6334C26.5784 19.3252 21.1901 24.7668 14.5652 24.7668Z" fill="white"/>
<path d="M14.565 1.00028C20.9249 1.00028 26.0875 6.22173 26.0875 12.6335C26.0875 19.0453 20.9151 24.2668 14.565 24.2668C8.2149 24.2668 3.03274 19.0453 3.03274 12.6335C3.03274 6.22173 8.20508 1.00028 14.565 1.00028ZM14.565 0C7.65546 0 2.05127 5.66158 2.05127 12.6335C2.05127 19.6055 7.65546 25.267 14.5552 25.267C21.4549 25.267 27.0591 19.6055 27.0591 12.6335C27.0591 5.66158 21.4745 0 14.565 0Z" fill="#274247"/>
<path d="M33.0557 35.5097C32.4472 35.5097 31.8681 35.2696 31.4362 34.8295L23.1919 26.4972L26.4209 23.2363L34.6751 31.5786C35.1069 32.0087 35.3425 32.5889 35.3425 33.199C35.3425 33.8092 35.1069 34.3894 34.6751 34.8195C34.2432 35.2596 33.6642 35.4997 33.0557 35.4997V35.5097Z" fill="white"/>
<path d="M26.4113 23.9466L34.3219 31.9389C34.6556 32.279 34.8421 32.7291 34.8421 33.2092C34.8421 33.6894 34.6556 34.1395 34.3219 34.4796C33.9784 34.8197 33.5269 35.0097 33.0558 35.0097C32.5847 35.0097 32.1234 34.8197 31.7897 34.4796L23.8889 26.5074L26.4211 23.9566M26.4113 22.6163C26.3622 22.6163 26.3131 22.6363 26.2739 22.6763L22.6326 26.3573C22.5541 26.4373 22.5541 26.5674 22.6326 26.6374L31.0929 35.1798C31.6327 35.7299 32.3492 36 33.0558 36C33.7625 36 34.479 35.7299 35.0188 35.1798C36.0984 34.0895 36.0984 32.309 35.0188 31.2187L26.5585 22.6763C26.5585 22.6763 26.4702 22.6163 26.4211 22.6163H26.4113Z" fill="#274247"/>
<path d="M25.4691 28.948L28.9042 25.4871L26.4898 23.0564L23.0645 26.5174L25.4691 28.948Z" fill="#274247"/>
<path d="M14.8756 12.1602L21.9951 3.15675L22.3775 3.47129L22.7599 3.78485L15.2609 13.267C15.1682 13.3842 15.029 13.4529 14.8813 13.4536C14.7337 13.4542 14.5935 13.3872 14.4999 13.2709L6.5791 3.42831L7.33821 2.79337L14.8756 12.1602Z" fill="#274247"/>
<path d="M14.5649 15.7944C16.1205 15.7944 17.3817 14.5225 17.3817 12.9536C17.3817 11.3847 16.1205 10.1128 14.5649 10.1128C13.0092 10.1128 11.748 11.3847 11.748 12.9536C11.748 14.5225 13.0092 15.7944 14.5649 15.7944Z" fill="white"/>
<path d="M16.8912 12.9534C16.8911 11.6658 15.8544 10.613 14.565 10.6129C13.2755 10.6129 12.2389 11.6658 12.2388 12.9534C12.2388 14.2412 13.2755 15.2939 14.565 15.2939C15.8545 15.2939 16.8912 14.2412 16.8912 12.9534ZM17.8727 12.9534C17.8727 14.8035 16.3868 16.2942 14.565 16.2942C12.7432 16.2942 11.2573 14.8035 11.2573 12.9534C11.2574 11.1034 12.7432 9.61267 14.565 9.61267C16.3867 9.61273 17.8726 11.1035 17.8727 12.9534Z" fill="#274247"/>
<path d="M26.8039 3.91C27.6658 3.91 28.3645 3.20261 28.3645 2.33C28.3645 1.45739 27.6658 0.75 26.8039 0.75C25.9421 0.75 25.2434 1.45739 25.2434 2.33C25.2434 3.20261 25.9421 3.91 26.8039 3.91Z" fill="white"/>
<path d="M27.8735 2.33066C27.8735 1.73699 27.3976 1.25028 26.8038 1.25028C26.2101 1.25036 25.7342 1.73704 25.7342 2.33066C25.7342 2.92423 26.2101 3.41095 26.8038 3.41104C27.3975 3.41104 27.8734 2.92428 27.8735 2.33066ZM28.8549 2.33066C28.8549 3.48266 27.9337 4.41131 26.8038 4.41131C25.6739 4.41123 24.7527 3.48261 24.7527 2.33066C24.7527 1.17867 25.6739 0.250084 26.8038 0.25C27.9338 0.25 28.8549 1.17861 28.8549 2.33066Z" fill="#274247"/>
<path d="M2.05126 4.11029C2.91312 4.11029 3.61179 3.4029 3.61179 2.53029C3.61179 1.65768 2.91312 0.950287 2.05126 0.950287C1.1894 0.950287 0.490723 1.65768 0.490723 2.53029C0.490723 3.4029 1.1894 4.11029 2.05126 4.11029Z" fill="white"/>
<path d="M3.12077 2.53067C3.12077 1.93701 2.64488 1.45029 2.05112 1.45029C1.45743 1.45037 0.981469 1.93706 0.981469 2.53067C0.981511 3.12425 1.45746 3.61096 2.05112 3.61105C2.64485 3.61105 3.12072 3.1243 3.12077 2.53067ZM4.10223 2.53067C4.10219 3.68267 3.18105 4.61133 2.05112 4.61133C0.921251 4.61124 4.17012e-05 3.68262 0 2.53067C0 1.37868 0.921225 0.450096 2.05112 0.450012C3.18108 0.450012 4.10223 1.37863 4.10223 2.53067Z" fill="#274247"/>
<path d="M23.3196 20.6657V21.6657H5.8103V20.6657H23.3196Z" fill="#274247"/>
</g>
<defs>
<clipPath id="clip0_8826_1452">
<rect width="36" height="36" fill="white"/>
</clipPath>
</defs>
</svg>
