<svg width="36" height="36" viewBox="0 0 36 36" fill="none" xmlns="http://www.w3.org/2000/svg">
<g clip-path="url(#clip0_8826_1499)">
<path d="M2.31079 36L5.55169 26.6696L16.4747 20.5743L18.7354 18.1973H21.6962L23.1066 20.7912L23.2866 27.3699L19.9057 32.7945L19.6656 36" fill="white"/>
<path d="M17.5049 10.1789V0.493151C17.5049 0.220791 17.7287 0 18.0049 0C18.281 0 18.5049 0.220791 18.5049 0.493151V10.1789C18.5047 10.4512 18.2809 10.6721 18.0049 10.6721C17.7288 10.6721 17.5051 10.4512 17.5049 10.1789Z" fill="#274247"/>
<path d="M30.5152 4.77025C30.7106 4.57783 31.0272 4.57762 31.2224 4.77025C31.4176 4.96297 31.4169 5.27514 31.2215 5.4676L23.9001 12.678C23.7046 12.8704 23.388 12.8697 23.1929 12.677C22.9977 12.4843 22.9974 12.1721 23.1929 11.9797L30.5152 4.77025Z" fill="#274247"/>
<path d="M22.1004 6.13221C22.2013 5.87868 22.4918 5.75338 22.7488 5.85289C23.0057 5.95247 23.1319 6.23899 23.0311 6.49244L22.3016 8.32731C22.2006 8.58076 21.9101 8.70516 21.6531 8.60567C21.3963 8.50622 21.2694 8.22048 21.3699 7.96708L22.1004 6.13221Z" fill="#274247"/>
<path d="M23.541 2.50261C23.6421 2.24916 23.9324 2.12454 24.1894 2.22425C24.4459 2.32404 24.5723 2.60963 24.4716 2.86284L23.7509 4.66785C23.6498 4.92122 23.3604 5.04574 23.1035 4.94621C22.8465 4.8465 22.7201 4.56011 22.8212 4.30666L23.541 2.50261Z" fill="#274247"/>
<path d="M29.4777 11.956C29.7309 11.8473 30.0258 11.9615 30.1359 12.2112C30.2459 12.4608 30.13 12.7507 29.8771 12.8594L28.1066 13.6194C27.8536 13.7278 27.5597 13.6135 27.4494 13.3641C27.3392 13.1144 27.455 12.8236 27.7082 12.7149L29.4777 11.956Z" fill="#274247"/>
<path d="M9.86255 18.2071C9.86255 13.7688 13.5136 10.1786 18.0048 10.1786C22.4961 10.1786 26.1471 13.7786 26.1471 18.2071" fill="white"/>
<path d="M18.0046 9.68549C22.7719 9.68549 26.6474 13.5061 26.6476 18.2068H25.6473C25.6472 14.0508 22.2195 10.6718 18.0046 10.6718C13.7894 10.672 10.363 14.0415 10.3628 18.2068H9.36255C9.36274 13.4959 13.2378 9.68567 18.0046 9.68549Z" fill="#274247"/>
<path d="M4.81763 4.77023C5.01295 4.57765 5.32954 4.57765 5.52486 4.77023L12.8365 11.9797C13.0318 12.1723 13.0318 12.4844 12.8365 12.677C12.6411 12.8696 12.3245 12.8696 12.1292 12.677L4.81763 5.46758C4.62231 5.27499 4.62231 4.96282 4.81763 4.77023Z" fill="#274247"/>
<path d="M13.2912 5.85289C13.5482 5.75351 13.8387 5.87874 13.9396 6.13221L14.6691 7.96708C14.7697 8.22039 14.6435 8.50605 14.3869 8.60567C14.1299 8.70514 13.8394 8.58065 13.7384 8.32731L13.008 6.49244C12.9072 6.23896 13.0342 5.95237 13.2912 5.85289Z" fill="#274247"/>
<path d="M11.8507 2.22427C12.1076 2.12472 12.3971 2.24926 12.4981 2.50263L13.2189 4.30667C13.3199 4.56001 13.1934 4.84639 12.9366 4.94623C12.6797 5.04594 12.3893 4.92131 12.2882 4.66787L11.5685 2.86286C11.4675 2.60947 11.5938 2.32395 11.8507 2.22427Z" fill="#274247"/>
<path d="M5.90373 12.2112C6.01388 11.9615 6.30774 11.8473 6.56095 11.956L8.33146 12.7149C8.58452 12.8237 8.70037 13.1145 8.59025 13.3641C8.48002 13.6137 8.18519 13.728 7.93205 13.6194L6.16251 12.8594C5.9093 12.7508 5.79359 12.4609 5.90373 12.2112Z" fill="#274247"/>
<path d="M2.31079 15.337L3.64079 13.3841L4.96079 15.337H2.31079Z" fill="#274247"/>
<path d="M1.73071 16.9643L3.64124 14.1534L5.55177 16.9643H1.73071Z" fill="#274247"/>
<path d="M1.12036 18.6411L3.64106 14.9424L6.15176 18.6411H1.12036Z" fill="#274247"/>
<path d="M6.45142 17.3688L7.74142 15.4751L9.03142 17.3688H6.45142Z" fill="#274247"/>
<path d="M5.89185 18.9469L7.74236 16.2247L9.59287 18.9469H5.89185Z" fill="#274247"/>
<path d="M5.30151 20.5743L7.74219 16.9841L10.1829 20.5743H5.30151Z" fill="#274247"/>
<path d="M12.7537 15.8499L14.0437 13.9562L15.3237 15.8499H12.7537Z" fill="#274247"/>
<path d="M12.1936 17.4181L14.0441 14.7057L15.8946 17.4181H12.1936Z" fill="#274247"/>
<path d="M11.6033 19.0455L14.0439 15.4652L16.4746 19.0455H11.6033Z" fill="#274247"/>
<path d="M28.158 15.6822L29.378 13.8871L30.598 15.6822H28.158Z" fill="#274247"/>
<path d="M27.6177 17.1814L29.3777 14.5973L31.1377 17.1814H27.6177Z" fill="#274247"/>
<path d="M27.0576 18.7299L29.3783 15.3173L31.6989 18.7299H27.0576Z" fill="#274247"/>
<path d="M31.8706 16.4269L32.843 15L33.8075 16.4269H31.8706Z" fill="#274247"/>
<path d="M31.4512 17.6043L32.8426 15.5614L34.234 17.6043H31.4512Z" fill="#274247"/>
<path d="M31.0085 18.8285L32.8432 16.1384L34.6699 18.8285H31.0085Z" fill="#274247"/>
<path d="M22.446 17.1222L23.736 15.2285L25.026 17.1222H22.446Z" fill="#274247"/>
<path d="M21.886 18.7003L23.7365 15.9781L25.587 18.7003H21.886Z" fill="#274247"/>
<path d="M12.9536 25.7129C21.2459 22.8427 19.9055 19.3216 18.9653 18.2564C18.9253 18.2071 18.8752 18.1874 18.8152 18.1874H0.500139C0.220061 18.1874 0 18.4044 0 18.6805V35.497C0 35.7731 0.220061 35.9901 0.500139 35.9901H3.04084C3.15087 35.9901 3.2309 35.9112 3.2309 35.8126C3.38094 32.9326 7.08197 27.7348 12.9536 25.7129Z" fill="#274247"/>
<path d="M21.0258 18.1974C20.8358 18.1974 20.7557 18.4242 20.8958 18.5426C22.0961 19.519 24.0466 22.3004 20.8057 26.502C18.5551 29.4215 17.8049 32.5481 17.7749 35.793C17.7749 35.9015 17.8649 36.0001 17.975 36.0001H35.4998C35.7799 36.0001 36 35.7831 36 35.507V18.6905C36 18.4144 35.7799 18.1974 35.4998 18.1974H21.0158H21.0258Z" fill="#274247"/>
</g>
<defs>
<clipPath id="clip0_8826_1499">
<rect width="36" height="36" fill="white"/>
</clipPath>
</defs>
</svg>
