<svg width="36" height="36" viewBox="0 0 36 36" fill="none" xmlns="http://www.w3.org/2000/svg">
<g clip-path="url(#clip0_8826_1275)">
<path d="M33.97 19.0047C33.5 17.1839 31.44 16.1988 30.65 15.9103C30.48 15.8406 30.29 15.8804 30.15 16.0098C29.31 16.7859 26.2 19.6813 25.13 20.6764C24.93 20.8654 24.61 20.8455 24.43 20.6465L15.39 10.9153C15.2 10.7063 14.87 10.7063 14.67 10.9053L10.59 14.9849C10.4 15.1739 10.08 15.1839 9.89 14.9849L5.43 10.6964C5.32 10.5869 5.17 10.5372 5.01 10.5571C3.97 10.7063 0 11.3829 0 13.8705V24.8853C0 25.1042 0.07 25.3032 0.2 25.4823L3.5 29.8902C3.69 30.1389 3.99 30.2882 4.3 30.2882H16.58C16.86 30.2882 17.08 30.5071 17.08 30.7857V35.4921C17.08 35.7607 17.31 35.9896 17.58 35.9896H31.76C32.08 35.9896 32.37 35.8403 32.56 35.5916L35.8 31.2633C35.96 31.0444 36.03 30.7658 35.98 30.4971L33.97 18.9948V19.0047Z" fill="#274247"/>
<path d="M25.3 14.766C27.9399 14.766 30.08 12.6366 30.08 10.0098C30.08 7.3831 27.9399 5.25369 25.3 5.25369C22.6601 5.25369 20.52 7.3831 20.52 10.0098C20.52 12.6366 22.6601 14.766 25.3 14.766Z" fill="white"/>
<path d="M29.5796 10.0101C29.5796 7.65823 27.6639 5.75135 25.3003 5.75121C22.9365 5.75121 21.02 7.65814 21.02 10.0101C21.0202 12.362 22.9366 14.2681 25.3003 14.2681C27.6639 14.2679 29.5794 12.3619 29.5796 10.0101ZM30.5796 10.0101C30.5794 12.9114 28.2161 15.2629 25.3003 15.2631C22.3843 15.2631 20.0202 12.9115 20.02 10.0101C20.02 7.10861 22.3842 4.7562 25.3003 4.7562C28.2162 4.75634 30.5796 7.1087 30.5796 10.0101Z" fill="#274247"/>
<path d="M10.1201 10.0098C12.76 10.0098 14.9001 7.88041 14.9001 5.25365C14.9001 2.6269 12.76 0.497498 10.1201 0.497498C7.48017 0.497498 5.34009 2.6269 5.34009 5.25365C5.34009 7.88041 7.48017 10.0098 10.1201 10.0098Z" fill="white"/>
<path d="M14.3997 5.25393C14.3997 2.90204 12.484 0.995159 10.1204 0.995012C7.75658 0.995012 5.84009 2.90195 5.84009 5.25393C5.84024 7.6058 7.75667 9.51188 10.1204 9.51188C12.4839 9.51174 14.3995 7.60571 14.3997 5.25393ZM15.3997 5.25393C15.3995 8.15523 13.0362 10.5067 10.1204 10.5069C7.20439 10.5069 4.84024 8.15533 4.84009 5.25393C4.84009 2.35242 7.2043 0 10.1204 0C13.0363 0.00014718 15.3997 2.35251 15.3997 5.25393Z" fill="#274247"/>
<path d="M14.8701 26.5867C16.9632 26.5867 18.6601 24.8983 18.6601 22.8156C18.6601 20.7329 16.9632 19.0445 14.8701 19.0445C12.7769 19.0445 11.0801 20.7329 11.0801 22.8156C11.0801 24.8983 12.7769 26.5867 14.8701 26.5867Z" fill="white"/>
<path d="M23.72 35.502V29.3429C23.72 27.0842 19.36 26.3479 19.18 26.318L19.06 26.2981L18.98 26.3877L14.88 30.507L10.77 26.3877L10.69 26.2981L10.57 26.318C10.38 26.3479 6.02002 27.0842 6.02002 29.3429V35.502H23.73H23.72Z" fill="white"/>
<path d="M23.2202 29.3425C23.2201 28.9549 23.0378 28.6079 22.6929 28.2833C22.3421 27.9534 21.8513 27.6763 21.3218 27.4525C20.4597 27.0883 19.5769 26.8992 19.2378 26.8345L15.2349 30.8573C15.1411 30.9514 15.0136 31.005 14.8804 31.005C14.747 31.0051 14.6188 30.9515 14.5249 30.8573L10.5112 26.8336C10.174 26.8971 9.28589 27.0868 8.41943 27.4525C7.88934 27.6763 7.39823 27.9534 7.04736 28.2833C6.70229 28.6079 6.52015 28.9549 6.52002 29.3425V35.0045H23.2202V29.3425ZM24.2202 35.4019C24.2268 35.4343 24.23 35.4678 24.23 35.502C24.23 35.7768 24.0061 35.9995 23.73 35.9995H6.02002C5.74388 35.9995 5.52002 35.7768 5.52002 35.502V29.3425C5.52016 28.6013 5.88294 28.0098 6.36084 27.5604C6.83341 27.1161 7.44515 26.7826 8.02881 26.5362C9.18413 26.0486 10.3542 25.8492 10.4878 25.8279L10.6079 25.8075L10.6714 25.8007C10.8195 25.7952 10.964 25.856 11.064 25.9678L11.1362 26.0494L14.8794 29.8001L18.6128 26.0494L18.686 25.9678C18.8002 25.84 18.9726 25.7794 19.1421 25.8075L19.2622 25.8269C19.3626 25.8436 20.5452 26.0435 21.7134 26.5372C22.2962 26.7836 22.9072 27.1162 23.3794 27.5604C23.8571 28.0098 24.2201 28.6012 24.2202 29.3425V35.4019Z" fill="#274247"/>
<path d="M9.51001 35.383V33.2832C9.51001 33.0084 9.73387 32.7856 10.01 32.7856C10.2862 32.7856 10.51 33.0084 10.51 33.2832V35.383C10.5098 35.6576 10.286 35.8805 10.01 35.8805C9.73398 35.8805 9.5102 35.6576 9.51001 35.383Z" fill="#274247"/>
<path d="M19.22 35.5025V33.2832C19.22 33.0084 19.4438 32.7856 19.72 32.7856C19.9961 32.7856 20.22 33.0084 20.22 33.2832V35.5025C20.2197 35.777 19.996 36 19.72 36C19.444 36 19.2202 35.777 19.22 35.5025Z" fill="#274247"/>
</g>
<defs>
<clipPath id="clip0_8826_1275">
<rect width="36" height="36" fill="white"/>
</clipPath>
</defs>
</svg>
