<svg width="36" height="36" viewBox="0 0 36 36" fill="none" xmlns="http://www.w3.org/2000/svg">
<g clip-path="url(#clip0_8826_1585)">
<path d="M35.5135 26.2703C35.7822 26.2703 36 26.4881 36 26.7568C36 27.0254 35.7822 27.2432 35.5135 27.2432H0.486486C0.217807 27.2432 0 27.0254 0 26.7568C0 26.4881 0.217807 26.2703 0.486486 26.2703H35.5135Z" fill="#274247"/>
<path d="M28.2843 0.486481H7.71565C7.17829 0.486481 6.74268 0.922096 6.74268 1.45945V34.5405C6.74268 35.0779 7.17829 35.5135 7.71565 35.5135H28.2843C28.8217 35.5135 29.2573 35.0779 29.2573 34.5405V1.45945C29.2573 0.922096 28.8217 0.486481 28.2843 0.486481Z" fill="white"/>
<path d="M28.7704 1.45946C28.7704 1.22449 28.6042 1.02797 28.3827 0.982475L28.2839 0.972973H7.71556C7.44688 0.972973 7.22908 1.19078 7.22908 1.45946V34.5405C7.22908 34.8092 7.44688 35.027 7.71556 35.027H28.2839C28.5525 35.027 28.7704 34.8092 28.7704 34.5405V1.45946ZM29.7433 34.5405C29.7433 35.3466 29.0899 36 28.2839 36H7.71556C6.90953 36 6.2561 35.3466 6.2561 34.5405V1.45946C6.2561 0.653422 6.90953 0 7.71556 0H28.2839L28.433 0.00760135C29.1692 0.0821669 29.7433 0.703671 29.7433 1.45946V34.5405Z" fill="#274247"/>
<path d="M26.1241 3.60974H9.86572V9.86596H26.1241V3.60974Z" fill="#274247"/>
<path d="M26.1242 3.12326C26.3929 3.12326 26.6107 3.34107 26.6107 3.60975V9.86566C26.6107 10.1343 26.3929 10.3521 26.1242 10.3521H9.86588C9.5972 10.3521 9.37939 10.1343 9.37939 9.86566V3.60975L9.3889 3.51188C9.43417 3.29007 9.6307 3.12326 9.86588 3.12326H26.1242ZM10.3524 9.37917H25.6377V4.09623H10.3524V9.37917Z" fill="#274247"/>
<path d="M11.7436 18C12.7807 18 13.6214 17.1593 13.6214 16.1222C13.6214 15.0851 12.7807 14.2443 11.7436 14.2443C10.7065 14.2443 9.86572 15.0851 9.86572 16.1222C9.86572 17.1593 10.7065 18 11.7436 18Z" fill="#274247"/>
<path d="M13.1354 16.1219C13.1352 15.3536 12.5117 14.7308 11.7434 14.7308C10.9752 14.731 10.3525 15.3537 10.3524 16.1219C10.3524 16.8902 10.9751 17.5137 11.7434 17.5139C12.5118 17.5139 13.1354 16.8903 13.1354 16.1219ZM14.1084 16.1219C14.1084 17.4276 13.0492 18.4868 11.7434 18.4868C10.4378 18.4867 9.37939 17.4275 9.37939 16.1219C9.37956 14.8163 10.4379 13.758 11.7434 13.7578C13.0491 13.7578 14.1082 14.8162 14.1084 16.1219Z" fill="#274247"/>
<path d="M24.2563 18C25.2934 18 26.1341 17.1593 26.1341 16.1222C26.1341 15.0851 25.2934 14.2443 24.2563 14.2443C23.2192 14.2443 22.3784 15.0851 22.3784 16.1222C22.3784 17.1593 23.2192 18 24.2563 18Z" fill="#274247"/>
<path d="M25.6479 16.1219C25.6477 15.3536 25.0242 14.7308 24.2559 14.7308C23.4877 14.731 22.865 15.3537 22.8648 16.1219C22.8648 16.8902 23.4876 17.5137 24.2559 17.5139C25.0243 17.5139 25.6479 16.8903 25.6479 16.1219ZM26.6208 16.1219C26.6208 17.4276 25.5616 18.4868 24.2559 18.4868C22.9502 18.4867 21.8918 17.4275 21.8918 16.1219C21.892 14.8163 22.9503 13.758 24.2559 13.7578C25.5615 13.7578 26.6207 14.8162 26.6208 16.1219Z" fill="#274247"/>
<path d="M18.0002 18C19.0373 18 19.878 17.1593 19.878 16.1222C19.878 15.0851 19.0373 14.2443 18.0002 14.2443C16.9631 14.2443 16.1223 15.0851 16.1223 16.1222C16.1223 17.1593 16.9631 18 18.0002 18Z" fill="#274247"/>
<path d="M19.3918 16.1219C19.3916 15.3536 18.7681 14.7308 17.9998 14.7308C17.2316 14.731 16.6089 15.3537 16.6087 16.1219C16.6087 16.8902 17.2315 17.5137 17.9998 17.5139C18.7682 17.5139 19.3918 16.8903 19.3918 16.1219ZM20.3647 16.1219C20.3647 17.4276 19.3055 18.4868 17.9998 18.4868C16.6941 18.4867 15.6357 17.4275 15.6357 16.1219C15.6359 14.8163 16.6942 13.758 17.9998 13.7578C19.3054 13.7578 20.3646 14.8162 20.3647 16.1219Z" fill="#274247"/>
<path d="M11.7436 24.8789C12.7807 24.8789 13.6214 24.0382 13.6214 23.0011C13.6214 21.964 12.7807 21.1233 11.7436 21.1233C10.7065 21.1233 9.86572 21.964 9.86572 23.0011C9.86572 24.0382 10.7065 24.8789 11.7436 24.8789Z" fill="#274247"/>
<path d="M13.1354 23.0008C13.1352 22.2325 12.5117 21.6098 11.7434 21.6098C10.9752 21.6099 10.3525 22.2326 10.3524 23.0008C10.3524 23.7691 10.9751 24.3926 11.7434 24.3928C12.5118 24.3928 13.1354 23.7692 13.1354 23.0008ZM14.1084 23.0008C14.1084 24.3066 13.0492 25.3658 11.7434 25.3658C10.4378 25.3656 9.37939 24.3065 9.37939 23.0008C9.37956 21.6953 10.4379 20.6369 11.7434 20.6368C13.0491 20.6368 14.1082 21.6952 14.1084 23.0008Z" fill="#274247"/>
<path d="M24.2563 24.8789C25.2934 24.8789 26.1341 24.0382 26.1341 23.0011C26.1341 21.964 25.2934 21.1233 24.2563 21.1233C23.2192 21.1233 22.3784 21.964 22.3784 23.0011C22.3784 24.0382 23.2192 24.8789 24.2563 24.8789Z" fill="#274247"/>
<path d="M25.6479 23.0008C25.6477 22.2325 25.0242 21.6098 24.2559 21.6098C23.4877 21.6099 22.865 22.2326 22.8648 23.0008C22.8648 23.7691 23.4876 24.3926 24.2559 24.3928C25.0243 24.3928 25.6479 23.7692 25.6479 23.0008ZM26.6208 23.0008C26.6208 24.3066 25.5616 25.3658 24.2559 25.3658C22.9502 25.3656 21.8918 24.3065 21.8918 23.0008C21.892 21.6953 22.9503 20.6369 24.2559 20.6368C25.5615 20.6368 26.6207 21.6952 26.6208 23.0008Z" fill="#274247"/>
<path d="M18.0002 24.8789C19.0373 24.8789 19.878 24.0382 19.878 23.0011C19.878 21.964 19.0373 21.1233 18.0002 21.1233C16.9631 21.1233 16.1223 21.964 16.1223 23.0011C16.1223 24.0382 16.9631 24.8789 18.0002 24.8789Z" fill="#274247"/>
<path d="M19.3918 23.0008C19.3916 22.2325 18.7681 21.6098 17.9998 21.6098C17.2316 21.6099 16.6089 22.2326 16.6087 23.0008C16.6087 23.7691 17.2315 24.3926 17.9998 24.3928C18.7682 24.3928 19.3918 23.7692 19.3918 23.0008ZM20.3647 23.0008C20.3647 24.3066 19.3055 25.3658 17.9998 25.3658C16.6941 25.3656 15.6357 24.3065 15.6357 23.0008C15.6359 21.6953 16.6942 20.6369 17.9998 20.6368C19.3054 20.6368 20.3646 21.6952 20.3647 23.0008Z" fill="#274247"/>
<path d="M24.2563 31.7579C25.2934 31.7579 26.1341 30.9171 26.1341 29.88C26.1341 28.8429 25.2934 28.0022 24.2563 28.0022C23.2192 28.0022 22.3784 28.8429 22.3784 29.88C22.3784 30.9171 23.2192 31.7579 24.2563 31.7579Z" fill="#274247"/>
<path d="M25.6479 29.8797C25.6477 29.1115 25.0242 28.4887 24.2559 28.4887C23.4877 28.4889 22.865 29.1116 22.8648 29.8797C22.8648 30.6481 23.4876 31.2716 24.2559 31.2717C25.0243 31.2717 25.6479 30.6482 25.6479 29.8797ZM26.6208 29.8797C26.6208 31.1855 25.5616 32.2447 24.2559 32.2447C22.9502 32.2445 21.8918 31.1854 21.8918 29.8797C21.892 28.5742 22.9503 27.5159 24.2559 27.5157C25.5615 27.5157 26.6207 28.5741 26.6208 29.8797Z" fill="#274247"/>
<path d="M17.9998 28.0119H11.7436C10.7065 28.0119 9.86572 28.8526 9.86572 29.8897C9.86572 30.9268 10.7065 31.7675 11.7436 31.7675H17.9998C19.0369 31.7675 19.8776 30.9268 19.8776 29.8897C19.8776 28.8526 19.0369 28.0119 17.9998 28.0119Z" fill="#274247"/>
<path d="M19.3913 29.8894C19.3912 29.1691 18.8435 28.5771 18.1419 28.506L18.0003 28.4984H11.7434C10.9752 28.4985 10.3525 29.1212 10.3524 29.8894C10.3524 30.6577 10.9751 31.2812 11.7434 31.2814H18.0003C18.7685 31.2812 19.3913 30.6577 19.3913 29.8894ZM20.3643 29.8894C20.3643 31.1951 19.3059 32.2542 18.0003 32.2544H11.7434C10.4378 32.2542 9.37939 31.1951 9.37939 29.8894C9.37956 28.5839 10.4379 27.5256 11.7434 27.5254H18.0003L18.2416 27.5377C19.4338 27.6588 20.3641 28.6654 20.3643 29.8894Z" fill="#274247"/>
</g>
<defs>
<clipPath id="clip0_8826_1585">
<rect width="36" height="36" fill="white"/>
</clipPath>
</defs>
</svg>
