<svg width="36" height="36" viewBox="0 0 36 36" fill="none" xmlns="http://www.w3.org/2000/svg">
<g clip-path="url(#clip0_8826_1555)">
<path d="M17.5 22.1808V19.0487C17.5 18.7741 17.7239 18.5516 18 18.5516C18.2761 18.5516 18.5 18.7741 18.5 19.0487V22.1808C18.4998 22.4552 18.276 22.6779 18 22.6779C17.724 22.6779 17.5002 22.4552 17.5 22.1808Z" fill="#274247"/>
<path d="M17.5362 21.995C17.6392 21.7403 17.9304 21.6169 18.1866 21.7192L21.3468 22.9814C21.6028 23.0837 21.7268 23.3734 21.6241 23.628C21.5212 23.8827 21.2299 24.0069 20.9737 23.9047L17.8136 22.6416C17.5574 22.5392 17.4332 22.2497 17.5362 21.995Z" fill="#274247"/>
<path d="M17.8137 21.7193C18.0699 21.6169 18.3611 21.7403 18.4641 21.995C18.567 22.2497 18.4428 22.5392 18.1867 22.6416L15.0266 23.9048C14.7704 24.0071 14.4792 23.8828 14.3762 23.6281C14.2735 23.3734 14.3974 23.0838 14.6535 22.9814L17.8137 21.7193Z" fill="#274247"/>
<path d="M25.89 10.6179C25.89 8.92774 23.11 8.4704 22.31 8.37098C22.17 8.3511 22.04 8.40081 21.94 8.48035L18.63 11.2243C18.44 11.3735 18.18 11.3735 17.99 11.2243L14.68 8.48035C14.57 8.39087 14.44 8.3511 14.31 8.37098C13.51 8.4704 10.73 8.92774 10.73 10.6179V16.0164C10.73 16.2948 10.95 16.5135 11.23 16.5135H25.39C25.67 16.5135 25.89 16.2948 25.89 16.0164V10.6179Z" fill="#274247"/>
<path d="M18.3201 7.39667C20.2365 7.39667 21.7901 5.85211 21.7901 3.94679C21.7901 2.04148 20.2365 0.496918 18.3201 0.496918C16.4037 0.496918 14.8501 2.04148 14.8501 3.94679C14.8501 5.85211 16.4037 7.39667 18.3201 7.39667Z" fill="white"/>
<path d="M21.2905 3.94652C21.2904 2.31587 19.96 0.994017 18.3198 0.994017C16.6798 0.994164 15.3502 2.31596 15.3501 3.94652C15.3501 5.5772 16.6797 6.89985 18.3198 6.9C19.9601 6.9 21.2905 5.57729 21.2905 3.94652ZM22.2905 3.94652C22.2905 6.12638 20.5124 7.8942 18.3198 7.8942C16.1274 7.89405 14.3501 6.12628 14.3501 3.94652C14.3502 1.76688 16.1275 -3.65682e-05 18.3198 -0.000183105C20.5123 -0.000183105 22.2904 1.76679 22.2905 3.94652Z" fill="#274247"/>
<path d="M13.24 15.4103V14.3064C13.24 14.0318 13.4638 13.8093 13.74 13.8093C14.0161 13.8093 14.24 14.0318 14.24 14.3064V15.4103C14.2398 15.6847 14.016 15.9074 13.74 15.9074C13.464 15.9074 13.2402 15.6847 13.24 15.4103Z" fill="white"/>
<path d="M14.24 15.4099V16.5138H13.24V15.4099H14.24Z" fill="white"/>
<path d="M22.3899 15.4103V14.3064C22.3899 14.0318 22.6138 13.8093 22.8899 13.8093C23.166 13.8093 23.3899 14.0318 23.3899 14.3064V15.4103C23.3897 15.6847 23.1659 15.9074 22.8899 15.9074C22.6139 15.9074 22.3901 15.6847 22.3899 15.4103Z" fill="white"/>
<path d="M23.3899 15.4099V16.5138H22.3899V15.4099H23.3899Z" fill="white"/>
<path d="M15.16 30.1042C15.16 28.4141 12.38 27.9567 11.58 27.8573C11.44 27.8374 11.31 27.8871 11.21 27.9667L7.9 30.7107C7.71 30.8598 7.45 30.8598 7.26 30.7107L3.95 27.9667C3.84 27.8772 3.71 27.8374 3.58 27.8573C2.78 27.9567 0 28.4141 0 30.1042V35.5027C0 35.7811 0.22 35.9998 0.5 35.9998H14.66C14.94 35.9998 15.16 35.7811 15.16 35.5027V30.1042Z" fill="#274247"/>
<path d="M7.58011 26.8929C9.49654 26.8929 11.0501 25.3484 11.0501 23.4431C11.0501 21.5378 9.49654 19.9932 7.58011 19.9932C5.66368 19.9932 4.11011 21.5378 4.11011 23.4431C4.11011 25.3484 5.66368 26.8929 7.58011 26.8929Z" fill="white"/>
<path d="M10.5505 23.4428C10.5504 21.8121 9.22003 20.4903 7.57983 20.4903C5.93976 20.4904 4.61025 21.8122 4.61011 23.4428C4.61011 25.0735 5.93967 26.3961 7.57983 26.3963C9.22012 26.3963 10.5505 25.0736 10.5505 23.4428ZM11.5505 23.4428C11.5505 25.6227 9.7724 27.3905 7.57983 27.3905C5.38739 27.3903 3.61011 25.6226 3.61011 23.4428C3.61025 21.2632 5.38748 19.4962 7.57983 19.4961C9.77231 19.4961 11.5504 21.2631 11.5505 23.4428Z" fill="#274247"/>
<path d="M2.5 34.8959V33.8026C2.5 33.5281 2.72386 33.3055 3 33.3055C3.27614 33.3055 3.5 33.5281 3.5 33.8026V34.8959C3.5 35.1704 3.27614 35.393 3 35.393C2.72386 35.393 2.5 35.1704 2.5 34.8959Z" fill="white"/>
<path d="M3.5 34.8963V36.0002H2.5V34.8963H3.5Z" fill="white"/>
<path d="M11.6599 34.8959V33.8026C11.6599 33.5281 11.8838 33.3055 12.1599 33.3055C12.4361 33.3055 12.6599 33.5281 12.6599 33.8026V34.8959C12.6599 35.1704 12.4361 35.393 12.1599 35.393C11.8838 35.393 11.6599 35.1704 11.6599 34.8959Z" fill="white"/>
<path d="M12.6599 34.8963V36.0002H11.6599V34.8963H12.6599Z" fill="white"/>
<path d="M36.0001 30.1042C36.0001 28.4141 33.2201 27.9567 32.4201 27.8573C32.2801 27.8374 32.1501 27.8871 32.0501 27.9667L28.7401 30.7107C28.5501 30.8598 28.2901 30.8598 28.1001 30.7107L24.7901 27.9667C24.6801 27.8772 24.5501 27.8374 24.4201 27.8573C23.6201 27.9567 20.8401 28.4141 20.8401 30.1042V35.5027C20.8401 35.7811 21.0601 35.9998 21.3401 35.9998H35.5001C35.7801 35.9998 36.0001 35.7811 36.0001 35.5027V30.1042Z" fill="#274247"/>
<path d="M28.4202 26.8929C30.3366 26.8929 31.8902 25.3484 31.8902 23.4431C31.8902 21.5378 30.3366 19.9932 28.4202 19.9932C26.5038 19.9932 24.9502 21.5378 24.9502 23.4431C24.9502 25.3484 26.5038 26.8929 28.4202 26.8929Z" fill="white"/>
<path d="M31.3906 23.4428C31.3905 21.8121 30.0601 20.4903 28.4199 20.4903C26.7799 20.4904 25.4503 21.8122 25.4502 23.4428C25.4502 25.0735 26.7798 26.3961 28.4199 26.3963C30.0602 26.3963 31.3906 25.0736 31.3906 23.4428ZM32.3906 23.4428C32.3906 25.6227 30.6125 27.3905 28.4199 27.3905C26.2275 27.3903 24.4502 25.6226 24.4502 23.4428C24.4503 21.2632 26.2276 19.4962 28.4199 19.4961C30.6124 19.4961 32.3905 21.2631 32.3906 23.4428Z" fill="#274247"/>
<path d="M23.3401 34.8959V33.8026C23.3401 33.5281 23.5639 33.3055 23.8401 33.3055C24.1162 33.3055 24.3401 33.5281 24.3401 33.8026V34.8959C24.3401 35.1704 24.1162 35.393 23.8401 35.393C23.5639 35.393 23.3401 35.1704 23.3401 34.8959Z" fill="white"/>
<path d="M24.3401 34.8963V36.0002H23.3401V34.8963H24.3401Z" fill="white"/>
<path d="M32.5 34.8959V33.8026C32.5 33.5281 32.7239 33.3055 33 33.3055C33.2761 33.3055 33.5 33.5281 33.5 33.8026V34.8959C33.5 35.1704 33.2761 35.393 33 35.393C32.7239 35.393 32.5 35.1704 32.5 34.8959Z" fill="white"/>
<path d="M33.5 34.8963V36.0002H32.5V34.8963H33.5Z" fill="white"/>
</g>
<defs>
<clipPath id="clip0_8826_1555">
<rect width="36" height="36" fill="white"/>
</clipPath>
</defs>
</svg>
