<svg width="36" height="36" viewBox="0 0 36 36" fill="none" xmlns="http://www.w3.org/2000/svg">
<path d="M25.0699 21.1909C23.3299 20.3009 21.7599 19.2509 20.6299 18.2309L21.7699 16.0109C22.9199 17.0109 24.4199 18.0009 26.1399 18.8709C28.6099 20.1309 31.3799 21.0109 33.3699 21.0109C33.6599 21.0109 33.9399 20.9909 34.2099 20.9509C33.9499 21.4609 33.6399 22.0609 33.3499 22.6309C33.2799 22.7809 33.1199 22.8909 32.8599 22.9709C31.4199 23.4509 27.9899 22.6709 25.0699 21.1809V21.1909Z" fill="white"/>
<path d="M21.0299 15.3409L19.8999 17.5209C19.3699 16.9609 19.0099 16.4209 18.8599 15.9409C18.7599 15.6509 18.7599 15.4009 18.8599 15.2309L19.7099 13.5909C19.9799 14.1409 20.4399 14.7409 21.0399 15.3409H21.0299Z" fill="white"/>
<path d="M19.58 11.6909L19.53 11.7909C19.53 11.7909 19.55 11.7409 19.56 11.7109C19.56 11.7109 19.56 11.7109 19.58 11.6909Z" fill="#274247"/>
<path d="M35.88 18.5408C35.32 16.8008 32.72 14.5408 29.25 12.7908C25.32 10.8008 20.61 9.74083 19.58 11.6908L19.53 11.7908L17.98 14.8008C17.77 15.2208 17.75 15.7008 17.93 16.2508C18.17 17.0008 18.79 17.8508 19.68 18.7008C20.89 19.8608 22.62 21.0508 24.62 22.0708C26.83 23.1908 29.71 24.1108 31.77 24.1108C32.3 24.1108 32.76 24.0508 33.16 23.9208C33.67 23.7508 34.02 23.4708 34.21 23.0808C34.85 21.7908 35.58 20.3908 35.76 20.0608C35.78 20.0308 35.8 20.0008 35.82 19.9608C36.03 19.5508 36.04 19.0708 35.87 18.5408H35.88ZM18.86 15.9408C18.76 15.6508 18.76 15.4008 18.86 15.2308L19.71 13.5908C19.98 14.1408 20.44 14.7408 21.04 15.3408L19.91 17.5208C19.38 16.9608 19.02 16.4208 18.87 15.9408H18.86ZM33.35 22.6408C33.28 22.7908 33.12 22.9008 32.86 22.9808C31.42 23.4608 27.99 22.6808 25.07 21.1908C23.33 20.3008 21.76 19.2508 20.63 18.2308L21.77 16.0108C22.92 17.0108 24.42 18.0008 26.14 18.8708C28.61 20.1308 31.38 21.0108 33.37 21.0108C33.66 21.0108 33.94 20.9908 34.21 20.9508C33.95 21.4608 33.64 22.0608 33.35 22.6308V22.6408Z" fill="#274247"/>
<path d="M9.8301 8.75083C12.5701 7.00083 15.0901 4.62083 15.7801 2.73083L16.6501 4.09084C17.2001 4.97084 15.3301 7.86084 11.0301 10.5808C9.3901 11.6208 7.6801 12.4208 6.2401 12.8708L5.1001 11.0808C6.5601 10.6008 8.1901 9.81083 9.8401 8.75083H9.8301Z" fill="white"/>
<path d="M18.8801 26.4908C18.2401 26.6908 17.5301 26.8508 16.7901 26.9808C15.5801 27.1808 14.2801 27.2908 13.0001 27.2908C11.7201 27.2908 10.4201 27.1808 9.21012 26.9808C8.74012 26.9008 8.30012 26.8108 7.87012 26.7008V29.1508C9.21012 29.5008 10.9501 29.7308 13.0101 29.7308C16.5901 29.7308 19.2001 29.0208 20.4501 28.2308C20.8201 28.0108 21.0601 27.7608 21.1801 27.5408C21.2501 27.4308 21.2801 27.3308 21.2801 27.2308V25.3608C20.6901 25.8208 19.8601 26.2008 18.9001 26.4908H18.8801Z" fill="white"/>
<path d="M7.8501 34.4408V32.3308C9.4101 32.7208 11.2201 32.9108 12.9901 32.9108C16.2401 32.9108 19.6401 32.2508 21.2601 30.9808V32.5108C21.2601 33.5608 18.1201 35.0208 12.9901 35.0208C10.9401 35.0208 9.2001 34.7908 7.8501 34.4408Z" fill="white"/>
<path d="M7.12012 29.9409C7.19012 29.9609 7.25012 29.9809 7.31012 30.0009C7.24012 30.0009 7.17012 29.9709 7.12012 29.9409Z" fill="#274247"/>
<path d="M21.16 28.9208C19.5 30.0908 16.18 30.7008 13 30.7008C11.02 30.7008 8.98998 30.4708 7.32998 30.0008C7.25998 30.0008 7.18998 29.9708 7.13998 29.9408C7.13998 29.9408 7.11998 29.9208 7.10998 29.9208C6.20998 29.6708 5.42998 29.3308 4.83998 28.9208C4.76998 29.0508 4.72998 29.1708 4.72998 29.3008C4.72998 29.9808 5.76998 30.7008 7.46998 31.2208C8.90998 31.6608 10.83 31.9508 13 31.9508C17.74 31.9508 21.27 30.5608 21.27 29.3008C21.27 29.1708 21.23 29.0508 21.16 28.9208Z" fill="white"/>
<path d="M6.87997 32.0508V34.1408C5.48997 33.6508 4.71997 33.0308 4.71997 32.5208V30.9908C5.25997 31.4108 6.00997 31.7708 6.87997 32.0508Z" fill="white"/>
<path d="M4.71997 25.3608V27.2308C4.71997 27.3308 4.74997 27.4308 4.81997 27.5408C4.93997 27.7608 5.17997 28.0008 5.54997 28.2308C5.88997 28.4408 6.33997 28.6608 6.87997 28.8508V26.4108C6.00997 26.1408 5.25997 25.7808 4.71997 25.3608Z" fill="white"/>
<path d="M22.24 23.6608C22.24 21.3108 17.48 20.0408 13 20.0408C8.52001 20.0408 3.76001 21.3008 3.76001 23.6608V27.2208C3.76001 27.5808 3.89001 27.9208 4.12001 28.2308C3.89001 28.5508 3.76001 28.9108 3.76001 29.2908V32.5108C3.76001 34.7808 8.53001 35.9908 13 35.9908C17.47 35.9908 22.24 34.7708 22.24 32.5108V29.2908C22.24 28.9108 22.11 28.5508 21.88 28.2308C22.11 27.9208 22.24 27.5808 22.24 27.2208V23.6608ZM4.72001 25.3608C5.26001 25.7808 6.01001 26.1408 6.88001 26.4108V28.8508C6.34001 28.6608 5.89001 28.4408 5.55001 28.2308C5.18001 28.0008 4.94001 27.7608 4.82001 27.5408C4.75001 27.4308 4.72001 27.3308 4.72001 27.2308V25.3608ZM6.88001 34.1408C5.49001 33.6508 4.72001 33.0308 4.72001 32.5208V30.9908C5.26001 31.4108 6.01001 31.7708 6.88001 32.0508V34.1408ZM21.26 32.5208C21.26 33.5708 18.12 35.0308 12.99 35.0308C10.94 35.0308 9.20001 34.8008 7.85001 34.4508V32.3408C9.41001 32.7308 11.22 32.9208 12.99 32.9208C16.24 32.9208 19.64 32.2608 21.26 30.9908V32.5208ZM12.99 31.9408C10.82 31.9408 8.90001 31.6508 7.46001 31.2108C5.76001 30.6908 4.72001 29.9708 4.72001 29.2908C4.72001 29.1608 4.76001 29.0408 4.83001 28.9108C5.41001 29.3208 6.19001 29.6608 7.10001 29.9108C7.10001 29.9108 7.12001 29.9108 7.13001 29.9308C7.20001 29.9508 7.26001 29.9708 7.32001 29.9908C8.98001 30.4608 11.02 30.6908 12.99 30.6908C16.17 30.6908 19.49 30.0808 21.15 28.9108C21.22 29.0408 21.26 29.1608 21.26 29.2908C21.26 30.5508 17.73 31.9408 12.99 31.9408ZM21.26 27.2208C21.26 27.3208 21.23 27.4208 21.16 27.5308C21.04 27.7508 20.8 28.0008 20.43 28.2208C19.17 29.0108 16.57 29.7208 12.99 29.7208C10.94 29.7208 9.20001 29.4908 7.85001 29.1408V26.6908C8.28001 26.8108 8.73001 26.8908 9.19001 26.9708C10.41 27.1708 11.71 27.2808 12.98 27.2808C14.25 27.2808 15.57 27.1708 16.77 26.9708C17.51 26.8408 18.22 26.6908 18.86 26.4808C19.82 26.1908 20.65 25.8108 21.24 25.3508V27.2208H21.26Z" fill="#274247"/>
<path d="M4.19994 10.3408C3.15994 10.6308 2.26994 10.7308 1.65994 10.5908C1.36994 10.5208 1.15994 10.4108 1.05994 10.2408C0.51994 9.35083 2.36994 6.44083 6.65994 3.69083C9.28994 2.02084 12.0299 0.980835 13.6899 0.980835C13.9099 0.980835 14.1299 1.00083 14.3099 1.04083C14.5999 1.11083 14.8099 1.22083 14.9099 1.39083C15.4499 2.28083 13.5999 5.19083 9.30994 7.94083C7.53994 9.07084 5.70994 9.91084 4.19994 10.3408Z" fill="white"/>
<path d="M4.12994 11.3608L5.23994 13.1408C4.48994 13.3008 3.83994 13.3308 3.35994 13.2308C3.05994 13.1608 2.85994 13.0508 2.75994 12.8808L1.93994 11.6108C2.04994 11.6308 2.15994 11.6308 2.27994 11.6308C2.81994 11.6308 3.44994 11.5408 4.12994 11.3708V11.3608Z" fill="white"/>
<path d="M17.4601 3.56088L15.7401 0.870883C15.5001 0.470883 15.0901 0.210883 14.5301 0.0808826C12.7301 -0.319117 9.44006 0.770883 6.15006 2.87088C2.46006 5.23088 -0.829939 8.71088 0.190061 10.6409C0.210061 10.6809 0.230061 10.7209 0.250061 10.7609H0.240061L1.92006 13.4109C2.17006 13.8009 2.57006 14.0609 3.13006 14.1809C3.38006 14.2409 3.67006 14.2709 3.97006 14.2709C4.59006 14.2709 5.33006 14.1509 6.14006 13.9309C7.75006 13.4909 9.64006 12.6209 11.5401 11.4209C15.3101 9.04088 18.6501 5.48088 17.4601 3.58088V3.56088ZM6.67006 3.69088C9.30006 2.02088 12.0401 0.980883 13.7001 0.980883C13.9201 0.980883 14.1401 1.00088 14.3201 1.04088C14.6101 1.11088 14.8201 1.22088 14.9201 1.39088C15.4601 2.28088 13.6101 5.19088 9.32006 7.94088C7.55006 9.07088 5.72006 9.91088 4.21006 10.3409C3.17006 10.6309 2.28006 10.7309 1.67006 10.5909C1.38006 10.5209 1.17006 10.4109 1.07006 10.2409C0.530061 9.35088 2.38006 6.44088 6.67006 3.69088ZM3.36006 13.2209C3.06006 13.1509 2.86006 13.0409 2.76006 12.8709L1.94006 11.6009C2.05006 11.6209 2.16006 11.6209 2.28006 11.6209C2.82006 11.6209 3.45006 11.5309 4.13006 11.3609L5.24006 13.1409C4.49006 13.3009 3.84006 13.3309 3.36006 13.2309V13.2209ZM11.0201 10.5809C9.38006 11.6209 7.67006 12.4209 6.23006 12.8709L5.09006 11.0809C6.55006 10.6009 8.18006 9.81088 9.83006 8.75088C12.5701 7.00088 15.0901 4.63088 15.7801 2.73088L16.6501 4.09088C17.2001 4.97088 15.3301 7.86088 11.0301 10.5809H11.0201Z" fill="#274247"/>
<g clip-path="url(#clip0_10891_7429)">
<path d="M25.0699 21.1909C23.3299 20.3009 21.7599 19.2509 20.6299 18.2309L21.7699 16.0109C22.9199 17.0109 24.4199 18.0009 26.1399 18.8709C28.6099 20.1309 31.3799 21.0109 33.3699 21.0109C33.6599 21.0109 33.9399 20.9909 34.2099 20.9509C33.9499 21.4609 33.6399 22.0609 33.3499 22.6309C33.2799 22.7809 33.1199 22.8909 32.8599 22.9709C31.4199 23.4509 27.9899 22.6709 25.0699 21.1809V21.1909Z" fill="white"/>
<path d="M21.0299 15.3409L19.8999 17.5209C19.3699 16.9609 19.0099 16.4209 18.8599 15.9409C18.7599 15.6509 18.7599 15.4009 18.8599 15.2309L19.7099 13.5909C19.9799 14.1409 20.4399 14.7409 21.0399 15.3409H21.0299Z" fill="white"/>
<path d="M19.58 11.6909L19.53 11.7909C19.53 11.7909 19.55 11.7409 19.56 11.7109C19.56 11.7109 19.56 11.7109 19.58 11.6909Z" fill="#274247"/>
<path d="M35.88 18.5409C35.32 16.8009 32.72 14.5409 29.25 12.7909C25.32 10.8009 20.61 9.74087 19.58 11.6909L19.53 11.7909L17.98 14.8009C17.77 15.2209 17.75 15.7009 17.93 16.2509C18.17 17.0009 18.79 17.8509 19.68 18.7009C20.89 19.8609 22.62 21.0509 24.62 22.0709C26.83 23.1909 29.71 24.1109 31.77 24.1109C32.3 24.1109 32.76 24.0509 33.16 23.9209C33.67 23.7509 34.02 23.4709 34.21 23.0809C34.85 21.7909 35.58 20.3909 35.76 20.0609C35.78 20.0309 35.8 20.0009 35.82 19.9609C36.03 19.5509 36.04 19.0709 35.87 18.5409H35.88ZM18.86 15.9409C18.76 15.6509 18.76 15.4009 18.86 15.2309L19.71 13.5909C19.98 14.1409 20.44 14.7409 21.04 15.3409L19.91 17.5209C19.38 16.9609 19.02 16.4209 18.87 15.9409H18.86ZM33.35 22.6409C33.28 22.7909 33.12 22.9009 32.86 22.9809C31.42 23.4609 27.99 22.6809 25.07 21.1909C23.33 20.3009 21.76 19.2509 20.63 18.2309L21.77 16.0109C22.92 17.0109 24.42 18.0009 26.14 18.8709C28.61 20.1309 31.38 21.0109 33.37 21.0109C33.66 21.0109 33.94 20.9909 34.21 20.9509C33.95 21.4609 33.64 22.0609 33.35 22.6309V22.6409Z" fill="#274247"/>
<path d="M9.8301 8.75087C12.5701 7.00087 15.0901 4.62087 15.7801 2.73087L16.6501 4.09087C17.2001 4.97087 15.3301 7.86087 11.0301 10.5809C9.3901 11.6209 7.6801 12.4209 6.2401 12.8709L5.1001 11.0809C6.5601 10.6009 8.1901 9.81087 9.8401 8.75087H9.8301Z" fill="white"/>
<path d="M18.8801 26.4908C18.2401 26.6908 17.5301 26.8508 16.7901 26.9808C15.5801 27.1808 14.2801 27.2908 13.0001 27.2908C11.7201 27.2908 10.4201 27.1808 9.21012 26.9808C8.74012 26.9008 8.30012 26.8108 7.87012 26.7008V29.1508C9.21012 29.5008 10.9501 29.7308 13.0101 29.7308C16.5901 29.7308 19.2001 29.0208 20.4501 28.2308C20.8201 28.0108 21.0601 27.7608 21.1801 27.5408C21.2501 27.4308 21.2801 27.3308 21.2801 27.2308V25.3608C20.6901 25.8208 19.8601 26.2008 18.9001 26.4908H18.8801Z" fill="white"/>
<path d="M7.8501 34.4409V32.3309C9.4101 32.7209 11.2201 32.9109 12.9901 32.9109C16.2401 32.9109 19.6401 32.2509 21.2601 30.9809V32.5109C21.2601 33.5609 18.1201 35.0209 12.9901 35.0209C10.9401 35.0209 9.2001 34.7909 7.8501 34.4409Z" fill="white"/>
<path d="M7.12012 29.9409C7.19012 29.9609 7.25012 29.9809 7.31012 30.0009C7.24012 30.0009 7.17012 29.9709 7.12012 29.9409Z" fill="#274247"/>
<path d="M21.16 28.9209C19.5 30.0909 16.18 30.7009 13 30.7009C11.02 30.7009 8.98998 30.4709 7.32998 30.0009C7.25998 30.0009 7.18998 29.9709 7.13998 29.9409C7.13998 29.9409 7.11998 29.9209 7.10998 29.9209C6.20998 29.6709 5.42998 29.3309 4.83998 28.9209C4.76998 29.0509 4.72998 29.1709 4.72998 29.3009C4.72998 29.9809 5.76998 30.7009 7.46998 31.2209C8.90998 31.6609 10.83 31.9509 13 31.9509C17.74 31.9509 21.27 30.5609 21.27 29.3009C21.27 29.1709 21.23 29.0509 21.16 28.9209Z" fill="white"/>
<path d="M6.87997 32.0508V34.1408C5.48997 33.6508 4.71997 33.0308 4.71997 32.5208V30.9908C5.25997 31.4108 6.00997 31.7708 6.87997 32.0508Z" fill="white"/>
<path d="M4.71997 25.3608V27.2308C4.71997 27.3308 4.74997 27.4308 4.81997 27.5408C4.93997 27.7608 5.17997 28.0008 5.54997 28.2308C5.88997 28.4408 6.33997 28.6608 6.87997 28.8508V26.4108C6.00997 26.1408 5.25997 25.7808 4.71997 25.3608Z" fill="white"/>
<path d="M22.24 23.6609C22.24 21.3109 17.48 20.0409 13 20.0409C8.52001 20.0409 3.76001 21.3009 3.76001 23.6609V27.2209C3.76001 27.5809 3.89001 27.9209 4.12001 28.2309C3.89001 28.5509 3.76001 28.9109 3.76001 29.2909V32.5109C3.76001 34.7809 8.53001 35.9909 13 35.9909C17.47 35.9909 22.24 34.7709 22.24 32.5109V29.2909C22.24 28.9109 22.11 28.5509 21.88 28.2309C22.11 27.9209 22.24 27.5809 22.24 27.2209V23.6609ZM4.72001 25.3609C5.26001 25.7809 6.01001 26.1409 6.88001 26.4109V28.8509C6.34001 28.6609 5.89001 28.4409 5.55001 28.2309C5.18001 28.0009 4.94001 27.7609 4.82001 27.5409C4.75001 27.4309 4.72001 27.3309 4.72001 27.2309V25.3609ZM6.88001 34.1409C5.49001 33.6509 4.72001 33.0309 4.72001 32.5209V30.9909C5.26001 31.4109 6.01001 31.7709 6.88001 32.0509V34.1409ZM21.26 32.5209C21.26 33.5709 18.12 35.0309 12.99 35.0309C10.94 35.0309 9.20001 34.8009 7.85001 34.4509V32.3409C9.41001 32.7309 11.22 32.9209 12.99 32.9209C16.24 32.9209 19.64 32.2609 21.26 30.9909V32.5209ZM12.99 31.9409C10.82 31.9409 8.90001 31.6509 7.46001 31.2109C5.76001 30.6909 4.72001 29.9709 4.72001 29.2909C4.72001 29.1609 4.76001 29.0409 4.83001 28.9109C5.41001 29.3209 6.19001 29.6609 7.10001 29.9109C7.10001 29.9109 7.12001 29.9109 7.13001 29.9309C7.20001 29.9509 7.26001 29.9709 7.32001 29.9909C8.98001 30.4609 11.02 30.6909 12.99 30.6909C16.17 30.6909 19.49 30.0809 21.15 28.9109C21.22 29.0409 21.26 29.1609 21.26 29.2909C21.26 30.5509 17.73 31.9409 12.99 31.9409ZM21.26 27.2209C21.26 27.3209 21.23 27.4209 21.16 27.5309C21.04 27.7509 20.8 28.0009 20.43 28.2209C19.17 29.0109 16.57 29.7209 12.99 29.7209C10.94 29.7209 9.20001 29.4909 7.85001 29.1409V26.6909C8.28001 26.8109 8.73001 26.8909 9.19001 26.9709C10.41 27.1709 11.71 27.2809 12.98 27.2809C14.25 27.2809 15.57 27.1709 16.77 26.9709C17.51 26.8409 18.22 26.6909 18.86 26.4809C19.82 26.1909 20.65 25.8109 21.24 25.3509V27.2209H21.26Z" fill="#274247"/>
<path d="M4.19994 10.3409C3.15994 10.6309 2.26994 10.7309 1.65994 10.5909C1.36994 10.5209 1.15994 10.4109 1.05994 10.2409C0.51994 9.35087 2.36994 6.44087 6.65994 3.69087C9.28994 2.02087 12.0299 0.980865 13.6899 0.980865C13.9099 0.980865 14.1299 1.00087 14.3099 1.04087C14.5999 1.11087 14.8099 1.22087 14.9099 1.39087C15.4499 2.28087 13.5999 5.19087 9.30994 7.94087C7.53994 9.07087 5.70994 9.91087 4.19994 10.3409Z" fill="white"/>
<path d="M4.12994 11.3608L5.23994 13.1408C4.48994 13.3008 3.83994 13.3308 3.35994 13.2308C3.05994 13.1608 2.85994 13.0508 2.75994 12.8808L1.93994 11.6108C2.04994 11.6308 2.15994 11.6308 2.27994 11.6308C2.81994 11.6308 3.44994 11.5408 4.12994 11.3708V11.3608Z" fill="white"/>
<path d="M17.4601 3.56085L15.7401 0.870852C15.5001 0.470852 15.0901 0.210852 14.5301 0.0808521C12.7301 -0.319148 9.44006 0.770852 6.15006 2.87085C2.46006 5.23085 -0.829939 8.71085 0.190061 10.6409C0.210061 10.6809 0.230061 10.7209 0.250061 10.7609H0.240061L1.92006 13.4109C2.17006 13.8009 2.57006 14.0609 3.13006 14.1809C3.38006 14.2409 3.67006 14.2709 3.97006 14.2709C4.59006 14.2709 5.33006 14.1509 6.14006 13.9309C7.75006 13.4909 9.64006 12.6209 11.5401 11.4209C15.3101 9.04085 18.6501 5.48085 17.4601 3.58085V3.56085ZM6.67006 3.69085C9.30006 2.02085 12.0401 0.980852 13.7001 0.980852C13.9201 0.980852 14.1401 1.00085 14.3201 1.04085C14.6101 1.11085 14.8201 1.22085 14.9201 1.39085C15.4601 2.28085 13.6101 5.19085 9.32006 7.94085C7.55006 9.07085 5.72006 9.91085 4.21006 10.3409C3.17006 10.6309 2.28006 10.7309 1.67006 10.5909C1.38006 10.5209 1.17006 10.4109 1.07006 10.2409C0.530061 9.35085 2.38006 6.44085 6.67006 3.69085ZM3.36006 13.2209C3.06006 13.1509 2.86006 13.0409 2.76006 12.8709L1.94006 11.6009C2.05006 11.6209 2.16006 11.6209 2.28006 11.6209C2.82006 11.6209 3.45006 11.5309 4.13006 11.3609L5.24006 13.1409C4.49006 13.3009 3.84006 13.3309 3.36006 13.2309V13.2209ZM11.0201 10.5809C9.38006 11.6209 7.67006 12.4209 6.23006 12.8709L5.09006 11.0809C6.55006 10.6009 8.18006 9.81085 9.83006 8.75085C12.5701 7.00085 15.0901 4.63085 15.7801 2.73085L16.6501 4.09085C17.2001 4.97085 15.3301 7.86085 11.0301 10.5809H11.0201Z" fill="#274247"/>
</g>
<defs>
<clipPath id="clip0_10891_7429">
<rect width="36" height="36" fill="white" transform="translate(0 0.000854492)"/>
</clipPath>
</defs>
</svg>
