<svg width="36" height="36" viewBox="0 0 36 36" fill="none" xmlns="http://www.w3.org/2000/svg">
<g clip-path="url(#clip0_8826_1607)">
<path d="M30.8044 25.8411V33.5639L7.79364 33.4455L6.35364 32.6565L5.46823 31.3841L5.1958 29.9836L6.58715 27.1628L8.00769 26.3047L30.8044 25.8411Z" fill="white"/>
<path d="M35.5135 13.611C35.7822 13.611 36 13.8318 36 14.1041C36 14.3765 35.7822 14.5973 35.5135 14.5973H0.486486C0.217807 14.5973 0 14.3765 0 14.1041C0 13.8318 0.217807 13.611 0.486486 13.611H35.5135Z" fill="#274247"/>
<path d="M30.8042 0.493164H8.68848V26.4921H30.8042V0.493164Z" fill="#274247"/>
<path d="M30.8048 0C31.0732 0.000249936 31.2913 0.220945 31.2913 0.493151V26.4924C31.2911 26.7645 31.0731 26.9853 30.8048 26.9856H8.68863C8.42007 26.9856 8.20233 26.7646 8.20215 26.4924V0.493151C8.20215 0.220791 8.41996 0 8.68863 0H30.8048ZM9.17512 25.9993H30.3183V0.986302H9.17512V25.9993Z" fill="#274247"/>
<path d="M30.8044 25.9989L30.9023 26.0085C31.1241 26.0545 31.2909 26.2537 31.2909 26.4921V33.5734C31.2909 33.8457 31.0731 34.0665 30.8044 34.0665H8.68829C6.32788 34.0663 4.44309 31.9764 4.74224 29.528C4.98981 27.4603 6.82581 25.9989 8.82512 25.9989H30.8044ZM8.53437 26.9987C7.09644 27.1298 5.87769 28.2222 5.70761 29.6484V29.6494C5.48139 31.501 6.90419 33.08 8.68829 33.0802H30.3179V26.9852H8.82512L8.53437 26.9987Z" fill="#274247"/>
<path d="M5.1958 29.9836V4.03399C5.1958 2.08111 6.76229 0.493164 8.68877 0.493164V26.4428C6.76229 26.4428 5.1958 28.0307 5.1958 29.9836Z" fill="white"/>
<path d="M4.70923 29.984V4.03382C4.70931 1.8087 6.49349 8.35871e-05 8.68854 0C8.95722 0 9.17502 0.220791 9.17502 0.493151V26.4423C9.17502 26.7147 8.95722 26.9355 8.68854 26.9355C7.0308 26.9356 5.6822 28.3035 5.6822 29.984L5.6727 30.0832C5.62729 30.3078 5.43077 30.4771 5.19572 30.4771C4.96066 30.4771 4.76414 30.3078 4.71873 30.0832L4.70923 29.984ZM5.6822 27.3439C6.31204 26.6076 7.19966 26.1043 8.20205 25.98V1.02676C6.77492 1.26322 5.68228 2.52132 5.6822 4.03382V27.3439Z" fill="#274247"/>
<path d="M16.784 29.5397C17.0525 29.5399 17.2705 29.7606 17.2705 30.0329C17.2705 30.3051 17.0525 30.5259 16.784 30.526H8.9318C8.66312 30.526 8.44531 30.3052 8.44531 30.0329C8.44531 29.7605 8.66312 29.5397 8.9318 29.5397H16.784Z" fill="#274247"/>
<path d="M18.2405 9.05709C18.5076 9.02834 18.747 9.22461 18.7755 9.49534C18.8038 9.76602 18.6102 10.0087 18.3432 10.0376C17.9703 10.0781 17.5506 10.2907 17.2048 10.6136C16.8573 10.9383 16.6449 11.3161 16.6043 11.6278L16.6053 11.6288C16.5343 12.2162 16.6725 12.7222 17.0671 13.2421C17.4782 13.7837 18.1695 14.3426 19.2135 14.9836H19.2145C19.9018 15.4046 20.5969 15.8815 21.1604 16.412C21.719 16.9378 22.1905 17.5553 22.3643 18.2661C22.7198 19.7206 21.6345 21.3338 19.9166 21.3338C18.5365 21.3338 17.4748 20.2911 17.4747 19.0357C17.4747 18.7633 17.6925 18.5425 17.9612 18.5425C18.2298 18.5426 18.4477 18.7634 18.4477 19.0357C18.4477 19.6935 19.0202 20.3475 19.9166 20.3475C20.9814 20.3475 21.6285 19.3564 21.4198 18.503C21.3114 18.0601 20.995 17.6021 20.4981 17.1344C20.0061 16.6712 19.3768 16.2357 18.7118 15.8283H18.7109C17.6349 15.1678 16.8192 14.5326 16.2965 13.8441C15.7572 13.1337 15.5348 12.3717 15.639 11.5094L15.6399 11.5065C15.7174 10.8919 16.0894 10.3143 16.5454 9.88832C17.0046 9.45951 17.6115 9.12519 18.2405 9.05709Z" fill="white"/>
<path d="M20.7145 7.22929C20.7144 6.47122 20.1398 5.77982 19.236 5.7797C18.1712 5.7797 17.5242 6.77084 17.7329 7.6242C17.8413 8.06712 18.1577 8.52525 18.6545 8.99288C19.1466 9.45605 19.7758 9.89157 20.4408 10.299C21.517 10.9595 22.3334 11.5946 22.8562 12.2831C23.3955 12.9936 23.6179 13.7555 23.5137 14.6179L23.5127 14.6198C23.4353 15.2344 23.0633 15.8119 22.6072 16.238C22.148 16.6669 21.5413 17.002 20.9121 17.0702C20.645 17.099 20.4057 16.9027 20.3772 16.6319C20.3487 16.3613 20.5417 16.1188 20.8086 16.0896C21.1816 16.0492 21.6018 15.8358 21.9478 15.5127C22.2966 15.1868 22.5079 14.8079 22.5474 14.4956C22.6177 13.9092 22.4796 13.4043 22.0856 12.8851C21.6743 12.3433 20.9821 11.7841 19.9372 11.1427C19.2501 10.7217 18.5557 10.2456 17.9923 9.71527C17.4336 9.18938 16.9622 8.572 16.7884 7.86114C16.4327 6.40655 17.5181 4.7934 19.236 4.7934C20.7058 4.79353 21.6873 5.95594 21.6875 7.22929C21.6875 7.50165 21.4697 7.72244 21.201 7.72244C20.9324 7.72233 20.7145 7.50158 20.7145 7.22929Z" fill="white"/>
<path d="M14.507 36L12.4151 34.0471L10.3232 36V30.3189H14.507V36Z" fill="#274247"/>
</g>
<defs>
<clipPath id="clip0_8826_1607">
<rect width="36" height="36" fill="white"/>
</clipPath>
</defs>
</svg>
