<svg width="36" height="36" viewBox="0 0 36 36" fill="none" xmlns="http://www.w3.org/2000/svg">
<path d="M22.9405 33.7896C23.8676 33.6996 28.6609 32.1693 29.6767 31.3392C30.6926 30.5091 35.6239 25.2083 35.5055 24.3081C35.397 23.458 33.4048 21.7778 31.9451 23.438C30.515 25.0583 30.0416 25.5283 29.4992 26.2884C29.3216 26.5385 29.0751 26.7085 28.7792 26.7985C27.5661 27.1486 25.347 27.6587 24.4988 27.8587C24.272 27.9087 24.0451 27.8987 23.8183 27.8387C22.9307 27.5686 20.5341 26.7685 19.4985 25.8084C18.6207 24.9882 18.7686 24.4282 20.3368 23.638C21.3132 23.148 22.6545 22.7779 23.7591 22.0378C25.1103 21.1277 24.4791 18.8973 23.7394 18.9773C23.049 18.8273 15.08 21.4177 14.4192 21.9578C13.7584 22.4979 11.0265 24.9382 11.0265 24.9382H8.48193V33.7896C8.48193 33.7896 22.0036 33.8796 22.9307 33.7896H22.9405Z" fill="white"/>
<path d="M23.4733 18.4828C23.5496 18.4742 23.6535 18.4662 23.7564 18.476C24.1762 18.4635 24.4805 18.7569 24.6522 19.0132C24.8465 19.3033 24.9747 19.6823 25.023 20.0748C25.1187 20.8542 24.9137 21.8601 24.0319 22.4541L24.0309 22.4551C23.4369 22.8531 22.7889 23.1455 22.1865 23.3947C21.7213 23.5871 21.2988 23.748 20.92 23.9153L20.5559 24.0862C20.1779 24.2766 19.9082 24.4423 19.7257 24.5882C19.5397 24.737 19.4808 24.8367 19.4637 24.8842C19.4565 24.9041 19.4011 25.037 19.8307 25.4389C20.2804 25.8559 21.0696 26.2694 21.9033 26.6208C22.7137 26.9622 23.5095 27.2227 23.9471 27.3562C24.0653 27.387 24.1771 27.3974 24.2852 27.3875L24.394 27.3699C25.2547 27.167 27.4414 26.6637 28.6377 26.3189C28.8377 26.258 28.9901 26.15 29.099 25.9966L29.1 25.9957C29.3812 25.6016 29.6477 25.2775 30.0207 24.8529L31.5772 23.1046C32.0109 22.6115 32.5095 22.3419 33.0258 22.2597C33.5346 22.1788 34.022 22.2865 34.4358 22.4766C34.8485 22.6662 35.2075 22.9465 35.4741 23.2443C35.7287 23.5287 35.948 23.8848 35.9942 24.2425L36 24.3675C35.9962 24.4901 35.9664 24.6027 35.9373 24.6888C35.8951 24.8139 35.8332 24.9446 35.763 25.0746C35.6223 25.3356 35.4213 25.6406 35.1851 25.9664C34.7108 26.6205 34.0625 27.4062 33.386 28.1815C32.0417 29.7222 30.53 31.2844 29.9861 31.729C29.6723 31.9853 29.1229 32.2598 28.5192 32.5201C27.8977 32.7881 27.1616 33.0639 26.434 33.3151C25.7057 33.5666 24.979 33.7958 24.3738 33.9676C23.7848 34.1348 23.2702 34.2605 22.9878 34.2879C22.9723 34.2894 22.9563 34.2899 22.9407 34.2899H22.9349C22.6152 34.3127 21.5979 34.324 20.2833 34.328C18.8838 34.3322 17.1053 34.3287 15.3568 34.3231C13.6083 34.3175 11.8889 34.3096 10.6066 34.3026C9.96541 34.2991 9.43335 34.2961 9.06171 34.2938C8.87611 34.2927 8.73048 34.2915 8.63119 34.2909C8.58154 34.2905 8.54317 34.2901 8.51754 34.2899H8.47901C8.20798 34.2881 7.98885 34.0646 7.98877 33.7898V24.9379C7.989 24.6619 8.2097 24.4378 8.4819 24.4378H10.8416C10.9162 24.3713 11.0173 24.2808 11.1383 24.1731C11.4049 23.9357 11.7673 23.6128 12.1505 23.2736C12.9125 22.5991 13.7697 21.846 14.1096 21.5682C14.1937 21.4995 14.3031 21.4384 14.4024 21.3875C14.5102 21.3323 14.6411 21.2722 14.7876 21.2088C15.0812 21.0818 15.4584 20.9338 15.8875 20.7742C16.7469 20.4545 17.8334 20.0817 18.9186 19.732C20.0036 19.3824 21.0935 19.0537 21.9582 18.8207C22.3897 18.7045 22.7716 18.6107 23.0716 18.5502C23.2209 18.5201 23.3573 18.4959 23.4733 18.4828ZM23.636 19.4663C23.6784 19.4755 23.6777 19.4665 23.5831 19.4771C23.5063 19.4857 23.3999 19.5035 23.2643 19.5308C22.9938 19.5853 22.6344 19.6728 22.2116 19.7867C21.3672 20.0142 20.2932 20.3385 19.2171 20.6853C18.1414 21.0319 17.0687 21.3996 16.2266 21.7128C15.8051 21.8695 15.4461 22.0115 15.1748 22.1289C15.0388 22.1877 14.9291 22.2383 14.8473 22.2803C14.7616 22.3242 14.7303 22.3468 14.7289 22.3476C14.4079 22.61 13.5688 23.3469 12.7997 24.0276C12.4175 24.3659 12.0555 24.6872 11.7893 24.9242C11.6563 25.0427 11.5464 25.1398 11.4705 25.2075C11.4326 25.2413 11.403 25.2686 11.3829 25.2866C11.373 25.2954 11.3649 25.3025 11.3598 25.3071C11.3574 25.3092 11.3552 25.3109 11.354 25.312L11.3521 25.3139C11.2621 25.3941 11.1464 25.4379 11.0265 25.438H8.97503V33.2927C9.00464 33.2928 9.03547 33.2934 9.06749 33.2936C9.43887 33.2959 9.97065 33.2989 10.6114 33.3024C11.8932 33.3095 13.6122 33.3173 15.3597 33.3229C17.1076 33.3286 18.8839 33.332 20.2804 33.3278C21.6961 33.3236 22.6816 33.3113 22.8838 33.2917L22.8963 33.2907C23.0792 33.2723 23.5096 33.1734 24.108 33.0036C24.6939 32.8372 25.4033 32.6148 26.1161 32.3687C26.8297 32.1223 27.5411 31.8543 28.133 31.599C28.7425 31.3362 29.1736 31.1082 29.3677 30.9495C29.8401 30.5633 31.302 29.0601 32.6472 27.5183C33.3156 26.7523 33.9418 25.9923 34.3905 25.3735C34.6157 25.063 34.7879 24.7994 34.8981 24.5951C34.9534 24.4926 34.9866 24.4163 35.0041 24.3646C35.0064 24.3575 35.0074 24.3511 35.0089 24.346C34.9882 24.2663 34.9162 24.1086 34.744 23.9162C34.5611 23.7119 34.3096 23.516 34.0284 23.3869C33.7483 23.2583 33.4563 23.2039 33.1779 23.2482C32.907 23.2914 32.6089 23.4342 32.313 23.7707L32.3121 23.7717C30.8619 25.4147 30.4205 25.8484 29.8984 26.5797L29.8994 26.5807C29.6534 26.9272 29.3123 27.158 28.9208 27.2771L28.9141 27.28C27.6861 27.6344 25.45 28.1477 24.6107 28.3456L24.604 28.3476C24.2937 28.416 23.9876 28.3999 23.6938 28.3222C23.6881 28.3207 23.6822 28.319 23.6765 28.3173C23.2237 28.1795 22.3854 27.9064 21.5248 27.5437C20.6796 27.1875 19.7519 26.7205 19.1661 26.1773L19.1642 26.1763C18.7183 25.7597 18.298 25.2029 18.5371 24.5404C18.6432 24.2467 18.8601 24.0068 19.115 23.8029C19.3738 23.5961 19.7117 23.3951 20.1177 23.1905V23.1896C20.6271 22.9339 21.2432 22.7047 21.8138 22.4688C22.4017 22.2256 22.9756 21.9626 23.4858 21.621C23.9549 21.305 24.1113 20.7412 24.0444 20.1979C24.0113 19.9293 23.9261 19.7087 23.8364 19.5748C23.7942 19.5118 23.764 19.4862 23.7497 19.4761C23.7116 19.4769 23.6734 19.4745 23.636 19.4663Z" fill="#274247"/>
<path d="M8.30432 22.0879H0.493131C0.220782 22.0879 0 22.3118 0 22.588V35.4999C0 35.7761 0.220782 36 0.493131 36H8.30432C8.57667 36 8.79745 35.7761 8.79745 35.4999V22.588C8.79745 22.3118 8.57667 22.0879 8.30432 22.0879Z" fill="#274247"/>
<path d="M4.39855 26.5081C5.09031 26.5081 5.6511 25.944 5.6511 25.2481C5.6511 24.5523 5.09031 23.9881 4.39855 23.9881C3.70678 23.9881 3.146 24.5523 3.146 25.2481C3.146 25.944 3.70678 26.5081 4.39855 26.5081Z" fill="white"/>
<path d="M25.7215 1.03467C23.818 -0.545569 20.9973 -0.255525 19.2516 1.49474L18.3739 2.38488L17.4961 1.49474C15.7504 -0.255525 12.9297 -0.545569 11.0262 1.03467C8.84657 2.84495 8.72822 6.09544 10.681 8.05574L11.7067 9.08589L17.6835 15.0968C18.0681 15.4869 18.6895 15.4869 19.0741 15.0968L25.0509 9.08589L26.0766 8.05574C28.0294 6.09544 27.911 2.84495 25.7314 1.03467H25.7215Z" fill="#274247"/>
</svg>
