<svg width="36" height="36" viewBox="0 0 36 36" fill="none" xmlns="http://www.w3.org/2000/svg">
<g clip-path="url(#clip0_8826_1625)">
<path d="M17.9999 5.22C19.3088 5.22 20.3699 4.16339 20.3699 2.86C20.3699 1.55661 19.3088 0.5 17.9999 0.5C16.691 0.5 15.6299 1.55661 15.6299 2.86C15.6299 4.16339 16.691 5.22 17.9999 5.22Z" fill="white"/>
<path d="M17.9999 1C19.0299 1 19.8699 1.84 19.8699 2.86C19.8699 3.88 19.0299 4.72 17.9999 4.72C16.9699 4.72 16.1299 3.88 16.1299 2.86C16.1299 1.84 16.9699 1 17.9999 1ZM17.9999 0C16.4099 0 15.1299 1.28 15.1299 2.86C15.1299 4.44 16.4199 5.72 17.9999 5.72C19.5799 5.72 20.8699 4.44 20.8699 2.86C20.8699 1.28 19.5799 0 17.9999 0Z" fill="#274247"/>
<path d="M35.94 17.96L33.34 15.33C33.34 15.33 33.25 15.27 33.2 15.27H30.4C30.35 15.27 30.3 15.25 30.26 15.22L21.36 7.05C21.36 7.05 21.27 7 21.22 7H14.8C14.74 7 14.68 7.03 14.64 7.08L10.62 12.53C10.54 12.64 10.37 12.64 10.29 12.53L9.08 10.66C9.04 10.6 8.98 10.57 8.91 10.57H7.5C7.45 10.57 7.4 10.59 7.36 10.63L0.06 17.93C-0.02 18.01 -0.02 18.14 0.06 18.21L17.9 35.94C17.98 36.02 18.11 36.02 18.18 35.94L35.94 18.24C36.02 18.16 36.02 18.04 35.94 17.96Z" fill="#274247"/>
<path d="M14.75 7.27003L12.75 9.81003C12.7 9.87003 12.69 9.96003 12.73 10.03L13.32 11.06C13.38 11.16 13.5 11.19 13.6 11.13L14.82 10.4C14.82 10.4 14.91 10.37 14.96 10.37L16.44 10.63C16.49 10.63 16.55 10.63 16.59 10.6L18.61 9.16003C18.71 9.09003 18.85 9.12003 18.9 9.23003L19.86 11.06C19.91 11.16 20.03 11.2 20.13 11.14L21.62 10.35C21.67 10.32 21.74 10.32 21.79 10.35L23.02 10.86C23.07 10.88 23.13 10.88 23.18 10.86L24.56 10.26L21.28 7.15003C21.28 7.15003 21.19 7.09003 21.14 7.09003L14.9 7.20003C14.84 7.20003 14.78 7.23003 14.75 7.28003V7.27003Z" fill="white"/>
<path d="M20.9101 8L27.5901 14.14L11.2501 13.32C11.3101 13.26 11.3701 13.2 11.4201 13.13L15.2001 8H20.9101ZM8.58007 11.73L9.45007 13.07C9.49007 13.13 9.53007 13.18 9.58007 13.23L8.78007 13.19L8.59007 11.73M21.2201 7H14.8001C14.7401 7 14.6801 7.03 14.6401 7.08L10.6201 12.53C10.5801 12.58 10.5201 12.61 10.4601 12.61C10.4001 12.61 10.3301 12.58 10.2901 12.52L9.08007 10.65C9.04007 10.59 8.98007 10.56 8.91007 10.56H7.65007C7.53007 10.56 7.43007 10.67 7.45007 10.79L7.87007 13.98C7.88007 14.08 7.96007 14.15 8.06007 14.15L29.7601 15.24C29.7601 15.24 29.7601 15.24 29.7701 15.24C29.9501 15.24 30.0401 15.02 29.9101 14.89L21.3601 7.05C21.3601 7.05 21.2701 7 21.2201 7Z" fill="#274247"/>
<path d="M12.46 25.45C12.46 25.45 12.26 25.49 12.21 25.37C12.15 25.24 12.16 25.1 12.24 24.98C12.28 24.92 12.36 24.87 12.44 24.85C12.59 24.81 12.75 24.79 12.91 24.78C13.32 24.76 13.28 24.69 13.36 24.37C13.47 23.98 13.5 23.57 13.58 23.16C13.62 22.97 13.68 22.79 13.72 22.6C13.77 22.38 13.84 22.16 13.85 21.94C13.86 21.78 13.81 21.61 13.77 21.45C13.76 21.4 13.69 21.35 13.64 21.34C13.48 21.3 13.31 21.27 13.14 21.26C12.97 21.26 12.8 21.25 12.4 21.29C12 21.33 11.75 21.61 11.55 21.74C11.28 21.93 11.07 21.93 10.93 21.8C10.76 21.69 10.69 21.62 10.52 21.5C10.41 21.42 10.41 21.32 10.48 21.21C10.61 21 10.75 20.8 10.87 20.59C10.93 20.47 10.97 20.34 11 20.21C11.09 19.78 11.57 19.27 11.87 18.98C12.03 18.83 12.18 18.66 12.33 18.5C12.45 18.38 12.62 18.3 12.61 18.13C12.61 17.98 12.61 17.91 12.72 17.8C12.83 17.69 13 17.64 13.13 17.8C13.15 17.82 13.17 17.84 13.18 17.87C13.28 18.12 13.4 18.14 13.65 18.05C14.27 17.84 14.87 17.58 15.5 17.41C15.61 17.38 15.73 17.37 15.85 17.38C16.63 17.44 17.42 17.36 18.21 17.35C18.37 17.35 18.53 17.33 18.69 17.31C18.93 17.29 19.17 17.29 19.4 17.26C19.94 17.2 20.46 17.26 20.98 17.38C22.11 17.62 23.04 18.2 23.85 18.99C24.13 19.26 24.34 19.51 24.58 19.9C24.68 20.04 24.71 20.78 24.68 21C24.61 21.66 24.71 22.3 24.88 22.94C24.95 23.18 25.07 23.43 25.29 23.54C25.35 23.57 25.37 23.64 25.42 23.68C25.64 23.85 25.6 24.06 25.55 24.3C25.45 24.78 25.1 25.06 24.77 25.36C24.66 25.46 24.53 25.55 24.41 25.65C24.24 25.78 24.06 25.71 24.01 25.5C23.97 25.33 23.99 25.18 24.14 25.05C24.24 24.96 24.36 24.84 24.39 24.71C24.47 24.44 24.25 24.27 24.01 24.18C23.5 24.01 22.99 23.86 22.49 23.66C22.02 23.47 21.6 23.18 21.27 22.77C21.25 22.75 21.23 22.73 21.2 22.73C20.71 22.69 20.23 22.66 19.74 22.63C19.68 22.63 19.61 22.63 19.55 22.63C19.45 22.65 19.38 22.71 19.38 22.83C19.36 23.34 19.32 23.84 19.3 24.35C19.29 24.69 19.15 24.98 18.96 25.25C18.89 25.36 18.8 25.46 18.73 25.56C18.6 25.75 18.42 25.83 18.2 25.83C17.86 25.83 17.51 25.83 17.17 25.82C17.08 25.82 16.96 25.84 16.93 25.71C16.89 25.58 16.87 25.43 16.98 25.33C17.06 25.26 17.17 25.21 17.27 25.2C17.45 25.17 17.64 25.17 17.82 25.16C17.95 25.16 18 25.08 18.01 24.96C18.05 24.6 17.91 24.28 17.76 23.97C17.54 23.49 17.12 23.18 16.77 22.81C16.6 22.63 16.42 22.46 16.23 22.29C16.1 22.18 15.99 22.2 15.97 22.36C15.92 22.63 15.75 22.84 15.63 23.07C15.46 23.38 15.28 23.68 15.09 23.97C14.85 24.34 14.58 24.7 14.33 25.06C14.29 25.11 14.24 25.15 14.22 25.21C14.14 25.43 13.77 25.44 13.77 25.44H12.46V25.45Z" fill="white"/>
<path d="M21.89 24.13C22.25 24.3 22.61 24.44 22.98 24.58C23.2 24.66 23.43 24.71 23.66 24.77C23.77 24.8 23.74 24.9 23.71 24.96C23.64 25.11 23.55 25.22 23.48 25.34C23.41 25.48 23.32 25.61 23.23 25.74C23.12 25.89 22.93 25.9 22.88 25.9C22.28 25.93 21.88 25.88 21.28 25.9C21.16 25.9 21.06 25.76 21.08 25.63C21.12 25.42 21.25 25.23 21.5 25.24C21.61 25.24 21.71 25.24 21.82 25.23C21.96 25.21 22 25.11 21.92 25C21.63 24.59 21.39 24.14 21.24 23.66C21.37 23.81 21.55 23.95 21.89 24.13Z" fill="white"/>
</g>
<defs>
<clipPath id="clip0_8826_1625">
<rect width="36" height="36" fill="white"/>
</clipPath>
</defs>
</svg>
