<svg width="36" height="36" viewBox="0 0 36 36" fill="none" xmlns="http://www.w3.org/2000/svg">
<g clip-path="url(#clip0_8826_1662)">
<path d="M26.763 4.53392C26.763 4.53392 30.5708 3.62908 31.9617 6.95654C33.3625 10.284 31.6362 11.685 31.6362 11.685C31.6362 11.685 35.3946 12.6969 35.5031 16.4914C35.6117 20.2858 33.4414 21.0545 33.4414 21.0545C33.4414 21.0545 36.2035 22.0663 34.7534 26.4154C33.3033 30.7547 28.7853 30.3655 28.7853 30.3655H28.7458C28.8247 29.8693 28.8149 29.5482 28.8149 29.5482C28.8149 29.5482 28.6965 27.7386 27.2365 26.3375C26.5559 25.6857 25.5694 25.1214 24.1686 24.8781C24.1686 24.8781 24.7112 22.4263 22.5212 21.2977C20.5976 20.315 19.2856 22.0955 19.2856 22.0955H16.7898V4.65067C16.7898 4.65067 16.7997 0.486481 22.2548 0.486481C24.8493 0.486481 26.4177 2.36426 26.763 4.53392Z" fill="white"/>
<path d="M19.2856 22.0955C19.2856 22.0955 20.5976 20.315 22.5212 21.2977C24.7112 22.4263 24.1686 24.8781 24.1686 24.8781C25.5694 25.1214 26.5559 25.6857 27.2366 26.3375C28.6965 27.7386 28.8149 29.5482 28.8149 29.5482C28.8149 29.5482 28.8248 29.8693 28.7459 30.3558C28.519 31.8541 27.4634 34.9773 22.7974 35.454C16.6123 36.0864 16.7898 31.4844 16.7898 31.4844V22.0955H19.2856Z" fill="white"/>
<path d="M11.6897 29.4315C12.8045 29.4315 13.712 30.3169 13.712 31.426C13.712 32.5352 12.8045 33.4206 11.6897 33.4206C10.575 33.4206 9.66748 32.5255 9.66748 31.426C9.66748 30.3266 10.575 29.4315 11.6897 29.4315Z" fill="#274247"/>
<path d="M8.31572 2.64639C9.43043 2.64639 10.338 3.5415 10.338 4.65065C10.338 5.27333 10.042 5.82791 9.58827 6.19763C9.243 6.47978 8.79909 6.64518 8.31572 6.64518C7.19115 6.64518 6.29346 5.75008 6.29346 4.65065C6.29346 3.55123 7.19115 2.64639 8.31572 2.64639Z" fill="#274247"/>
<path d="M2.02226 8.13382C3.13698 8.13382 4.04453 9.02893 4.04453 10.1283C4.04453 11.2278 3.13698 12.1326 2.02226 12.1326C0.907553 12.1326 0 11.2375 0 10.1283C0 9.0192 0.907553 8.13382 2.02226 8.13382Z" fill="#274247"/>
<path d="M2.02226 16.1995C3.13698 16.1995 4.04453 17.0946 4.04453 18.2038C4.04453 19.3129 3.13698 20.1983 2.02226 20.1983C0.907553 20.1983 0 19.3032 0 18.2038C0 17.1044 0.907553 16.1995 2.02226 16.1995Z" fill="#274247"/>
<path d="M2.02226 23.9247C3.13698 23.9247 4.04453 24.8198 4.04453 25.9192C4.04453 27.0186 3.13698 27.9137 2.02226 27.9137C0.907553 27.9137 0 27.0284 0 25.9192C0 24.8101 0.897688 23.9247 2.02226 23.9247Z" fill="#274247"/>
<path d="M16.7896 21.8036C17.062 21.8036 17.2829 22.0214 17.2829 22.2901C17.2829 22.5587 17.062 22.7765 16.7896 22.7765H10.3111L7.75629 26.2075C7.66341 26.332 7.51609 26.406 7.35939 26.4061H4.0445C3.77225 26.4061 3.55152 26.188 3.55127 25.9196C3.55127 25.6509 3.7721 25.4331 4.0445 25.4331H7.10892L9.66469 22.0022L9.74368 21.9186C9.83168 21.8452 9.94396 21.8037 10.0616 21.8036H16.7896Z" fill="#274247"/>
<path d="M16.7896 17.7173L16.8888 17.7268C17.1138 17.772 17.2829 17.9686 17.2829 18.2038C17.2829 18.439 17.1138 18.6355 16.8888 18.6807L16.7896 18.6902H4.0445C3.7721 18.6902 3.55127 18.4724 3.55127 18.2038C3.55127 17.9351 3.7721 17.7173 4.0445 17.7173H16.7896Z" fill="#274247"/>
<path d="M7.52701 9.64182L7.64069 9.65512C7.751 9.68096 7.85024 9.7437 7.92006 9.83469L10.603 13.3388H16.7896C17.062 13.3388 17.2828 13.5567 17.2829 13.8253C17.2829 14.0939 17.062 14.3117 16.7896 14.3117H10.3583C10.2037 14.3117 10.0575 14.2405 9.96429 14.1189L7.2804 10.6148H4.0445C3.7721 10.6148 3.55127 10.397 3.55127 10.1283C3.55127 9.85962 3.7721 9.64182 4.0445 9.64182H7.52701Z" fill="#274247"/>
<path d="M9.26969 5.82611C9.47749 5.6526 9.78916 5.67824 9.96523 5.88311L12.4516 8.77629H16.7896C17.062 8.77629 17.2828 8.99409 17.2828 9.26276C17.2826 9.53125 17.0619 9.74923 16.7896 9.74923H12.2224C12.0776 9.7492 11.9403 9.68602 11.8467 9.57725L9.21189 6.51211C9.03597 6.30716 9.06197 5.99976 9.26969 5.82611Z" fill="#274247"/>
<path d="M23.6861 24.7758L23.6871 24.7749C23.6875 24.7727 23.6878 24.7679 23.689 24.7616C23.6915 24.7485 23.6962 24.7266 23.7006 24.6979C23.7094 24.6403 23.7203 24.5536 23.7276 24.4452C23.7423 24.2264 23.7414 23.9259 23.6813 23.5976C23.5627 22.95 23.2194 22.2068 22.2951 21.7297L22.1505 21.6612C21.4372 21.3512 20.8578 21.506 20.4281 21.7496C20.1917 21.8836 20.0018 22.046 19.8703 22.1762C19.8053 22.2406 19.7565 22.2956 19.7248 22.333C19.709 22.3516 19.6968 22.3654 19.6902 22.3739C19.687 22.3779 19.6854 22.3811 19.6844 22.3824V22.3815C19.5242 22.5986 19.2159 22.6467 18.9956 22.4888C18.7754 22.3308 18.7267 22.0267 18.8867 21.8095L18.8877 21.8085V21.8076L18.8896 21.8057C18.891 21.8038 18.8933 21.8008 18.8954 21.7981C18.8995 21.7927 18.9052 21.7856 18.9118 21.7772C18.9252 21.7601 18.9439 21.7367 18.9676 21.7088C19.0152 21.6527 19.0832 21.5762 19.1709 21.4893C19.3455 21.3164 19.6047 21.0942 19.9368 20.9059C20.573 20.5453 21.4825 20.3117 22.5359 20.7653L22.7478 20.866L22.7498 20.8669C24.0138 21.5184 24.4939 22.5647 24.6514 23.4247C24.7278 23.8418 24.7286 24.2178 24.7111 24.4927C25.9718 24.7882 26.9056 25.3424 27.58 25.9882L27.581 25.9891C28.3822 26.7582 28.812 27.6354 29.0414 28.3141C29.1564 28.6543 29.2227 28.9484 29.2601 29.1597C29.2788 29.2656 29.2905 29.3516 29.2976 29.4125C29.3012 29.4428 29.3028 29.4671 29.3044 29.4847C29.3052 29.4933 29.3059 29.5002 29.3063 29.5056C29.3065 29.5083 29.3071 29.5114 29.3073 29.5132V29.517L29.3082 29.5331L28.815 29.5483L29.3082 29.5341V29.6101C29.3079 29.6543 29.3065 29.7166 29.3025 29.7944C29.2943 29.9491 29.275 30.1664 29.2331 30.4263L29.2341 30.4272C29.1125 31.2299 28.7677 32.4813 27.8141 33.6007C26.8499 34.7325 25.2981 35.6877 22.848 35.938C19.6153 36.2684 17.9166 35.229 17.065 33.9769C16.6533 33.3716 16.4628 32.749 16.3743 32.2828C16.3299 32.0489 16.3103 31.8509 16.3021 31.709C16.2979 31.6378 16.2965 31.5801 16.2963 31.5389C16.2961 31.5183 16.2961 31.5017 16.2963 31.4895C16.2964 31.4833 16.2971 31.4782 16.2972 31.4743V4.65093C16.2972 4.59909 16.3025 3.44593 17.0631 2.29268C17.8478 1.10311 19.3791 0 22.2556 0C25.1514 0.000233255 26.8769 2.1142 27.2505 4.45615L27.3006 4.8343C27.4959 6.73727 26.8358 8.81331 25.1726 10.1636L25.1716 10.1627C24.6419 10.5991 24.0072 10.9604 23.269 11.2031C23.0107 11.2878 22.7319 11.1499 22.6457 10.8952C22.5596 10.6405 22.6987 10.3646 22.9569 10.2795C23.5783 10.0752 24.1063 9.77489 24.5425 9.41492L24.5454 9.41207C26.0068 8.22558 26.5588 6.3275 26.2766 4.61197L26.2756 4.60912C25.9579 2.61304 24.547 0.97317 22.2556 0.972941C19.677 0.972941 18.4746 1.93769 17.8906 2.82286C17.2944 3.72659 17.2839 4.63767 17.2837 4.65093V31.4847C17.2837 31.4907 17.283 31.4968 17.2827 31.5028V31.5332C17.2829 31.5591 17.2835 31.5997 17.2866 31.6529C17.2928 31.7601 17.3079 31.9168 17.3434 32.1042C17.415 32.4811 17.567 32.9694 17.8839 33.4354C18.4898 34.3262 19.7947 35.2717 22.7469 34.9698C24.9625 34.7434 26.272 33.8989 27.0588 32.9755C27.8561 32.0396 28.1529 30.9794 28.2582 30.2838L28.2592 30.279C28.2955 30.0552 28.3113 29.8703 28.3179 29.7441C28.3212 29.6815 28.3215 29.6336 28.3218 29.6025C28.3219 29.587 28.3218 29.5749 28.3218 29.5683C28.3209 29.5586 28.3193 29.5436 28.317 29.5236C28.3119 29.4801 28.3032 29.4127 28.2881 29.327C28.2576 29.1552 28.2021 28.9091 28.105 28.622C27.9346 28.1178 27.6387 27.4973 27.1263 26.9269L26.8931 26.6865C26.2853 26.1044 25.3892 25.5841 24.083 25.3573C23.9509 25.3343 23.8341 25.2591 23.7593 25.1492C23.6848 25.0396 23.658 24.9047 23.6861 24.7758Z" fill="#274247"/>
<path d="M24.8746 9.30133C25.6627 9.32554 26.2664 9.52218 26.7156 9.84196C27.1657 10.1625 27.4228 10.58 27.5633 10.9793C27.7021 11.3737 27.7302 11.756 27.7261 12.032C27.7241 12.1715 27.7132 12.2883 27.703 12.3722C27.6979 12.4142 27.6936 12.449 27.6895 12.4738C27.6875 12.4859 27.6851 12.4957 27.6837 12.5033C27.683 12.5071 27.6823 12.5111 27.6818 12.5137C27.6816 12.5148 27.682 12.5158 27.6818 12.5166L27.6809 12.5185L27.1973 12.4244L27.6809 12.5194C27.6277 12.7828 27.368 12.9537 27.1009 12.9014C26.834 12.849 26.661 12.5936 26.7136 12.3304H26.7127C26.7131 12.3283 26.7146 12.324 26.7156 12.318C26.7176 12.3054 26.7209 12.2848 26.7242 12.2572C26.731 12.2014 26.7382 12.1184 26.7397 12.0178C26.7427 11.8132 26.721 11.5523 26.6318 11.2985C26.5442 11.0497 26.3938 10.8135 26.1385 10.6315C25.8821 10.4489 25.4808 10.2938 24.8438 10.2743C24.5715 10.2659 24.3575 10.0411 24.366 9.7726C24.3745 9.50408 24.6024 9.29296 24.8746 9.30133Z" fill="#274247"/>
<path d="M33.2753 20.5958C33.283 20.5926 33.2981 20.5867 33.3187 20.5768C33.3603 20.5568 33.426 20.5225 33.5075 20.4694C33.6704 20.3634 33.8972 20.1825 34.125 19.8955C34.5744 19.3292 35.0616 18.3033 35.0103 16.5055C34.9612 14.7898 34.0956 13.7125 33.2271 13.0498C32.7897 12.716 32.3531 12.4901 32.0259 12.3477C31.8628 12.2767 31.7283 12.2268 31.6367 12.1956C31.591 12.1801 31.5559 12.1691 31.5336 12.1624C31.5225 12.159 31.5141 12.157 31.5095 12.1557L31.5066 12.1538V12.1548C31.3288 12.1069 31.1927 11.9648 31.154 11.7871C31.1154 11.6093 31.1803 11.4247 31.3226 11.3092L31.3554 11.2778C31.3863 11.2466 31.4344 11.1952 31.4902 11.122C31.6022 10.9753 31.7471 10.7423 31.8563 10.416C32.0713 9.77376 32.1672 8.71201 31.5066 7.1428L31.5056 7.14185C30.8916 5.67313 29.7648 5.1462 28.7582 4.97648C28.2481 4.89052 27.7725 4.89866 27.423 4.92897C27.2491 4.94405 27.1087 4.96499 27.0135 4.98123C26.9661 4.98934 26.9296 4.99644 26.9066 5.00118C26.8954 5.00349 26.8873 5.00488 26.8825 5.00593C26.8801 5.00647 26.8784 5.00674 26.8777 5.00688H26.8787C26.6138 5.06982 26.3471 4.90893 26.2833 4.64773C26.2196 4.38658 26.3827 4.12347 26.6475 4.06055L26.7014 4.28003L26.6484 4.06055H26.6504L26.6658 4.05675C26.6754 4.0546 26.6887 4.05162 26.7053 4.0482C26.7386 4.04132 26.7858 4.03265 26.845 4.02254C26.9635 4.00231 27.1316 3.97759 27.3363 3.95983C27.7441 3.92447 28.3081 3.91403 28.9239 4.01779C30.1687 4.22757 31.6411 4.9128 32.4179 6.77129H32.417C33.1566 8.52888 33.0906 9.83105 32.7927 10.721C32.692 11.0219 32.5648 11.2682 32.442 11.465C32.8209 11.6312 33.3234 11.8928 33.8312 12.2802C34.869 13.0721 35.9364 14.3991 35.9958 16.4779C36.0528 18.4737 35.5099 19.7294 34.9015 20.496C34.7178 20.7273 34.5293 20.9079 34.3572 21.0509C34.5864 21.2399 34.8375 21.4987 35.0585 21.8443C35.6253 22.7309 35.9415 24.1028 35.3523 26.1494L35.2222 26.5674C34.4392 28.9106 32.8104 29.9936 31.3862 30.4772C30.6805 30.7169 30.0264 30.8105 29.5491 30.844C29.3099 30.8608 29.113 30.8625 28.974 30.8601C28.9044 30.859 28.8484 30.8565 28.8092 30.8544C28.7899 30.8534 28.7742 30.8524 28.763 30.8516C28.7575 30.8512 28.7529 30.8509 28.7495 30.8506H28.7437L28.7428 30.8497C28.4714 30.8263 28.2702 30.5909 28.2938 30.3233C28.3175 30.0562 28.5559 29.8581 28.8266 29.8806H28.8275C28.8284 29.8806 28.8304 29.8813 28.8333 29.8815C28.8392 29.8819 28.8493 29.8827 28.8632 29.8834C28.8909 29.8849 28.9345 29.8862 28.9913 29.8872C29.1049 29.8891 29.2722 29.8874 29.4788 29.8729C29.8939 29.8438 30.4603 29.763 31.0654 29.5575C32.2625 29.1509 33.6179 28.259 34.2849 26.2634C34.9749 24.194 34.6381 23.0105 34.2242 22.3631C34.0111 22.0298 33.7615 21.8122 33.5682 21.679C33.4716 21.6124 33.3894 21.5682 33.335 21.5412C33.3079 21.5277 33.2878 21.5185 33.2763 21.5136C33.2735 21.5125 33.2713 21.5115 33.2695 21.5108L33.2002 21.4785C33.0456 21.393 32.9468 21.2306 32.9478 21.0519C32.9488 20.873 33.0492 20.711 33.205 20.6272L33.2724 20.5968C33.2732 20.5964 33.2743 20.5962 33.2753 20.5958Z" fill="#274247"/>
<path d="M20.0402 26.2792C21.3387 26.3221 22.1014 26.9848 22.5198 27.6664C22.7359 28.0184 22.8576 28.3689 22.9254 28.6279C22.9596 28.7584 22.9809 28.8687 22.9938 28.9481C23.0003 28.9879 23.0054 29.0205 23.0083 29.0441L23.0121 29.0821V29.0869C23.0083 29.0874 22.9676 29.091 22.543 29.1277L23.0121 29.0878C23.0357 29.3553 22.8354 29.5907 22.5642 29.6142C22.2929 29.6376 22.0533 29.44 22.0295 29.1724H22.0285C22.0283 29.1702 22.0292 29.1662 22.0285 29.161C22.027 29.1488 22.0242 29.1287 22.0199 29.1021C22.0111 29.0483 21.9962 28.9683 21.9707 28.8712C21.9193 28.6748 21.8286 28.4188 21.676 28.17C21.3848 27.6959 20.8572 27.2189 19.8051 27.2512L19.8061 27.2521C18.7241 27.2898 18.1049 27.787 17.7426 28.2697C17.5571 28.517 17.4369 28.7641 17.364 28.9491C17.3279 29.0408 17.3043 29.1159 17.2898 29.1657C17.2827 29.1903 17.2781 29.2088 17.2754 29.2199C17.274 29.2254 17.2729 29.2297 17.2725 29.2313V29.2303C17.2163 29.4929 16.9551 29.6607 16.6887 29.6056C16.4221 29.5505 16.2514 29.2928 16.3072 29.0299V29.028C16.3074 29.027 16.3079 29.0254 16.3082 29.0242C16.3087 29.0218 16.3093 29.0189 16.3101 29.0156C16.3117 29.0086 16.3141 28.9992 16.3168 28.988C16.3224 28.9657 16.3301 28.9352 16.3409 28.8978C16.3627 28.8228 16.3966 28.7194 16.445 28.5966C16.5413 28.352 16.7 28.024 16.9498 27.6911C17.4581 27.0137 18.3382 26.3291 19.7714 26.2792H20.0402Z" fill="#274247"/>
<path d="M30.8916 23.4401C31.1628 23.4643 31.3631 23.7009 31.3386 23.9684L30.8473 23.9247L31.3386 23.9693L31.3377 23.9712C31.3376 23.9723 31.3378 23.9736 31.3377 23.975C31.3374 23.9778 31.3372 23.9813 31.3367 23.9855C31.3357 23.9942 31.3347 24.0063 31.3328 24.0206C31.3292 24.0493 31.3229 24.0888 31.3145 24.1375C31.2979 24.2351 31.2705 24.371 31.2259 24.5299C31.1376 24.8449 30.9781 25.2678 30.6932 25.672C30.4057 26.0796 29.9861 26.4734 29.3849 26.7086C28.7835 26.9438 28.0406 27.0042 27.1336 26.8131C26.8674 26.757 26.6974 26.4989 26.754 26.2363C26.811 25.9736 27.0734 25.8059 27.3398 25.862C28.0948 26.0211 28.6347 25.9555 29.0218 25.804C29.4089 25.6525 29.6844 25.3991 29.884 25.1161C30.086 24.8295 30.2059 24.5174 30.2751 24.2705C30.3093 24.1485 30.3296 24.0459 30.3416 23.976C30.3475 23.9412 30.352 23.9146 30.3541 23.8981C30.3551 23.89 30.3557 23.8839 30.356 23.881C30.3561 23.88 30.356 23.8793 30.356 23.8791C30.3814 23.6124 30.6209 23.4159 30.8916 23.4401Z" fill="#274247"/>
<path d="M20.3379 15.0362C20.9836 14.7626 21.7054 14.5874 22.4081 14.754L22.4091 14.753C22.8882 14.8665 23.6525 15.2821 24.0593 16.0348C24.4974 16.8454 24.4567 17.9171 23.5314 19.1712C23.3711 19.3882 23.0628 19.4365 22.8426 19.2786C22.6224 19.1205 22.5735 18.8155 22.7338 18.5983C23.4953 17.566 23.4063 16.8959 23.1885 16.4927C22.9706 16.0896 22.5614 15.8322 22.2877 15.7326L22.1789 15.6994C21.7774 15.6039 21.2917 15.691 20.7271 15.9303C20.1677 16.1674 19.594 16.5261 19.0383 16.8947C18.4062 17.314 17.8297 17.4595 17.3958 17.4923C17.181 17.5085 17.004 17.4971 16.8756 17.4799C16.8114 17.4714 16.7585 17.4611 16.7196 17.4524C16.7002 17.4481 16.6841 17.4444 16.6714 17.441C16.6651 17.4393 16.6596 17.4376 16.655 17.4362C16.6527 17.4356 16.6501 17.4349 16.6483 17.4343L16.6463 17.4334H16.6444V17.4324H16.6435C16.3836 17.3527 16.2384 17.0807 16.3188 16.8243C16.3992 16.569 16.6734 16.4251 16.9325 16.5022L16.9305 16.5013C16.9322 16.5017 16.9348 16.5024 16.9382 16.5032C16.9506 16.506 16.9741 16.5111 17.0076 16.5156C17.0749 16.5245 17.182 16.5327 17.3207 16.5222C17.5946 16.5015 18.0049 16.4079 18.4873 16.088C19.0463 15.7172 19.6865 15.3123 20.3379 15.0362Z" fill="#274247"/>
<path d="M30.0816 14.5493C30.3516 14.584 30.5425 14.8283 30.5074 15.0946L30.018 15.0319L30.5074 15.0956V15.0965C30.5073 15.0974 30.5066 15.0991 30.5064 15.1003C30.5061 15.1026 30.5059 15.1055 30.5054 15.1089C30.5044 15.1164 30.5026 15.1268 30.5006 15.1393C30.4966 15.1642 30.4907 15.1989 30.4823 15.2419C30.4656 15.3283 30.4391 15.45 30.3995 15.5944C30.3206 15.8817 30.1866 16.271 29.9669 16.6709C29.526 17.4737 28.7084 18.3629 27.2782 18.4838C25.9807 18.5934 25.051 18.3387 24.4325 18.0344C24.1258 17.8834 23.9004 17.7226 23.7475 17.5945C23.6712 17.5305 23.6125 17.4745 23.5713 17.432C23.5507 17.4109 23.5344 17.3927 23.5221 17.3788C23.516 17.3719 23.5108 17.3656 23.5067 17.3607C23.5046 17.3583 23.5025 17.356 23.5009 17.3541C23.5002 17.3532 23.4996 17.352 23.499 17.3512L23.498 17.3503H23.4971C23.4969 17.35 23.4971 17.3496 23.8824 17.0462L23.4971 17.3493C23.3271 17.1394 23.3622 16.8338 23.5751 16.6662C23.7879 16.4986 24.0978 16.5324 24.2678 16.7422L24.2668 16.7412C24.27 16.7448 24.2761 16.7511 24.2841 16.7593C24.3036 16.7793 24.3374 16.8124 24.3862 16.8534C24.4845 16.9358 24.6447 17.0514 24.8737 17.164C25.328 17.3875 26.0756 17.6092 27.1944 17.5146C28.1808 17.4312 28.7541 16.837 29.0999 16.2073C29.2735 15.8911 29.3826 15.5769 29.4477 15.3398C29.48 15.222 29.5005 15.125 29.5132 15.0595C29.5195 15.027 29.5242 15.0019 29.5267 14.9863C29.5279 14.9788 29.5282 14.9731 29.5286 14.9702L29.5296 14.9683C29.5652 14.7025 29.8119 14.5149 30.0816 14.5493Z" fill="#274247"/>
<path d="M27.269 17.5139C27.5406 17.5316 27.746 17.763 27.7285 18.0308C27.7285 18.0314 27.7286 18.0333 27.7285 18.0355C27.7283 18.0399 27.728 18.0473 27.7275 18.0574C27.7267 18.0778 27.7252 18.1094 27.7246 18.1505C27.7236 18.2331 27.7246 18.3536 27.7333 18.4982C27.751 18.7905 27.7993 19.1687 27.9164 19.5358C28.0342 19.9053 28.2121 20.2316 28.4664 20.4584C28.7083 20.674 29.0519 20.8296 29.5772 20.8118C29.8494 20.8026 30.0774 21.0127 30.0868 21.2812C30.096 21.5496 29.8831 21.7746 29.6109 21.7838C28.8442 21.8097 28.247 21.5749 27.8046 21.1805C27.3746 20.7971 27.1237 20.2934 26.9752 19.8275C26.8259 19.3591 26.7693 18.896 26.7488 18.5562C26.7384 18.385 26.7369 18.2413 26.7382 18.1391C26.7388 18.0879 26.7408 18.0465 26.742 18.0175C26.7426 18.0031 26.7425 17.9916 26.743 17.9833C26.7432 17.9791 26.7438 17.9754 26.744 17.9728V17.9681C26.762 17.7001 26.9972 17.4962 27.269 17.5139Z" fill="#274247"/>
<path d="M17.2243 6.20121V6.20026C17.2248 6.20112 17.2262 6.20346 17.2282 6.20691C17.2323 6.21404 17.2398 6.22629 17.2503 6.24302C17.2718 6.27695 17.3058 6.32909 17.3534 6.39219C17.4493 6.51915 17.5964 6.68849 17.7956 6.85395C18.1897 7.18124 18.7852 7.49184 19.626 7.43449C20.4911 7.37506 20.8744 7.06217 21.0517 6.83115C21.1468 6.7073 21.1974 6.58722 21.2242 6.50145C21.2374 6.45895 21.2448 6.4259 21.2482 6.40644L21.2502 6.39219V6.39599L21.2675 6.29907C21.3296 6.08139 21.5395 5.92887 21.7771 5.94562C22.0148 5.96249 22.2011 6.14317 22.2309 6.36748L22.2338 6.4663V6.47295C22.2335 6.47536 22.2331 6.47847 22.2328 6.4815C22.2322 6.4878 22.231 6.49549 22.2299 6.5043C22.2277 6.52225 22.2241 6.54524 22.2193 6.57271C22.2096 6.6277 22.1941 6.70136 22.1673 6.78744C22.1136 6.95951 22.0153 7.18706 21.8378 7.41834C21.47 7.89741 20.8116 8.32783 19.6944 8.40458C18.5427 8.48324 17.7028 8.04985 17.1598 7.59886C16.8906 7.37527 16.6934 7.14702 16.5625 6.97367C16.4969 6.88676 16.4475 6.81233 16.4132 6.75799C16.396 6.73078 16.3824 6.70808 16.3727 6.69148L16.3573 6.66488C16.3568 6.66393 16.3558 6.66277 16.3554 6.66203V6.66108L16.3544 6.66013C16.2263 6.42305 16.3174 6.12806 16.5577 6.00168C16.7977 5.87554 17.0959 5.96502 17.2243 6.20121Z" fill="#274247"/>
<path d="M11.1965 29.4311V26.1332C11.1965 25.8645 11.4174 25.6467 11.6898 25.6467H16.6809C16.9533 25.6467 17.1741 25.8645 17.1741 26.1332C17.1741 26.4019 16.9533 26.6197 16.6809 26.6197H12.183V29.4311C12.183 29.6998 11.9622 29.9176 11.6898 29.9176C11.4174 29.9176 11.1965 29.6998 11.1965 29.4311Z" fill="#274247"/>
</g>
<defs>
<clipPath id="clip0_8826_1662">
<rect width="36" height="36" fill="white"/>
</clipPath>
</defs>
</svg>
