<svg width="36" height="36" viewBox="0 0 36 36" fill="none" xmlns="http://www.w3.org/2000/svg">
<g clip-path="url(#clip0_8826_1797)">
<path d="M22.7579 3.16193L21.6195 6.66465L22.5147 10.0895L20.3157 10.683L20.199 11.043L29.9579 14.322L32.5169 6.44086L22.7579 3.16193Z" fill="#274247"/>
<path d="M22.5395 2.72773C22.6555 2.66937 22.7898 2.65979 22.9129 2.70113L32.6722 5.98017C32.9249 6.06521 33.0623 6.33751 32.98 6.59114L30.4212 14.4719C30.3811 14.5954 30.293 14.6985 30.177 14.7569C30.0611 14.8152 29.9266 14.8247 29.8036 14.7835L20.0444 11.5045C19.7916 11.4195 19.6542 11.1462 19.7365 10.8926L19.8534 10.5334L19.8762 10.4764C19.9365 10.348 20.0499 10.2508 20.1888 10.2132L21.9219 9.74571L21.1494 6.78782C21.1259 6.6978 21.1282 6.60266 21.157 6.51417L22.2953 3.01183C22.3354 2.88837 22.4236 2.78611 22.5395 2.72773ZM22.1262 6.6795L22.9851 9.96615C23.0527 10.2245 22.8998 10.4893 22.6421 10.5591L21.3356 10.9116L29.6468 13.7041L31.9054 6.74791L23.0688 3.77862L22.1262 6.6795Z" fill="#274247"/>
<path d="M20.9578 10.7998L10.6053 13.5922L7.91016 3.27868L18.2626 0.486237L20.9578 10.7998Z" fill="#274247"/>
<path d="M18.1358 0.0168641C18.2609 -0.0168771 18.3943 0.00038234 18.5064 0.065323C18.6185 0.130421 18.7007 0.238203 18.7335 0.363678L21.4282 10.6769C21.4957 10.9354 21.3422 11.2002 21.0842 11.2698L10.7321 14.0623C10.6068 14.0961 10.4727 14.078 10.3605 14.0129C10.2486 13.9478 10.1672 13.8408 10.1344 13.7155L7.4397 3.40138C7.37228 3.14294 7.52576 2.87899 7.78366 2.80942L18.1358 0.0168641ZM8.50199 3.62182L10.9515 12.9943L20.364 10.4555L17.9154 1.08296L8.50199 3.62182Z" fill="#274247"/>
<path d="M10.6348 25.2291H31.1646L35.5138 9.92413H6.39258L10.6348 25.2291Z" fill="white"/>
<path d="M4.82593 3.93057C5.04548 3.93057 5.23774 4.07788 5.29532 4.28974L11.0363 25.413C11.1065 25.6722 10.9533 25.9393 10.6942 26.0098C10.4349 26.0802 10.168 25.927 10.0975 25.6677L4.45441 4.90355H0.486489C0.217808 4.90355 0 4.68574 0 4.41706C0 4.14838 0.217808 3.93057 0.486489 3.93057H4.82593Z" fill="#274247"/>
<path d="M5.20557 28.0506C5.20563 26.4078 6.52526 25.0537 8.16346 25.0537H30.9667L34.8804 10.4106H6.32487C6.05619 10.4106 5.83838 10.1928 5.83838 9.92411C5.83838 9.65543 6.05619 9.43762 6.32487 9.43762H35.5142L35.6254 9.45092C35.7334 9.47639 35.831 9.53786 35.9 9.62766C35.992 9.74754 36.0226 9.90352 35.9836 10.0495L31.8095 25.6656C31.7526 25.8784 31.5602 26.0265 31.3401 26.0267H8.16346C7.07739 26.0267 6.17861 26.9302 6.17854 28.0506C6.17854 29.171 7.07736 30.0744 8.16346 30.0744H27.2534C27.522 30.0745 27.7399 30.2923 27.7399 30.5609C27.7399 30.8296 27.522 31.0473 27.2534 31.0474H8.16346C6.52522 31.0474 5.20557 29.6934 5.20557 28.0506Z" fill="#274247"/>
<path d="M13.067 35.5135C14.4104 35.5135 15.4994 34.407 15.4994 33.0421C15.4994 31.6772 14.4104 30.5707 13.067 30.5707C11.7236 30.5707 10.6345 31.6772 10.6345 33.0421C10.6345 34.407 11.7236 35.5135 13.067 35.5135Z" fill="white"/>
<path d="M15.0131 33.0421C15.0131 31.9386 14.1346 31.0572 13.0671 31.0572C11.9997 31.0572 11.1212 31.9386 11.1212 33.0421C11.1212 34.1457 11.9997 35.0271 13.0671 35.0271C14.1346 35.0271 15.0131 34.1457 15.0131 33.0421ZM15.9861 33.0421C15.986 34.6684 14.6864 36 13.0671 36C11.4478 36 10.1482 34.6684 10.1482 33.0421C10.1482 31.4159 11.4478 30.0843 13.0671 30.0843C14.6865 30.0843 15.9861 31.4159 15.9861 33.0421Z" fill="#274247"/>
<path d="M27.253 35.5135C28.5964 35.5135 29.6854 34.407 29.6854 33.0421C29.6854 31.6772 28.5964 30.5707 27.253 30.5707C25.9096 30.5707 24.8206 31.6772 24.8206 33.0421C24.8206 34.407 25.9096 35.5135 27.253 35.5135Z" fill="white"/>
<path d="M29.1991 33.0421C29.1991 31.9386 28.3206 31.0572 27.2532 31.0572C26.1857 31.0572 25.3072 31.9386 25.3072 33.0421C25.3072 34.1457 26.1857 35.0271 27.2532 35.0271C28.3206 35.0271 29.1991 34.1457 29.1991 33.0421ZM30.1721 33.0421C30.1721 34.6684 28.8725 36 27.2532 36C25.6338 36 24.3342 34.6684 24.3342 33.0421C24.3342 31.4159 25.6338 30.0843 27.2532 30.0843C28.8725 30.0843 30.1721 31.4159 30.1721 33.0421Z" fill="#274247"/>
<path d="M15.8927 9.43949C16.1602 9.41484 16.3973 9.61189 16.4219 9.87942L17.8615 25.4955C17.8861 25.7629 17.6898 25.9999 17.4225 26.0248C17.1549 26.0494 16.9179 25.8524 16.8932 25.5848L15.4528 9.96874C15.4281 9.7012 15.6252 9.46416 15.8927 9.43949Z" fill="#274247"/>
<path d="M26.0629 9.4395C26.3304 9.46466 26.527 9.7022 26.5018 9.96969L25.0329 25.5858C25.0077 25.8533 24.7702 26.0499 24.5027 26.0248C24.2352 25.9996 24.0385 25.7621 24.0637 25.4946L25.5327 9.87848C25.5578 9.61105 25.7954 9.41445 26.0629 9.4395Z" fill="#274247"/>
<path d="M34.2199 14.2636C34.4885 14.2637 34.7064 14.4815 34.7064 14.7501C34.7064 15.0186 34.4885 15.2364 34.2199 15.2366H7.63786C7.36918 15.2366 7.15137 15.0187 7.15137 14.7501C7.15137 14.4814 7.36918 14.2636 7.63786 14.2636H34.2199Z" fill="#274247"/>
<path d="M32.6333 20.2376C32.902 20.2376 33.1198 20.4554 33.1198 20.7241C33.1198 20.9928 32.902 21.2106 32.6333 21.2106H9.26286C8.99418 21.2106 8.77637 20.9928 8.77637 20.7241C8.77637 20.4554 8.99418 20.2376 9.26286 20.2376H32.6333Z" fill="#274247"/>
</g>
<defs>
<clipPath id="clip0_8826_1797">
<rect width="36" height="36" fill="white"/>
</clipPath>
</defs>
</svg>
