<svg width="36" height="36" viewBox="0 0 36 36" fill="none" xmlns="http://www.w3.org/2000/svg">
<g clip-path="url(#clip0_8826_1700)">
<path d="M8.03951 3.95367C8.03951 1.5174 5.78951 -0.415843 3.21951 0.0773304C1.82951 0.33378 0.669511 1.36944 0.219511 2.69115C-0.190489 3.88463 0.00951082 4.97947 0.529511 5.88691L3.86951 11.5288C3.94951 11.657 4.13951 11.657 4.20951 11.5288L7.49951 5.88691C7.82951 5.31483 8.02951 4.66384 8.02951 3.95367H8.03951Z" fill="#274247"/>
<path d="M4.01945 5.47266C4.89206 5.47266 5.59945 4.77493 5.59945 3.91423C5.59945 3.05354 4.89206 2.3558 4.01945 2.3558C3.14684 2.3558 2.43945 3.05354 2.43945 3.91423C2.43945 4.77493 3.14684 5.47266 4.01945 5.47266Z" fill="white"/>
<path d="M4.01954 17.5061C5.11859 17.5061 6.00954 16.6317 6.00954 15.5531C6.00954 14.4745 5.11859 13.6001 4.01954 13.6001C2.92049 13.6001 2.02954 14.4745 2.02954 15.5531C2.02954 16.6317 2.92049 17.5061 4.01954 17.5061Z" fill="white"/>
<path d="M5.51001 15.5536C5.51001 14.7498 4.84495 14.0934 4.01978 14.0933C3.19449 14.0933 2.52954 14.7497 2.52954 15.5536C2.5298 16.3572 3.19465 17.0129 4.01978 17.0129C4.84479 17.0127 5.50976 16.3572 5.51001 15.5536ZM6.51001 15.5536C6.50976 16.9066 5.39232 17.9991 4.01978 17.9992C2.64712 17.9992 1.5298 16.9067 1.52954 15.5536C1.52954 14.2003 2.64696 13.107 4.01978 13.107C5.39248 13.1071 6.51001 14.2003 6.51001 15.5536Z" fill="#274247"/>
<path d="M30.6096 35.5069C31.7087 35.5069 32.5996 34.6325 32.5996 33.5539C32.5996 32.4753 31.7087 31.6009 30.6096 31.6009C29.5106 31.6009 28.6196 32.4753 28.6196 33.5539C28.6196 34.6325 29.5106 35.5069 30.6096 35.5069Z" fill="white"/>
<path d="M32.1001 33.5544C32.1001 32.7506 31.435 32.0942 30.6099 32.0941C29.7846 32.0941 29.1196 32.7505 29.1196 33.5544C29.1199 34.358 29.7847 35.0136 30.6099 35.0136C31.4349 35.0135 32.0998 34.358 32.1001 33.5544ZM33.1001 33.5544C33.0998 34.9074 31.9824 35.9999 30.6099 36C29.2372 36 28.1199 34.9074 28.1196 33.5544C28.1196 32.2011 29.2371 31.1078 30.6099 31.1078C31.9826 31.1079 33.1001 32.2011 33.1001 33.5544Z" fill="#274247"/>
<path d="M15.6451 13.1176C15.8334 13.0779 16.0286 13.1491 16.1461 13.2996C16.2634 13.4501 16.283 13.6542 16.1959 13.8236L10.3248 25.2427L28.941 32.3937C29.1983 32.4925 29.3253 32.7785 29.2252 33.0323C29.125 33.2861 28.835 33.4124 28.5777 33.3136L9.44784 25.9651C9.31644 25.9146 9.21304 25.8109 9.16268 25.6809C9.11247 25.551 9.11947 25.4062 9.18319 25.2822L14.8287 14.2994L6.10409 16.144C5.8342 16.2009 5.5682 16.0307 5.51034 15.7645C5.45279 15.4984 5.62527 15.2369 5.89511 15.1798L15.6451 13.1176Z" fill="#274247"/>
<path d="M35.9994 19.3407C35.9994 16.066 32.9794 13.4818 29.5394 14.1328C27.6694 14.4879 26.1194 15.8687 25.5094 17.6442C24.9594 19.242 25.2394 20.7117 25.9294 21.9249L30.4094 29.4902C30.5094 29.6677 30.7694 29.6677 30.8694 29.4902L35.2894 21.9249C35.7294 21.1556 35.9994 20.2876 35.9994 19.3407Z" fill="#274247"/>
<path d="M30.6095 21.3824C31.7803 21.3824 32.7295 20.4462 32.7295 19.2913C32.7295 18.1365 31.7803 17.2003 30.6095 17.2003C29.4387 17.2003 28.4895 18.1365 28.4895 19.2913C28.4895 20.4462 29.4387 21.3824 30.6095 21.3824Z" fill="white"/>
</g>
<defs>
<clipPath id="clip0_8826_1700">
<rect width="36" height="36" fill="white"/>
</clipPath>
</defs>
</svg>
