<svg width="330" height="420" viewBox="0 0 330 420" fill="none" xmlns="http://www.w3.org/2000/svg">
<path fill-rule="evenodd" clip-rule="evenodd" d="M170 0C258.366 0 330 71.6344 330 160C330 248.366 258.366 320 170 320H160V340C160 384.183 124.183 420 80 420C35.8172 420 8.0543e-07 384.183 0 340V80C0 35.8172 35.8172 0 80 0H170ZM230.711 89.29C222.119 80.6985 208.19 80.6985 199.599 89.29L160 128.888L120.402 89.29C111.811 80.6985 97.8816 80.6985 89.29 89.29C80.6986 97.8816 80.6985 111.811 89.29 120.402L128.888 160L89.29 199.599C80.6985 208.19 80.6985 222.119 89.29 230.711C97.8816 239.302 111.811 239.302 120.402 230.711L160 191.113L199.599 230.711C208.19 239.302 222.12 239.302 230.711 230.711C239.302 222.12 239.302 208.19 230.711 199.599L191.113 160L230.711 120.402C239.302 111.811 239.302 97.8816 230.711 89.29Z" fill="white"/>
</svg>
