<svg width="254" height="105" viewBox="0 0 254 105" fill="none" xmlns="http://www.w3.org/2000/svg">
<path d="M119.38 35.4999C120.94 35.4999 122.395 35.9499 123.745 36.85C125.125 37.7499 126.235 38.9649 127.075 40.4949C127.915 42.0249 128.335 43.7349 128.335 45.6249C128.335 47.4849 127.915 49.1799 127.075 50.7099C126.235 52.2399 125.125 53.4699 123.745 54.4C122.395 55.3 120.94 55.75 119.38 55.75H111.1L111.55 54.94V64.2549C111.55 65.0349 111.31 65.695 110.83 66.235C110.35 66.745 109.72 67 108.94 67C108.19 67 107.575 66.745 107.095 66.235C106.615 65.695 106.375 65.0349 106.375 64.2549V38.2449C106.375 37.465 106.63 36.82 107.14 36.3099C107.68 35.7699 108.34 35.4999 109.12 35.4999H119.38ZM119.38 50.6199C119.95 50.6199 120.505 50.38 121.045 49.9C121.585 49.4199 122.035 48.8049 122.395 48.0549C122.755 47.2749 122.935 46.4649 122.935 45.6249C122.935 44.7549 122.755 43.945 122.395 43.1949C122.035 42.4449 121.585 41.845 121.045 41.395C120.505 40.9149 119.95 40.6749 119.38 40.6749H111.01L111.55 39.8649V51.34L111.055 50.6199H119.38Z" fill="#162327"/>
<path d="M135.334 42.9249C136.204 42.9249 136.939 43.2999 137.539 44.0499L152.569 62.7249C152.959 63.2049 153.154 63.7449 153.154 64.3449C153.154 65.0949 152.869 65.7399 152.299 66.2799C151.729 66.8199 151.099 67.09 150.409 67.09C149.539 67.09 148.804 66.6999 148.204 65.9199L133.174 47.245C132.784 46.765 132.589 46.2249 132.589 45.6249C132.589 44.8449 132.859 44.1999 133.399 43.69C133.969 43.18 134.614 42.9249 135.334 42.9249ZM135.379 67.0449C134.779 67.0449 134.179 66.8199 133.579 66.3699C133.009 65.8899 132.724 65.32 132.724 64.66C132.724 64.06 132.949 63.4899 133.399 62.9499L140.284 54.535L142.984 59.035L137.539 65.9199C136.969 66.6699 136.249 67.0449 135.379 67.0449ZM150.364 42.9249C151.084 42.9249 151.684 43.18 152.164 43.69C152.674 44.17 152.929 44.7249 152.929 45.3549C152.929 45.6549 152.884 45.9549 152.794 46.2549C152.704 46.5549 152.539 46.8399 152.299 47.1099L145.504 55.3899L142.669 51.4749L148.204 44.1399C148.804 43.3299 149.524 42.9249 150.364 42.9249Z" fill="#162327"/>
<path d="M193.533 35.365C194.223 35.365 194.883 35.635 195.513 36.1749C196.143 36.6849 196.458 37.3899 196.458 38.29C196.458 38.56 196.413 38.86 196.323 39.1899L187.458 65.2899C187.278 65.8299 186.948 66.2499 186.468 66.5499C186.018 66.8199 185.538 66.97 185.028 67C184.518 67 184.008 66.8499 183.498 66.5499C183.018 66.2499 182.643 65.8149 182.373 65.2449L175.713 50.1249L176.118 50.3949L169.548 65.2449C169.278 65.8149 168.888 66.2499 168.378 66.5499C167.898 66.8499 167.403 67 166.893 67C166.413 66.97 165.933 66.8199 165.453 66.5499C164.973 66.2499 164.643 65.8299 164.463 65.2899L155.598 39.1899C155.508 38.86 155.463 38.56 155.463 38.29C155.463 37.3899 155.778 36.6849 156.408 36.1749C157.068 35.635 157.743 35.365 158.433 35.365C159.003 35.365 159.528 35.515 160.008 35.815C160.518 36.115 160.863 36.55 161.043 37.1199L168.198 58.8099L167.208 58.7649L173.598 43.4199C173.838 42.8799 174.183 42.4599 174.633 42.1599C175.083 41.83 175.593 41.6799 176.163 41.7099C176.733 41.6799 177.243 41.83 177.693 42.1599C178.143 42.4599 178.473 42.8799 178.683 43.4199L184.533 58.0899L183.813 58.5399L190.878 37.1199C191.058 36.55 191.403 36.115 191.913 35.815C192.423 35.515 192.963 35.365 193.533 35.365Z" fill="#162327"/>
<path d="M209.9 67.45C207.35 67.45 205.13 66.925 203.24 65.875C201.38 64.795 199.94 63.3399 198.92 61.5099C197.93 59.6799 197.435 57.6099 197.435 55.2999C197.435 52.5999 197.975 50.305 199.055 48.415C200.165 46.495 201.605 45.0249 203.375 44.0049C205.145 42.985 207.02 42.475 209 42.475C210.53 42.475 211.97 42.7899 213.32 43.4199C214.7 44.0499 215.915 44.92 216.965 46.03C218.015 47.11 218.84 48.37 219.44 49.8099C220.07 51.25 220.385 52.7799 220.385 54.4C220.355 55.1199 220.07 55.7049 219.53 56.1549C218.99 56.6049 218.36 56.83 217.64 56.83H200.45L199.1 52.33H215.615L214.625 53.2299V52.0149C214.565 51.1449 214.25 50.3649 213.68 49.6749C213.14 48.9849 212.45 48.4449 211.61 48.0549C210.8 47.6349 209.93 47.4249 209 47.4249C208.1 47.4249 207.26 47.5449 206.48 47.785C205.7 48.0249 205.025 48.4299 204.455 49C203.885 49.57 203.435 50.335 203.105 51.295C202.775 52.255 202.61 53.47 202.61 54.94C202.61 56.56 202.94 57.94 203.6 59.08C204.29 60.19 205.16 61.0449 206.21 61.6449C207.29 62.2149 208.43 62.5 209.63 62.5C210.74 62.5 211.625 62.41 212.285 62.2299C212.945 62.05 213.47 61.8399 213.86 61.5999C214.28 61.3299 214.655 61.1049 214.985 60.9249C215.525 60.6549 216.035 60.5199 216.515 60.5199C217.175 60.5199 217.715 60.745 218.135 61.195C218.585 61.645 218.81 62.1699 218.81 62.7699C218.81 63.5799 218.39 64.3149 217.55 64.9749C216.77 65.6349 215.675 66.2199 214.265 66.7299C212.855 67.2099 211.4 67.45 209.9 67.45Z" fill="#162327"/>
<path d="M237.118 42.475C239.218 42.475 241.093 43.015 242.743 44.095C244.423 45.1449 245.743 46.5999 246.703 48.4599C247.693 50.3199 248.188 52.48 248.188 54.94C248.188 57.4 247.693 59.575 246.703 61.465C245.743 63.325 244.438 64.795 242.788 65.875C241.168 66.925 239.338 67.45 237.298 67.45C236.098 67.45 234.973 67.2549 233.923 66.8649C232.873 66.4749 231.943 65.9799 231.133 65.3799C230.353 64.7799 229.738 64.18 229.288 63.58C228.868 62.95 228.658 62.4249 228.658 62.0049L230.053 61.42V64.705C230.053 65.485 229.798 66.1449 229.288 66.6849C228.778 67.1949 228.133 67.45 227.353 67.45C226.573 67.45 225.928 67.1949 225.418 66.6849C224.908 66.1749 224.653 65.515 224.653 64.705V36.445C224.653 35.6649 224.908 35.0199 225.418 34.5099C225.928 33.97 226.573 33.7 227.353 33.7C228.133 33.7 228.778 33.97 229.288 34.5099C229.798 35.0199 230.053 35.6649 230.053 36.445V47.875L229.288 47.4699C229.288 47.0799 229.498 46.6149 229.918 46.0749C230.338 45.5049 230.908 44.9499 231.628 44.4099C232.348 43.8399 233.173 43.3749 234.103 43.0149C235.063 42.6549 236.068 42.475 237.118 42.475ZM236.443 47.4249C235.123 47.4249 233.968 47.7549 232.978 48.415C231.988 49.0749 231.208 49.9749 230.638 51.115C230.098 52.225 229.828 53.5 229.828 54.94C229.828 56.35 230.098 57.6399 230.638 58.8099C231.208 59.9499 231.988 60.8499 232.978 61.5099C233.968 62.1699 235.123 62.5 236.443 62.5C237.763 62.5 238.903 62.1699 239.863 61.5099C240.853 60.8499 241.618 59.9499 242.158 58.8099C242.728 57.6399 243.013 56.35 243.013 54.94C243.013 53.5 242.728 52.225 242.158 51.115C241.618 49.9749 240.853 49.0749 239.863 48.415C238.903 47.7549 237.763 47.4249 236.443 47.4249Z" fill="#162327"/>
<path fill-rule="evenodd" clip-rule="evenodd" d="M42.5 0C64.5914 0 82.5 17.9086 82.5 40C82.5 62.0914 64.5914 80 42.5 80H40V85C40 96.0457 31.0457 105 20 105C8.95431 105 2.01358e-07 96.0457 0 85V20C0 8.95431 8.95431 0 20 0H42.5ZM57.6777 22.3225C55.5299 20.1746 52.0475 20.1746 49.8997 22.3225L40 32.2219L30.1006 22.3225C27.9527 20.1746 24.4704 20.1746 22.3225 22.3225C20.1746 24.4704 20.1746 27.9527 22.3225 30.1006L32.2219 40L22.3225 49.8997C20.1746 52.0475 20.1746 55.5299 22.3225 57.6777C24.4704 59.8255 27.9527 59.8256 30.1006 57.6777L40 47.7783L49.8997 57.6777C52.0475 59.8255 55.5299 59.8256 57.6777 57.6777C59.8256 55.5299 59.8255 52.0476 57.6777 49.8997L47.7783 40L57.6777 30.1006C59.8256 27.9527 59.8255 24.4704 57.6777 22.3225Z" fill="#162327"/>
</svg>
