<svg width="28" height="28" viewBox="0 0 28 28" fill="none" xmlns="http://www.w3.org/2000/svg">
<g clip-path="url(#clip0_8826_1383)">
<path d="M15.3613 14.0079L19.0402 8.33788H17.3524L20.2147 3.93566H19.1491L21.3191 0.700104L23.4969 3.93566H22.4236L25.2936 8.33788H23.598L27.2847 14.0079H15.3613Z" fill="white"/>
<path d="M21.3191 1.39231L22.7579 3.53898H21.7002L22.4779 4.73676L24.5624 7.9412H22.8746L23.6524 9.14676L26.5535 13.6112H16.0613L18.9624 9.14676L19.7402 7.9412H18.0524L20.1368 4.73676L20.9146 3.53898H19.8568L21.2957 1.39231M21.3191 9.15527e-05L18.4179 4.32454H19.4991L16.6368 8.73454H18.3246L14.6379 14.3968H27.9924L24.3057 8.73454H25.9935L23.1313 4.32454H24.2124L21.3113 9.15527e-05L21.3191 9.15527e-05Z" fill="#274247"/>
<path d="M0.676758 19.1412L5.32787 11.1612H3.09565L6.79009 5.18007H5.42898L8.43898 0.700073L11.449 5.18007H10.0879L13.7823 11.1612H11.5423L16.2012 19.1412H0.676758Z" fill="white"/>
<path d="M8.43889 1.39222L10.7178 4.79111H9.38778L10.1189 5.98111L13.0822 10.7722H10.8656L11.55 11.9389L15.5167 18.7444H1.35333L5.32 11.9389L6.00444 10.7722H3.78778L6.75111 5.98111L7.48222 4.79111H6.15222L8.43111 1.39222M8.43889 0L4.69778 5.56889H6.09L2.39556 11.55H4.65111L0 19.53H16.8778L12.2267 11.5578H14.4822L10.7878 5.57667H12.18L8.43889 0Z" fill="#274247"/>
<path d="M28.0001 28.0001L22.1667 19.0323H25.3712L20.5178 11.5501H22.3456L17.4223 4.21564L12.499 11.5501H14.3345L9.47341 19.0323H12.6778L6.85229 28.0001H28.0001Z" fill="#274247"/>
</g>
<defs>
<clipPath id="clip0_8826_1383">
<rect width="28" height="28" fill="white"/>
</clipPath>
</defs>
</svg>
