<svg width="28" height="28" viewBox="0 0 28 28" fill="none" xmlns="http://www.w3.org/2000/svg">
<g clip-path="url(#clip0_8826_1211)">
<path d="M0.378418 8.0519L14.0227 0.378387L27.6217 8.0519H0.378418Z" fill="#274247"/>
<path d="M13.8818 0.0273823C13.9875 -0.0150696 14.1077 -0.00794943 14.2085 0.0488139L27.8079 7.72206C27.9576 7.80654 28.031 7.98154 27.9875 8.14774C27.9438 8.31405 27.7937 8.43004 27.6217 8.43004H0.378462C0.206411 8.43004 0.0562379 8.31417 0.0126466 8.14774C-0.0309426 7.9813 0.043007 7.8064 0.192968 7.72206L13.8375 0.0488139L13.8818 0.0273823ZM1.82399 7.67329H26.1806L14.0223 0.812222L1.82399 7.67329Z" fill="#274247"/>
<path d="M7.67346 11.48H1.83887V14.4162H7.67346V11.48Z" fill="white"/>
<path d="M7.67364 11.1016C7.88261 11.1016 8.05202 11.271 8.05202 11.48V14.4161C8.05202 14.6251 7.88261 14.7945 7.67364 14.7945H1.83907C1.6301 14.7945 1.46069 14.6251 1.46069 14.4161V11.48C1.46069 11.271 1.6301 11.1016 1.83907 11.1016H7.67364ZM2.21745 14.0378H7.29526V11.8584H2.21745V14.0378Z" fill="#274247"/>
<path d="M6.46278 14.1665H3.05737V24.4432H6.46278V14.1665Z" fill="#274247"/>
<path d="M26.161 11.48H20.3264V14.4162H26.161V11.48Z" fill="white"/>
<path d="M26.1609 11.1016L26.2371 11.109C26.4096 11.1442 26.5393 11.2971 26.5393 11.48V14.4161C26.5393 14.6251 26.3699 14.7945 26.1609 14.7945H20.3264C20.1174 14.7945 19.948 14.6251 19.948 14.4161V11.48C19.948 11.271 20.1174 11.1016 20.3264 11.1016H26.1609ZM20.7048 14.0378H25.7826V11.8584H20.7048V14.0378Z" fill="#274247"/>
<path d="M24.9428 14.1665H21.5374V24.4432H24.9428V14.1665Z" fill="#274247"/>
<path d="M16.9135 11.48H11.0789V14.4162H16.9135V11.48Z" fill="white"/>
<path d="M16.9134 11.1016C17.1224 11.1016 17.2918 11.271 17.2918 11.48V14.4161C17.2918 14.6251 17.1224 14.7945 16.9134 14.7945H11.0788C10.8698 14.7945 10.7004 14.6251 10.7004 14.4161V11.48C10.7004 11.271 10.8698 11.1016 11.0788 11.1016H16.9134ZM11.4572 14.0378H16.535V11.8584H11.4572V14.0378Z" fill="#274247"/>
<path d="M15.7028 14.1665H12.2974V24.4432H15.7028V14.1665Z" fill="#274247"/>
<path d="M27.6217 8.05191H0.378418V11.48H27.6217V8.05191Z" fill="white"/>
<path d="M27.6216 7.67349C27.8306 7.67349 28 7.8429 28 8.05187V11.4802C27.9999 11.6891 27.8305 11.8586 27.6216 11.8586H0.378378C0.169475 11.8586 0.000111896 11.6891 0 11.4802V8.05187C0 7.8429 0.169406 7.67349 0.378378 7.67349H27.6216ZM0.756757 11.1018H27.2432V8.43025H0.756757V11.1018Z" fill="#274247"/>
<path d="M27.6217 24.1935H0.378418V27.6216H27.6217V24.1935Z" fill="white"/>
<path d="M27.6216 23.8151C27.8306 23.8151 28 23.9845 28 24.1935V27.6218C27.9999 27.8307 27.8305 28.0002 27.6216 28.0002H0.378378C0.169475 28.0002 0.000111506 27.8307 0 27.6218V24.1935C0 23.9845 0.169406 23.8151 0.378378 23.8151H27.6216ZM0.756757 27.2434H27.2432V24.5719H0.756757V27.2434Z" fill="#274247"/>
</g>
<defs>
<clipPath id="clip0_8826_1211">
<rect width="28" height="28" fill="white"/>
</clipPath>
</defs>
</svg>
