<svg width="28" height="28" viewBox="0 0 28 28" fill="none" xmlns="http://www.w3.org/2000/svg">
<g clip-path="url(#clip0_8826_1283)">
<path d="M8.18815 16.0616C12.5013 16.0616 15.9979 12.5681 15.9979 8.25866C15.9979 3.9492 12.5013 0.455688 8.18815 0.455688C3.87495 0.455688 0.378418 3.9492 0.378418 8.25866C0.378418 12.5681 3.87495 16.0616 8.18815 16.0616Z" fill="white"/>
<path d="M15.6192 8.18017C15.6191 4.07854 12.2917 0.754767 8.18834 0.754639C4.08485 0.754639 0.756821 4.07846 0.756757 8.18017C0.756757 12.2819 4.08481 15.6057 8.18834 15.6057C12.2918 15.6056 15.6192 12.2819 15.6192 8.18017ZM16.3759 8.18017C16.3759 12.6972 12.7111 16.3602 8.18834 16.3603C3.66549 16.3603 0 12.6973 0 8.18017C6.38467e-05 3.66306 3.66553 0 8.18834 0C12.7111 0.000127813 16.3759 3.66314 16.3759 8.18017Z" fill="#274247"/>
<path d="M6.68213 27.5242V7.29269C6.68213 7.08431 6.85153 6.91537 7.06051 6.91537C7.26948 6.91537 7.43889 7.08431 7.43889 7.29269V27.5242C7.43889 27.7326 7.26948 27.9016 7.06051 27.9016C6.85153 27.9016 6.68213 27.7326 6.68213 27.5242Z" fill="#274247"/>
<path d="M3.98271 10.9836C4.12012 10.8266 4.35959 10.8105 4.51702 10.9474L7.30904 13.3779C7.4664 13.5149 7.48262 13.753 7.34525 13.91C7.20783 14.0669 6.96908 14.0831 6.81168 13.9461L4.01892 11.5164C3.86153 11.3793 3.84533 11.1405 3.98271 10.9836Z" fill="#274247"/>
<path d="M9.38561 8.27457C9.5271 8.12151 9.76623 8.11156 9.91992 8.25247C10.0737 8.39358 10.0836 8.63268 9.94209 8.78602L7.40725 11.5326C7.26573 11.686 7.02596 11.6959 6.8722 11.5547C6.71865 11.4137 6.70879 11.1752 6.85003 11.0219L9.38561 8.27457Z" fill="#274247"/>
<path d="M23.1645 8.40952H20.0845V13.5411H23.1645V8.40952Z" fill="white"/>
<path d="M23.1644 8.03223C23.3733 8.03235 23.5428 8.20124 23.5428 8.40955V13.5409C23.5428 13.7493 23.3733 13.9181 23.1644 13.9183H20.0842C19.8752 13.9183 19.7058 13.7493 19.7058 13.5409V8.40955C19.7058 8.20116 19.8752 8.03223 20.0842 8.03223H23.1644ZM20.4626 13.1636H22.786V8.78687H20.4626V13.1636Z" fill="#274247"/>
<path d="M25.2076 27.3585V17.4803H27.6216V15.1409L17.3222 8.89252L7.06055 15.1409V17.4803H9.4746V27.3585H25.2076Z" fill="#274247"/>
<path d="M17.1718 8.54611C17.2835 8.49789 17.4133 8.50624 17.5191 8.57043L27.8181 14.8183C27.931 14.8868 27.9999 15.0094 27.9999 15.1411V17.4802C27.9999 17.6886 27.8305 17.8575 27.6215 17.8575H25.5863V27.3583C25.5863 27.5666 25.4167 27.7354 25.2079 27.7356H9.47489C9.26591 27.7356 9.09651 27.5667 9.09651 27.3583V17.8575H7.06051C6.85153 17.8575 6.68213 17.6886 6.68213 17.4802V15.1411C6.68213 15.0097 6.75075 14.8876 6.86319 14.8191L17.1252 8.57043L17.1718 8.54611ZM7.43889 15.3526V17.1029H9.47489C9.68368 17.103 9.85322 17.2719 9.85327 17.4802V26.981H24.8295V17.4802C24.8296 17.2718 24.9989 17.1029 25.2079 17.1029H27.2432V15.3526L17.3218 9.33392L7.43889 15.3526Z" fill="#274247"/>
<path d="M19.7363 20.6347H14.946V27.5246H19.7363V20.6347Z" fill="white"/>
<path d="M19.3653 15.2541C19.3653 14.1413 18.4608 13.2392 17.3449 13.2392C16.229 13.2393 15.3244 14.1413 15.3244 15.2541C15.3244 16.3668 16.229 17.2689 17.3449 17.2689C18.4608 17.2689 19.3653 16.3668 19.3653 15.2541ZM20.1221 15.2541C20.1221 16.7836 18.8787 18.0235 17.3449 18.0235C15.811 18.0235 14.5676 16.7836 14.5676 15.2541C14.5677 13.7245 15.8111 12.4846 17.3449 12.4846C18.8787 12.4846 20.1221 13.7245 20.1221 15.2541Z" fill="white"/>
<path d="M27.6216 27.2454C27.8306 27.2454 28 27.4143 28 27.6227C28 27.8311 27.8306 28 27.6216 28H0.378378C0.169406 28 0 27.8311 0 27.6227C0 27.4143 0.169406 27.2454 0.378378 27.2454H27.6216Z" fill="#274247"/>
</g>
<defs>
<clipPath id="clip0_8826_1283">
<rect width="28" height="28" fill="white"/>
</clipPath>
</defs>
</svg>
