<svg width="28" height="28" viewBox="0 0 28 28" fill="none" xmlns="http://www.w3.org/2000/svg">
<g clip-path="url(#clip0_8826_1413)">
<path d="M24.5663 11.0527V16.4525H23.7947V11.0527H24.5663Z" fill="#274247"/>
<path d="M28 14.9491L25.7777 11.5129H27.0818L25.1759 8.57522H25.8935L23.9645 5.68356L22.0277 8.57522H22.753L20.8395 11.5129H22.1512L19.929 14.9491H28Z" fill="#274247"/>
<path d="M19.4198 20.2876V26.447H18.6482V20.2876H19.4198Z" fill="#274247"/>
<path d="M22.8534 24.9434L20.6234 21.5148H21.9352L20.0293 18.5695H20.7469L18.8179 15.6855L16.8811 18.5695H17.5987L15.6929 21.5148H17.0046L14.7747 24.9434H22.8534Z" fill="#274247"/>
<path d="M20.6698 5.36911V10.7689H19.8982V5.36911H20.6698Z" fill="#274247"/>
<path d="M24.1034 9.26556L21.8734 5.82933H23.1852L21.2793 2.88398H21.9969L20.0602 0L18.1311 2.88398H18.8487L16.9429 5.82933H18.2546L16.0247 9.26556H24.1034Z" fill="#274247"/>
<path d="M16.287 12.1266H14.2653C13.9567 12.1266 13.6635 11.9808 13.486 11.7277L11.1635 8.45257C10.8085 7.95401 10.2684 7.58584 9.65114 7.51681C9.57398 7.50914 9.4891 7.50146 9.40422 7.50146C8.68663 7.50146 8.04619 7.83895 7.63724 8.36052L7.61409 8.42188L4.62797 15.9847L4.59711 19.582C4.59711 19.9808 4.46593 20.3643 4.22674 20.6865L0.808515 25.3039C0.322402 25.9405 0.453575 26.838 1.08629 27.3212C1.72673 27.8044 2.63722 27.674 3.12334 27.045L7.06625 21.8907C7.14341 21.791 7.19742 21.6759 7.22829 21.5532L7.67582 19.7737L9.36564 21.8754C9.65885 22.2128 9.82089 22.65 9.82089 23.0949V26.1783C9.82089 26.999 10.5153 27.6587 11.3487 27.6126C12.1048 27.5743 12.6758 26.9223 12.7144 26.1783C12.7144 26.1476 12.7144 26.1246 12.7144 26.094V21.2617C12.7144 20.7939 12.5447 20.349 12.2283 20.0038L9.59712 17.0968C9.14959 16.5983 8.99527 15.9003 9.2036 15.2637L10.2221 12.1112L11.2792 13.6069C11.6342 14.1055 12.2129 14.4046 12.8379 14.4046H16.287C16.9197 14.4046 17.4367 13.8984 17.4367 13.2618C17.4367 12.6251 16.9197 12.1189 16.287 12.1189V12.1266Z" fill="#274247"/>
<path d="M11.7732 6.46597C13.0133 6.46597 14.0186 5.4701 14.0186 4.24162C14.0186 3.01315 13.0133 2.01727 11.7732 2.01727C10.5331 2.01727 9.52783 3.01315 9.52783 4.24162C9.52783 5.4701 10.5331 6.46597 11.7732 6.46597Z" fill="white"/>
<path d="M13.6328 4.24192C13.6328 3.22653 12.8014 2.40084 11.7731 2.40078C10.7449 2.40078 9.91345 3.22649 9.91345 4.24192C9.91362 5.2572 10.745 6.08231 11.7731 6.08231C12.8013 6.08224 13.6327 5.25716 13.6328 4.24192ZM14.4044 4.24192C14.4043 5.68326 13.2249 6.84926 11.7731 6.84932C10.3213 6.84932 9.14201 5.6833 9.14185 4.24192C9.14185 2.80039 10.3212 1.63376 11.7731 1.63376C13.225 1.63382 14.4044 2.80043 14.4044 4.24192Z" fill="#274247"/>
<path d="M9.81323 26.1706C9.81323 26.9913 10.5077 27.651 11.341 27.605C12.0972 27.5666 12.6682 26.9146 12.7068 26.1706V25.7948H9.81323V26.1706Z" fill="white"/>
<path d="M0.79289 25.3039C0.306777 25.9405 0.43795 26.8379 1.07067 27.3211C1.7111 27.8044 2.6216 27.674 3.10771 27.045" fill="white"/>
<path d="M0.792969 25.3039L3.10779 27.045L3.37014 26.7076L1.06303 24.9434L0.792969 25.3039Z" fill="white"/>
<path d="M16.2869 14.4046C16.9196 14.4046 17.4366 13.8983 17.4366 13.2617C17.4366 12.6251 16.9196 12.1189 16.2869 12.1189" fill="white"/>
<path d="M16.2869 12.1265V14.4046H15.8394V12.1112L16.2869 12.1265Z" fill="white"/>
<path d="M1.10945 15.5551L3.14649 16.3145C3.85637 16.5752 4.65113 16.2224 4.91348 15.5168L7.60639 8.40652C7.87645 7.70087 7.51379 6.91851 6.80391 6.65772L4.76687 5.89838C4.05699 5.63759 3.26224 5.99042 2.99989 6.69607L2.39804 8.2838L0.30698 13.8063C0.0369169 14.512 0.399572 15.2943 1.10945 15.5551Z" fill="white"/>
<path d="M2.44665 7.07372C2.89968 5.88847 4.23144 5.28052 5.43512 5.73144H5.43588L6.41546 6.09922L6.52623 6.14416C7.65384 6.63241 8.20528 7.91151 7.77481 9.06167V9.06317L5.47506 15.1304V15.1311C5.02211 16.3165 3.68958 16.9251 2.48584 16.4742H2.48508L1.5055 16.1056C0.303734 15.6552 -0.298247 14.3304 0.146146 13.1432L0.1469 13.1417L2.4459 7.07447L2.44665 7.07372ZM5.1631 6.44902C4.36073 6.14843 3.47097 6.55291 3.16777 7.34637L3.16702 7.34562L0.868775 13.4098L0.869528 13.4106C0.573213 14.2022 0.974046 15.0867 1.77828 15.3881L2.7571 15.7558C3.55941 16.0564 4.44989 15.6526 4.75319 14.8592L7.05218 8.79276C7.34737 8.00167 6.94689 7.11882 6.14344 6.81754L6.14268 6.8168L5.1631 6.44902Z" fill="#274247"/>
<path d="M2.03634 8.14975C2.11088 7.9514 2.33336 7.85031 2.53292 7.92429L7.1392 9.6351C7.3388 9.70921 7.44057 9.9303 7.36601 10.1287C7.29138 10.327 7.06898 10.4275 6.86944 10.3534L2.26315 8.64337C2.06362 8.56928 1.96192 8.34812 2.03634 8.14975Z" fill="#274247"/>
<path d="M8.95808 10.356C9.13217 10.2339 9.37324 10.2751 9.4961 10.4482L11.5841 13.3897C11.8756 13.7904 12.3394 14.0286 12.8304 14.0286H16.2793C16.7006 14.0286 17.0434 13.6922 17.0434 13.2691C17.0432 12.8461 16.7005 12.5103 16.2793 12.5103H14.2576C13.8284 12.5103 13.4153 12.3073 13.1627 11.9478V11.9485L10.8404 8.67371V8.67296C10.5371 8.2475 10.0887 7.95234 9.60008 7.8977C9.59152 7.89674 9.58294 7.89549 9.57446 7.89396C9.52885 7.88572 9.4853 7.88497 9.39663 7.88497C8.80322 7.88497 8.27319 8.16401 7.93404 8.59655C7.80304 8.76351 7.56028 8.7934 7.39226 8.66322C7.22421 8.53301 7.19422 8.29171 7.3252 8.12466C7.80396 7.51406 8.55486 7.11795 9.39663 7.11795C9.47192 7.11795 9.57251 7.11954 9.68599 7.13743L9.68674 7.13593C10.3856 7.21412 10.9848 7.60615 11.392 8.12541L11.4711 8.23102V8.23177L13.7934 11.5066L13.7949 11.5081C13.8974 11.6541 14.07 11.7432 14.2576 11.7433H16.2793C17.1233 11.7433 17.8148 12.4191 17.815 13.2691C17.815 14.1192 17.1234 14.7956 16.2793 14.7956H12.8304C12.0869 14.7956 11.3925 14.4354 10.9587 13.8391L10.9564 13.8361V13.8353L8.8654 10.8901C8.74268 10.7171 8.78411 10.4782 8.95808 10.356Z" fill="#274247"/>
<path d="M12.3206 26.0943V21.2615C12.3206 20.8873 12.1856 20.5352 11.9356 20.2622L11.9333 20.26L9.30275 17.353L9.30125 17.3522C8.76427 16.754 8.5771 15.9139 8.82879 15.1448L9.8468 11.9936C9.91206 11.7921 10.1293 11.6817 10.3321 11.7464C10.5349 11.8112 10.6466 12.0271 10.5815 12.2288L9.56272 15.3808V15.3823C9.39787 15.886 9.51873 16.4418 9.87618 16.8406L12.5075 19.7477H12.5067C12.8881 20.1647 13.0922 20.701 13.0922 21.2615V26.0943C13.092 27.0517 12.3729 27.9438 11.3538 27.9946L11.3546 27.9953C10.2906 28.0536 9.41955 27.2171 9.41955 26.1782V23.0951C9.41955 22.7415 9.29002 22.3931 9.05786 22.1259C9.05483 22.1224 9.05171 22.119 9.04882 22.1154L4.39581 16.3395C4.26267 16.1742 4.28979 15.9326 4.45609 15.8002C4.62241 15.6679 4.86546 15.6948 4.99863 15.8601L9.65088 21.6352H9.65013C9.99886 22.0416 10.1912 22.5634 10.1912 23.0951V26.1782C10.1912 26.7429 10.6327 27.2023 11.1971 27.2298H11.3139C11.8677 27.2028 12.3204 26.7007 12.3206 26.0943Z" fill="#274247"/>
<path d="M4.61507 15.8236C4.82801 15.825 4.99986 15.9977 4.99861 16.2093L4.97525 19.5845V19.589C4.9661 20.0623 4.8184 20.5236 4.52917 20.9133L1.11119 25.5311L1.10817 25.5356C0.750841 26.0036 0.841058 26.6606 1.31162 27.0157C1.78274 27.3712 2.45115 27.2807 2.80812 26.8135V26.8127L6.75131 21.6586L6.75281 21.6571C6.79538 21.6021 6.8273 21.5354 6.84625 21.4601L7.29384 19.6804C7.34566 19.4751 7.55518 19.3504 7.76178 19.4017C7.96839 19.4532 8.09376 19.6615 8.04209 19.8669L7.5945 21.6459C7.55188 21.8154 7.47575 21.9782 7.36467 22.1223L7.36543 22.123L3.423 27.2772C2.8077 28.0829 1.65482 28.2377 0.845194 27.627C0.0349667 27.0156 -0.121552 25.8772 0.493299 25.072L3.90826 20.4594V20.4586C4.09715 20.2043 4.19734 19.8989 4.20365 19.5748L4.22701 16.2048C4.22846 15.9931 4.40202 15.8222 4.61507 15.8236Z" fill="#274247"/>
</g>
<defs>
<clipPath id="clip0_8826_1413">
<rect width="28" height="28" fill="white"/>
</clipPath>
</defs>
</svg>
