<svg width="28" height="28" viewBox="0 0 28 28" fill="none" xmlns="http://www.w3.org/2000/svg">
<g clip-path="url(#clip0_8826_1709)">
<path d="M14.9981 13.286C14.3246 13.5507 13.5831 13.5432 12.9096 13.286L5.27441 10.2675V13.0893C5.27441 14.8822 9.14876 16.3346 13.9236 16.3346C18.6984 16.3346 22.5728 14.8822 22.5728 13.0893V10.3432L14.9981 13.2935V13.286Z" fill="#274247"/>
<path d="M22.1944 10.8955L15.135 13.6459C15.1131 13.6544 15.0903 13.6586 15.0677 13.6629C14.3212 13.9369 13.5092 13.9201 12.7739 13.6393L12.7702 13.6378L5.65246 10.8231V13.0896C5.65259 13.3908 5.81407 13.7231 6.20521 14.07C6.59608 14.4166 7.18325 14.7461 7.94106 15.0304C9.45399 15.5979 11.5691 15.956 13.923 15.956C16.2771 15.956 18.3928 15.5979 19.9058 15.0304C20.6636 14.7461 21.2508 14.4166 21.6416 14.07C22.0327 13.7231 22.1942 13.3908 22.1944 13.0896V10.8955ZM22.9511 13.0896C22.9509 13.6846 22.6276 14.2064 22.1434 14.6359C21.6586 15.0657 20.9785 15.4352 20.171 15.7381C18.5532 16.345 16.3438 16.7125 13.923 16.7125C11.5023 16.7125 9.29286 16.345 7.67503 15.7381C6.86759 15.4352 6.18744 15.0658 5.70271 14.6359C5.21849 14.2064 4.89588 13.6846 4.89575 13.0896V10.2675L4.89871 10.221C4.91199 10.1138 4.97075 10.0167 5.06128 9.95505C5.16484 9.88466 5.29656 9.86991 5.41303 9.91589L13.0437 12.9323C13.6328 13.1573 14.2774 13.1625 14.8593 12.9338C14.8785 12.9262 14.8986 12.9225 14.9184 12.9182L22.4353 9.99051C22.5516 9.94527 22.6832 9.9607 22.7863 10.0311C22.8892 10.1016 22.951 10.2182 22.9511 10.3429V13.0896Z" fill="#274247"/>
<path d="M14.9979 11.7881L27.0144 7.10538C27.8241 6.78765 27.8241 5.64534 27.0144 5.32761L15.0055 0.576815C14.332 0.312041 13.5753 0.312041 12.9018 0.576815L0.983663 5.28978C0.181553 5.60751 0.181553 6.74982 0.983663 7.06755L12.9094 11.7805C13.5828 12.0453 14.3244 12.0453 14.9979 11.7805V11.7881Z" fill="#274247"/>
<path d="M12.7634 0.224573C13.4781 -0.0563249 14.2746 -0.0736751 14.9995 0.172121L15.1436 0.224573L15.1443 0.225312L27.1534 4.97557H27.1526C28.2823 5.41902 28.2824 7.01447 27.1526 7.45783H27.1519L15.1355 12.1409C15.114 12.1492 15.0912 12.1528 15.069 12.1571C14.3245 12.4312 13.511 12.4237 12.7708 12.1327L12.77 12.132L0.844493 7.41941H0.843754C-0.276691 6.97537 -0.276697 5.38194 0.843754 4.9379H0.844493L12.7626 0.225312L12.7634 0.224573ZM14.8658 0.927878C14.2816 0.69858 13.6238 0.698265 13.0398 0.927878L13.0405 0.928617L1.12309 5.6412C0.639618 5.83271 0.639618 6.5246 1.12309 6.71611H1.12235L13.0486 11.4287H13.0479C13.6322 11.6584 14.2748 11.6584 14.8591 11.4287C14.8765 11.4218 14.8951 11.4188 14.913 11.4147L26.8763 6.75305L26.962 6.71167C27.3635 6.477 27.335 5.85983 26.8763 5.67962H26.8748L14.8658 0.928617V0.927878Z" fill="#274247"/>
<path d="M25.0547 12.8398V8.05108L13.9517 6.66368C13.7445 6.63759 13.5977 6.44828 13.6236 6.2411C13.6497 6.03399 13.839 5.88718 14.0463 5.91309L25.4796 7.3426C25.6689 7.36627 25.8113 7.52726 25.8114 7.7179V12.8398C25.8114 13.0485 25.6419 13.2179 25.4331 13.218C25.2242 13.218 25.0548 13.0486 25.0547 12.8398Z" fill="#274247"/>
<path d="M24.4644 13.6717C24.4644 13.2178 24.8957 12.8396 25.4254 12.8396C25.9551 12.8396 26.3864 13.2103 26.3864 13.6717V15.6538C26.3864 15.8807 25.9551 16.0698 25.4178 16.0698C24.8805 16.0698 24.4568 15.8883 24.4568 15.6538V13.6717H24.4644Z" fill="white"/>
<path d="M26.0078 13.6715C26.0076 13.4689 25.7997 13.218 25.4255 13.2179C25.0536 13.2179 24.8427 13.4744 24.8425 13.6715C24.8425 13.6977 24.8402 13.7236 24.8351 13.7483V15.576C24.8482 15.5837 24.8649 15.5935 24.8861 15.6026C25.0002 15.6518 25.1864 15.6912 25.4174 15.6912C25.6466 15.6912 25.8357 15.6504 25.9531 15.5996C25.9767 15.5895 25.9944 15.5795 26.0078 15.5716V13.6715ZM26.7645 15.6536C26.7645 15.8384 26.6756 15.9831 26.5805 16.0798C26.4868 16.1752 26.3694 16.2441 26.2539 16.2941C26.0214 16.3946 25.7254 16.4477 25.4174 16.4477C25.1117 16.4477 24.818 16.3971 24.586 16.297C24.3903 16.2126 24.0784 16.0169 24.0784 15.6536V13.6715C24.0784 13.6392 24.084 13.6083 24.0917 13.5784C24.1459 12.9178 24.7688 12.4614 25.4255 12.4614C26.1103 12.4615 26.7644 12.9514 26.7645 13.6715V15.6536Z" fill="#274247"/>
<path d="M26.7345 26.0027H26.1216L26.4621 25.8363C26.0686 25.0495 25.8568 24.1341 25.8568 23.1885C25.8568 22.2429 26.0611 21.3275 26.4621 20.5408L26.1216 20.3744H26.7345C27.181 20.3744 27.5442 20.0112 27.5442 19.5649C27.5442 19.1186 27.181 18.7555 26.7345 18.7555H4.72947C2.27774 18.7555 0.295166 20.745 0.295166 23.1885C0.295166 25.632 2.27774 27.6216 4.72947 27.6216H26.7345C27.181 27.6216 27.5442 27.2585 27.5442 26.8121C27.5442 26.3658 27.181 26.0027 26.7345 26.0027Z" fill="white"/>
<path d="M27.2415 19.55C27.2415 19.3387 27.0879 19.1623 26.8868 19.1259C26.8642 19.1301 26.8414 19.1333 26.818 19.1333H4.81293C2.5706 19.1333 0.756755 20.9535 0.756708 23.1884C0.756708 25.4234 2.57057 27.2435 4.81293 27.2435H26.8099C27.0474 27.2435 27.2415 27.0495 27.2415 26.8121C27.2414 26.5747 27.0474 26.3806 26.8099 26.3806H4.78263C3.01488 26.3806 1.58145 24.9483 1.5814 23.181C1.5814 21.4137 3.01485 19.9807 4.78263 19.9807H26.8099C27.0473 19.9807 27.2413 19.7873 27.2415 19.55ZM27.9982 19.55C27.9981 20.2051 27.4653 20.7372 26.8099 20.7372H4.78263C3.43277 20.7372 2.33811 21.8315 2.33811 23.181C2.33816 24.5305 3.4328 25.6241 4.78263 25.6241H26.8099C27.4653 25.6241 27.9981 26.1569 27.9982 26.8121C27.9982 27.4673 27.4653 28 26.8099 28H4.81293C2.15181 28 0 25.8404 0 23.1884C4.76064e-05 20.5365 2.15184 18.3768 4.81293 18.3768H26.7079C26.7408 18.3676 26.7749 18.3621 26.8099 18.3621C27.4653 18.3621 27.9982 18.8948 27.9982 19.55Z" fill="#274247"/>
<path d="M25.1755 23.1813C25.1755 22.0814 25.4224 21.0537 25.8591 20.1886C25.9533 20.0022 26.181 19.9276 26.3675 20.0216C26.554 20.1158 26.6287 20.3434 26.5345 20.5299C26.1541 21.2836 25.9322 22.1935 25.9322 23.1813C25.9323 24.1684 26.1539 25.0709 26.5352 25.8335C26.6287 26.0204 26.5529 26.2476 26.366 26.341C26.1792 26.4343 25.9518 26.3586 25.8583 26.1719C25.4227 25.3007 25.1756 24.2818 25.1755 23.1813Z" fill="#274247"/>
<path d="M25.5541 22.8027C25.763 22.8028 25.9325 22.9721 25.9325 23.181C25.9325 23.3898 25.763 23.5591 25.5541 23.5592H6.7724C6.56344 23.5592 6.39404 23.3899 6.39404 23.181C6.39404 22.9721 6.56344 22.8027 6.7724 22.8027H25.5541Z" fill="#274247"/>
</g>
<defs>
<clipPath id="clip0_8826_1709">
<rect width="28" height="28" fill="white"/>
</clipPath>
</defs>
</svg>
