<svg width="28" height="28" viewBox="0 0 28 28" fill="none" xmlns="http://www.w3.org/2000/svg">
<g clip-path="url(#clip0_8826_1761)">
<path d="M25.9115 16.3005H2.08105V27.6217H25.9115V16.3005Z" fill="#274247"/>
<path d="M25.9116 15.9221L25.9877 15.9295C26.1602 15.9648 26.29 16.1176 26.29 16.3005V27.6216C26.29 27.8305 26.1205 27.9999 25.9116 28H2.08102C1.87204 28 1.70264 27.8306 1.70264 27.6216V16.3005C1.70264 16.0915 1.87204 15.9221 2.08102 15.9221H25.9116ZM2.4594 27.2432H25.5332V16.6789H2.4594V27.2432Z" fill="#274247"/>
<path d="M25.9191 14.7037H27.6218V11.6767H0.378418V14.7037H2.08113H25.9191Z" fill="#274247"/>
<path d="M27.6218 11.2983C27.8308 11.2983 28.0002 11.4677 28.0002 11.6767V14.7037C28.0002 14.9127 27.8308 15.0821 27.6218 15.0821H0.378381C0.169407 15.0821 0 14.9127 0 14.7037V11.6767C0 11.4677 0.169407 11.2983 0.378381 11.2983H27.6218ZM0.756762 14.3254H27.2434V12.0551H0.756762V14.3254Z" fill="#274247"/>
<path d="M23.3915 6.77289H4.60872L0.378418 11.6767H27.6218L23.3915 6.77289Z" fill="white"/>
<path d="M23.3917 6.3945L23.473 6.40337C23.552 6.42079 23.6246 6.46364 23.6784 6.52605L27.9086 11.4295C28.0052 11.5415 28.0271 11.7 27.9655 11.8345C27.9038 11.9688 27.7697 12.0554 27.6219 12.0554H0.378433C0.230559 12.0554 0.0964734 11.9688 0.0347859 11.8345C-0.0268233 11.7 -0.00491427 11.5415 0.0916908 11.4295L4.32187 6.52605C4.39372 6.44276 4.49862 6.39454 4.60861 6.3945H23.3917ZM1.20466 11.2987H26.7956L23.2187 7.15126H4.78154L1.20466 11.2987Z" fill="#274247"/>
<path d="M10.9124 9.17181L8.69507 6.81828L15.733 0.378235L20.6065 5.54692L16.6411 9.17181H10.9124Z" fill="white"/>
<path d="M15.5387 0.0537874C15.688 -0.0359643 15.8846 -0.0127986 16.0087 0.118822L20.8818 5.28756C20.9513 5.36131 20.9883 5.45972 20.9845 5.561C20.9808 5.66227 20.9367 5.75794 20.8619 5.82631L16.8963 9.45123C16.8265 9.51483 16.7357 9.55026 16.6413 9.55026H10.9124C10.8082 9.5502 10.7089 9.50703 10.6374 9.43128L8.41963 7.07748C8.35032 7.00377 8.31316 6.90516 8.31691 6.80404C8.32071 6.70302 8.36509 6.6078 8.43959 6.53947L15.4781 0.098868L15.5387 0.0537874ZM9.23404 6.83804L11.0757 8.7935H16.495L20.0674 5.52627L15.7138 0.90884L9.23404 6.83804Z" fill="#274247"/>
<path d="M20.0318 8.79343L20.1079 8.80082C20.2803 8.83615 20.4102 8.989 20.4102 9.17181C20.4102 9.35462 20.2803 9.50747 20.1079 9.5428L20.0318 9.55019H7.96871C7.75974 9.55019 7.59033 9.38078 7.59033 9.17181C7.59033 8.96283 7.75974 8.79343 7.96871 8.79343H20.0318Z" fill="#274247"/>
</g>
<defs>
<clipPath id="clip0_8826_1761">
<rect width="28" height="28" fill="white"/>
</clipPath>
</defs>
</svg>
