<svg width="28" height="28" viewBox="0 0 28 28" fill="none" xmlns="http://www.w3.org/2000/svg">
<g clip-path="url(#clip0_8826_1299)">
<path d="M25.366 2.32324H2.66334C1.4095 2.32324 0.393066 3.33968 0.393066 4.59351V25.3513C0.393066 26.6052 1.4095 27.6216 2.66334 27.6216H25.366C26.6199 27.6216 27.6363 26.6052 27.6363 25.3513V4.59351C27.6363 3.33968 26.6199 2.32324 25.366 2.32324Z" fill="#274247"/>
<path d="M27.2579 4.59353C27.2579 3.54867 26.4109 2.70164 25.366 2.70164H2.6633C1.61843 2.70164 0.771405 3.54867 0.771405 4.59353V25.3511L0.781012 25.5448C0.877867 26.4988 1.68372 27.243 2.6633 27.243H25.366C26.4109 27.243 27.2579 26.396 27.2579 25.3511V4.59353ZM28.0146 25.3511C28.0146 26.8139 26.8288 27.9998 25.366 27.9998H2.6633C1.24627 27.9998 0.0893803 26.8872 0.0183435 25.4879L0.0146484 25.3511V4.59353C0.0146485 3.13073 1.20049 1.94489 2.6633 1.94489H25.366C26.8288 1.94489 28.0146 3.13073 28.0146 4.59353V25.3511Z" fill="#274247"/>
<path d="M2.66334 2.32324H25.366C26.6223 2.32324 27.6363 3.3373 27.6363 4.59351V6.22054H0.393066V4.59351C0.393066 3.3373 1.40712 2.32324 2.66334 2.32324Z" fill="white"/>
<path d="M27.2579 4.59353C27.2579 3.54629 26.4132 2.70164 25.366 2.70164H2.6633C1.61605 2.70164 0.771405 3.54629 0.771405 4.59353V5.84248H27.2579V4.59353ZM28.0146 6.22086C28.0145 6.42969 27.8451 6.59924 27.6363 6.59924H0.393027C0.184153 6.59924 0.0148079 6.42969 0.0146484 6.22086V4.59353C0.0146485 3.12835 1.19811 1.94489 2.6633 1.94489H25.366C26.8312 1.94489 28.0146 3.12835 28.0146 4.59353V6.22086Z" fill="#274247"/>
<path d="M4.93353 0.378387H9.36812C9.7238 0.378387 10.0114 0.665955 10.0114 1.02163V2.32325H4.29785V1.02163C4.29785 0.665955 4.58542 0.378387 4.9411 0.378387H4.93353Z" fill="#274247"/>
<path d="M9.6328 1.02133C9.63264 0.874809 9.51477 0.756836 9.36823 0.756757H4.94076C4.79429 0.756915 4.67635 0.874859 4.67619 1.02133V1.9451H9.6328V1.02133ZM10.3896 2.32348C10.3894 2.53234 10.2201 2.70186 10.0112 2.70186H4.29781C4.08892 2.70186 3.91956 2.53234 3.91943 2.32348V1.02133C3.91959 0.462101 4.36801 0.00992555 4.92524 0.00147804C4.92795 0.00141982 4.93064 8.34607e-07 4.93337 0H9.36823C9.93271 7.98015e-05 10.3894 0.456863 10.3896 1.02133V2.32348Z" fill="#274247"/>
<path d="M18.6686 0.378387H23.1032C23.4589 0.378387 23.7465 0.665955 23.7465 1.02163V2.32325H18.033V1.02163C18.033 0.665955 18.3205 0.378387 18.6762 0.378387H18.6686Z" fill="#274247"/>
<path d="M23.3682 1.02133C23.368 0.874809 23.2501 0.756836 23.1036 0.756757H18.6761C18.5296 0.756915 18.4117 0.874859 18.4115 1.02133V1.9451H23.3682V1.02133ZM24.1249 2.32348C24.1248 2.53234 23.9554 2.70186 23.7465 2.70186H18.0332C17.8243 2.70186 17.6549 2.53234 17.6548 2.32348V1.02133C17.6549 0.462101 18.1034 0.00992555 18.6606 0.00147804C18.6633 0.00141982 18.666 8.34607e-07 18.6687 0H23.1036C23.6681 7.94122e-05 24.1247 0.456863 24.1249 1.02133V2.32348Z" fill="#274247"/>
<path d="M25.366 27.6216L2.66326 27.6216C1.40704 27.6216 0.392986 26.6076 0.392986 25.3513V23.7243L27.6362 23.7243V25.3513C27.6362 26.6076 26.6222 27.6216 25.366 27.6216Z" fill="white"/>
<path d="M0.771404 25.3514C0.771404 26.3986 1.61605 27.2432 2.6633 27.2432L25.366 27.2432C26.4132 27.2432 27.2579 26.3986 27.2579 25.3514V24.1024L0.771404 24.1024V25.3514ZM0.0146484 23.724C0.0148067 23.5152 0.184153 23.3457 0.393026 23.3457L27.6363 23.3457C27.8451 23.3457 28.0145 23.5152 28.0146 23.724V25.3514C28.0146 26.8165 26.8312 28 25.366 28L2.6633 28C1.19811 28 0.0146484 26.8165 0.0146484 25.3514V23.724Z" fill="#274247"/>
<path d="M15.5359 8.86164L10.6926 15.9222C10.6548 15.9752 10.6926 16.0433 10.7532 16.0433H13.4321C13.4851 16.0433 13.5153 16.0887 13.5078 16.1341L12.2894 21.0454C12.2667 21.1287 12.3802 21.1741 12.4256 21.106L17.3445 13.9849C17.3824 13.9319 17.3445 13.8638 17.284 13.8638H14.4083C14.3553 13.8638 14.3251 13.8184 14.3326 13.7654L15.6721 8.91461C15.6948 8.83137 15.5813 8.77839 15.5359 8.85407V8.86164Z" fill="white"/>
</g>
<defs>
<clipPath id="clip0_8826_1299">
<rect width="28" height="28" fill="white"/>
</clipPath>
</defs>
</svg>
