<svg width="28" height="28" viewBox="0 0 28 28" fill="none" xmlns="http://www.w3.org/2000/svg">
<g clip-path="url(#clip0_8826_1237)">
<path d="M27.6216 3.83675V19.4789H13.3945V0.378372H24.1556C24.3524 0.378372 24.5491 0.461615 24.6929 0.597832L27.3945 3.29945C27.5383 3.44324 27.614 3.63243 27.614 3.83675H27.6216Z" fill="white"/>
<path d="M24.1554 0L24.2677 0.00591216C24.4894 0.028763 24.6999 0.117886 24.8707 0.252006L24.9528 0.322952L27.662 3.0322C27.8575 3.22775 27.9676 3.47922 27.9879 3.74683C27.995 3.77574 27.9998 3.80591 27.9998 3.83699V19.4791C27.9997 19.688 27.8303 19.8575 27.6214 19.8575H13.3945C13.1856 19.8575 13.0162 19.688 13.0161 19.4791V0.378378C13.0161 0.169406 13.1855 0 13.3945 0H24.1554ZM13.7729 19.1007H27.243V3.91311C27.238 3.88854 27.2356 3.86305 27.2356 3.83699C27.2356 3.72934 27.1971 3.63745 27.127 3.56725L24.4325 0.872783L24.3697 0.823269C24.3249 0.794481 24.2757 0.77426 24.2271 0.764147L24.1554 0.756757H13.7729V19.1007Z" fill="#274247"/>
<path d="M25.0486 7.43135C25.2575 7.43135 25.4269 7.60076 25.4269 7.80973C25.4269 8.0187 25.2575 8.18811 25.0486 8.18811H15.9675C15.7585 8.18811 15.5891 8.0187 15.5891 7.80973C15.5891 7.60076 15.7585 7.43135 15.9675 7.43135H25.0486Z" fill="#274247"/>
<path d="M25.0486 10.3676C25.2575 10.3676 25.4269 10.537 25.4269 10.7459C25.4269 10.9549 25.2575 11.1243 25.0486 11.1243H15.9675C15.7585 11.1243 15.5891 10.9549 15.5891 10.7459C15.5891 10.537 15.7585 10.3676 15.9675 10.3676H25.0486Z" fill="#274247"/>
<path d="M25.0486 13.3114C25.2575 13.3114 25.4269 13.4808 25.4269 13.6897C25.4269 13.8987 25.2575 14.0681 25.0486 14.0681H15.9675C15.7585 14.0681 15.5891 13.8987 15.5891 13.6897C15.5891 13.4808 15.7585 13.3114 15.9675 13.3114H25.0486Z" fill="#274247"/>
<path d="M27.2583 3.51891H24.5491C24.5037 3.51891 24.4734 3.48864 24.4734 3.44324V0.741615C24.4734 0.605399 24.6399 0.537291 24.7307 0.635669L27.3642 3.26161C27.4626 3.35999 27.3945 3.51891 27.2583 3.51891Z" fill="#274247"/>
<path d="M24.095 0.741374C24.0952 0.289291 24.6551 0.0174262 24.9966 0.368908L24.9981 0.36743L27.6312 2.99391H27.6319C27.9718 3.3338 27.7268 3.89699 27.258 3.89699H24.5487C24.4401 3.89692 24.3202 3.85912 24.2265 3.76545C24.1329 3.67171 24.095 3.55186 24.095 3.44323V0.741374ZM24.8517 3.14023H26.7067L24.8517 1.29047V3.14023Z" fill="#274247"/>
<path d="M17.0271 5.84972H0.378418V27.6216H17.0271V5.84972Z" fill="#274247"/>
<path d="M17.027 5.47134C17.236 5.47134 17.4054 5.64075 17.4054 5.84972V27.6213C17.4054 27.8302 17.236 27.9996 17.027 27.9996H0.378378C0.169406 27.9996 0 27.8302 0 27.6213V5.84972C0 5.64075 0.169406 5.47134 0.378378 5.47134H17.027ZM0.756757 27.2429H16.6486V6.2281H0.756757V27.2429Z" fill="#274247"/>
<path d="M11.4269 19.7513H5.97827V27.5459H11.4269V19.7513Z" fill="white"/>
<path d="M5.67571 13.1978H2.64868V16.2173H5.67571V13.1978Z" fill="white"/>
<path d="M5.67571 8.66486H2.64868V11.6843H5.67571V8.66486Z" fill="white"/>
<path d="M10.2162 13.1978H7.18921V16.2173H10.2162V13.1978Z" fill="white"/>
<path d="M10.2162 8.66486H7.18921V11.6843H10.2162V8.66486Z" fill="white"/>
<path d="M14.7568 13.1978H11.7297V16.2173H14.7568V13.1978Z" fill="white"/>
<path d="M14.7568 8.66486H11.7297V11.6843H14.7568V8.66486Z" fill="white"/>
<path d="M16.3082 27.1449V27.9016H0.794678V27.1449H16.3082Z" fill="#274247"/>
</g>
<defs>
<clipPath id="clip0_8826_1237">
<rect width="28" height="28" fill="white"/>
</clipPath>
</defs>
</svg>
