<svg width="28" height="28" viewBox="0 0 28 28" fill="none" xmlns="http://www.w3.org/2000/svg">
<g clip-path="url(#clip0_8826_1729)">
<path d="M15.975 23.693C22.4072 23.693 27.6214 18.4738 27.6214 12.0357C27.6214 5.59761 22.4072 0.378479 15.975 0.378479C9.54289 0.378479 4.32861 5.59761 4.32861 12.0357C4.32861 18.4738 9.54289 23.693 15.975 23.693Z" fill="white"/>
<path d="M27.2432 12.036C27.2432 5.8067 22.1976 0.756964 15.9747 0.756964C9.75191 0.757109 4.70695 5.80679 4.70695 12.036C4.70711 18.2651 9.752 23.3142 15.9747 23.3143C22.1975 23.3143 27.2431 18.2652 27.2432 12.036ZM28 12.036C27.9998 18.6828 22.616 24.0713 15.9747 24.0713C9.3336 24.0712 3.95036 18.6827 3.9502 12.036C3.9502 5.3892 9.3335 0.000144442 15.9747 0C22.6161 0 28 5.38911 28 12.036Z" fill="#274247"/>
<path d="M5.69067 9.65129C5.70581 9.58317 5.72094 9.51504 5.73608 9.45448C5.72094 9.52261 5.70581 9.58317 5.69067 9.65129Z" fill="#274247"/>
<path d="M5.5542 10.3704C5.56933 10.2569 5.59204 10.1433 5.61474 10.0298C5.59204 10.1433 5.5769 10.2569 5.5542 10.3704Z" fill="#274247"/>
<path d="M25.8203 8.21304C25.8506 8.28874 25.8809 8.36444 25.9036 8.44013C25.8733 8.36444 25.8506 8.28874 25.8203 8.21304Z" fill="#274247"/>
<path d="M26.5246 12.2628C26.5246 12.3763 26.5168 12.4974 26.509 12.611C26.509 12.4974 26.5246 12.3763 26.5246 12.2628Z" fill="#274247"/>
<path d="M26.5239 12.1341C26.539 10.923 26.3498 9.73457 25.9639 8.60669C26.3347 9.71943 26.5314 10.9079 26.5239 12.1341Z" fill="#274247"/>
<path d="M19.8722 5.85889C20.0159 5.75291 20.0765 5.98 20.1143 6.14654C20.1522 6.31307 20.2808 6.39633 20.4019 6.76725C20.523 7.13816 20.75 7.05489 20.6895 7.24413C20.6289 7.43337 20.523 7.60748 20.364 7.63775C20.19 7.66803 19.9554 7.78915 19.8722 7.80429C19.683 7.83457 19.9554 7.09274 19.91 6.7294C19.8646 6.35849 19.7889 6.39633 19.5846 6.29793C19.3803 6.19195 19.7284 5.96486 19.8722 5.86646V5.85889ZM12.8722 4.64018C12.7057 4.45851 12.789 4.94296 12.6679 5.06408C12.5468 5.18519 12.5014 5.2079 12.2744 5.51826C12.0398 5.82861 12.1003 5.35172 11.9187 5.23061C11.7371 5.1095 11.6765 5.2079 11.5025 5.23061C11.3284 5.25332 11.5328 5.00352 11.6311 4.82942C11.7295 4.65532 11.8582 4.54934 12.0171 4.6099C12.176 4.67046 12.176 4.07245 12.0171 4.15572C11.8506 4.23899 11.9565 3.92106 11.896 3.79238C11.8355 3.66369 11.5479 3.55015 11.4495 3.79238C11.3436 4.03461 11.0636 3.8378 10.8592 3.92106C10.5111 4.06488 10.7987 3.77724 10.5944 3.70911C10.3901 3.64098 10.776 3.38362 11.003 3.1641C11.2301 2.94458 11.2906 2.95215 11.4495 3.0127C11.6084 3.07326 11.8355 2.89159 12.0625 2.82346C12.2895 2.76291 12.35 2.84617 12.3652 3.2625C12.3879 3.67883 12.509 3.38362 12.789 3.44417C13.0765 3.50473 12.8949 3.75453 13.0538 4.04218C13.2203 4.32982 13.2581 4.23142 13.2581 4.42823C13.2581 4.62504 13.0311 4.80671 12.8722 4.63261V4.64018ZM19.3576 6.62342C19.3576 6.85051 19.5241 7.20629 19.3576 7.24413C19.1911 7.28198 19.1608 7.53178 18.9716 7.51664C18.8354 7.5015 18.7446 7.45608 18.8278 7.20628C18.9111 6.95649 18.7068 6.83537 18.9716 6.7294C19.2365 6.62342 19.3576 6.39633 19.3576 6.62342ZM18.0862 5.23818C17.9727 5.08679 17.2387 4.77643 17.4506 4.61747C17.5792 4.52663 17.3295 4.20871 17.7835 4.22385C18.2451 4.24656 18.6689 4.42823 18.6992 4.16329C18.7295 3.89835 19.1532 4.51906 18.9111 4.61747C18.6689 4.7083 18.1922 5.39714 18.0787 5.23818H18.0862Z" fill="#274247"/>
<path d="M18.9186 4.61748C19.1608 4.52665 18.737 3.90594 18.7067 4.1633C18.6765 4.42824 18.2451 4.239 17.7911 4.22386C17.337 4.20115 17.5792 4.52665 17.4581 4.61748C17.2462 4.77644 17.9803 5.0868 18.0938 5.23819C18.2073 5.39715 18.684 4.70832 18.9262 4.61748H18.9186Z" fill="#274247"/>
<path d="M19.5922 6.29035C19.7966 6.39632 19.8722 6.35091 19.9177 6.72182C19.9555 7.08516 19.6831 7.82699 19.8798 7.79671C19.9631 7.78157 20.1901 7.66045 20.3717 7.63018C20.5306 7.5999 20.6366 7.42579 20.6971 7.23655C20.7576 7.04731 20.5382 7.13058 20.4095 6.75967C20.2885 6.38875 20.1674 6.30549 20.122 6.13896C20.0841 5.97242 20.0236 5.74533 19.8798 5.85131C19.736 5.95728 19.3879 6.18437 19.5922 6.28278V6.29035Z" fill="#274247"/>
<path d="M12.789 3.45933C12.5014 3.39877 12.3803 3.69399 12.3652 3.27765C12.3425 2.86132 12.2819 2.77806 12.0625 2.83862C11.8355 2.89917 11.616 3.08841 11.4495 3.02786C11.283 2.9673 11.2225 2.95973 11.003 3.17925C10.776 3.39877 10.3901 3.65614 10.5944 3.72426C10.7987 3.79239 10.5111 4.08004 10.8592 3.93621C11.0636 3.85295 11.3511 4.04976 11.4495 3.80753C11.5479 3.5653 11.8355 3.67885 11.896 3.80753C11.9565 3.93621 11.8582 4.25414 12.0171 4.17087C12.176 4.08004 12.176 4.68561 12.0171 4.62505C11.8506 4.56449 11.7295 4.6629 11.6311 4.84457C11.5328 5.01867 11.3284 5.26847 11.5025 5.24576C11.6765 5.22305 11.7371 5.12465 11.9187 5.24576C12.1003 5.36688 12.0473 5.84376 12.2744 5.53341C12.509 5.22305 12.5468 5.20034 12.6679 5.07923C12.789 4.95811 12.7057 4.47366 12.8722 4.65533C13.0387 4.837 13.2581 4.65533 13.2581 4.45095C13.2581 4.24657 13.2203 4.35254 13.0538 4.0649C12.8873 3.77725 13.0765 3.52745 12.789 3.4669V3.45933Z" fill="#274247"/>
<path d="M18.8278 7.19872C18.7445 7.44852 18.8278 7.49394 18.9716 7.50907C19.1608 7.53178 19.1986 7.28198 19.3575 7.23657C19.524 7.19872 19.3575 6.84295 19.3575 6.61586C19.3575 6.38877 19.2364 6.61586 18.9716 6.72183C18.7067 6.82781 18.911 6.94892 18.8278 7.19872Z" fill="#274247"/>
<path d="M12.6528 21.846C12.8949 21.9368 13.1749 21.5659 13.016 21.4751C12.8647 21.3842 12.7663 21.1344 13.0614 21.2253C13.349 21.3161 13.5987 21.5583 13.5987 21.2026C13.5987 20.8468 13.5684 20.8544 13.7803 20.7257C13.9922 20.6046 13.8106 20.1958 13.9619 20.1655C14.1133 20.1352 14.3252 20.0747 14.6052 19.9763C14.8776 19.8854 15.2787 18.9241 15.1576 18.7046C15.0365 18.4851 15.71 18.3942 15.6192 17.6675C15.5284 16.9333 14.3025 16.7516 13.8787 16.6305C13.4474 16.5094 13.4171 16.6608 13.6063 16.3201C13.7879 15.9795 13.2733 15.6086 12.8722 15.5102C12.4787 15.4194 12.1079 15.109 12.2593 14.8895C12.4106 14.67 11.5555 14.95 11.3436 14.7381C11.1317 14.5186 11.1317 14.3672 10.7003 14.7381C10.269 15.109 10.3371 15.548 10.0874 15.0787C9.84521 14.6094 9.69386 14.7835 9.4744 14.7835C9.25495 14.7835 9.39873 14.2536 9.38359 14.0871C9.36846 13.913 9.08089 13.8373 8.90684 13.8222C8.74036 13.807 9.25495 13.2317 8.90684 13.156C8.55874 13.0803 8.20306 13.4967 8.17279 13.6178C8.14252 13.7389 7.57496 13.6329 7.71117 13.3377C7.84739 13.0425 7.32523 11.8768 8.43009 11.9146C9.52738 11.9525 9.55765 12.558 9.7317 12.558C9.90575 12.558 9.91332 11.8465 10.0041 11.5513C10.0949 11.2561 10.4657 10.9608 10.5717 10.9457C10.6776 10.9306 10.3598 10.1206 10.602 10.2039C10.8441 10.2796 11.1998 9.9995 11.3814 9.87839C11.563 9.75727 11.7749 9.27281 11.843 9.08357C11.843 9.08357 11.9111 9.28795 12.0701 9.27281C12.4484 9.23497 12.9706 8.91704 12.9555 8.78836C12.9403 8.66724 12.3879 8.86405 12.4182 8.56884C12.4484 8.27362 11.9566 8.0541 12.2971 7.99354C12.6301 7.93299 12.9252 7.97841 13.1371 7.99354C13.349 8.00868 13.3641 8.24334 13.3641 8.3039C13.3641 8.36446 13.5457 8.45529 13.8106 8.40987C14.0679 8.36446 13.629 7.72861 13.4625 7.72861C13.296 7.72861 13.7501 7.46367 13.629 7.19873C13.5079 6.9338 12.9328 5.82863 12.8495 6.03301C12.8495 6.03301 12.6679 6.4342 12.456 6.22225C12.2441 6.00273 12.3349 5.63182 11.9036 5.67724C11.4722 5.72265 11.336 5.50313 11.2906 6.74455C11.336 7.24415 10.9728 7.14574 10.8895 7.27443C10.8063 7.40311 10.829 8.22063 10.5717 8.00111C10.3144 7.78159 10.3295 7.36526 10.3598 7.19116C10.3901 7.01706 9.61062 6.91109 9.4744 6.74455C9.33819 6.57045 9.59548 5.85891 9.89062 5.73779C10.1782 5.61668 10.269 5.10194 10.5641 5.10194C10.8593 5.10194 11.0106 5.0868 11.1014 4.74617C11.1922 4.40554 10.9652 4.3904 10.7987 4.48123C10.6322 4.57207 10.496 4.57207 10.3371 4.51151C10.1858 4.45095 9.83008 4.60235 9.7544 4.73103C9.67873 4.85214 9.39116 4.96569 9.18684 4.92027C8.99008 4.87485 8.94468 4.98083 8.8236 5.12465C8.73279 5.22306 8.24847 5.21549 7.94577 5.1625C6.88631 6.39635 6.13713 7.85729 5.74362 9.44692C5.72848 9.51504 5.71335 9.5756 5.69821 9.64373C5.66794 9.77241 5.64524 9.89352 5.62254 10.0222C5.59984 10.1358 5.5847 10.2493 5.562 10.3628C5.54686 10.4461 5.53173 10.5218 5.52416 10.6051C5.47875 10.9684 5.44848 11.3318 5.43335 11.6951C5.59227 11.6573 5.55443 13.0274 5.90254 12.9062C6.25064 12.7851 5.70578 12.1493 5.99335 12.0509C6.28091 11.96 6.40199 12.3309 6.48523 12.7776C6.56091 13.2242 6.53064 13.9736 7.00739 14.0341C7.48415 14.0947 7.9382 13.9736 8.07441 14.1098C8.21063 14.2461 8.74792 14.1098 9.08089 14.8516C9.41386 15.5935 9.30792 15.0712 9.52738 15.1317C9.73927 15.1923 10.0193 15.2226 10.0193 15.4421C10.0193 16.2974 9.23981 16.3277 9.58792 16.9484C9.58792 16.9484 10.3674 18.3261 11.0712 18.7046C11.4571 18.909 11.4117 20.2715 11.2906 21.4675C11.6917 21.6643 12.1003 21.8384 12.5241 21.9822C12.5468 21.8687 12.5771 21.7854 12.6755 21.8233L12.6528 21.846Z" fill="#274247"/>
<path d="M9.10367 4.44335C9.28529 4.51148 9.40637 4.39037 9.27016 4.14057C9.21719 4.04216 9.19448 3.98917 9.18692 3.94376C8.88422 4.20112 8.59665 4.47363 8.32422 4.76128C8.43016 4.82183 8.53611 4.85211 8.66476 4.8294C8.92962 4.79156 8.92962 4.3828 9.11124 4.45092L9.10367 4.44335Z" fill="#274247"/>
<path d="M10.7534 3.12625C10.8972 3.02027 10.8139 2.73262 11.0409 2.75533C11.268 2.77804 11.4269 2.86131 11.5707 2.75533C11.7144 2.64936 11.6539 2.46769 11.8355 2.339C11.8734 2.31629 11.9188 2.28602 11.9642 2.25574C11.4117 2.48283 10.8745 2.7629 10.3599 3.08083C10.5112 3.16409 10.6323 3.20951 10.7534 3.12625Z" fill="#274247"/>
<path d="M12.9704 2.55095C13.1975 2.40713 13.0915 2.61908 13.258 2.25574H13.8861L14.0072 2.56609C14.1131 2.74019 14.2342 2.71748 14.2342 2.88402C14.2342 3.05055 14.0072 3.47445 14.2342 3.42903C14.4612 3.38361 14.5823 3.40632 14.5218 3.52744C14.4612 3.64855 14.0753 3.6107 14.1585 3.81508C14.2418 4.01946 14.5218 3.96647 14.4461 4.05731C14.3629 4.14815 13.3261 4.76886 14.8093 5.96486C15.4374 6.3282 15.6266 5.0565 15.725 4.784C15.725 4.784 16.0277 4.68559 16.1715 4.69316C16.3153 4.69316 16.3153 4.30711 16.6407 4.18599C16.9661 4.06488 17.3142 3.79237 17.6018 3.87564C17.8893 3.9589 17.9272 3.57285 17.8666 3.52744C17.8061 3.48202 17.3369 3.4366 17.2385 3.42903C17.1401 3.42903 17.1401 3.08083 17.2158 3.07326C17.3066 3.05812 17.6623 3.05812 17.7455 3.07326C18.0482 3.17923 18.0785 2.72505 18.0634 2.45255C18.0634 2.36171 17.9877 2.19518 17.912 2.04379C17.8288 1.98323 17.738 1.77885 17.6396 1.58961C17.5563 1.57447 17.4731 1.55933 17.3899 1.55176C16.9131 1.48363 16.4364 1.45335 15.9596 1.45335C14.8547 1.45335 13.7726 1.62746 12.7434 1.96809C12.8115 2.25574 12.8872 2.61151 12.9856 2.55095H12.9704Z" fill="#274247"/>
<path d="M25.9035 8.44015C25.8733 8.36446 25.843 8.28876 25.8203 8.21306C25.4646 7.29714 24.9803 6.42663 24.3673 5.61668C24.0646 5.21549 23.7316 4.837 23.376 4.4888C23.323 4.62505 23.2549 4.79916 23.1943 5.00354C23.0506 5.51827 23.2549 5.3366 23.3608 5.62425C23.4592 5.91189 23.7468 5.50313 23.8679 5.37445C23.9889 5.25333 24.1933 5.82863 23.9889 5.82106C23.7846 5.82106 23.6862 5.86647 23.5425 5.97245C23.3987 6.07842 23.603 6.11627 23.5425 6.28281C23.4819 6.44934 23.3608 6.2828 23.1111 6.36607C22.8689 6.44934 23.1111 6.84296 23.0279 6.90352C22.9446 6.96407 22.6798 6.98678 22.3771 7.02463C22.0744 7.06248 21.6657 7.11547 21.4614 7.02463C21.2571 6.94136 21.0527 7.34255 21.0149 7.5318C20.9771 7.72104 20.7273 7.88 20.4927 8.00111C20.2506 8.12223 20.1825 8.16764 20.0084 8.27362C19.8344 8.37959 20.243 8.62939 20.3792 8.68995C20.523 8.75051 20.5836 9.09871 20.4776 9.18955C20.3717 9.28038 19.6528 9.03058 19.5165 9.18955C19.3803 9.34851 19.3425 9.78755 19.3425 9.9238C19.3425 10.0601 19.3728 10.2114 19.5014 10.2947C19.6376 10.378 20.0538 10.3553 20.1446 10.3326C20.2355 10.3099 20.4927 10.2493 20.523 10.0146C20.5911 9.47719 21.1738 9.06086 21.2117 9.06086C21.2495 9.06086 21.8322 8.85648 21.8549 9.03815C21.8776 9.22739 22.4376 9.62859 22.4679 9.68157C22.4981 9.73456 22.4754 9.81783 22.4073 9.93894C22.3392 10.0601 22.5814 10.1433 22.5738 10.0525C22.5662 9.96165 22.71 9.94651 22.8311 9.93894C22.9522 9.93137 22.9144 9.68157 22.7176 9.55289C22.5208 9.43178 22.1576 8.93218 22.1198 8.73537C22.0819 8.53856 22.2862 8.48557 22.4527 8.7278C22.6268 8.96246 23.1338 9.33337 23.1943 9.4999C23.2549 9.66643 23.27 9.89352 23.1943 9.97679C23.1187 10.0601 23.376 10.2342 23.3911 10.3401C23.4138 10.4461 23.6787 10.3174 23.777 10.3023C23.8754 10.2796 23.6333 9.93894 23.5954 9.76484C23.5576 9.59074 23.8981 9.64372 24.057 9.76484C24.216 9.88595 24.1327 10.4158 24.0268 10.5294C23.9208 10.6505 23.9662 10.4915 23.7241 10.6429C23.4819 10.7943 23.7846 10.87 23.9662 10.9457C24.1479 11.0214 24.0722 10.6732 24.2387 10.5142C24.4052 10.3553 25.1316 10.4234 25.23 10.5142C25.3208 10.6051 25.51 10.9306 25.23 11.1122C24.9576 11.2939 25.2451 11.2712 25.1014 11.5513C24.9576 11.8314 23.8981 11.5134 23.8981 11.5134C23.7316 11.4075 23.9587 11.2258 23.4895 11.2031C23.0203 11.1804 23.4516 11.3242 23.1868 11.574C22.9295 11.8238 22.6344 11.4302 22.5889 11.2258C22.5511 11.0214 22.1273 11.0592 22.0214 10.976C21.9154 10.8927 22.0062 10.6353 21.8776 10.4991C21.749 10.3628 20.8409 10.3477 20.6895 10.4385C20.5306 10.5294 20.4549 10.6656 19.963 10.6883C19.4711 10.711 19.3122 11.1425 19.3122 11.1425C19.3122 11.1425 19.1457 11.468 19.2895 11.8238C18.6084 11.9676 18.3133 12.717 18.3133 12.717C18.3133 12.717 18.2301 13.0879 18.1847 14.019C18.1392 14.95 18.9717 15.8206 18.9717 15.8206C19.1079 16.1309 20.5079 15.5556 20.6819 15.4875C21.1209 16.3429 21.7944 15.6767 21.5673 16.5245C21.3403 17.3723 21.7944 17.2285 21.7944 17.5616C21.7944 17.8946 22.0214 18.697 21.5295 19.2193C21.2949 19.4691 21.3554 20.2791 21.4765 21.0436C21.7792 20.8544 22.0744 20.6576 22.3619 20.438C24.1554 19.0679 25.4343 17.2058 26.07 15.0787C26.07 15.0787 26.0624 15.0636 26.0549 15.056C25.9641 14.7911 25.5478 13.2544 25.0787 12.4899C24.6095 11.7254 25.1392 11.9298 25.1392 11.9298C25.1392 11.9298 25.5024 12.3915 25.6311 12.6186C25.7522 12.8457 25.6311 13.2999 25.7522 13.4437C25.8733 13.5875 26.017 13.5497 25.9943 13.7313C25.9792 13.8979 26.123 14.3369 26.2289 14.4883C26.3122 14.1477 26.3727 13.7919 26.4257 13.4437C26.4635 13.1712 26.4862 12.8987 26.5014 12.6262C26.5014 12.5126 26.5165 12.3915 26.5165 12.278C26.5165 12.2325 26.5165 12.1947 26.5165 12.1493C26.5241 10.923 26.3273 9.74213 25.9565 8.62182C25.9338 8.56127 25.9187 8.50828 25.896 8.44772L25.9035 8.44015ZM25.7673 9.52261C25.5251 9.53775 25.4949 9.65886 25.2981 9.52261C25.1014 9.38636 24.9122 9.27281 24.8365 9.35608C24.7684 9.43934 24.7684 9.64373 24.67 9.59074C24.5792 9.54532 24.5187 9.52261 24.5187 9.52261C24.3446 9.54532 24.11 9.49233 24.2235 9.28795C24.337 9.08357 24.496 8.94732 24.4203 8.84134C24.337 8.73537 24.3976 8.61425 24.6473 8.70509C24.8895 8.79593 25.003 8.90947 25.0787 8.78079C25.1468 8.64453 25.2906 8.5537 25.3662 8.78836C25.4343 9.02301 25.4495 9.20469 25.5781 9.24253C25.7143 9.28038 26.017 9.50747 25.7749 9.52261H25.7673Z" fill="#274247"/>
<path d="M21.1588 5.2609C20.9998 5.45014 21.1588 5.52583 21.1588 5.77563C21.1588 6.02543 21.242 5.94216 21.3858 6.06328C21.5296 6.18439 21.628 6.00272 21.802 5.89675C21.9761 5.79077 21.9534 6.08599 21.9761 6.26766C21.9988 6.4569 22.1198 6.60072 22.2409 6.52503C22.362 6.44933 22.3847 6.04057 22.5285 6.04057C22.6723 6.04057 22.7328 5.79077 22.7555 5.62424C22.7782 5.45771 22.4906 5.35173 22.4906 5.35173C22.4906 5.35173 22.4301 5.16249 22.5512 5.16249C22.6723 5.16249 22.7933 4.99596 22.7555 4.82186C22.7177 4.67046 22.9069 4.4131 23.1642 4.27684C22.8842 4.01947 22.5966 3.76968 22.2939 3.54259C22.1501 3.78482 22.1652 4.0119 22.1274 4.15573C22.0669 4.36768 21.3328 5.06408 21.1663 5.25333L21.1588 5.2609Z" fill="#274247"/>
<path d="M13.8183 22.8528V25.3281C13.8183 26.5922 10.8065 27.6217 7.09837 27.6217C3.39029 27.6217 0.378418 26.5922 0.378418 25.3281V22.8528" fill="white"/>
<path d="M0 25.3277V22.8528H0.756752V25.3277C0.756752 25.4815 0.847665 25.6861 1.144 25.925C1.43697 26.1612 1.88416 26.3911 2.46979 26.5911C3.63743 26.9898 5.27447 27.2431 7.09824 27.2431C8.92204 27.2431 10.559 26.9898 11.7267 26.5911C12.3124 26.3911 12.7595 26.1612 13.0525 25.925C13.3489 25.6861 13.4397 25.4815 13.4397 25.3277V22.8528H14.1965V25.3277C14.1965 25.806 13.911 26.2046 13.5269 26.5142C13.1394 26.8266 12.602 27.092 11.9713 27.3074C10.706 27.7394 8.98252 28 7.09824 28C5.21418 28 3.49116 27.7394 2.22591 27.3074C1.59514 27.092 1.05715 26.8266 0.669548 26.5142C0.285508 26.2046 0 25.806 0 25.3277Z" fill="#274247"/>
<path d="M2.99674 24.4198V27.0388H2.23999V24.4198H2.99674Z" fill="#274247"/>
<path d="M7.09837 25.0934C10.8097 25.0934 13.8183 24.0903 13.8183 22.8528C13.8183 21.6154 10.8097 20.6122 7.09837 20.6122C3.38704 20.6122 0.378418 21.6154 0.378418 22.8528C0.378418 24.0903 3.38704 25.0934 7.09837 25.0934Z" fill="white"/>
<path d="M13.4397 22.8528C13.4397 22.7091 13.3531 22.5117 13.0562 22.2777C12.7635 22.047 12.3164 21.8225 11.7304 21.6271C10.5624 21.2377 8.92449 20.9907 7.09824 20.9907C5.27197 20.9907 3.63412 21.2377 2.46609 21.6271C1.88011 21.8225 1.43295 22.047 1.1403 22.2777C0.843478 22.5117 0.756764 22.7091 0.756752 22.8528C0.756752 22.9964 0.843481 23.1939 1.1403 23.4279C1.43295 23.6586 1.88012 23.883 2.46609 24.0784C3.63412 24.4679 5.27197 24.7149 7.09824 24.7149C8.9245 24.7149 10.5624 24.4678 11.7304 24.0784C12.3164 23.883 12.7635 23.6586 13.0562 23.4279C13.3531 23.1938 13.4397 22.9965 13.4397 22.8528ZM14.1965 22.8528C14.1965 23.3277 13.9078 23.7202 13.5247 24.0222C13.1373 24.3276 12.5999 24.5861 11.9698 24.7962C10.7057 25.2177 8.98326 25.4718 7.09824 25.4718C5.21326 25.4718 3.49073 25.2177 2.22665 24.7962C1.59679 24.5861 1.05987 24.3275 0.672504 24.0222C0.289331 23.7202 0 23.3278 0 22.8528C1.23005e-05 22.3777 0.289339 21.9854 0.672504 21.6833C1.05988 21.378 1.59679 21.1194 2.22665 20.9094C3.49073 20.4879 5.21326 20.2337 7.09824 20.2337C8.98326 20.2337 10.7057 20.4879 11.9698 20.9094C12.5999 21.1194 13.1373 21.3779 13.5247 21.6833C13.9078 21.9854 14.1965 22.3778 14.1965 22.8528Z" fill="#274247"/>
<path d="M13.8183 18.7273V21.2026C13.8183 22.4667 10.8065 23.4962 7.09837 23.4962C3.39029 23.4962 0.378418 22.4743 0.378418 21.2026V18.9544" fill="white"/>
<path d="M0 21.2022V18.9542H0.756752V21.2022C0.756752 21.3585 0.848779 21.5644 1.14473 21.8032C1.43755 22.0394 1.88437 22.2683 2.46979 22.4678C3.63734 22.8655 5.27417 23.1175 7.09824 23.1175C8.92204 23.1175 10.559 22.8643 11.7267 22.4655C12.3124 22.2655 12.7595 22.0357 13.0525 21.7995C13.3489 21.5606 13.4397 21.356 13.4397 21.2022V18.7273H14.1965V21.2022C14.1965 21.6805 13.911 22.0791 13.5269 22.3887C13.1394 22.701 12.602 22.9665 11.9713 23.1819C10.706 23.6139 8.98252 23.8745 7.09824 23.8745C5.21438 23.8745 3.49126 23.6159 2.22591 23.1848C1.59526 22.97 1.05731 22.7052 0.669548 22.3924C0.2849 22.0819 0 21.6817 0 21.2022Z" fill="#274247"/>
<path d="M2.99674 20.5213V22.7693H2.23999V20.5213H2.99674Z" fill="#274247"/>
<path d="M7.09837 21.195C10.8097 21.195 13.8183 20.1919 13.8183 18.9544C13.8183 17.7169 10.8097 16.7138 7.09837 16.7138C3.38704 16.7138 0.378418 17.7169 0.378418 18.9544C0.378418 20.1919 3.38704 21.195 7.09837 21.195Z" fill="white"/>
<path d="M13.4397 18.9544C13.4397 18.8107 13.3531 18.6133 13.0562 18.3792C12.7635 18.1485 12.3164 17.9241 11.7304 17.7287C10.5624 17.3393 8.92449 17.0923 7.09824 17.0923C5.27197 17.0923 3.63412 17.3393 2.46609 17.7287C1.88011 17.9241 1.43295 18.1485 1.1403 18.3792C0.843477 18.6133 0.756763 18.8107 0.756752 18.9544C0.756752 19.098 0.84348 19.2955 1.1403 19.5295C1.43295 19.7602 1.88012 19.9846 2.46609 20.18C3.63412 20.5694 5.27197 20.8165 7.09824 20.8165C8.9245 20.8165 10.5624 20.5694 11.7304 20.18C12.3164 19.9846 12.7635 19.7602 13.0562 19.5295C13.3531 19.2954 13.4397 19.0981 13.4397 18.9544ZM14.1965 18.9544C14.1965 19.4293 13.9078 19.8218 13.5247 20.1238C13.1373 20.4292 12.5999 20.6877 11.9698 20.8978C10.7057 21.3193 8.98326 21.5734 7.09824 21.5734C5.21326 21.5734 3.49073 21.3193 2.22665 20.8978C1.59679 20.6877 1.05987 20.4291 0.672504 20.1238C0.289331 19.8218 0 19.4294 0 18.9544C1.17147e-05 18.4793 0.289339 18.087 0.672504 17.7849C1.05988 17.4796 1.59679 17.221 2.22665 17.0109C3.49073 16.5895 5.21326 16.3353 7.09824 16.3353C8.98326 16.3353 10.7057 16.5895 11.9698 17.0109C12.5999 17.221 13.1373 17.4795 13.5247 17.7849C13.9078 18.0869 14.1965 18.4794 14.1965 18.9544Z" fill="#274247"/>
</g>
<defs>
<clipPath id="clip0_8826_1729">
<rect width="28" height="28" fill="white"/>
</clipPath>
</defs>
</svg>
