<svg width="28" height="28" viewBox="0 0 28 28" fill="none" xmlns="http://www.w3.org/2000/svg">
<g clip-path="url(#clip0_10013_4051)">
<path d="M11.0865 27.6108H16.9211L16.9211 0.381334H11.0865L11.0865 27.6108Z" fill="white"/>
<path d="M11.0864 27.9924C10.8774 27.9924 10.708 27.8215 10.708 27.6108L10.708 0.38159C10.708 0.170851 10.8774 1.14441e-05 11.0864 1.14441e-05H16.9209C17.1299 1.14441e-05 17.2993 0.170851 17.2993 0.38159L17.2993 27.6108C17.2993 27.8215 17.1299 27.9924 16.9209 27.9924H11.0864ZM16.5426 0.763168H11.4648L11.4648 27.2292H16.5426L16.5426 0.763168Z" fill="#274247"/>
<path d="M10.8368 9.37895H17.1633V0.13712H10.8368V9.37895Z" fill="#274247"/>
<path d="M19.5167 27.6184H25.3513L25.3513 8.16553H19.5167L19.5167 27.6184Z" fill="white"/>
<path d="M19.5168 28L19.4407 27.9925C19.2681 27.957 19.1384 27.8029 19.1384 27.6184L19.1384 8.16536C19.1385 7.9547 19.3079 7.78378 19.5168 7.78378H25.3514C25.5603 7.78378 25.7296 7.9547 25.7297 8.16536L25.7297 27.6184C25.7297 27.8291 25.5603 28 25.3514 28H19.5168ZM24.973 8.54693H19.8952L19.8952 27.2368H24.973L24.973 8.54693Z" fill="#274247"/>
<path d="M19.2748 15.6979H25.6013V7.92134L19.2748 7.92134V15.6979Z" fill="#274247"/>
<path d="M2.65613 27.6108H8.49072L8.49072 18.3689H2.65613L2.65613 27.6108Z" fill="white"/>
<path d="M2.6562 27.9924C2.44722 27.9924 2.27782 27.8215 2.27782 27.6108L2.27782 18.3687C2.27796 18.1581 2.44731 17.9871 2.6562 17.9871H8.49076C8.69965 17.9871 8.869 18.1581 8.86914 18.3687L8.86914 27.6108L8.86175 27.6875C8.82654 27.8615 8.67368 27.9924 8.49076 27.9924H2.6562ZM8.11238 18.7503H3.03458L3.03458 27.2292H8.11238L8.11238 18.7503Z" fill="#274247"/>
<path d="M2.40642 23.9629H8.73291V18.1248H2.40642L2.40642 23.9629Z" fill="#274247"/>
<path d="M27.6216 27.2292C27.8306 27.2292 28 27.4 28 27.6108C28 27.8215 27.8306 27.9924 27.6216 27.9924H0.378378C0.169406 27.9924 0 27.8215 0 27.6108C0 27.4 0.169406 27.2292 0.378378 27.2292H27.6216Z" fill="#274247"/>
<path d="M8.85258 10.8418C8.99274 10.7755 9.16239 10.8022 9.27677 10.9141L18.5042 19.943L27.416 14.9751C27.5989 14.8731 27.8293 14.9397 27.9304 15.1241C28.0314 15.3085 27.9647 15.5409 27.7818 15.6428L18.6254 20.7479C18.4797 20.8291 18.2985 20.805 18.179 20.6883L8.97525 11.6817L0.650191 17.6349C0.479732 17.7567 0.24335 17.7159 0.12253 17.544C0.00180218 17.3721 0.0422699 17.1337 0.212691 17.0119L8.79419 10.8761L8.85258 10.8418Z" fill="#274247"/>
</g>
<defs>
<clipPath id="clip0_10013_4051">
<rect width="28" height="28" fill="white"/>
</clipPath>
</defs>
</svg>
