<svg width="28" height="28" viewBox="0 0 28 28" fill="none" xmlns="http://www.w3.org/2000/svg">
<g clip-path="url(#clip0_8826_1315)">
<path d="M14 27.6216C21.5231 27.6216 27.6217 21.523 27.6217 14C27.6217 6.47698 21.5231 0.378372 14 0.378372C6.47703 0.378372 0.378418 6.47698 0.378418 14C0.378418 21.523 6.47703 27.6216 14 27.6216Z" fill="white"/>
<path d="M27.2432 14C27.2432 6.68596 21.314 0.756757 14 0.756757C6.68596 0.756757 0.756757 6.68596 0.756757 14C0.756757 21.314 6.68596 27.2432 14 27.2432C21.314 27.2432 27.2432 21.314 27.2432 14ZM28 14C28 21.732 21.732 28 14 28C6.26801 28 0 21.732 0 14C0 6.26801 6.26801 0 14 0C21.732 0 28 6.26801 28 14Z" fill="#274247"/>
<path d="M13.9999 26.2973C20.7915 26.2973 26.2972 20.7916 26.2972 14C26.2972 7.20839 20.7915 1.7027 13.9999 1.7027C7.20832 1.7027 1.70264 7.20839 1.70264 14C1.70264 20.7916 7.20832 26.2973 13.9999 26.2973Z" fill="#274247"/>
<path d="M20.0844 11.8129H16.1871V7.92322H11.8131V11.8129H7.92334V16.187H11.8131V20.0843H16.1871V16.187H20.0844V11.8129Z" fill="white"/>
</g>
<defs>
<clipPath id="clip0_8826_1315">
<rect width="28" height="28" fill="white"/>
</clipPath>
</defs>
</svg>
