<svg width="28" height="28" viewBox="0 0 28 28" fill="none" xmlns="http://www.w3.org/2000/svg">
<g clip-path="url(#clip0_8826_1345)">
<path d="M12.8263 10.3638C14.3452 8.52274 16.7003 7.28 19.2778 7.28C23.8806 7.28 27.6165 11.0159 27.6165 15.6186C27.6165 20.2214 23.8806 23.9572 19.2778 23.9572C14.6751 23.9572 10.9392 20.2214 10.9392 15.6186C10.9392 14.6674 11.1003 13.7545 11.3918 12.903" fill="white"/>
<path d="M10.5557 15.6187C10.5557 14.6238 10.7244 13.6689 11.0291 12.7787L11.755 13.0274C11.4768 13.8402 11.3228 14.7111 11.3228 15.6187C11.3228 20.0096 14.8871 23.5739 19.2779 23.5739C23.6688 23.5738 27.233 20.0095 27.2331 15.6187C27.2331 11.2278 23.6688 7.6636 19.2779 7.66355C16.8239 7.66355 14.5742 8.84782 13.1222 10.6077L12.8263 10.3635L12.5304 10.12C14.1163 8.19774 16.5769 6.89642 19.2779 6.89642C24.0925 6.89647 28.0002 10.8042 28.0002 15.6187C28.0002 20.4332 24.0924 24.3409 19.2779 24.341C14.4634 24.341 10.5557 20.4332 10.5557 15.6187Z" fill="#274247"/>
<path d="M23.3053 15.6187C23.3053 13.366 22.8214 11.3454 22.058 9.902C21.2853 8.44132 20.2837 7.66356 19.2779 7.66356C18.2721 7.66356 17.2705 8.44132 16.4978 9.902C15.7344 11.3454 15.2505 13.366 15.2505 15.6187C15.2505 17.8715 15.7344 19.892 16.4978 21.3354C17.2705 22.7961 18.2721 23.5739 19.2779 23.5739C20.2837 23.5739 21.2853 22.7961 22.058 21.3354C22.8215 19.892 23.3053 17.8715 23.3053 15.6187ZM24.0724 15.6187C24.0724 17.9711 23.5689 20.1197 22.736 21.6943C21.9122 23.2516 20.7082 24.341 19.2779 24.341C17.8476 24.341 16.6437 23.2516 15.8199 21.6943C14.987 20.1197 14.4834 17.9711 14.4834 15.6187C14.4834 13.2664 14.987 11.1177 15.8199 9.54316C16.6437 7.98586 17.8476 6.89644 19.2779 6.89644C20.7082 6.89644 21.9122 7.98586 22.736 9.54316C23.5688 11.1177 24.0724 13.2664 24.0724 15.6187Z" fill="#274247"/>
<path d="M19.6614 7.28V23.9574H18.8943V7.28H19.6614Z" fill="#274247"/>
<path d="M27.6164 14.7441V15.5112H10.9622V14.7441H27.6164Z" fill="#274247"/>
<path d="M25.9828 10.3331V11.1003H12.5349V10.3331H25.9828Z" fill="#274247"/>
<path d="M26.6343 19.1627V19.9298H11.9211V19.1627H26.6343Z" fill="#274247"/>
<path d="M9.52769 9.17479C11.9553 9.17479 13.9233 7.2068 13.9233 4.77917C13.9233 2.35154 11.9553 0.38356 9.52769 0.38356C7.10006 0.38356 5.13208 2.35154 5.13208 4.77917C5.13208 7.2068 7.10006 9.17479 9.52769 9.17479Z" fill="white"/>
<path d="M13.5397 4.77953C13.5397 2.56386 11.7437 0.767317 9.52807 0.767123C7.31227 0.767123 5.51566 2.56374 5.51566 4.77953C5.51585 6.99516 7.31239 8.7912 9.52807 8.7912C11.7436 8.791 13.5395 6.99504 13.5397 4.77953ZM14.3069 4.77953C14.3067 7.41872 12.1673 9.55813 9.52807 9.55832C6.88872 9.55832 4.74873 7.41883 4.74854 4.77953C4.74854 2.14007 6.8886 0 9.52807 0C12.1674 0.00019432 14.3069 2.14019 14.3069 4.77953Z" fill="#274247"/>
<path d="M6.55123 10.1337C6.98082 10.8701 8.36164 13.2329 8.98301 14.2838C9.12109 14.5293 9.4663 14.537 9.62739 14.3068L12.5348 10.1107C12.6192 9.98795 12.7649 9.92658 12.9107 9.94959C14.0767 10.149 19.0553 11.1079 19.0553 13.3326V23.3512C19.0553 23.5123 19.0016 23.6734 18.9096 23.8038L16.1096 27.6855C15.9638 27.8849 15.7337 28 15.4882 28H3.62849C3.38301 28 3.15287 27.8849 3.00712 27.6855L0.145753 23.8038C0.0536986 23.6734 0 23.5123 0 23.3512V13.3403C0 11.1233 4.94794 10.1644 6.16 9.95726C6.31342 9.93425 6.47452 10.0033 6.55123 10.1337Z" fill="#274247"/>
</g>
<defs>
<clipPath id="clip0_8826_1345">
<rect width="28" height="28" fill="white"/>
</clipPath>
</defs>
</svg>
