<svg width="28" height="28" viewBox="0 0 28 28" fill="none" xmlns="http://www.w3.org/2000/svg">
<g clip-path="url(#clip0_8826_1325)">
<path d="M8.35244 2.2485C8.60124 2.5361 7.97923 3.97408 5.8411 5.8007C5.0014 6.51581 4.24722 6.99772 3.63299 7.29309L3.01099 6.57799C3.72629 6.23598 4.49602 5.72297 5.25797 5.09337C6.51753 4.05958 7.59826 2.77706 7.95591 1.75104L8.34466 2.2485H8.35244Z" fill="white"/>
<path d="M7.27953 0.880481C7.27953 0.880481 7.26398 0.864936 7.25621 0.857163C7.20178 0.810526 7.10848 0.787207 7.0385 0.779434C6.99963 0.779434 6.96075 0.779434 6.92188 0.779434C6.24545 0.779434 4.88482 1.34685 3.32204 2.63715C1.42493 4.1995 0.569674 5.79293 0.802925 6.22044C0.802925 6.22044 0.802925 6.24376 0.818475 6.25153C0.834025 6.26708 0.849575 6.28262 0.865126 6.29817C0.919551 6.32926 1.00508 6.34481 1.0595 6.35258C1.33163 6.38367 1.73593 6.29817 2.23353 6.09608C2.23353 6.09608 2.24908 6.09608 2.25686 6.09608C2.94884 5.80848 3.81964 5.2877 4.77597 4.51041C6.73528 2.90143 7.58276 1.26135 7.28731 0.880481H7.27953Z" fill="white"/>
<path d="M2.27258 6.90443L2.87925 7.60443C2.39702 7.75999 2.07036 7.74443 1.96925 7.61999L1.53369 7.09888C1.76702 7.05999 2.01591 6.99777 2.28036 6.90443H2.27258Z" fill="white"/>
<path d="M27.9922 21.9994V22.7689H22.8762C21.2202 22.7689 19.8051 21.5408 19.6807 19.9707C19.603 19.1001 19.8906 18.2606 20.4738 17.6233C21.0569 16.9859 21.8888 16.6283 22.7441 16.6283H28V17.3978H22.7441C22.0987 17.3978 21.4767 17.6699 21.0413 18.144C20.5982 18.626 20.3882 19.2556 20.4427 19.9085C20.5515 21.09 21.6167 22.0072 22.884 22.0072H28L27.9922 21.9994Z" fill="white"/>
<path d="M27.992 17.3901V21.9994H22.8761C21.6087 21.9994 20.5436 21.0822 20.4347 19.9007C20.3803 19.2478 20.5902 18.6182 21.0334 18.1363C21.4688 17.6621 22.0908 17.3901 22.7361 17.3901H27.992ZM24.0812 19.6908C24.0812 18.8825 23.4281 18.2295 22.6195 18.2295C21.8109 18.2295 21.1578 18.8902 21.1578 19.6908C21.1578 20.4914 21.8187 21.1521 22.6195 21.1521C23.4203 21.1521 24.0812 20.4992 24.0812 19.6908Z" fill="#274247"/>
<path d="M25.9006 9.56276V11.2417H19.3229C19.2607 10.752 18.9963 10.169 18.592 9.56276H25.9006Z" fill="white"/>
<path d="M22.6197 21.1521C23.4269 21.1521 24.0814 20.4978 24.0814 19.6908C24.0814 18.8837 23.4269 18.2295 22.6197 18.2295C21.8124 18.2295 21.158 18.8837 21.158 19.6908C21.158 20.4978 21.8124 21.1521 22.6197 21.1521Z" fill="white"/>
<path d="M18.5456 11.2417C18.4679 10.8686 18.188 10.2779 17.6515 9.56276C17.5504 9.4384 17.4494 9.30626 17.3405 9.18189C17.2317 9.05753 17.1228 8.92539 16.9984 8.80102C16.7885 8.56784 16.5552 8.33465 16.2831 8.09369C14.7981 6.74121 13.4763 6.1427 12.8388 6.1427H12.7921C12.7066 6.1427 12.6055 6.16602 12.5511 6.2282C12.3412 6.46139 12.6755 7.48741 13.8262 8.79325C13.9351 8.91761 14.0517 9.04975 14.1683 9.17412C14.2927 9.29848 14.4249 9.43062 14.5571 9.55499C14.6348 9.63272 14.7126 9.70267 14.7981 9.7804C15.5289 10.4489 16.2209 10.923 16.8118 11.2339C16.9051 11.2883 16.9906 11.335 17.0762 11.3738H18.5612C18.5612 11.3738 18.5612 11.2883 18.5456 11.2339V11.2417Z" fill="white"/>
<path d="M15.3733 11.2417C15.0079 10.9775 14.6347 10.6821 14.277 10.3556C13.9971 10.0991 13.7328 9.83485 13.4762 9.5628C13.3596 9.43844 13.243 9.3063 13.1419 9.18193C13.033 9.05757 12.9242 8.92543 12.8387 8.80106C12.7609 8.70779 12.6909 8.61451 12.6287 8.52124L12.3488 8.80106L11.9756 9.18193L11.8823 9.27521C11.9445 9.36848 12.0145 9.46953 12.0923 9.5628C12.4966 10.1225 13.033 10.6976 13.6473 11.2417C13.7017 11.2884 13.7483 11.335 13.8028 11.3817H15.5677C15.5055 11.335 15.4355 11.2884 15.3733 11.2417Z" fill="white"/>
<path d="M12.5353 11.2417H5.6544C5.19567 11.2417 4.8147 10.8686 4.8147 10.4023C4.8147 9.93589 5.1879 9.55502 5.6544 9.55502H11.1591C11.509 10.0991 11.9911 10.6743 12.5431 11.234L12.5353 11.2417Z" fill="white"/>
<path d="M12.2015 7.85276L11.486 8.58341C11.2215 8.04708 11.206 7.6973 11.2993 7.58848L11.8282 7.01329C11.906 7.27757 12.0304 7.55739 12.1937 7.86053L12.2015 7.85276Z" fill="white"/>
<path d="M22.7361 16.6205H27.9921V11.3816H26.6625V9.18187C26.6625 8.97201 26.4915 8.801 26.2816 8.801H18.0167C17.6513 8.36572 17.2314 7.93044 16.7882 7.52625C15.2954 6.166 13.686 5.32653 12.7374 5.38871C12.3953 5.41203 12.1776 5.5364 12.0377 5.66854C12.0144 5.68408 11.991 5.7074 11.9677 5.73072L10.7315 7.07543C10.4827 7.35525 10.3116 7.86826 10.7315 8.80878H5.65439C4.79136 8.80878 4.07606 9.50833 4.05273 10.3789V10.4178L4.06828 26.049C4.06828 27.0206 4.84579 28 5.79434 28H27.9998V22.7688H22.8839C21.2278 22.7688 19.8127 21.5407 19.6883 19.9706C19.6106 19.1001 19.8983 18.2606 20.4814 17.6232C21.0645 16.9858 21.8964 16.6283 22.7517 16.6283L22.7361 16.6205ZM11.3068 7.58844L11.8355 7.01324C11.9133 7.27752 12.0377 7.55734 12.201 7.86049L11.4857 8.59114C11.2213 8.05481 11.2058 7.70503 11.2991 7.59621L11.3068 7.58844ZM7.60593 24.8209C7.60593 25.0385 7.43487 25.2018 7.22495 25.2018C7.01502 25.2018 6.84397 25.0307 6.84397 24.8209V14.5607C6.84397 14.3508 7.0228 14.1798 7.22495 14.1798C7.4271 14.1798 7.60593 14.3586 7.60593 14.5607V24.8209ZM5.65439 11.2417C5.19566 11.2417 4.81469 10.8686 4.81469 10.4022C4.81469 9.93584 5.18789 9.55497 5.65439 9.55497H11.1591C11.509 10.0991 11.991 10.6743 12.5431 11.2339H5.65439V11.2417ZM13.8026 11.3816C13.7482 11.335 13.7016 11.2883 13.6471 11.2417C13.0329 10.6976 12.4964 10.1224 12.0921 9.56274C12.0144 9.4617 11.9444 9.36065 11.8822 9.27515L11.9755 9.18187L12.3487 8.801L12.6286 8.52118C12.6908 8.61445 12.7608 8.70773 12.8385 8.801C12.9318 8.93314 13.0407 9.06528 13.1418 9.18187C13.2506 9.31401 13.3672 9.44615 13.4761 9.56274C13.7327 9.83479 13.997 10.0991 14.2769 10.3556C14.6346 10.682 15.0078 10.9852 15.3732 11.2417C15.4354 11.2883 15.5054 11.335 15.5676 11.3816H13.8026ZM16.8116 11.2417C16.2207 10.9308 15.5209 10.4489 14.7978 9.78816C14.7123 9.71043 14.6346 9.64047 14.5568 9.56274C14.4169 9.43061 14.2847 9.29847 14.1681 9.18187C14.0437 9.04974 13.927 8.9176 13.826 8.801C12.6752 7.48739 12.3487 6.46137 12.5508 6.23596C12.6053 6.17377 12.7063 6.15823 12.7919 6.15046H12.8385C13.4761 6.15046 14.7978 6.74897 16.2829 8.10145C16.555 8.3424 16.7882 8.57559 16.9982 8.80878C17.1303 8.94091 17.2392 9.07305 17.3403 9.18965C17.4569 9.32179 17.558 9.45392 17.6513 9.57052C18.1877 10.2856 18.4754 10.8764 18.5454 11.2495C18.5454 11.3039 18.561 11.3505 18.561 11.3894H17.0759C16.9904 11.3505 16.9049 11.3039 16.8116 11.2495V11.2417ZM19.3151 11.2417C19.2529 10.752 18.9886 10.169 18.5843 9.56274H25.8928V11.2417H19.3151Z" fill="#274247"/>
<path d="M7.60622 14.5607V24.8209C7.60622 25.0385 7.43511 25.2018 7.22511 25.2018C7.01511 25.2018 6.84399 25.0307 6.84399 24.8209V14.5607C6.84399 14.3508 7.02288 14.1798 7.22511 14.1798C7.42733 14.1798 7.60622 14.3586 7.60622 14.5607Z" fill="white"/>
<path d="M8.94331 1.7666L7.91701 0.445212C7.91701 0.445212 7.89368 0.414121 7.88591 0.398575C7.86258 0.367484 7.83148 0.328619 7.7926 0.297528C7.66043 0.173162 7.4505 0.0487962 7.11618 0.00993189C6.12097 -0.0988882 4.44934 0.693944 2.83991 2.0231C0.958348 3.58545 -0.542234 5.66858 0.188619 6.6946C0.188619 6.71014 0.204169 6.71792 0.211944 6.73346C0.243044 6.77233 0.274144 6.81119 0.320795 6.85783L1.3782 8.1248C1.5959 8.38131 1.9069 8.48236 2.27233 8.48236C2.67663 8.48236 3.15091 8.35022 3.66406 8.13258C4.53486 7.75948 5.49897 7.10656 6.33867 6.39146C8.22023 4.78247 9.75191 2.72266 8.93553 1.77437L8.94331 1.7666ZM1.9691 7.61957L1.5337 7.09879C1.76695 7.05992 2.01575 6.99774 2.2801 6.90446L2.88656 7.60402C2.4045 7.75948 2.07795 7.74393 1.97688 7.61957H1.9691ZM3.63296 7.29311L3.01096 6.578C3.72626 6.236 4.49599 5.72299 5.25794 5.09339C6.5175 4.0596 7.59823 2.77707 7.95588 1.75105L8.34463 2.24852C8.59343 2.53611 7.97143 3.97409 5.83329 5.80072C4.99359 6.51582 4.23941 6.99774 3.62518 7.29311H3.63296ZM3.32973 2.62939C4.88474 1.33909 6.25315 0.771673 6.92958 0.771673C6.96845 0.771673 7.00733 0.771673 7.0462 0.771673C7.11618 0.771673 7.20948 0.802764 7.2639 0.849402C7.2639 0.849402 7.27945 0.864947 7.28723 0.87272C7.58268 1.24582 6.7352 2.88589 4.77589 4.50265C3.82734 5.28771 2.94876 5.80849 2.25678 6.08831C2.25678 6.08831 2.24123 6.08831 2.23345 6.08831C1.73585 6.29041 1.33155 6.37591 1.05942 6.34482C1.005 6.34482 0.919472 6.3215 0.865047 6.29041C0.849497 6.27486 0.833947 6.25932 0.818397 6.24377C0.818397 6.24377 0.818397 6.22822 0.802847 6.22045C0.561821 5.78517 1.42485 4.19173 3.32973 2.61384V2.62939Z" fill="#274247"/>
</g>
<defs>
<clipPath id="clip0_8826_1325">
<rect width="28" height="28" fill="white"/>
</clipPath>
</defs>
</svg>
