<svg width="28" height="28" viewBox="0 0 28 28" fill="none" xmlns="http://www.w3.org/2000/svg">
<g clip-path="url(#clip0_8826_1189)">
<path d="M15.051 20.4153V23.1148C15.051 24.4952 11.7677 25.6149 7.71726 25.6149C3.66684 25.6149 0.383545 24.4952 0.383545 23.1148V20.4153" fill="white"/>
<path d="M0 23.1144V20.4153H0.767125V23.1144L0.772369 23.1848C0.797279 23.3538 0.915149 23.5589 1.20088 23.7892C1.5239 24.0495 2.01455 24.3011 2.65497 24.5194C3.93249 24.955 5.72238 25.2316 7.71695 25.2317C9.71154 25.2317 11.5014 24.955 12.7789 24.5194C13.4196 24.301 13.9107 24.0496 14.2338 23.7892C14.5603 23.5261 14.6675 23.2954 14.6675 23.1144V20.4153H15.4347V23.1144C15.4347 23.6236 15.1311 24.0511 14.7155 24.3861C14.2964 24.7239 13.7133 25.0111 13.0269 25.2452C11.6502 25.7145 9.77267 25.9986 7.71695 25.9986C5.66136 25.9986 3.78435 25.7145 2.40775 25.2452C1.72134 25.0111 1.13829 24.7239 0.71918 24.3861C0.329555 24.0721 0.0386871 23.6772 0.00374573 23.2095L0 23.1144Z" fill="#274247"/>
<path d="M3.21415 22.1255V24.9782H2.44702V22.1255H3.21415Z" fill="#274247"/>
<path d="M7.71726 22.8617C11.7676 22.8617 15.051 21.7664 15.051 20.4153C15.051 19.0641 11.7676 17.9688 7.71726 17.9688C3.66696 17.9688 0.383545 19.0641 0.383545 20.4153C0.383545 21.7664 3.66696 22.8617 7.71726 22.8617Z" fill="white"/>
<path d="M14.6675 20.4156C14.6675 20.2455 14.5641 20.0222 14.2368 19.764C13.9137 19.5093 13.4229 19.2626 12.7819 19.0488C11.5035 18.6223 9.71231 18.3523 7.71695 18.3523C5.72172 18.3523 3.93108 18.6223 2.65273 19.0488C2.01157 19.2627 1.52018 19.5092 1.19714 19.764C0.869933 20.0221 0.767125 20.2455 0.767125 20.4156C0.767258 20.5856 0.870178 20.8085 1.19714 21.0664C1.52018 21.3212 2.01159 21.5678 2.65273 21.7816C3.93108 22.2081 5.72172 22.4781 7.71695 22.4782C9.71231 22.4782 11.5035 22.2081 12.7819 21.7816C13.4229 21.5678 13.9137 21.3211 14.2368 21.0664C14.5639 20.8084 14.6674 20.5856 14.6675 20.4156ZM15.4347 20.4156C15.4345 20.9208 15.1272 21.3414 14.7125 21.6686C14.2934 21.9991 13.7105 22.2801 13.0246 22.5089C11.6488 22.9678 9.77189 23.2451 7.71695 23.2451C5.66214 23.245 3.78579 22.9678 2.41 22.5089C1.72413 22.2801 1.14129 21.9991 0.722177 21.6686C0.307446 21.3414 0.000133416 20.9209 0 20.4156C0 19.9101 0.307334 19.4891 0.722177 19.1619C1.1413 18.8313 1.72412 18.5504 2.41 18.3215C3.78579 17.8626 5.66214 17.5854 7.71695 17.5853C9.77189 17.5853 11.6488 17.8626 13.0246 18.3215C13.7105 18.5504 14.2934 18.8313 14.7125 19.1619C15.1273 19.4891 15.4347 19.9102 15.4347 20.4156Z" fill="#274247"/>
<path d="M15.051 15.9288V18.6283C15.051 20.0088 11.7677 21.1285 7.71726 21.1285C3.66684 21.1285 0.383545 20.0011 0.383545 18.6283V16.1742" fill="white"/>
<path d="M0 18.628V16.1744H0.767125V18.628C0.767125 18.8064 0.873153 19.0365 1.20013 19.2998C1.52338 19.56 2.01499 19.8111 2.65572 20.03C3.93332 20.4665 5.72268 20.7452 7.71695 20.7452C9.71154 20.7452 11.5014 20.4685 12.7789 20.033C13.4196 19.8145 13.9107 19.5631 14.2338 19.3028C14.5603 19.0396 14.6675 18.809 14.6675 18.628V15.9288H15.4347V18.628C15.4347 19.1371 15.1311 19.5646 14.7155 19.8997C14.2964 20.2374 13.7133 20.5247 13.0269 20.7587C11.6502 21.2281 9.77267 21.5121 7.71695 21.5121C5.66115 21.5121 3.78426 21.226 2.40775 20.7557C1.72136 20.5212 1.13813 20.2339 0.71918 19.8967C0.30405 19.5624 0 19.1358 0 18.628Z" fill="#274247"/>
<path d="M3.21415 17.8844V20.3229H2.44702V17.8844H3.21415Z" fill="#274247"/>
<path d="M7.71726 18.6206C11.7676 18.6206 15.051 17.5253 15.051 16.1742C15.051 14.8231 11.7676 13.7277 7.71726 13.7277C3.66696 13.7277 0.383545 14.8231 0.383545 16.1742C0.383545 17.5253 3.66696 18.6206 7.71726 18.6206Z" fill="white"/>
<path d="M14.6675 16.1745C14.6675 16.0044 14.5641 15.7811 14.2368 15.523C13.9137 15.2683 13.4229 15.0216 12.7819 14.8077C11.5035 14.3813 9.71231 14.1112 7.71695 14.1112C5.72172 14.1112 3.93108 14.3813 2.65273 14.8077C2.01157 15.0216 1.52018 15.2682 1.19714 15.523C0.869933 15.7811 0.767125 16.0045 0.767125 16.1745C0.767258 16.3446 0.870179 16.5674 1.19714 16.8254C1.52018 17.0801 2.01159 17.3267 2.65273 17.5406C3.93108 17.967 5.72172 18.2371 7.71695 18.2371C9.71231 18.2371 11.5035 17.9671 12.7819 17.5406C13.4229 17.3268 13.9137 17.0801 14.2368 16.8254C14.5639 16.5674 14.6674 16.3446 14.6675 16.1745ZM15.4347 16.1745C15.4345 16.6798 15.1272 17.1004 14.7125 17.4275C14.2934 17.7581 13.7105 18.039 13.0246 18.2678C11.6488 18.7268 9.77189 19.004 7.71695 19.004C5.66214 19.004 3.78579 18.7268 2.41 18.2678C1.72413 18.039 1.14129 17.7581 0.722177 17.4275C0.307447 17.1004 0.000133416 16.6798 0 16.1745C0 15.6691 0.307334 15.248 0.722177 14.9208C1.1413 14.5903 1.72412 14.3093 2.41 14.0805C3.78579 13.6216 5.66214 13.3443 7.71695 13.3443C9.77189 13.3443 11.6488 13.6215 13.0246 14.0805C13.7105 14.3093 14.2934 14.5903 14.7125 14.9208C15.1273 15.248 15.4347 15.6691 15.4347 16.1745Z" fill="#274247"/>
<path d="M18.4725 9.17228C20.9002 9.17228 22.8682 7.20483 22.8682 4.77787C22.8682 2.3509 20.9002 0.383453 18.4725 0.383453C16.0449 0.383453 14.0769 2.3509 14.0769 4.77787C14.0769 7.20483 16.0449 9.17228 18.4725 9.17228Z" fill="white"/>
<path d="M22.4846 4.77823C22.4846 2.56316 20.6885 0.767108 18.4729 0.766913C16.2571 0.766913 14.4605 2.56304 14.4605 4.77823C14.4607 6.99325 16.2572 8.7888 18.4729 8.7888C20.6884 8.7886 22.4844 6.99313 22.4846 4.77823ZM23.2517 4.77823C23.2515 7.41669 21.1121 9.55551 18.4729 9.55571C15.8336 9.55571 13.6936 7.41681 13.6934 4.77823C13.6934 2.13948 15.8334 0 18.4729 0C21.1122 0.000194464 23.2517 2.1396 23.2517 4.77823Z" fill="#274247"/>
<path d="M22.9675 10.0772L18.9861 14.5023C18.8404 14.6634 18.5872 14.6711 18.4261 14.5177L13.9691 10.0619C13.8771 9.96987 13.7466 9.93153 13.6239 9.95454C12.688 10.1539 8.93677 11.1126 8.93677 13.3366V23.3525C8.93677 23.5136 8.99047 23.6746 9.08252 23.805L11.8902 27.6856C12.036 27.885 12.2661 28 12.5116 28H24.3713C24.6168 28 24.847 27.885 24.9927 27.6856L27.8541 23.805C27.9538 23.6746 27.9998 23.5136 27.9998 23.3525V13.3443C27.9998 11.1356 24.2793 10.1769 23.328 9.96987C23.19 9.9392 23.0595 9.98521 22.9675 10.0926V10.0772Z" fill="#274247"/>
</g>
<defs>
<clipPath id="clip0_8826_1189">
<rect width="28" height="28" fill="white"/>
</clipPath>
</defs>
</svg>
