<svg width="28" height="28" viewBox="0 0 28 28" fill="none" xmlns="http://www.w3.org/2000/svg">
<g clip-path="url(#clip0_10013_4052)">
<path d="M7.08956 19.9375C9.24744 19.9375 10.9968 18.1859 10.9968 16.0252C10.9968 13.8645 9.24744 12.1129 7.08956 12.1129C4.93168 12.1129 3.18237 13.8645 3.18237 16.0252C3.18237 18.1859 4.93168 19.9375 7.08956 19.9375Z" fill="white"/>
<path d="M10.6095 16.0249C10.6093 14.0726 9.02984 12.4964 7.0893 12.4964C5.14882 12.4965 3.56927 14.0726 3.56911 16.0249C3.56911 17.9773 5.14872 19.554 7.0893 19.5541C9.02994 19.5541 10.6095 17.9773 10.6095 16.0249ZM11.3832 16.0249C11.3832 18.3939 9.46442 20.3212 7.0893 20.3212C4.71425 20.3211 2.79541 18.3938 2.79541 16.0249C2.79557 13.6561 4.71435 11.7294 7.0893 11.7293C9.46432 11.7293 11.383 13.656 11.3832 16.0249Z" fill="#274247"/>
<path d="M20.7685 20.183C23.0632 20.183 24.9233 18.3215 24.9233 16.0252C24.9233 13.7289 23.0632 11.8674 20.7685 11.8674C18.4739 11.8674 16.6138 13.7289 16.6138 16.0252C16.6138 18.3215 18.4739 20.183 20.7685 20.183Z" fill="#274247"/>
<path d="M13.7898 28C14.0064 28 14.1766 27.8312 14.1766 27.6164V22.983C14.1766 21.5025 11.9174 20.8274 10.958 20.6126C10.7027 20.5512 10.4319 20.6356 10.2462 20.8197L7.36807 23.6658C7.21333 23.8115 6.97349 23.8115 6.81875 23.6658L3.93284 20.8197C3.74715 20.6356 3.47636 20.5589 3.22104 20.6126C2.26165 20.8351 0.00244141 21.5101 0.00244141 22.983V27.6164C0.00244141 27.8312 0.172656 28 0.389292 28H13.7898Z" fill="#274247"/>
<path d="M2.30029 27.0254V25.7983C2.30029 25.5865 2.47349 25.4148 2.68714 25.4148C2.90079 25.4148 3.07399 25.5865 3.07399 25.7983V27.0254C3.07399 27.2373 2.90079 27.409 2.68714 27.409C2.47349 27.409 2.30029 27.2373 2.30029 27.0254Z" fill="white"/>
<path d="M3.07399 27.0257V27.9996H2.30029V27.0257H3.07399Z" fill="white"/>
<path d="M11.0974 27.0254V25.7983C11.0974 25.5865 11.2706 25.4148 11.4843 25.4148C11.6979 25.4148 11.8711 25.5865 11.8711 25.7983V27.0254C11.8711 27.2373 11.6979 27.409 11.4843 27.409C11.2706 27.409 11.0974 27.2373 11.0974 27.0254Z" fill="white"/>
<path d="M11.8711 27.0257V27.9996H11.0974V27.0257H11.8711Z" fill="white"/>
<path d="M26.1459 17.2449C27.0903 17.2449 27.8558 16.479 27.8558 15.5342C27.8558 14.5895 27.0903 13.8236 26.1459 13.8236C25.2016 13.8236 24.436 14.5895 24.436 15.5342C24.436 16.479 25.2016 17.2449 26.1459 17.2449Z" fill="#274247"/>
<path d="M15.3913 17.2449C16.3356 17.2449 17.1012 16.479 17.1012 15.5342C17.1012 14.5895 16.3356 13.8236 15.3913 13.8236C14.4469 13.8236 13.6814 14.5895 13.6814 15.5342C13.6814 16.479 14.4469 17.2449 15.3913 17.2449Z" fill="#274247"/>
<path d="M27.6081 27.6164V22.9676C27.6081 21.5791 25.434 21.1035 24.5519 20.9654C24.3276 20.9271 24.0955 20.9961 23.9252 21.1419L20.7763 23.8498L17.6196 21.1419C17.4494 20.9961 17.2173 20.9271 16.9929 20.9654C16.1109 21.1035 13.9368 21.5791 13.9368 22.9676V27.6164H27.6158H27.6081Z" fill="white"/>
<path d="M27.2213 22.968C27.2213 22.508 26.8662 22.1381 26.2443 21.8435C25.6416 21.558 24.9212 21.4119 24.4914 21.3446L24.4861 21.3438C24.3814 21.326 24.2647 21.3578 24.1779 21.4322L21.0302 24.1396C20.8849 24.2646 20.6686 24.2644 20.5232 24.1396L17.3664 21.4322V21.4315C17.2796 21.3574 17.1634 21.326 17.0589 21.3438L17.0536 21.3446C16.6238 21.4119 15.9034 21.558 15.3007 21.8435C14.6788 22.1381 14.3237 22.508 14.3237 22.968V27.2328H27.2213V22.968ZM27.995 27.5392C28.0001 27.5642 28.0025 27.59 28.0025 27.6164C28.0025 27.8282 27.8293 28 27.6157 28H13.9369C13.7232 28 13.55 27.8282 13.55 27.6164V22.968C13.55 22.0394 14.2819 21.4761 14.9675 21.1513C15.6695 20.8187 16.4742 20.6591 16.9274 20.5879V20.5872H16.9297C16.9307 20.587 16.9317 20.5866 16.9327 20.5864V20.5872C17.2318 20.5375 17.5333 20.6115 17.7729 20.7752L17.8726 20.8516L20.7755 23.3418L23.6716 20.8524L23.6724 20.8516C23.9244 20.6358 24.2696 20.5307 24.6116 20.5872L24.6123 20.5864L24.6146 20.5872C24.6156 20.5873 24.6166 20.587 24.6176 20.5872L24.6168 20.5879C25.0699 20.6591 25.8751 20.8186 26.5775 21.1513C27.2632 21.4761 27.995 22.0394 27.995 22.968V27.5392Z" fill="#274247"/>
<path d="M16.4746 27.5094V25.7983C16.4746 25.5865 16.6478 25.4148 16.8615 25.4148C17.0751 25.4148 17.2483 25.5865 17.2483 25.7983V27.5094C17.2481 27.7211 17.075 27.8929 16.8615 27.8929C16.6479 27.8929 16.4748 27.7211 16.4746 27.5094Z" fill="#274247"/>
<path d="M24.2888 27.5094V25.7983C24.2888 25.5865 24.462 25.4148 24.6757 25.4148C24.8893 25.4148 25.0625 25.5865 25.0625 25.7983V27.5094C25.0623 27.7211 24.8892 27.8929 24.6757 27.8929C24.4621 27.8929 24.289 27.7211 24.2888 27.5094Z" fill="#274247"/>
<path d="M13.0238 11.1616L12.722 9.52763C12.7143 9.47393 12.7607 9.42791 12.8149 9.43558L14.4474 9.74243C14.5093 9.7501 14.5325 9.82681 14.4861 9.87284L13.1553 11.2C13.1089 11.246 13.0393 11.223 13.0238 11.1616Z" fill="#274247"/>
<path d="M12.343 7.6482L12.6447 9.28217C12.6525 9.33587 12.6061 9.38189 12.5519 9.37422L10.9194 9.06737C10.8575 9.0597 10.8343 8.98299 10.8807 8.93696L12.2115 7.60984C12.2579 7.56381 12.3275 7.58683 12.343 7.6482Z" fill="#274247"/>
<path d="M12.8074 9.32821L14.9815 0.38356H21.7514V7.14958L12.8074 9.32821Z" fill="white"/>
<path d="M21.7508 0C21.9644 0 22.1376 0.171726 22.1376 0.383561V7.14982C22.1375 7.32622 22.0165 7.47994 21.8437 7.52215L12.8993 9.70066C12.7683 9.73253 12.63 9.69455 12.5344 9.60027C12.4387 9.50585 12.3993 9.36854 12.4309 9.23843L14.6054 0.293664L14.6258 0.231485C14.686 0.0929422 14.8247 0.000132034 14.9809 0H21.7508ZM13.3323 8.80543L21.3639 6.84792V0.767123H15.2862L13.3323 8.80543Z" fill="#274247"/>
<path d="M14.7248 0.126223C14.8766 -0.0226224 15.1215 -0.0211673 15.2718 0.129219L22.0107 6.87226C22.1609 7.02275 22.1594 7.26562 22.0077 7.41464C21.8559 7.56345 21.611 7.56202 21.4607 7.41164L14.7218 0.668602C14.5717 0.51811 14.5731 0.275241 14.7248 0.126223Z" fill="#274247"/>
<path d="M21.4615 0.128447C21.6121 -0.0216316 21.857 -0.0221558 22.0086 0.126949C22.1599 0.276177 22.1605 0.519053 22.0101 0.669329L13.1435 9.52944C12.993 9.67958 12.7481 9.68082 12.5965 9.53169C12.4448 9.38249 12.4445 9.13968 12.595 8.98931L21.4615 0.128447Z" fill="#274247"/>
<path d="M12.6473 8.96994C12.8596 8.94593 13.0515 9.09736 13.0757 9.3078C13.0999 9.51822 12.9472 9.70852 12.735 9.73257C12.5814 9.75003 12.4331 9.83726 12.3413 9.98728C12.2531 10.1316 12.2424 10.31 12.3058 10.463L12.3096 10.472V10.4727C12.4467 10.8283 12.4422 11.2608 12.2174 11.6287C11.9997 11.9848 11.6375 12.2042 11.2495 12.2482C11.0373 12.2722 10.8454 12.1215 10.8211 11.9111C10.7969 11.7006 10.9496 11.5104 11.1619 11.4863C11.3154 11.4689 11.4638 11.3815 11.5555 11.2316C11.6401 11.0933 11.6513 10.9121 11.5873 10.7462V10.7454C11.4386 10.3789 11.4602 9.94811 11.6795 9.58948C11.8972 9.23339 12.2595 9.01389 12.6473 8.96994Z" fill="#274247"/>
</g>
<defs>
<clipPath id="clip0_10013_4052">
<rect width="28" height="28" fill="white"/>
</clipPath>
</defs>
</svg>
