<svg width="28" height="28" viewBox="0 0 28 28" fill="none" xmlns="http://www.w3.org/2000/svg">
<g clip-path="url(#clip0_8826_1443)">
<path d="M0.599414 0.954972C0.747908 0.802785 0.9896 0.802247 1.13914 0.953452L4.05468 3.90132C4.20433 4.05263 4.20539 4.29964 4.05692 4.45215C3.90843 4.60444 3.66677 4.60491 3.5172 4.45367L0.600905 1.50504C0.45158 1.3537 0.451052 1.10737 0.599414 0.954972Z" fill="#274247"/>
<path d="M27.6183 1.33038C27.8291 1.33038 28 1.50454 28 1.71938C28 1.93422 27.8291 2.10838 27.6183 2.10838H20.9925L19.1594 4.42185C19.027 4.58904 18.7867 4.61526 18.6227 4.48035C18.4589 4.34538 18.4337 4.1004 18.566 3.93332L20.5124 1.47474L20.5728 1.41396C20.6395 1.36034 20.7226 1.33042 20.8091 1.33038H27.6183Z" fill="#274247"/>
<path d="M27.6183 14.5952C27.8291 14.5952 28 14.7693 28 14.9841C28 15.1989 27.8291 15.373 27.6183 15.373H0.381682C0.170885 15.373 0 15.1989 0 14.9841C0 14.7693 0.170885 14.5952 0.381682 14.5952H27.6183Z" fill="#274247"/>
<path d="M16.9386 16.6674C17.0888 16.5169 17.3305 16.519 17.4783 16.672L21.6463 20.9821C21.794 21.1351 21.7918 21.3814 21.6418 21.5321C21.4916 21.6826 21.2499 21.6805 21.1021 21.5276L16.9341 17.2175C16.7864 17.0644 16.7886 16.8181 16.9386 16.6674Z" fill="#274247"/>
<path d="M11.3285 19.263C6.17574 19.263 1.98486 15.0307 1.98486 9.82596C1.98486 4.62117 6.17574 0.388885 11.3285 0.388885C16.4812 0.388885 20.672 4.62117 20.672 9.82596C20.672 15.0307 16.4812 19.263 11.3285 19.263Z" fill="white"/>
<path d="M11.3284 0.777994C16.275 0.777994 20.2903 4.83912 20.2903 9.82607C20.2903 14.813 16.2673 18.8741 11.3284 18.8741C6.38939 18.8741 2.35882 14.813 2.35882 9.82607C2.35882 4.83912 6.38176 0.777994 11.3284 0.777994ZM11.3284 0C5.95427 0 1.59546 4.40345 1.59546 9.82607C1.59546 15.2487 5.95427 19.6521 11.3207 19.6521C16.6872 19.6521 21.046 15.2487 21.046 9.82607C21.046 4.40345 16.7025 0 11.3284 0Z" fill="#274247"/>
<path d="M25.7101 27.6187C25.2369 27.6187 24.7865 27.4319 24.4506 27.0896L18.0383 20.6089L20.5498 18.0727L26.9697 24.5611C27.3056 24.8957 27.4888 25.3469 27.4888 25.8215C27.4888 26.2961 27.3056 26.7473 26.9697 27.0818C26.6338 27.4242 26.1834 27.6109 25.7101 27.6109V27.6187Z" fill="white"/>
<path d="M20.5421 18.6252L26.6949 24.8413C26.9544 25.1059 27.0994 25.456 27.0994 25.8294C27.0994 26.2028 26.9544 26.5529 26.6949 26.8175C26.4277 27.082 26.0765 27.2298 25.7101 27.2298C25.3437 27.2298 24.9849 27.082 24.7254 26.8175L18.5803 20.6168L20.5498 18.633M20.5421 17.5904C20.504 17.5904 20.4658 17.606 20.4353 17.6371L17.6032 20.5001C17.5421 20.5624 17.5421 20.6635 17.6032 20.718L24.1834 27.362C24.6032 27.7899 25.1605 28 25.7101 28C26.2597 28 26.817 27.7899 27.2368 27.362C28.0765 26.514 28.0765 25.1292 27.2368 24.2812L20.6566 17.6371C20.6566 17.6371 20.5879 17.5904 20.5498 17.5904H20.5421Z" fill="#274247"/>
<path d="M19.8092 22.5151L22.481 19.8233L20.6031 17.9328L17.939 20.6246L19.8092 22.5151Z" fill="#274247"/>
<path d="M11.57 9.45796L17.1074 2.45525L17.4048 2.6999L17.7023 2.94378L11.8697 10.3188C11.7976 10.4099 11.6893 10.4634 11.5745 10.4639C11.4596 10.4644 11.3506 10.4123 11.2778 10.3218L5.11719 2.66647L5.7076 2.17262L11.57 9.45796Z" fill="#274247"/>
<path d="M11.3283 12.2845C12.5383 12.2845 13.5192 11.2953 13.5192 10.075C13.5192 8.85474 12.5383 7.86551 11.3283 7.86551C10.1183 7.86551 9.13745 8.85474 9.13745 10.075C9.13745 11.2953 10.1183 12.2845 11.3283 12.2845Z" fill="white"/>
<path d="M13.1375 10.0749C13.1374 9.07339 12.3311 8.25456 11.3282 8.25451C10.3253 8.25451 9.51905 9.07336 9.51898 10.0749C9.51898 11.0765 10.3253 11.8953 11.3282 11.8953C12.3312 11.8952 13.1375 11.0765 13.1375 10.0749ZM13.9009 10.0749C13.9009 11.5138 12.7452 12.6732 11.3282 12.6733C9.91126 12.6733 8.75562 11.5139 8.75562 10.0749C8.75568 8.636 9.9113 7.47652 11.3282 7.47652C12.7451 7.47657 13.9008 8.63603 13.9009 10.0749Z" fill="#274247"/>
<path d="M20.8475 3.04111C21.5179 3.04111 22.0613 2.49091 22.0613 1.81222C22.0613 1.13352 21.5179 0.583328 20.8475 0.583328C20.1772 0.583328 19.6338 1.13352 19.6338 1.81222C19.6338 2.49091 20.1772 3.04111 20.8475 3.04111Z" fill="white"/>
<path d="M21.6792 1.81273C21.6792 1.35099 21.3091 0.972437 20.8473 0.972437C20.3855 0.972502 20.0153 1.35103 20.0153 1.81273C20.0154 2.2744 20.3855 2.65296 20.8473 2.65303C21.3091 2.65303 21.6792 2.27444 21.6792 1.81273ZM22.4426 1.81273C22.4425 2.70874 21.7261 3.43102 20.8473 3.43102C19.9685 3.43095 19.252 2.7087 19.252 1.81273C19.252 0.916739 19.9685 0.194508 20.8473 0.194443C21.7261 0.194443 22.4426 0.916699 22.4426 1.81273Z" fill="#274247"/>
<path d="M1.59534 3.19688C2.26568 3.19688 2.80909 2.64669 2.80909 1.96799C2.80909 1.2893 2.26568 0.739105 1.59534 0.739105C0.925006 0.739105 0.381592 1.2893 0.381592 1.96799C0.381592 2.64669 0.925006 3.19688 1.59534 3.19688Z" fill="white"/>
<path d="M2.42726 1.96829C2.42726 1.50656 2.05713 1.128 1.59531 1.128C1.13356 1.12807 0.763365 1.5066 0.763365 1.96829C0.763398 2.42997 1.13358 2.80852 1.59531 2.80859C2.05711 2.80859 2.42723 2.43001 2.42726 1.96829ZM3.19063 1.96829C3.19059 2.8643 2.47415 3.58658 1.59531 3.58658C0.716528 3.58652 3.24343e-05 2.86426 0 1.96829C0 1.0723 0.716509 0.350071 1.59531 0.350006C2.47417 0.350006 3.19063 1.07226 3.19063 1.96829Z" fill="#274247"/>
<path d="M18.1374 16.0733V16.8511H4.51904V16.0733H18.1374Z" fill="#274247"/>
</g>
<defs>
<clipPath id="clip0_8826_1443">
<rect width="28" height="28" fill="white"/>
</clipPath>
</defs>
</svg>
