<svg width="28" height="28" viewBox="0 0 28 28" fill="none" xmlns="http://www.w3.org/2000/svg">
<g clip-path="url(#clip0_8826_1461)">
<path d="M1.79712 28L4.31782 20.743L12.8135 16.0022L14.5718 14.1534H16.8746L17.9716 16.171L18.1117 21.2877L15.482 25.5069L15.2953 28" fill="white"/>
<path d="M13.6147 7.91695V0.383562C13.6147 0.171726 13.7889 0 14.0036 0C14.2184 0 14.3925 0.171726 14.3925 0.383562V7.91695C14.3924 8.12868 14.2183 8.30051 14.0036 8.30051C13.7889 8.30051 13.6149 8.12868 13.6147 7.91695Z" fill="#274247"/>
<path d="M23.7341 3.7102C23.8861 3.56053 24.1324 3.56037 24.2842 3.7102C24.436 3.86009 24.4355 4.10289 24.2834 4.25258L18.589 9.86067C18.437 10.0103 18.1908 10.0098 18.039 9.85992C17.8872 9.71003 17.887 9.46723 18.039 9.31754L23.7341 3.7102Z" fill="#274247"/>
<path d="M17.1892 4.7695C17.2677 4.57231 17.4936 4.47486 17.6935 4.55225C17.8933 4.62971 17.9915 4.85255 17.913 5.04968L17.3457 6.4768C17.2672 6.67393 17.0412 6.77068 16.8413 6.6933C16.6415 6.61595 16.5429 6.39371 16.621 6.19662L17.1892 4.7695Z" fill="#274247"/>
<path d="M18.3095 1.94648C18.3882 1.74936 18.614 1.65242 18.8139 1.72998C19.0134 1.80759 19.1117 2.02972 19.0334 2.22666L18.4729 3.63056C18.3942 3.82762 18.1691 3.92447 17.9693 3.84706C17.7694 3.7695 17.6711 3.54676 17.7498 3.34963L18.3095 1.94648Z" fill="#274247"/>
<path d="M22.9271 9.29907C23.1241 9.21457 23.3534 9.30335 23.4391 9.4976C23.5246 9.69171 23.4345 9.91718 23.2378 10.0018L21.8607 10.5928C21.6639 10.6772 21.4353 10.5883 21.3496 10.3943C21.2639 10.2001 21.3539 9.9739 21.5508 9.8894L22.9271 9.29907Z" fill="#274247"/>
<path d="M7.6709 14.1611C7.6709 10.7091 10.5106 7.91673 14.0038 7.91673C17.497 7.91673 20.3366 10.7167 20.3366 14.1611" fill="white"/>
<path d="M14.0036 7.53316C17.7115 7.53316 20.7258 10.5047 20.7259 14.1608H19.9479C19.9478 10.9284 17.2818 8.30028 14.0036 8.30028C10.7251 8.30043 8.06012 10.9211 8.05998 14.1608H7.28198C7.28213 10.4969 10.2961 7.5333 14.0036 7.53316Z" fill="#274247"/>
<path d="M3.74699 3.71018C3.8989 3.56039 4.14514 3.56039 4.29706 3.71018L9.98386 9.31752C10.1358 9.46731 10.1358 9.71011 9.98386 9.8599C9.83195 10.0097 9.58571 10.0097 9.43379 9.8599L3.74699 4.25256C3.59508 4.10277 3.59508 3.85997 3.74699 3.71018Z" fill="#274247"/>
<path d="M10.3375 4.55225C10.5374 4.47496 10.7634 4.57236 10.8418 4.7695L11.4092 6.19662C11.4875 6.39364 11.3893 6.61582 11.1897 6.6933C10.9899 6.77067 10.7639 6.67385 10.6854 6.4768L10.1172 5.04968C10.0389 4.85252 10.1376 4.62963 10.3375 4.55225Z" fill="#274247"/>
<path d="M9.21726 1.72998C9.41708 1.65255 9.64223 1.74942 9.72084 1.94648L10.2814 3.34963C10.36 3.54667 10.2616 3.76941 10.0619 3.84706C9.86201 3.92462 9.63617 3.82769 9.55753 3.63056L8.99775 2.22666C8.91924 2.02958 9.01745 1.80752 9.21726 1.72998Z" fill="#274247"/>
<path d="M4.59173 9.49759C4.67741 9.30335 4.90596 9.21458 5.10291 9.29907L6.47997 9.88939C6.67679 9.97396 6.7669 10.2001 6.68125 10.3943C6.59552 10.5885 6.36621 10.6773 6.16931 10.5928L4.79301 10.0018C4.59607 9.91726 4.50607 9.69184 4.59173 9.49759Z" fill="#274247"/>
<path d="M1.79712 11.9288L2.83156 10.4099L3.85823 11.9288H1.79712Z" fill="#274247"/>
<path d="M1.34595 13.1945L2.83192 11.0082L4.31788 13.1945H1.34595Z" fill="#274247"/>
<path d="M0.871338 14.4986L2.83188 11.6219L4.78465 14.4986H0.871338Z" fill="#274247"/>
<path d="M5.01782 13.5091L6.02116 12.0362L7.02449 13.5091H5.01782Z" fill="#274247"/>
<path d="M4.58228 14.7365L6.02156 12.6192L7.46085 14.7365H4.58228Z" fill="#274247"/>
<path d="M4.12329 16.0022L6.0216 13.2099L7.9199 16.0022H4.12329Z" fill="#274247"/>
<path d="M9.91968 12.3277L10.923 10.8548L11.9186 12.3277H9.91968Z" fill="#274247"/>
<path d="M9.48413 13.5474L10.9234 11.4378L12.3627 13.5474H9.48413Z" fill="#274247"/>
<path d="M9.0249 14.8132L10.9232 12.0285L12.8137 14.8132H9.0249Z" fill="#274247"/>
<path d="M21.9004 12.1973L22.8493 10.8011L23.7982 12.1973H21.9004Z" fill="#274247"/>
<path d="M21.4802 13.3633L22.8491 11.3534L24.218 13.3633H21.4802Z" fill="#274247"/>
<path d="M21.0447 14.5677L22.8496 11.9135L24.6546 14.5677H21.0447Z" fill="#274247"/>
<path d="M24.7886 12.7765L25.5449 11.6667L26.295 12.7765H24.7886Z" fill="#274247"/>
<path d="M24.4622 13.6923L25.5444 12.1033L26.6266 13.6923H24.4622Z" fill="#274247"/>
<path d="M24.1179 14.6444L25.5449 12.5521L26.9656 14.6444H24.1179Z" fill="#274247"/>
<path d="M17.458 13.3173L18.4613 11.8444L19.4647 13.3173H17.458Z" fill="#274247"/>
<path d="M17.0225 14.5447L18.4617 12.4274L19.901 14.5447H17.0225Z" fill="#274247"/>
<path d="M10.075 19.9989C16.5246 17.7666 15.4821 15.0279 14.7508 14.1994C14.7196 14.1611 14.6807 14.1457 14.6341 14.1457H0.388997C0.171159 14.1457 0 14.3145 0 14.5293V27.6088C0 27.8235 0.171159 27.9923 0.388997 27.9923H2.3651C2.45068 27.9923 2.51292 27.9309 2.51292 27.8542C2.62962 25.6142 5.5082 21.5715 10.075 19.9989Z" fill="#274247"/>
<path d="M16.3534 14.1535C16.2056 14.1535 16.1434 14.33 16.2523 14.422C17.1859 15.1815 18.703 17.3448 16.1823 20.6127C14.4318 22.8834 13.8483 25.3152 13.825 27.839C13.825 27.9234 13.895 28.0001 13.9805 28.0001H27.611C27.8288 28.0001 28 27.8313 28 27.6165V14.5371C28 14.3223 27.8288 14.1535 27.611 14.1535H16.3457H16.3534Z" fill="#274247"/>
</g>
<defs>
<clipPath id="clip0_8826_1461">
<rect width="28" height="28" fill="white"/>
</clipPath>
</defs>
</svg>
