<svg width="28" height="28" viewBox="0 0 28 28" fill="none" xmlns="http://www.w3.org/2000/svg">
<g clip-path="url(#clip0_8826_1267)">
<path d="M26.425 14.7815C26.0595 13.3652 24.4572 12.5991 23.8428 12.3746C23.7106 12.3205 23.5628 12.3514 23.4539 12.452C22.8006 13.0557 20.3817 15.3077 19.5495 16.0816C19.3939 16.2287 19.145 16.2132 19.005 16.0584L11.9739 8.48968C11.8261 8.32716 11.5695 8.32716 11.4139 8.48194L8.24057 11.6549C8.0928 11.802 7.84391 11.8097 7.69613 11.6549L4.22724 8.31942C4.14168 8.23429 4.02502 8.19559 3.90057 8.21107C3.09168 8.32716 0.00390625 8.85341 0.00390625 10.7882V19.3552C0.00390625 19.5255 0.0583507 19.6802 0.159462 19.8195L2.72613 23.2479C2.87391 23.4414 3.10724 23.5575 3.34835 23.5575H12.8995C13.1172 23.5575 13.2884 23.7277 13.2884 23.9444V27.605C13.2884 27.8139 13.4672 27.9919 13.6772 27.9919H24.7061C24.955 27.9919 25.1806 27.8758 25.3284 27.6823L27.8484 24.3159C27.9728 24.1456 28.0272 23.9289 27.9883 23.72L26.425 14.7737V14.7815Z" fill="#274247"/>
<path d="M19.6816 11.4847C21.7349 11.4847 23.3994 9.82846 23.3994 7.78543C23.3994 5.7424 21.7349 4.0862 19.6816 4.0862C17.6284 4.0862 15.9639 5.7424 15.9639 7.78543C15.9639 9.82846 17.6284 11.4847 19.6816 11.4847Z" fill="white"/>
<path d="M23.0102 7.78564C23.0102 5.95639 21.5202 4.47326 19.6818 4.47315C17.8433 4.47315 16.3527 5.95632 16.3527 7.78564C16.3528 9.61487 17.8434 11.0974 19.6818 11.0974C21.5202 11.0973 23.0101 9.6148 23.0102 7.78564ZM23.788 7.78564C23.7878 10.0422 21.9497 11.8712 19.6818 11.8713C17.4139 11.8713 15.5751 10.0423 15.575 7.78564C15.575 5.52891 17.4138 3.69925 19.6818 3.69925C21.9498 3.69936 23.788 5.52898 23.788 7.78564Z" fill="#274247"/>
<path d="M7.875 7.78541C9.92828 7.78541 11.5928 6.12921 11.5928 4.08618C11.5928 2.04315 9.92828 0.386948 7.875 0.386948C5.82173 0.386948 4.15723 2.04315 4.15723 4.08618C4.15723 6.12921 5.82173 7.78541 7.875 7.78541Z" fill="white"/>
<path d="M11.2035 4.08639C11.2035 2.25714 9.71359 0.774012 7.87519 0.773898C6.0367 0.773898 4.54609 2.25707 4.54609 4.08639C4.5462 5.91562 6.03677 7.39813 7.87519 7.39813C9.71352 7.39802 11.2034 5.91555 11.2035 4.08639ZM11.9813 4.08639C11.9812 6.34296 10.1431 8.17192 7.87519 8.17203C5.60721 8.17203 3.76843 6.34303 3.76831 4.08639C3.76831 1.82966 5.60714 0 7.87519 0C10.1431 0.000114473 11.9813 1.82973 11.9813 4.08639Z" fill="#274247"/>
<path d="M11.5696 20.6786C13.1976 20.6786 14.5174 19.3654 14.5174 17.7455C14.5174 16.1256 13.1976 14.8124 11.5696 14.8124C9.94159 14.8124 8.62183 16.1256 8.62183 17.7455C8.62183 19.3654 9.94159 20.6786 11.5696 20.6786Z" fill="white"/>
<path d="M18.4529 27.6127V22.8222C18.4529 21.0655 15.0618 20.4928 14.9218 20.4696L14.8285 20.4541L14.7663 20.5238L11.5774 23.7277L8.38072 20.5238L8.3185 20.4541L8.22517 20.4696C8.07739 20.4928 4.68628 21.0655 4.68628 22.8222V27.6127H18.4607H18.4529Z" fill="white"/>
<path d="M18.0642 22.8219C18.0641 22.5205 17.9223 22.2506 17.654 21.9982C17.3812 21.7416 16.9995 21.526 16.5876 21.352C15.9171 21.0687 15.2305 20.9216 14.9667 20.8713L11.8534 24.0002C11.7804 24.0733 11.6812 24.115 11.5776 24.115C11.4739 24.1151 11.3742 24.0734 11.3012 24.0002L8.17942 20.8706C7.91712 20.92 7.22637 21.0676 6.55246 21.352C6.14017 21.526 5.75819 21.7416 5.4853 21.9982C5.2169 22.2506 5.07525 22.5205 5.07514 22.8219V27.2257H18.0642V22.8219ZM18.842 27.5349C18.8471 27.56 18.8496 27.5861 18.8496 27.6127C18.8496 27.8264 18.6754 27.9996 18.4607 27.9996H4.68625C4.47147 27.9996 4.29736 27.8264 4.29736 27.6127V22.8219C4.29747 22.2454 4.57963 21.7854 4.95133 21.4359C5.31889 21.0903 5.79469 20.8309 6.24864 20.6393C7.14723 20.26 8.05729 20.1049 8.16119 20.0884L8.25461 20.0725L8.30398 20.0672C8.41917 20.0629 8.53161 20.1102 8.60932 20.1972L8.66553 20.2607L11.5769 23.1779L14.4806 20.2607L14.5376 20.1972C14.6264 20.0978 14.7605 20.0507 14.8923 20.0725L14.9857 20.0876C15.0638 20.1006 15.9836 20.2561 16.8922 20.6401C17.3455 20.8317 17.8207 21.0904 18.188 21.4359C18.5595 21.7854 18.8419 22.2454 18.842 22.8219V27.5349Z" fill="#274247"/>
<path d="M7.40063 27.5201V25.8869C7.40063 25.6732 7.57475 25.4999 7.78952 25.4999C8.0043 25.4999 8.17841 25.6732 8.17841 25.8869V27.5201C8.17827 27.7337 8.00421 27.907 7.78952 27.907C7.57484 27.907 7.40078 27.7337 7.40063 27.5201Z" fill="#274247"/>
<path d="M14.9529 27.613V25.8869C14.9529 25.6732 15.127 25.4999 15.3418 25.4999C15.5565 25.4999 15.7307 25.6732 15.7307 25.8869V27.613C15.7305 27.8266 15.5564 28 15.3418 28C15.1271 28 14.9531 27.8266 14.9529 27.613Z" fill="#274247"/>
</g>
<defs>
<clipPath id="clip0_8826_1267">
<rect width="28" height="28" fill="white"/>
</clipPath>
</defs>
</svg>
