<svg width="28" height="28" viewBox="0 0 28 28" fill="none" xmlns="http://www.w3.org/2000/svg">
<g clip-path="url(#clip0_8826_1573)">
<path d="M27.6216 20.4324C27.8306 20.4324 28 20.6018 28 20.8108C28 21.0198 27.8306 21.1892 27.6216 21.1892H0.378378C0.169406 21.1892 0 21.0198 0 20.8108C0 20.6018 0.169406 20.4324 0.378378 20.4324H27.6216Z" fill="#274247"/>
<path d="M21.999 0.378372H6.00114C5.5832 0.378372 5.24438 0.717184 5.24438 1.13513V26.8649C5.24438 27.2828 5.5832 27.6216 6.00114 27.6216H21.999C22.4169 27.6216 22.7557 27.2828 22.7557 26.8649V1.13513C22.7557 0.717184 22.4169 0.378372 21.999 0.378372Z" fill="white"/>
<path d="M22.3771 1.13514C22.3771 0.952378 22.2478 0.799531 22.0755 0.764147L21.9987 0.756757H6.0011C5.79213 0.756757 5.62272 0.926163 5.62272 1.13514V26.8649C5.62272 27.0738 5.79213 27.2432 6.0011 27.2432H21.9987C22.2076 27.2432 22.3771 27.0738 22.3771 26.8649V1.13514ZM23.1338 26.8649C23.1338 27.4918 22.6256 28 21.9987 28H6.0011C5.37418 28 4.86597 27.4918 4.86597 26.8649V1.13514C4.86597 0.508217 5.37418 0 6.0011 0H21.9987L22.1147 0.00591216C22.6872 0.0639076 23.1338 0.5473 23.1338 1.13514V26.8649Z" fill="#274247"/>
<path d="M20.3187 2.80759H7.67334V7.67353H20.3187V2.80759Z" fill="#274247"/>
<path d="M20.3189 2.4292C20.5279 2.4292 20.6973 2.5986 20.6973 2.80758V7.67329C20.6973 7.88226 20.5279 8.05167 20.3189 8.05167H7.67354C7.46457 8.05167 7.29517 7.88226 7.29517 7.67329V2.80758L7.30256 2.73146C7.33777 2.55894 7.49063 2.4292 7.67354 2.4292H20.3189ZM8.05192 7.29491H19.9405V3.18596H8.05192V7.29491Z" fill="#274247"/>
<path d="M9.13388 14C9.94051 14 10.5944 13.3461 10.5944 12.5395C10.5944 11.7328 9.94051 11.0789 9.13388 11.0789C8.32725 11.0789 7.67334 11.7328 7.67334 12.5395C7.67334 13.3461 8.32725 14 9.13388 14Z" fill="#274247"/>
<path d="M10.2165 12.5392C10.2164 11.9417 9.73143 11.4573 9.13385 11.4573C8.53637 11.4574 8.05205 11.9418 8.05192 12.5392C8.05192 13.1368 8.5363 13.6218 9.13385 13.6219C9.73151 13.6219 10.2165 13.1369 10.2165 12.5392ZM10.9733 12.5392C10.9733 13.5548 10.1495 14.3786 9.13385 14.3786C8.11835 14.3785 7.29517 13.5548 7.29517 12.5392C7.29529 11.5238 8.11843 10.7007 9.13385 10.7005C10.1494 10.7005 10.9731 11.5237 10.9733 12.5392Z" fill="#274247"/>
<path d="M18.8661 14C19.6727 14 20.3266 13.3461 20.3266 12.5395C20.3266 11.7328 19.6727 11.0789 18.8661 11.0789C18.0594 11.0789 17.4055 11.7328 17.4055 12.5395C17.4055 13.3461 18.0594 14 18.8661 14Z" fill="#274247"/>
<path d="M19.9484 12.5392C19.9483 11.9417 19.4634 11.4573 18.8658 11.4573C18.2683 11.4574 17.784 11.9418 17.7839 12.5392C17.7839 13.1368 18.2682 13.6218 18.8658 13.6219C19.4634 13.6219 19.9484 13.1369 19.9484 12.5392ZM20.7052 12.5392C20.7052 13.5548 19.8814 14.3786 18.8658 14.3786C17.8503 14.3785 17.0271 13.5548 17.0271 12.5392C17.0272 11.5238 17.8504 10.7007 18.8658 10.7005C19.8813 10.7005 20.7051 11.5237 20.7052 12.5392Z" fill="#274247"/>
<path d="M14.0001 14C14.8067 14 15.4606 13.3461 15.4606 12.5395C15.4606 11.7328 14.8067 11.0789 14.0001 11.0789C13.1935 11.0789 12.5396 11.7328 12.5396 12.5395C12.5396 13.3461 13.1935 14 14.0001 14Z" fill="#274247"/>
<path d="M15.0825 12.5392C15.0824 11.9417 14.5974 11.4573 13.9998 11.4573C13.4023 11.4574 12.918 11.9418 12.9179 12.5392C12.9179 13.1368 13.4023 13.6218 13.9998 13.6219C14.5975 13.6219 15.0825 13.1369 15.0825 12.5392ZM15.8392 12.5392C15.8392 13.5548 15.0154 14.3786 13.9998 14.3786C12.9843 14.3785 12.1611 13.5548 12.1611 12.5392C12.1613 11.5238 12.9844 10.7007 13.9998 10.7005C15.0153 10.7005 15.8391 11.5237 15.8392 12.5392Z" fill="#274247"/>
<path d="M9.13388 19.3503C9.94051 19.3503 10.5944 18.6964 10.5944 17.8897C10.5944 17.0831 9.94051 16.4292 9.13388 16.4292C8.32725 16.4292 7.67334 17.0831 7.67334 17.8897C7.67334 18.6964 8.32725 19.3503 9.13388 19.3503Z" fill="#274247"/>
<path d="M10.2165 17.8895C10.2164 17.292 9.73143 16.8076 9.13385 16.8076C8.53637 16.8077 8.05205 17.292 8.05192 17.8895C8.05192 18.4871 8.5363 18.972 9.13385 18.9722C9.73151 18.9722 10.2165 18.4872 10.2165 17.8895ZM10.9733 17.8895C10.9733 18.9051 10.1495 19.7289 9.13385 19.7289C8.11835 19.7288 7.29517 18.905 7.29517 17.8895C7.29529 16.8741 8.11843 16.051 9.13385 16.0508C10.1494 16.0508 10.9731 16.874 10.9733 17.8895Z" fill="#274247"/>
<path d="M18.8661 19.3503C19.6727 19.3503 20.3266 18.6964 20.3266 17.8897C20.3266 17.0831 19.6727 16.4292 18.8661 16.4292C18.0594 16.4292 17.4055 17.0831 17.4055 17.8897C17.4055 18.6964 18.0594 19.3503 18.8661 19.3503Z" fill="#274247"/>
<path d="M19.9484 17.8895C19.9483 17.292 19.4634 16.8076 18.8658 16.8076C18.2683 16.8077 17.784 17.292 17.7839 17.8895C17.7839 18.4871 18.2682 18.972 18.8658 18.9722C19.4634 18.9722 19.9484 18.4872 19.9484 17.8895ZM20.7052 17.8895C20.7052 18.9051 19.8814 19.7289 18.8658 19.7289C17.8503 19.7288 17.0271 18.905 17.0271 17.8895C17.0272 16.8741 17.8504 16.051 18.8658 16.0508C19.8813 16.0508 20.7051 16.874 20.7052 17.8895Z" fill="#274247"/>
<path d="M14.0001 19.3503C14.8067 19.3503 15.4606 18.6964 15.4606 17.8897C15.4606 17.0831 14.8067 16.4292 14.0001 16.4292C13.1935 16.4292 12.5396 17.0831 12.5396 17.8897C12.5396 18.6964 13.1935 19.3503 14.0001 19.3503Z" fill="#274247"/>
<path d="M15.0825 17.8895C15.0824 17.292 14.5974 16.8076 13.9998 16.8076C13.4023 16.8077 12.918 17.292 12.9179 17.8895C12.9179 18.4871 13.4023 18.972 13.9998 18.9722C14.5975 18.9722 15.0825 18.4872 15.0825 17.8895ZM15.8392 17.8895C15.8392 18.9051 15.0154 19.7289 13.9998 19.7289C12.9843 19.7288 12.1611 18.905 12.1611 17.8895C12.1613 16.8741 12.9844 16.051 13.9998 16.0508C15.0153 16.0508 15.8391 16.874 15.8392 17.8895Z" fill="#274247"/>
<path d="M18.8661 24.7006C19.6727 24.7006 20.3266 24.0467 20.3266 23.24C20.3266 22.4334 19.6727 21.7795 18.8661 21.7795C18.0594 21.7795 17.4055 22.4334 17.4055 23.24C17.4055 24.0467 18.0594 24.7006 18.8661 24.7006Z" fill="#274247"/>
<path d="M19.9484 23.2398C19.9483 22.6422 19.4634 22.1579 18.8658 22.1579C18.2683 22.158 17.784 22.6423 17.7839 23.2398C17.7839 23.8374 18.2682 24.3223 18.8658 24.3225C19.4634 24.3225 19.9484 23.8375 19.9484 23.2398ZM20.7052 23.2398C20.7052 24.2554 19.8814 25.0792 18.8658 25.0792C17.8503 25.0791 17.0271 24.2553 17.0271 23.2398C17.0272 22.2244 17.8504 21.4012 18.8658 21.4011C19.8813 21.4011 20.7051 22.2243 20.7052 23.2398Z" fill="#274247"/>
<path d="M13.9998 21.787H9.13388C8.32725 21.787 7.67334 22.4409 7.67334 23.2476C7.67334 24.0542 8.32725 24.7081 9.13388 24.7081H13.9998C14.8065 24.7081 15.4604 24.0542 15.4604 23.2476C15.4604 22.4409 14.8065 21.787 13.9998 21.787Z" fill="#274247"/>
<path d="M15.0822 23.2473C15.0821 22.687 14.6561 22.2266 14.1104 22.1713L14.0003 22.1654H9.13385C8.53637 22.1655 8.05205 22.6498 8.05192 23.2473C8.05192 23.8449 8.5363 24.3298 9.13385 24.33H14.0003C14.5978 24.3298 15.0822 23.8449 15.0822 23.2473ZM15.839 23.2473C15.839 24.2628 15.0158 25.0866 14.0003 25.0867H9.13385C8.11835 25.0866 7.29517 24.2628 7.29517 23.2473C7.29529 22.2319 8.11843 21.4088 9.13385 21.4086H14.0003L14.188 21.4182C15.1152 21.5124 15.8389 22.2953 15.839 23.2473Z" fill="#274247"/>
</g>
<defs>
<clipPath id="clip0_8826_1573">
<rect width="28" height="28" fill="white"/>
</clipPath>
</defs>
</svg>
