<svg width="28" height="28" viewBox="0 0 28 28" fill="none" xmlns="http://www.w3.org/2000/svg">
<path d="M19.4986 16.4817C18.1453 15.7895 16.9243 14.9729 16.0454 14.1796L16.932 12.453C17.8264 13.2307 18.993 14.0007 20.3308 14.6773C22.2518 15.6573 24.4061 16.3417 25.9538 16.3417C26.1794 16.3417 26.3971 16.3261 26.6071 16.295C26.4049 16.6917 26.1638 17.1583 25.9383 17.6016C25.8838 17.7183 25.7594 17.8038 25.5572 17.866C24.4372 18.2394 21.7696 17.6327 19.4986 16.4739V16.4817Z" fill="white"/>
<path d="M16.3566 11.9319L15.4778 13.6274C15.0656 13.1918 14.7856 12.7719 14.6689 12.3985C14.5912 12.173 14.5912 11.9786 14.6689 11.8463L15.33 10.5708C15.54 10.9986 15.8978 11.4652 16.3644 11.9319H16.3566Z" fill="white"/>
<path d="M15.2288 9.09312L15.1899 9.1709C15.1899 9.1709 15.2055 9.13201 15.2133 9.10868C15.2133 9.10868 15.2133 9.10868 15.2288 9.09312Z" fill="#274247"/>
<path d="M27.906 14.4206C27.4705 13.0674 25.4483 11.3097 22.7496 9.94863C19.6931 8.40092 16.0299 7.57652 15.2288 9.09311L15.1899 9.17089L13.9844 11.5119C13.8211 11.8385 13.8056 12.2119 13.9456 12.6396C14.1322 13.2229 14.6144 13.884 15.3066 14.5451C16.2477 15.4473 17.5932 16.3728 19.1486 17.1661C20.8675 18.0371 23.1073 18.7527 24.7095 18.7527C25.1217 18.7527 25.4795 18.706 25.7906 18.6049C26.1872 18.4727 26.4594 18.2549 26.6072 17.9516C27.1049 16.9483 27.6727 15.8595 27.8127 15.6028C27.8282 15.5795 27.8438 15.5561 27.8593 15.525C28.0227 15.2062 28.0304 14.8328 27.8982 14.4206H27.906ZM14.6689 12.3985C14.5911 12.173 14.5911 11.9785 14.6689 11.8463L15.3299 10.5708C15.5399 10.9986 15.8977 11.4652 16.3643 11.9319L15.4855 13.6273C15.0733 13.1918 14.7933 12.7718 14.6766 12.3985H14.6689ZM25.9383 17.6094C25.8839 17.726 25.7594 17.8116 25.5572 17.8738C24.4373 18.2471 21.7696 17.6405 19.4986 16.4817C18.1454 15.7895 16.9243 14.9728 16.0455 14.1795L16.9321 12.453C17.8265 13.2307 18.9931 14.0007 20.3308 14.6773C22.2518 15.6572 24.4062 16.3417 25.9539 16.3417C26.1794 16.3417 26.3972 16.3261 26.6072 16.295C26.405 16.6916 26.1639 17.1583 25.9383 17.6016V17.6094Z" fill="#274247"/>
<path d="M7.646 6.80654C9.77701 5.4455 11.7369 3.59447 12.2736 2.12454L12.9502 3.18227C13.3779 3.86668 11.9236 6.11435 8.57929 8.22981C7.30379 9.03866 5.97386 9.66085 4.85391 10.0108L3.96729 8.61868C5.10279 8.24536 6.3705 7.63095 7.65378 6.80654H7.646Z" fill="white"/>
<path d="M14.6845 20.6037C14.1868 20.7592 13.6346 20.8837 13.059 20.9848C12.118 21.1403 11.1069 21.2259 10.1114 21.2259C9.11588 21.2259 8.10482 21.1403 7.16375 20.9848C6.79822 20.9225 6.45601 20.8525 6.12158 20.767V22.6725C7.16375 22.9447 8.51702 23.1235 10.1192 23.1235C12.9035 23.1235 14.9334 22.5714 15.9056 21.9569C16.1933 21.7858 16.38 21.5914 16.4733 21.4203C16.5278 21.3347 16.5511 21.257 16.5511 21.1792V19.7248C16.0922 20.0826 15.4467 20.3781 14.7001 20.6037H14.6845Z" fill="white"/>
<path d="M6.10596 26.7867V25.1457C7.31923 25.449 8.72694 25.5968 10.1035 25.5968C12.6312 25.5968 15.2755 25.0835 16.5355 24.0957V25.2857C16.5355 26.1023 14.0934 27.2378 10.1035 27.2378C8.50918 27.2378 7.15591 27.0589 6.10596 26.7867Z" fill="white"/>
<path d="M5.53833 23.2869C5.59277 23.3025 5.63944 23.318 5.6861 23.3336C5.63166 23.3336 5.57722 23.3102 5.53833 23.2869Z" fill="#274247"/>
<path d="M16.4577 22.4936C15.1667 23.4035 12.5846 23.878 10.1114 23.878C8.57143 23.878 6.99262 23.6991 5.70157 23.3335C5.64713 23.3335 5.59269 23.3102 5.5538 23.2869C5.5538 23.2869 5.53824 23.2713 5.53047 23.2713C4.8305 23.0769 4.22386 22.8124 3.76499 22.4936C3.71055 22.5947 3.67944 22.688 3.67944 22.7891C3.67944 23.318 4.48829 23.878 5.81045 24.2824C6.9304 24.6246 8.42366 24.8501 10.1114 24.8501C13.7979 24.8501 16.5433 23.7691 16.5433 22.7891C16.5433 22.688 16.5122 22.5947 16.4577 22.4936Z" fill="white"/>
<path d="M5.35155 24.9279V26.5534C4.27049 26.1723 3.67163 25.6901 3.67163 25.2935V24.1035C4.09161 24.4302 4.67492 24.7102 5.35155 24.9279Z" fill="white"/>
<path d="M3.67163 19.7248V21.1792C3.67163 21.257 3.69496 21.3347 3.74941 21.4203C3.84273 21.5914 4.02939 21.7781 4.31716 21.9569C4.58159 22.1203 4.93157 22.2914 5.35155 22.4391V20.5415C4.67492 20.3315 4.09161 20.0515 3.67163 19.7248Z" fill="white"/>
<path d="M17.2977 18.4027C17.2977 16.575 13.5957 15.5872 10.1114 15.5872C6.6271 15.5872 2.92505 16.5672 2.92505 18.4027V21.1714C2.92505 21.4514 3.02616 21.7158 3.20504 21.9569C3.02616 22.2058 2.92505 22.4858 2.92505 22.7813V25.2857C2.92505 27.0511 6.63487 27.9922 10.1114 27.9922C13.5879 27.9922 17.2977 27.0434 17.2977 25.2857V22.7813C17.2977 22.4858 17.1966 22.2058 17.0177 21.9569C17.1966 21.7158 17.2977 21.4514 17.2977 21.1714V18.4027ZM3.67168 19.7248C4.09166 20.0515 4.67497 20.3315 5.3516 20.5414V22.4391C4.93162 22.2914 4.58164 22.1203 4.31721 21.9569C4.02944 21.7781 3.84278 21.5914 3.74945 21.4203C3.69501 21.3347 3.67168 21.257 3.67168 21.1792V19.7248ZM5.3516 26.5534C4.27054 26.1723 3.67168 25.6901 3.67168 25.2934V24.1035C4.09166 24.4301 4.67497 24.7101 5.3516 24.9279V26.5534ZM16.5355 25.2934C16.5355 26.1101 14.0934 27.2456 10.1036 27.2456C8.50923 27.2456 7.15596 27.0667 6.10601 26.7945V25.1534C7.31928 25.4568 8.727 25.6045 10.1036 25.6045C12.6313 25.6045 15.2756 25.0912 16.5355 24.1035V25.2934ZM10.1036 24.8424C8.4159 24.8424 6.92264 24.6168 5.80269 24.2746C4.48053 23.8702 3.67168 23.3102 3.67168 22.7813C3.67168 22.6802 3.70279 22.5869 3.75723 22.4858C4.20832 22.8047 4.81496 23.0691 5.5227 23.2635C5.5227 23.2635 5.53826 23.2635 5.54604 23.2791C5.60048 23.2946 5.64714 23.3102 5.69381 23.3258C6.98486 23.6913 8.57145 23.8702 10.1036 23.8702C12.5768 23.8702 15.1589 23.3958 16.45 22.4858C16.5044 22.5869 16.5355 22.6802 16.5355 22.7813C16.5355 23.7613 13.7901 24.8424 10.1036 24.8424ZM16.5355 21.1714C16.5355 21.2492 16.5122 21.327 16.4577 21.4125C16.3644 21.5836 16.1778 21.7781 15.89 21.9492C14.91 22.5636 12.8879 23.1158 10.1036 23.1158C8.50923 23.1158 7.15596 22.9369 6.10601 22.6647V20.7592C6.44044 20.8525 6.79042 20.9148 7.14818 20.977C8.09703 21.1325 9.10809 21.2181 10.0958 21.2181C11.0836 21.2181 12.1102 21.1325 13.0435 20.977C13.619 20.8759 14.1712 20.7592 14.6689 20.5959C15.4156 20.3703 16.0611 20.0748 16.52 19.717V21.1714H16.5355Z" fill="#274247"/>
<path d="M3.26712 8.04316C2.45827 8.2687 1.76608 8.34648 1.29166 8.23759C1.06612 8.18315 0.902793 8.0976 0.825018 7.96538C0.405038 7.2732 1.84386 5.00997 5.18037 2.87118C7.22583 1.57235 9.35684 0.763504 10.6479 0.763504C10.819 0.763504 10.9901 0.779059 11.1301 0.810168C11.3556 0.86461 11.519 0.950162 11.5967 1.08238C12.0167 1.77457 10.5779 4.03779 7.24138 6.17658C5.86478 7.05543 4.44151 7.70873 3.26712 8.04316Z" fill="white"/>
<path d="M3.21277 8.83646L4.07607 10.2208C3.49276 10.3453 2.98723 10.3686 2.61391 10.2908C2.38059 10.2364 2.22504 10.1508 2.14727 10.0186L1.50952 9.03089C1.59507 9.04645 1.68062 9.04645 1.77395 9.04645C2.19393 9.04645 2.68391 8.97645 3.21277 8.84423V8.83646Z" fill="white"/>
<path d="M13.5801 2.77011L12.2424 0.677986C12.0557 0.366889 11.7368 0.164677 11.3013 0.0635703C9.90137 -0.247526 7.3426 0.600211 4.78383 2.23347C1.91397 4.06894 -0.644799 6.77547 0.148497 8.27651C0.164051 8.30762 0.179606 8.33873 0.195161 8.36984H0.187384L1.49399 10.4309C1.68842 10.7342 1.99952 10.9364 2.43505 11.0297C2.62949 11.0764 2.85503 11.0997 3.08836 11.0997C3.57056 11.0997 4.14608 11.0064 4.77605 10.8353C6.02822 10.4931 7.49815 9.81644 8.97585 8.88315C11.9079 7.03213 14.5056 4.26337 13.5801 2.78566V2.77011ZM5.18826 2.87121C7.23372 1.57239 9.36473 0.763537 10.6558 0.763537C10.8269 0.763537 10.998 0.779092 11.138 0.810201C11.3635 0.864643 11.5268 0.950195 11.6046 1.08241C12.0246 1.7746 10.5858 4.03783 7.24927 6.17661C5.87267 7.05546 4.4494 7.70876 3.27501 8.04319C2.46616 8.26874 1.77397 8.34651 1.29955 8.23763C1.07401 8.18319 0.910683 8.09763 0.832909 7.96542C0.412928 7.27323 1.85175 5.01 5.18826 2.87121ZM2.61393 10.2831C2.38061 10.2286 2.22506 10.1431 2.14729 10.0109L1.50954 9.02315C1.59509 9.0387 1.68065 9.0387 1.77397 9.0387C2.19395 9.0387 2.68393 8.9687 3.2128 8.83649L4.07609 10.2209C3.49278 10.3453 2.98725 10.3686 2.61393 10.2909V10.2831ZM8.57143 8.22985C7.29594 9.0387 5.966 9.66089 4.84605 10.0109L3.95943 8.61872C5.09493 8.2454 6.36265 7.63099 7.64592 6.80658C9.77693 5.44554 11.7368 3.60229 12.2735 2.12458L12.9501 3.18231C13.3779 3.86672 11.9235 6.11439 8.57921 8.22985H8.57143Z" fill="#274247"/>
<g clip-path="url(#clip0_10891_7526)">
<path d="M19.4986 16.4817C18.1453 15.7895 16.9243 14.9728 16.0454 14.1795L16.932 12.453C17.8264 13.2307 18.993 14.0007 20.3308 14.6773C22.2518 15.6572 24.4061 16.3417 25.9538 16.3417C26.1794 16.3417 26.3971 16.3261 26.6071 16.295C26.4049 16.6916 26.1638 17.1583 25.9383 17.6016C25.8838 17.7183 25.7594 17.8038 25.5572 17.866C24.4372 18.2393 21.7696 17.6327 19.4986 16.4739V16.4817Z" fill="white"/>
<path d="M16.3566 11.9319L15.4778 13.6274C15.0656 13.1918 14.7856 12.7718 14.6689 12.3985C14.5912 12.173 14.5912 11.9785 14.6689 11.8463L15.33 10.5708C15.54 10.9986 15.8978 11.4652 16.3644 11.9319H16.3566Z" fill="white"/>
<path d="M15.2288 9.09312L15.1899 9.1709C15.1899 9.1709 15.2055 9.13201 15.2133 9.10868C15.2133 9.10868 15.2133 9.10868 15.2288 9.09312Z" fill="#274247"/>
<path d="M27.906 14.4206C27.4705 13.0674 25.4483 11.3097 22.7496 9.94863C19.6931 8.40092 16.0299 7.57652 15.2288 9.09311L15.1899 9.17089L13.9844 11.5119C13.8211 11.8385 13.8056 12.2119 13.9456 12.6396C14.1322 13.2229 14.6144 13.884 15.3066 14.5451C16.2477 15.4473 17.5932 16.3728 19.1486 17.1661C20.8675 18.0371 23.1073 18.7527 24.7095 18.7527C25.1217 18.7527 25.4795 18.706 25.7906 18.6049C26.1872 18.4727 26.4594 18.2549 26.6072 17.9516C27.1049 16.9483 27.6727 15.8595 27.8127 15.6028C27.8282 15.5795 27.8438 15.5561 27.8593 15.525C28.0227 15.2062 28.0304 14.8328 27.8982 14.4206H27.906ZM14.6689 12.3985C14.5911 12.173 14.5911 11.9785 14.6689 11.8463L15.3299 10.5708C15.5399 10.9986 15.8977 11.4652 16.3643 11.9319L15.4855 13.6273C15.0733 13.1918 14.7933 12.7718 14.6766 12.3985H14.6689ZM25.9383 17.6094C25.8839 17.726 25.7594 17.8116 25.5572 17.8738C24.4373 18.2471 21.7696 17.6405 19.4986 16.4817C18.1454 15.7895 16.9243 14.9728 16.0455 14.1795L16.9321 12.453C17.8265 13.2307 18.9931 14.0007 20.3308 14.6773C22.2518 15.6572 24.4062 16.3417 25.9539 16.3417C26.1794 16.3417 26.3972 16.3261 26.6072 16.295C26.405 16.6916 26.1639 17.1583 25.9383 17.6016V17.6094Z" fill="#274247"/>
<path d="M7.646 6.80656C9.77701 5.44551 11.7369 3.59449 12.2736 2.12456L12.9502 3.18229C13.3779 3.8667 11.9236 6.11437 8.57929 8.22982C7.30379 9.03867 5.97386 9.66087 4.85391 10.0108L3.96729 8.61869C5.10279 8.24538 6.3705 7.63096 7.65378 6.80656H7.646Z" fill="white"/>
<path d="M14.6845 20.6037C14.1868 20.7592 13.6346 20.8837 13.059 20.9848C12.118 21.1403 11.1069 21.2259 10.1114 21.2259C9.11588 21.2259 8.10482 21.1403 7.16375 20.9848C6.79822 20.9226 6.45601 20.8526 6.12158 20.767V22.6725C7.16375 22.9447 8.51702 23.1236 10.1192 23.1236C12.9035 23.1236 14.9334 22.5714 15.9056 21.957C16.1933 21.7859 16.38 21.5914 16.4733 21.4203C16.5278 21.3348 16.5511 21.257 16.5511 21.1792V19.7248C16.0922 20.0826 15.4467 20.3781 14.7001 20.6037H14.6845Z" fill="white"/>
<path d="M6.10596 26.7867V25.1457C7.31923 25.449 8.72694 25.5968 10.1035 25.5968C12.6312 25.5968 15.2755 25.0835 16.5355 24.0957V25.2857C16.5355 26.1023 14.0934 27.2378 10.1035 27.2378C8.50918 27.2378 7.15591 27.0589 6.10596 26.7867Z" fill="white"/>
<path d="M5.53833 23.2869C5.59277 23.3025 5.63944 23.318 5.6861 23.3336C5.63166 23.3336 5.57722 23.3102 5.53833 23.2869Z" fill="#274247"/>
<path d="M16.4577 22.4936C15.1667 23.4035 12.5846 23.878 10.1114 23.878C8.57143 23.878 6.99262 23.6991 5.70157 23.3336C5.64713 23.3336 5.59269 23.3102 5.5538 23.2869C5.5538 23.2869 5.53824 23.2713 5.53047 23.2713C4.8305 23.0769 4.22386 22.8125 3.76499 22.4936C3.71055 22.5947 3.67944 22.688 3.67944 22.7891C3.67944 23.318 4.48829 23.878 5.81045 24.2824C6.9304 24.6246 8.42366 24.8501 10.1114 24.8501C13.7979 24.8501 16.5433 23.7691 16.5433 22.7891C16.5433 22.688 16.5122 22.5947 16.4577 22.4936Z" fill="white"/>
<path d="M5.35155 24.9279V26.5534C4.27049 26.1723 3.67163 25.6901 3.67163 25.2935V24.1035C4.09161 24.4302 4.67492 24.7102 5.35155 24.9279Z" fill="white"/>
<path d="M3.67163 19.7248V21.1792C3.67163 21.257 3.69496 21.3348 3.74941 21.4203C3.84273 21.5914 4.02939 21.7781 4.31716 21.957C4.58159 22.1203 4.93157 22.2914 5.35155 22.4392V20.5415C4.67492 20.3315 4.09161 20.0515 3.67163 19.7248Z" fill="white"/>
<path d="M17.2977 18.4027C17.2977 16.575 13.5957 15.5872 10.1114 15.5872C6.62709 15.5872 2.92505 16.5672 2.92505 18.4027V21.1714C2.92505 21.4514 3.02616 21.7158 3.20504 21.9569C3.02616 22.2058 2.92505 22.4858 2.92505 22.7814V25.2857C2.92505 27.0511 6.63487 27.9922 10.1114 27.9922C13.5879 27.9922 17.2977 27.0434 17.2977 25.2857V22.7814C17.2977 22.4858 17.1966 22.2058 17.0177 21.9569C17.1966 21.7158 17.2977 21.4514 17.2977 21.1714V18.4027ZM3.67168 19.7248C4.09166 20.0515 4.67497 20.3315 5.3516 20.5415V22.4391C4.93162 22.2914 4.58164 22.1203 4.31721 21.9569C4.02944 21.7781 3.84278 21.5914 3.74945 21.4203C3.69501 21.3348 3.67168 21.257 3.67168 21.1792V19.7248ZM5.3516 26.5534C4.27054 26.1723 3.67168 25.6901 3.67168 25.2935V24.1035C4.09166 24.4302 4.67497 24.7101 5.3516 24.9279V26.5534ZM16.5355 25.2935C16.5355 26.1101 14.0934 27.2456 10.1036 27.2456C8.50923 27.2456 7.15596 27.0667 6.10601 26.7945V25.1535C7.31928 25.4568 8.72699 25.6045 10.1036 25.6045C12.6313 25.6045 15.2756 25.0912 16.5355 24.1035V25.2935ZM10.1036 24.8424C8.4159 24.8424 6.92264 24.6168 5.80269 24.2746C4.48053 23.8702 3.67168 23.3102 3.67168 22.7814C3.67168 22.6802 3.70279 22.5869 3.75723 22.4858C4.20832 22.8047 4.81496 23.0691 5.5227 23.2636C5.5227 23.2636 5.53826 23.2636 5.54604 23.2791C5.60048 23.2947 5.64714 23.3102 5.69381 23.3258C6.98486 23.6913 8.57145 23.8702 10.1036 23.8702C12.5768 23.8702 15.1589 23.3958 16.45 22.4858C16.5044 22.5869 16.5355 22.6802 16.5355 22.7814C16.5355 23.7613 13.7901 24.8424 10.1036 24.8424ZM16.5355 21.1714C16.5355 21.2492 16.5122 21.327 16.4577 21.4125C16.3644 21.5836 16.1778 21.7781 15.89 21.9492C14.91 22.5636 12.8879 23.1158 10.1036 23.1158C8.50923 23.1158 7.15596 22.9369 6.10601 22.6647V20.7592C6.44044 20.8526 6.79042 20.9148 7.14818 20.977C8.09702 21.1325 9.10809 21.2181 10.0958 21.2181C11.0835 21.2181 12.1102 21.1325 13.0435 20.977C13.619 20.8759 14.1712 20.7592 14.6689 20.5959C15.4156 20.3704 16.0611 20.0748 16.52 19.7171V21.1714H16.5355Z" fill="#274247"/>
<path d="M3.26712 8.04317C2.45827 8.26872 1.76608 8.34649 1.29166 8.23761C1.06612 8.18317 0.902793 8.09762 0.825018 7.9654C0.405038 7.27321 1.84386 5.00998 5.18037 2.8712C7.22583 1.57237 9.35684 0.763519 10.6479 0.763519C10.819 0.763519 10.9901 0.779074 11.1301 0.810184C11.3556 0.864626 11.519 0.950177 11.5967 1.08239C12.0167 1.77458 10.5779 4.03781 7.24138 6.1766C5.86478 7.05544 4.44151 7.70875 3.26712 8.04317Z" fill="white"/>
<path d="M3.21277 8.83646L4.07607 10.2208C3.49276 10.3453 2.98723 10.3686 2.61391 10.2908C2.38059 10.2364 2.22504 10.1508 2.14727 10.0186L1.50952 9.03089C1.59507 9.04645 1.68062 9.04645 1.77395 9.04645C2.19393 9.04645 2.68391 8.97645 3.21277 8.84423V8.83646Z" fill="white"/>
<path d="M13.5801 2.77008L12.2424 0.677955C12.0557 0.366859 11.7368 0.164646 11.3013 0.0635398C9.90137 -0.247557 7.3426 0.600181 4.78383 2.23344C1.91397 4.0689 -0.644799 6.77544 0.148497 8.27648C0.164051 8.30759 0.179606 8.3387 0.195161 8.36981H0.187384L1.49399 10.4308C1.68842 10.7341 1.99952 10.9364 2.43505 11.0297C2.62949 11.0764 2.85503 11.0997 3.08836 11.0997C3.57056 11.0997 4.14608 11.0064 4.77605 10.8353C6.02822 10.493 7.49815 9.81641 8.97585 8.88312C11.9079 7.0321 14.5056 4.26334 13.5801 2.78563V2.77008ZM5.18826 2.87118C7.23372 1.57236 9.36473 0.763507 10.6558 0.763507C10.8269 0.763507 10.998 0.779061 11.138 0.810171C11.3635 0.864613 11.5268 0.950164 11.6046 1.08238C12.0246 1.77457 10.5858 4.0378 7.24927 6.17658C5.87267 7.05543 4.4494 7.70873 3.27501 8.04316C2.46616 8.26871 1.77397 8.34648 1.29955 8.2376C1.07401 8.18316 0.910683 8.0976 0.832909 7.96539C0.412928 7.2732 1.85175 5.00997 5.18826 2.87118ZM2.61393 10.2831C2.38061 10.2286 2.22506 10.1431 2.14729 10.0108L1.50954 9.02312C1.59509 9.03867 1.68065 9.03867 1.77397 9.03867C2.19395 9.03867 2.68393 8.96867 3.2128 8.83646L4.07609 10.2208C3.49278 10.3453 2.98725 10.3686 2.61393 10.2908V10.2831ZM8.57143 8.22982C7.29594 9.03867 5.966 9.66086 4.84605 10.0108L3.95943 8.61869C5.09493 8.24537 6.36265 7.63096 7.64592 6.80655C9.77693 5.44551 11.7368 3.60226 12.2735 2.12455L12.9501 3.18228C13.3779 3.86669 11.9235 6.11436 8.57921 8.22982H8.57143Z" fill="#274247"/>
</g>
<defs>
<clipPath id="clip0_10891_7526">
<rect width="27.9987" height="27.9987" fill="white" transform="translate(0.000732422 0.00132751)"/>
</clipPath>
</defs>
</svg>
