<svg width="28" height="28" viewBox="0 0 28 28" fill="none" xmlns="http://www.w3.org/2000/svg">
<g clip-path="url(#clip0_8826_1537)">
<path d="M13.6111 17.2518V14.8157C13.6111 14.6021 13.7852 14.429 14 14.429C14.2148 14.429 14.3889 14.6021 14.3889 14.8157V17.2518C14.3887 17.4652 14.2146 17.6384 14 17.6384C13.7853 17.6384 13.6112 17.4652 13.6111 17.2518Z" fill="#274247"/>
<path d="M13.6392 17.1072C13.7194 16.9091 13.9458 16.8132 14.1451 16.8928L16.603 17.8745C16.8022 17.9541 16.8986 18.1793 16.8187 18.3774C16.7386 18.5755 16.5121 18.6721 16.3129 18.5926L13.855 17.6102C13.6557 17.5305 13.5592 17.3053 13.6392 17.1072Z" fill="#274247"/>
<path d="M13.855 16.8928C14.0543 16.8132 14.2808 16.9092 14.3609 17.1073C14.4409 17.3053 14.3443 17.5305 14.1452 17.6102L11.6873 18.5926C11.488 18.6722 11.2615 18.5755 11.1814 18.3774C11.1015 18.1794 11.1979 17.9541 11.3971 17.8745L13.855 16.8928Z" fill="#274247"/>
<path d="M20.1366 8.2584C20.1366 6.94384 17.9743 6.58814 17.3521 6.51082C17.2432 6.49535 17.1421 6.53401 17.0643 6.59587L14.4899 8.73009C14.3421 8.84608 14.1399 8.84608 13.9921 8.73009L11.4177 6.59587C11.3321 6.52628 11.231 6.49535 11.1299 6.51082C10.5077 6.58814 8.34546 6.94384 8.34546 8.2584V12.4572C8.34546 12.6738 8.51657 12.8439 8.73435 12.8439H19.7477C19.9655 12.8439 20.1366 12.6738 20.1366 12.4572V8.2584Z" fill="#274247"/>
<path d="M14.2487 5.75301C15.7392 5.75301 16.9476 4.55168 16.9476 3.06977C16.9476 1.58786 15.7392 0.386536 14.2487 0.386536C12.7581 0.386536 11.5498 1.58786 11.5498 3.06977C11.5498 4.55168 12.7581 5.75301 14.2487 5.75301Z" fill="white"/>
<path d="M16.5592 3.06957C16.5591 1.80129 15.5244 0.773176 14.2487 0.773176C12.9731 0.77329 11.939 1.80136 11.9389 3.06957C11.9389 4.33788 12.973 5.3666 14.2487 5.36671C15.5245 5.36671 16.5592 4.33795 16.5592 3.06957ZM17.337 3.06957C17.337 4.76501 15.954 6.13998 14.2487 6.13998C12.5435 6.13987 11.1611 4.76494 11.1611 3.06957C11.1612 1.37429 12.5435 2.24207e-05 14.2487 -9.15527e-05C15.954 -9.15527e-05 17.3369 1.37422 17.337 3.06957Z" fill="#274247"/>
<path d="M10.2976 11.9858V11.1272C10.2976 10.9137 10.4717 10.7406 10.6865 10.7406C10.9013 10.7406 11.0754 10.9137 11.0754 11.1272V11.9858C11.0752 12.1992 10.9012 12.3725 10.6865 12.3725C10.4718 12.3725 10.2978 12.1992 10.2976 11.9858Z" fill="white"/>
<path d="M11.0754 11.9855V12.8441H10.2976V11.9855H11.0754Z" fill="white"/>
<path d="M17.4143 11.9858V11.1272C17.4143 10.9137 17.5884 10.7406 17.8032 10.7406C18.018 10.7406 18.1921 10.9137 18.1921 11.1272V11.9858C18.1919 12.1992 18.0179 12.3725 17.8032 12.3725C17.5885 12.3725 17.4145 12.1992 17.4143 11.9858Z" fill="white"/>
<path d="M18.1921 11.9855V12.8441H17.4143V11.9855H18.1921Z" fill="white"/>
<path d="M11.7911 23.4144C11.7911 22.0999 9.62889 21.7442 9.00667 21.6669C8.89778 21.6514 8.79667 21.69 8.71889 21.7519L6.14444 23.8861C5.99667 24.0021 5.79444 24.0021 5.64667 23.8861L3.07222 21.7519C2.98667 21.6823 2.88556 21.6514 2.78444 21.6669C2.16222 21.7442 0 22.0999 0 23.4144V27.6133C0 27.8298 0.171111 27.9999 0.388889 27.9999H11.4022C11.62 27.9999 11.7911 27.8298 11.7911 27.6133V23.4144Z" fill="#274247"/>
<path d="M5.89567 20.9168C7.38622 20.9168 8.59456 19.7155 8.59456 18.2335C8.59456 16.7516 7.38622 15.5503 5.89567 15.5503C4.40511 15.5503 3.19678 16.7516 3.19678 18.2335C3.19678 19.7155 4.40511 20.9168 5.89567 20.9168Z" fill="white"/>
<path d="M8.20597 18.2333C8.20586 16.9651 7.17113 15.9369 5.89543 15.9369C4.61982 15.9371 3.58575 16.9651 3.58564 18.2333C3.58564 19.5016 4.61975 20.5304 5.89543 20.5305C7.1712 20.5305 8.20597 19.5017 8.20597 18.2333ZM8.98375 18.2333C8.98375 19.9288 7.60076 21.3038 5.89543 21.3038C4.19019 21.3036 2.80786 19.9287 2.80786 18.2333C2.80798 16.5381 4.19026 15.1638 5.89543 15.1637C7.60069 15.1637 8.98364 16.538 8.98375 18.2333Z" fill="#274247"/>
<path d="M1.94434 27.1413V26.291C1.94434 26.0775 2.11845 25.9044 2.33322 25.9044C2.548 25.9044 2.72211 26.0775 2.72211 26.291V27.1413C2.72211 27.3548 2.548 27.5279 2.33322 27.5279C2.11845 27.5279 1.94434 27.3548 1.94434 27.1413Z" fill="white"/>
<path d="M2.72211 27.1416V28.0002H1.94434V27.1416H2.72211Z" fill="white"/>
<path d="M9.06885 27.1413V26.291C9.06885 26.0775 9.24296 25.9044 9.45774 25.9044C9.67251 25.9044 9.84663 26.0775 9.84663 26.291V27.1413C9.84663 27.3548 9.67251 27.5279 9.45774 27.5279C9.24296 27.5279 9.06885 27.3548 9.06885 27.1413Z" fill="white"/>
<path d="M9.84663 27.1416V28.0002H9.06885V27.1416H9.84663Z" fill="white"/>
<path d="M28.0001 23.4144C28.0001 22.0999 25.8379 21.7442 25.2156 21.6669C25.1068 21.6514 25.0057 21.69 24.9279 21.7519L22.3534 23.8861C22.2057 24.0021 22.0034 24.0021 21.8557 23.8861L19.2812 21.7519C19.1957 21.6823 19.0945 21.6514 18.9934 21.6669C18.3712 21.7442 16.209 22.0999 16.209 23.4144V27.6133C16.209 27.8298 16.3801 27.9999 16.5979 27.9999H27.6112C27.829 27.9999 28.0001 27.8298 28.0001 27.6133V23.4144Z" fill="#274247"/>
<path d="M22.1047 20.9168C23.5952 20.9168 24.8035 19.7155 24.8035 18.2335C24.8035 16.7516 23.5952 15.5503 22.1047 15.5503C20.6141 15.5503 19.4058 16.7516 19.4058 18.2335C19.4058 19.7155 20.6141 20.9168 22.1047 20.9168Z" fill="white"/>
<path d="M24.415 18.2333C24.4148 16.9651 23.3801 15.9369 22.1044 15.9369C20.8288 15.9371 19.7947 16.9651 19.7946 18.2333C19.7946 19.5016 20.8287 20.5304 22.1044 20.5305C23.3802 20.5305 24.415 19.5017 24.415 18.2333ZM25.1927 18.2333C25.1927 19.9288 23.8097 21.3038 22.1044 21.3038C20.3992 21.3036 19.0168 19.9287 19.0168 18.2333C19.017 16.5381 20.3992 15.1638 22.1044 15.1637C23.8097 15.1637 25.1926 16.538 25.1927 18.2333Z" fill="#274247"/>
<path d="M18.1533 27.1413V26.291C18.1533 26.0775 18.3274 25.9044 18.5422 25.9044C18.757 25.9044 18.9311 26.0775 18.9311 26.291V27.1413C18.9311 27.3548 18.757 27.5279 18.5422 27.5279C18.3274 27.5279 18.1533 27.3548 18.1533 27.1413Z" fill="white"/>
<path d="M18.9311 27.1416V28.0002H18.1533V27.1416H18.9311Z" fill="white"/>
<path d="M25.2778 27.1413V26.291C25.2778 26.0775 25.4519 25.9044 25.6667 25.9044C25.8815 25.9044 26.0556 26.0775 26.0556 26.291V27.1413C26.0556 27.3548 25.8815 27.5279 25.6667 27.5279C25.4519 27.5279 25.2778 27.3548 25.2778 27.1413Z" fill="white"/>
<path d="M26.0556 27.1416V28.0002H25.2778V27.1416H26.0556Z" fill="white"/>
</g>
<defs>
<clipPath id="clip0_8826_1537">
<rect width="28" height="28" fill="white"/>
</clipPath>
</defs>
</svg>
