<svg width="28" height="28" viewBox="0 0 28 28" fill="none" xmlns="http://www.w3.org/2000/svg">
<g clip-path="url(#clip0_8826_1597)">
<path d="M23.9591 20.0986V26.1052L6.0618 26.0132L4.9418 25.3995L4.25315 24.4099L4.04126 23.3206L5.12342 21.1266L6.22829 20.4592L23.9591 20.0986Z" fill="white"/>
<path d="M27.6216 10.5863C27.8306 10.5863 28 10.758 28 10.9699C28 11.1817 27.8306 11.3534 27.6216 11.3534H0.378378C0.169406 11.3534 0 11.1817 0 10.9699C0 10.758 0.169406 10.5863 0.378378 10.5863H27.6216Z" fill="#274247"/>
<path d="M23.9589 0.38356H6.75781V20.6049H23.9589V0.38356Z" fill="#274247"/>
<path d="M23.9592 0C24.168 0.000194395 24.3376 0.171846 24.3376 0.383562V20.6052C24.3374 20.8168 24.1679 20.9886 23.9592 20.9888H6.75777C6.54889 20.9888 6.37954 20.8169 6.37939 20.6052V0.383562C6.37939 0.171726 6.5488 0 6.75777 0H23.9592ZM7.13615 20.2216H23.5808V0.767123H7.13615V20.2216Z" fill="#274247"/>
<path d="M23.959 20.2214L24.0351 20.2289C24.2076 20.2646 24.3374 20.4195 24.3374 20.6049V26.1126C24.3374 26.3244 24.1679 26.4962 23.959 26.4962H6.75756C4.92168 26.496 3.45574 24.8706 3.68841 22.9662C3.88096 21.358 5.30896 20.2214 6.86398 20.2214H23.959ZM6.63784 20.999C5.51945 21.1009 4.57153 21.9506 4.43925 23.0599V23.0606C4.2633 24.5007 5.36992 25.7289 6.75756 25.7291H23.5806V20.9885H6.86398L6.63784 20.999Z" fill="#274247"/>
<path d="M4.04126 23.3206V3.13753C4.04126 1.61863 5.25964 0.38356 6.75802 0.38356V20.5666C5.25964 20.5666 4.04126 21.8016 4.04126 23.3206Z" fill="white"/>
<path d="M3.66284 23.3209V3.13742C3.66291 1.40677 5.0506 6.50122e-05 6.75786 0C6.96683 0 7.13624 0.171726 7.13624 0.383562V20.5662C7.13624 20.7781 6.96683 20.9498 6.75786 20.9498C5.46851 20.9499 4.4196 22.0138 4.4196 23.3209L4.41221 23.398C4.37689 23.5728 4.22404 23.7044 4.04122 23.7044C3.8584 23.7044 3.70555 23.5728 3.67023 23.398L3.66284 23.3209ZM4.4196 21.2674C4.90947 20.6948 5.59984 20.3034 6.37948 20.2067V0.798588C5.26949 0.982507 4.41966 1.96102 4.4196 3.13742V21.2674Z" fill="#274247"/>
<path d="M13.0542 22.9754C13.2631 22.9755 13.4326 23.1472 13.4326 23.3589C13.4326 23.5707 13.2631 23.7424 13.0542 23.7425H6.94698C6.73801 23.7425 6.5686 23.5708 6.5686 23.3589C6.5686 23.1471 6.73801 22.9754 6.94698 22.9754H13.0542Z" fill="#274247"/>
<path d="M14.1871 7.04443C14.3948 7.02206 14.581 7.17472 14.6032 7.38529C14.6252 7.59582 14.4747 7.78457 14.2669 7.80705C13.977 7.83854 13.6505 8.00391 13.3816 8.25504C13.1113 8.50755 12.9461 8.80145 12.9145 9.04389L12.9153 9.04464C12.8601 9.5015 12.9675 9.89509 13.2744 10.2995C13.5942 10.7207 14.1319 11.1554 14.9439 11.6539H14.9446C15.4792 11.9814 16.0198 12.3523 16.4581 12.7649C16.8926 13.1739 17.2593 13.6541 17.3945 14.207C17.671 15.3383 16.8269 16.593 15.4908 16.593C14.4174 16.593 13.5915 15.782 13.5915 14.8056C13.5915 14.5937 13.7609 14.422 13.9699 14.422C14.1788 14.422 14.3482 14.5937 14.3482 14.8056C14.3483 15.3172 14.7935 15.8258 15.4908 15.8259C16.3189 15.8259 16.8222 15.055 16.6599 14.3913C16.5756 14.0467 16.3295 13.6905 15.943 13.3267C15.5603 12.9665 15.0709 12.6278 14.5537 12.3109H14.553C13.7161 11.7972 13.0817 11.3031 12.6751 10.7677C12.2556 10.2151 12.0827 9.62249 12.1637 8.95175L12.1644 8.9495C12.2247 8.47152 12.514 8.02227 12.8687 7.69094C13.2258 7.35742 13.6979 7.09739 14.1871 7.04443Z" fill="white"/>
<path d="M16.1112 5.6228C16.1111 5.03318 15.6643 4.49543 14.9613 4.49533C14.1331 4.49533 13.6299 5.26622 13.7922 5.92994C13.8765 6.27444 14.1226 6.63077 14.509 6.99448C14.8918 7.35472 15.3811 7.69346 15.8984 8.01032C16.7354 8.52405 17.3704 9.01802 17.777 9.55355C18.1964 10.1061 18.3694 10.6987 18.2884 11.3695L18.2876 11.371C18.2274 11.849 17.9381 12.2982 17.5833 12.6295C17.2262 12.9631 16.7543 13.2238 16.2649 13.2768C16.0572 13.2992 15.871 13.1465 15.8489 12.9359C15.8267 12.7255 15.9768 12.5368 16.1844 12.5142C16.4745 12.4828 16.8014 12.3168 17.0705 12.0654C17.3417 11.812 17.5061 11.5173 17.5368 11.2743C17.5915 10.8183 17.4841 10.4256 17.1776 10.0218C16.8577 9.60037 16.3194 9.16539 15.5067 8.66657C14.9722 8.33914 14.4321 7.96882 13.9939 7.55634C13.5594 7.14731 13.1928 6.66712 13.0576 6.11423C12.781 4.98289 13.6251 3.72821 14.9613 3.72821C16.1044 3.72831 16.8679 4.63241 16.868 5.6228C16.868 5.83463 16.6986 6.00636 16.4896 6.00636C16.2807 6.00627 16.1112 5.83458 16.1112 5.6228Z" fill="white"/>
<path d="M11.2834 28L9.65632 26.4811L8.0293 28V23.5814H11.2834V28Z" fill="#274247"/>
</g>
<defs>
<clipPath id="clip0_8826_1597">
<rect width="28" height="28" fill="white"/>
</clipPath>
</defs>
</svg>
