<svg width="28" height="28" viewBox="0 0 28 28" fill="none" xmlns="http://www.w3.org/2000/svg">
<path d="M17.8427 26.2808C18.5638 26.2108 22.2919 25.0206 23.082 24.3749C23.8721 23.7293 27.7076 19.6064 27.6155 18.9063C27.5311 18.2451 25.9816 16.9383 24.8463 18.2296C23.734 19.4898 23.3658 19.8554 22.9439 20.4466C22.8058 20.641 22.6141 20.7733 22.3839 20.8433C21.4404 21.1156 19.7145 21.5123 19.0548 21.6679C18.8783 21.7068 18.7019 21.699 18.5255 21.6523C17.8351 21.4423 15.971 20.82 15.1656 20.0732C14.4829 19.4353 14.5979 18.9997 15.8176 18.3851C16.577 18.004 17.6203 17.7162 18.4794 17.1405C19.5303 16.4326 19.0394 14.6979 18.4641 14.7601C17.9271 14.6435 11.729 16.6582 11.2151 17.0783C10.7011 17.4983 8.57627 19.3964 8.57627 19.3964H6.59717V26.2808C6.59717 26.2808 17.114 26.3508 17.8351 26.2808H17.8427Z" fill="white"/>
<path d="M18.2571 14.3755C18.3165 14.3688 18.3973 14.3626 18.4774 14.3702C18.8038 14.3605 19.0405 14.5887 19.174 14.788C19.3252 15.0137 19.4249 15.3085 19.4625 15.6138C19.5369 16.2199 19.3774 17.0023 18.6916 17.4643L18.6909 17.4651C18.2289 17.7746 17.7248 18.0021 17.2563 18.1959C16.8944 18.3455 16.5659 18.4706 16.2712 18.6008L15.9881 18.7337C15.6941 18.8818 15.4843 19.0106 15.3423 19.1242C15.1977 19.2399 15.1519 19.3175 15.1386 19.3544C15.133 19.3698 15.0898 19.4732 15.424 19.7858C15.7738 20.1101 16.3876 20.4317 17.0361 20.705C17.6663 20.9706 18.2853 21.1732 18.6257 21.2771C18.7176 21.301 18.8045 21.3091 18.8886 21.3014L18.9733 21.2877C19.6427 21.1299 21.3435 20.7384 22.2739 20.4703C22.4294 20.4229 22.548 20.3389 22.6327 20.2196L22.6334 20.2188C22.8521 19.9124 23.0595 19.6603 23.3496 19.33L24.5602 17.9702C24.8975 17.5867 25.2853 17.377 25.6868 17.3131C26.0826 17.2502 26.4617 17.3339 26.7835 17.4818C27.1045 17.6293 27.3837 17.8472 27.5911 18.0789C27.7891 18.3001 27.9597 18.5771 27.9956 18.8553L28.0001 18.9525C27.9971 19.0478 27.974 19.1354 27.9514 19.2024C27.9185 19.2997 27.8704 19.4013 27.8158 19.5025C27.7063 19.7055 27.5501 19.9427 27.3664 20.1961C26.9974 20.7048 26.4932 21.3159 25.967 21.919C24.9214 23.1173 23.7457 24.3323 23.3226 24.6781C23.0786 24.8774 22.6513 25.0909 22.1817 25.2934C21.6983 25.5018 21.1259 25.7164 20.5599 25.9118C19.9935 26.1073 19.4282 26.2856 18.9575 26.4192C18.4994 26.5493 18.0992 26.647 17.8796 26.6684C17.8675 26.6696 17.855 26.6699 17.8429 26.6699H17.8384C17.5897 26.6877 16.7985 26.6965 15.7761 26.6995C14.6875 26.7028 13.3042 26.7001 11.9443 26.6957C10.5844 26.6914 9.24705 26.6853 8.24971 26.6798C7.75101 26.6771 7.33719 26.6747 7.04814 26.673C6.90377 26.6721 6.79051 26.6712 6.71328 26.6707C6.67466 26.6704 6.64482 26.67 6.62489 26.6699H6.59492C6.38412 26.6685 6.21368 26.4947 6.21362 26.281V19.3961C6.21381 19.1815 6.38546 19.0072 6.59717 19.0072H8.4325C8.49048 18.9555 8.56912 18.8851 8.66323 18.8013C8.87064 18.6166 9.15245 18.3655 9.45054 18.1017C10.0432 17.5771 10.7099 16.9913 10.9742 16.7753C11.0397 16.7218 11.1247 16.6743 11.202 16.6348C11.2859 16.5918 11.3876 16.545 11.5016 16.4957C11.73 16.3969 12.0233 16.2818 12.3571 16.1577C13.0255 15.9091 13.8705 15.6191 14.7146 15.3471C15.5585 15.0752 16.4062 14.8195 17.0788 14.6384C17.4144 14.548 17.7114 14.475 17.9447 14.4279C18.0609 14.4045 18.1669 14.3857 18.2571 14.3755ZM18.3837 15.1405C18.4166 15.1476 18.4161 15.1406 18.3425 15.1489C18.2828 15.1556 18.2001 15.1694 18.0946 15.1906C17.8842 15.233 17.6047 15.3011 17.2758 15.3897C16.6191 15.5666 15.7838 15.8189 14.9468 16.0886C14.1101 16.3582 13.2758 16.6441 12.6208 16.8877C12.293 17.0096 12.0138 17.12 11.8028 17.2113C11.697 17.2571 11.6117 17.2965 11.5481 17.3291C11.4814 17.3633 11.457 17.3808 11.4559 17.3815C11.2063 17.5856 10.5536 18.1587 9.95545 18.6881C9.65819 18.9512 9.37666 19.2012 9.16963 19.3855C9.06613 19.4776 8.9807 19.5531 8.92167 19.6058C8.89216 19.6321 8.86915 19.6534 8.8535 19.6673C8.8458 19.6742 8.8395 19.6797 8.83552 19.6833C8.83369 19.6849 8.83198 19.6862 8.83103 19.6871L8.82953 19.6886C8.75954 19.751 8.66953 19.7851 8.57633 19.7851H6.98072V25.8943C7.00374 25.8944 7.02772 25.8949 7.05263 25.8951C7.34148 25.8968 7.75508 25.8992 8.25346 25.9019C9.25043 25.9074 10.5874 25.9135 11.9466 25.9178C13.306 25.9222 14.6877 25.9249 15.7738 25.9216C16.8749 25.9183 17.6414 25.9088 17.7987 25.8935L17.8084 25.8928C17.9506 25.8785 18.2854 25.8016 18.7508 25.6694C19.2065 25.5401 19.7583 25.3671 20.3127 25.1757C20.8677 24.9841 21.421 24.7755 21.8813 24.577C22.3554 24.3726 22.6907 24.1953 22.8417 24.0719C23.2091 23.7715 24.3461 22.6023 25.3924 21.4032C25.9123 20.8074 26.3993 20.2162 26.7483 19.7349C26.9235 19.4934 27.0574 19.2884 27.1431 19.1295C27.1861 19.0498 27.2119 18.9904 27.2255 18.9502C27.2274 18.9448 27.2281 18.9398 27.2293 18.9358C27.2132 18.8738 27.1571 18.7511 27.0233 18.6015C26.881 18.4426 26.6854 18.2903 26.4667 18.1898C26.2488 18.0898 26.0217 18.0474 25.8052 18.0819C25.5945 18.1155 25.3626 18.2266 25.1325 18.4883L25.1317 18.4891C24.0038 19.767 23.6605 20.1043 23.2545 20.6731L23.2552 20.6739C23.0639 20.9434 22.7986 21.1229 22.4941 21.2155L22.4889 21.2178C21.5337 21.4934 19.7946 21.8927 19.1418 22.0466L19.1366 22.0481C18.8952 22.1013 18.6571 22.0888 18.4287 22.0284C18.4242 22.0272 18.4196 22.0259 18.4152 22.0246C18.063 21.9174 17.411 21.705 16.7417 21.4229C16.0842 21.1459 15.3628 20.7826 14.9071 20.3601L14.9056 20.3594C14.5588 20.0354 14.2319 19.6023 14.4179 19.0869C14.5004 18.8585 14.6691 18.672 14.8674 18.5134C15.0686 18.3525 15.3315 18.1962 15.6472 18.0371V18.0363C16.0435 17.8374 16.5226 17.6592 16.9664 17.4757C17.4237 17.2866 17.8701 17.082 18.2669 16.8163C18.6318 16.5705 18.7533 16.132 18.7014 15.7095C18.6756 15.5006 18.6093 15.329 18.5395 15.2248C18.5067 15.1758 18.4832 15.1559 18.4721 15.1481C18.4425 15.1487 18.4128 15.1468 18.3837 15.1405Z" fill="#274247"/>
<path d="M6.45892 17.1795H0.383546C0.171719 17.1795 0 17.3536 0 17.5684V27.6111C0 27.8259 0.171719 28 0.383546 28H6.45892C6.67075 28 6.84246 27.8259 6.84246 27.6111V17.5684C6.84246 17.3536 6.67075 17.1795 6.45892 17.1795Z" fill="#274247"/>
<path d="M3.42098 20.6174C3.95902 20.6174 4.39519 20.1787 4.39519 19.6374C4.39519 19.0962 3.95902 18.6574 3.42098 18.6574C2.88294 18.6574 2.44678 19.0962 2.44678 19.6374C2.44678 20.1787 2.88294 20.6174 3.42098 20.6174Z" fill="white"/>
<path d="M20.0057 0.804744C18.5252 -0.424332 16.3313 -0.198742 14.9735 1.16258L14.2908 1.8549L13.6081 1.16258C12.2504 -0.198742 10.0565 -0.424332 8.57599 0.804744C6.88072 2.21274 6.78867 4.7409 8.30751 6.26557L9.10529 7.06681L13.7539 11.742C14.053 12.0453 14.5363 12.0453 14.8355 11.742L19.484 7.06681L20.2818 6.26557C21.8007 4.7409 21.7086 2.21274 20.0133 0.804744H20.0057Z" fill="#274247"/>
</svg>
