<svg width="28" height="28" viewBox="0 0 28 28" fill="none" xmlns="http://www.w3.org/2000/svg">
<g clip-path="url(#clip0_8826_1617)">
<path d="M13.9998 4.06C15.0179 4.06 15.8432 3.23819 15.8432 2.22444C15.8432 1.21069 15.0179 0.388885 13.9998 0.388885C12.9818 0.388885 12.1565 1.21069 12.1565 2.22444C12.1565 3.23819 12.9818 4.06 13.9998 4.06Z" fill="white"/>
<path d="M13.9998 0.777778C14.8009 0.777778 15.4542 1.43111 15.4542 2.22444C15.4542 3.01778 14.8009 3.67111 13.9998 3.67111C13.1987 3.67111 12.5454 3.01778 12.5454 2.22444C12.5454 1.43111 13.1987 0.777778 13.9998 0.777778ZM13.9998 0C12.7631 0 11.7676 0.995555 11.7676 2.22444C11.7676 3.45333 12.7709 4.44889 13.9998 4.44889C15.2287 4.44889 16.232 3.45333 16.232 2.22444C16.232 0.995555 15.2287 0 13.9998 0Z" fill="#274247"/>
<path d="M27.9533 13.9689L25.9311 11.9233C25.9311 11.9233 25.8611 11.8767 25.8222 11.8767H23.6444C23.6056 11.8767 23.5667 11.8611 23.5356 11.8378L16.6133 5.48333C16.6133 5.48333 16.5433 5.44444 16.5044 5.44444H11.5111C11.4644 5.44444 11.4178 5.46778 11.3867 5.50666L8.26 9.74555C8.19778 9.83111 8.06556 9.83111 8.00333 9.74555L7.06222 8.29111C7.03111 8.24444 6.98444 8.22111 6.93 8.22111H5.83333C5.79444 8.22111 5.75556 8.23667 5.72444 8.26778L0.0466667 13.9456C-0.0155556 14.0078 -0.0155556 14.1089 0.0466667 14.1633L13.9222 27.9533C13.9844 28.0156 14.0856 28.0156 14.14 27.9533L27.9533 14.1867C28.0156 14.1244 28.0156 14.0311 27.9533 13.9689Z" fill="#274247"/>
<path d="M11.4721 5.65447L9.91659 7.63002C9.8777 7.67669 9.86992 7.74669 9.90103 7.80113L10.3599 8.60224C10.4066 8.68002 10.4999 8.70335 10.5777 8.65669L11.5266 8.08891C11.5266 8.08891 11.5966 8.06558 11.6355 8.06558L12.7866 8.2678C12.8255 8.2678 12.8721 8.2678 12.9033 8.24447L14.4744 7.12447C14.5521 7.07002 14.661 7.09335 14.6999 7.17891L15.4466 8.60224C15.4855 8.68002 15.5788 8.71113 15.6566 8.66447L16.8155 8.05002C16.8544 8.02669 16.9088 8.02669 16.9477 8.05002L17.9044 8.44669C17.9433 8.46224 17.9899 8.46224 18.0288 8.44669L19.1021 7.98002L16.551 5.56113C16.551 5.56113 16.481 5.51447 16.4421 5.51447L11.5888 5.60002C11.5421 5.60002 11.4955 5.62335 11.4721 5.66224V5.65447Z" fill="white"/>
<path d="M16.2634 6.22222L21.4589 10.9978L8.75003 10.36C8.79669 10.3133 8.84336 10.2667 8.88225 10.2122L11.8222 6.22222H16.2634ZM6.67336 9.12333L7.35003 10.1656C7.38114 10.2122 7.41225 10.2511 7.45114 10.29L6.82892 10.2589L6.68114 9.12333M16.5045 5.44444H11.5111C11.4645 5.44444 11.4178 5.46778 11.3867 5.50666L8.26003 9.74555C8.22892 9.78444 8.18225 9.80778 8.13558 9.80778C8.08892 9.80778 8.03447 9.78444 8.00336 9.73778L7.06225 8.28333C7.03114 8.23666 6.98447 8.21333 6.93003 8.21333H5.95003C5.85669 8.21333 5.77892 8.29889 5.79447 8.39222L6.12114 10.8733C6.12892 10.9511 6.19114 11.0056 6.26892 11.0056L23.1467 11.8533C23.1467 11.8533 23.1467 11.8533 23.1545 11.8533C23.2945 11.8533 23.3645 11.6822 23.2634 11.5811L16.6134 5.48333C16.6134 5.48333 16.5434 5.44444 16.5045 5.44444Z" fill="#274247"/>
<path d="M9.69112 19.7944C9.69112 19.7944 9.53557 19.8255 9.49668 19.7322C9.45001 19.6311 9.45779 19.5222 9.52001 19.4289C9.55112 19.3822 9.61335 19.3433 9.67557 19.3278C9.79223 19.2967 9.91668 19.2811 10.0411 19.2733C10.36 19.2578 10.3289 19.2033 10.3911 18.9544C10.4767 18.6511 10.5 18.3322 10.5622 18.0133C10.5933 17.8655 10.64 17.7255 10.6711 17.5778C10.71 17.4067 10.7645 17.2355 10.7722 17.0644C10.78 16.94 10.7411 16.8078 10.71 16.6833C10.7022 16.6444 10.6478 16.6055 10.6089 16.5978C10.4845 16.5667 10.3522 16.5433 10.22 16.5355C10.0878 16.5355 9.95557 16.5278 9.64446 16.5589C9.33335 16.59 9.1389 16.8078 8.98335 16.9089C8.77335 17.0567 8.61001 17.0567 8.50112 16.9555C8.3689 16.87 8.31446 16.8155 8.18223 16.7222C8.09668 16.66 8.09668 16.5822 8.15112 16.4967C8.25223 16.3333 8.36112 16.1778 8.45446 16.0144C8.50112 15.9211 8.53223 15.82 8.55557 15.7189C8.62557 15.3844 8.9989 14.9878 9.23223 14.7622C9.35668 14.6455 9.47335 14.5133 9.59001 14.3889C9.68335 14.2955 9.81557 14.2333 9.80779 14.1011C9.80779 13.9844 9.80779 13.93 9.89335 13.8444C9.9789 13.7589 10.1111 13.72 10.2122 13.8444C10.2278 13.86 10.2433 13.8755 10.2511 13.8989C10.3289 14.0933 10.4222 14.1089 10.6167 14.0389C11.0989 13.8755 11.5656 13.6733 12.0556 13.5411C12.1411 13.5178 12.2345 13.51 12.3278 13.5178C12.9345 13.5644 13.5489 13.5022 14.1633 13.4944C14.2878 13.4944 14.4122 13.4789 14.5367 13.4633C14.7233 13.4478 14.91 13.4478 15.0889 13.4244C15.5089 13.3778 15.9133 13.4244 16.3178 13.5178C17.1967 13.7044 17.92 14.1555 18.55 14.77C18.7678 14.98 18.9311 15.1744 19.1178 15.4778C19.1956 15.5867 19.2189 16.1622 19.1956 16.3333C19.1411 16.8467 19.2189 17.3444 19.3511 17.8422C19.4056 18.0289 19.4989 18.2233 19.67 18.3089C19.7167 18.3322 19.7322 18.3867 19.7711 18.4178C19.9422 18.55 19.9111 18.7133 19.8722 18.9C19.7945 19.2733 19.5222 19.4911 19.2656 19.7244C19.18 19.8022 19.0789 19.8722 18.9856 19.95C18.8533 20.0511 18.7133 19.9967 18.6745 19.8333C18.6433 19.7011 18.6589 19.5844 18.7756 19.4833C18.8533 19.4133 18.9467 19.32 18.97 19.2189C19.0322 19.0089 18.8611 18.8767 18.6745 18.8067C18.2778 18.6744 17.8811 18.5578 17.4922 18.4022C17.1267 18.2544 16.8 18.0289 16.5433 17.71C16.5278 17.6944 16.5122 17.6789 16.4889 17.6789C16.1078 17.6478 15.7345 17.6244 15.3533 17.6011C15.3067 17.6011 15.2522 17.6011 15.2056 17.6011C15.1278 17.6167 15.0733 17.6633 15.0733 17.7567C15.0578 18.1533 15.0267 18.5422 15.0111 18.9389C15.0033 19.2033 14.8945 19.4289 14.7467 19.6389C14.6922 19.7244 14.6222 19.8022 14.5678 19.88C14.4667 20.0278 14.3267 20.09 14.1556 20.09C13.8911 20.09 13.6189 20.09 13.3545 20.0822C13.2845 20.0822 13.1911 20.0978 13.1678 19.9967C13.1367 19.8955 13.1211 19.7789 13.2067 19.7011C13.2689 19.6467 13.3545 19.6078 13.4322 19.6C13.5722 19.5767 13.72 19.5767 13.86 19.5689C13.9611 19.5689 14 19.5067 14.0078 19.4133C14.0389 19.1333 13.93 18.8844 13.8133 18.6433C13.6422 18.27 13.3156 18.0289 13.0433 17.7411C12.9111 17.6011 12.7711 17.4689 12.6233 17.3367C12.5222 17.2511 12.4367 17.2667 12.4211 17.3911C12.3822 17.6011 12.25 17.7644 12.1567 17.9433C12.0245 18.1844 11.8845 18.4178 11.7367 18.6433C11.55 18.9311 11.34 19.2111 11.1456 19.4911C11.1145 19.53 11.0756 19.5611 11.06 19.6078C10.9978 19.7789 10.71 19.7867 10.71 19.7867H9.69112V19.7944Z" fill="white"/>
<path d="M17.0255 18.7678C17.3055 18.9 17.5855 19.0089 17.8733 19.1178C18.0444 19.18 18.2233 19.2189 18.4022 19.2655C18.4878 19.2889 18.4644 19.3667 18.4411 19.4133C18.3867 19.53 18.3167 19.6155 18.2622 19.7089C18.2078 19.8178 18.1378 19.9189 18.0678 20.02C17.9822 20.1367 17.8344 20.1444 17.7955 20.1444C17.3289 20.1678 17.0178 20.1289 16.5511 20.1444C16.4578 20.1444 16.38 20.0355 16.3955 19.9344C16.4267 19.7711 16.5278 19.6233 16.7222 19.6311C16.8078 19.6311 16.8855 19.6311 16.9711 19.6233C17.08 19.6078 17.1111 19.53 17.0489 19.4444C16.8233 19.1255 16.6367 18.7755 16.52 18.4022C16.6211 18.5189 16.7611 18.6278 17.0255 18.7678Z" fill="white"/>
</g>
<defs>
<clipPath id="clip0_8826_1617">
<rect width="28" height="28" fill="white"/>
</clipPath>
</defs>
</svg>
