<svg width="28" height="28" viewBox="0 0 28 28" fill="none" xmlns="http://www.w3.org/2000/svg">
<g clip-path="url(#clip0_8826_1633)">
<path d="M20.8155 3.52637C20.8155 3.52637 23.7771 2.82261 24.859 5.41063C25.9485 7.99866 24.6058 9.08835 24.6058 9.08835C24.6058 9.08835 27.529 9.87536 27.6134 12.8266C27.6978 15.7779 26.0099 16.3757 26.0099 16.3757C26.0099 16.3757 28.1582 17.1627 27.0303 20.5453C25.9024 23.9203 22.3884 23.6176 22.3884 23.6176H22.3577C22.4191 23.2317 22.4114 22.982 22.4114 22.982C22.4114 22.982 22.3194 21.5744 21.1838 20.4847C20.6544 19.9777 19.8872 19.5388 18.7977 19.3496C18.7977 19.3496 19.2196 17.4427 17.5163 16.5649C16.0202 15.8006 14.9997 17.1854 14.9997 17.1854H13.0586V3.61718C13.0586 3.61718 13.0663 0.378365 17.3092 0.378365C19.3271 0.378365 20.547 1.83886 20.8155 3.52637Z" fill="white"/>
<path d="M14.9999 17.1854C14.9999 17.1854 16.0204 15.8006 17.5165 16.5649C19.2198 17.4427 18.7978 19.3496 18.7978 19.3496C19.8873 19.5388 20.6546 19.9777 21.184 20.4847C22.3195 21.5744 22.4116 22.982 22.4116 22.982C22.4116 22.982 22.4193 23.2317 22.3579 23.61C22.1814 24.7754 21.3605 27.2045 17.7313 27.5753C12.9207 28.0672 13.0588 24.4879 13.0588 24.4879V17.1854H14.9999Z" fill="white"/>
<path d="M9.09192 22.8912C9.95891 22.8912 10.6648 23.5798 10.6648 24.4425C10.6648 25.3051 9.95891 25.9938 9.09192 25.9938C8.22492 25.9938 7.51904 25.2976 7.51904 24.4425C7.51904 23.5874 8.22492 22.8912 9.09192 22.8912Z" fill="#274247"/>
<path d="M6.46789 2.0583C7.33489 2.0583 8.04076 2.7545 8.04076 3.61717C8.04076 4.10148 7.81059 4.53282 7.45765 4.82038C7.18911 5.03983 6.84385 5.16847 6.46789 5.16847C5.59322 5.16847 4.89502 4.47228 4.89502 3.61717C4.89502 2.76206 5.59322 2.0583 6.46789 2.0583Z" fill="#274247"/>
<path d="M1.57287 6.32629C2.43987 6.32629 3.14574 7.02248 3.14574 7.87759C3.14574 8.7327 2.43987 9.43646 1.57287 9.43646C0.705874 9.43646 0 8.74026 0 7.87759C0 7.01491 0.705874 6.32629 1.57287 6.32629Z" fill="#274247"/>
<path d="M1.57287 12.5996C2.43987 12.5996 3.14574 13.2958 3.14574 14.1585C3.14574 15.0212 2.43987 15.7098 1.57287 15.7098C0.705874 15.7098 0 15.0136 0 14.1585C0 13.3034 0.705874 12.5996 1.57287 12.5996Z" fill="#274247"/>
<path d="M1.57287 18.6081C2.43987 18.6081 3.14574 19.3043 3.14574 20.1594C3.14574 21.0145 2.43987 21.7107 1.57287 21.7107C0.705874 21.7107 0 21.0221 0 20.1594C0 19.2967 0.698202 18.6081 1.57287 18.6081Z" fill="#274247"/>
<path d="M13.0587 16.9584C13.2706 16.9584 13.4423 17.1278 13.4423 17.3367C13.4423 17.5457 13.2706 17.7151 13.0587 17.7151H8.01985L6.03278 20.3836C5.96054 20.4804 5.84596 20.538 5.72408 20.538H3.14583C2.93408 20.538 2.7624 20.3685 2.76221 20.1597C2.76221 19.9507 2.93396 19.7813 3.14583 19.7813H5.52927L7.51709 17.1128L7.57853 17.0478C7.64697 16.9907 7.7343 16.9584 7.82579 16.9584H13.0587Z" fill="#274247"/>
<path d="M13.0587 13.7801L13.1359 13.7875C13.3108 13.8227 13.4423 13.9755 13.4423 14.1585C13.4423 14.3414 13.3108 14.4943 13.1359 14.5295L13.0587 14.5368H3.14583C2.93396 14.5368 2.76221 14.3674 2.76221 14.1585C2.76221 13.9495 2.93396 13.7801 3.14583 13.7801H13.0587Z" fill="#274247"/>
<path d="M5.85445 7.4992L5.94287 7.50954C6.02866 7.52965 6.10585 7.57844 6.16016 7.64922L8.24688 10.3746H13.0587C13.2705 10.3746 13.4423 10.5441 13.4423 10.753C13.4423 10.962 13.2706 11.1314 13.0587 11.1314H8.05656C7.93631 11.1314 7.82262 11.076 7.75011 10.9813L5.66264 8.25593H3.14583C2.93396 8.25593 2.76221 8.08653 2.76221 7.87757C2.76221 7.6686 2.93396 7.4992 3.14583 7.4992H5.85445Z" fill="#274247"/>
<path d="M7.20992 4.53143C7.37155 4.39648 7.61396 4.41642 7.7509 4.57577L9.68477 6.82601H13.0587C13.2706 6.82601 13.4424 6.99541 13.4424 7.20438C13.4422 7.41321 13.2705 7.58275 13.0587 7.58275H9.50644C9.39388 7.58273 9.2871 7.53359 9.21423 7.44899L7.16497 5.06498C7.02814 4.90558 7.04836 4.66649 7.20992 4.53143Z" fill="#274247"/>
<path d="M18.4226 19.2701L18.4233 19.2693C18.4237 19.2676 18.4239 19.2639 18.4248 19.259C18.4267 19.2488 18.4304 19.2318 18.4338 19.2095C18.4406 19.1647 18.4491 19.0973 18.4548 19.0129C18.4662 18.8428 18.4656 18.6091 18.4188 18.3537C18.3266 17.85 18.0596 17.272 17.3406 16.9008L17.2282 16.8476C16.6734 16.6065 16.2227 16.7269 15.8885 16.9164C15.7047 17.0206 15.557 17.1469 15.4547 17.2482C15.4042 17.2982 15.3662 17.3411 15.3416 17.3701C15.3293 17.3846 15.3198 17.3953 15.3146 17.4019C15.3121 17.405 15.3109 17.4075 15.3101 17.4085V17.4078C15.1855 17.5767 14.9457 17.6141 14.7744 17.4913C14.6032 17.3684 14.5652 17.1319 14.6897 16.9629L14.6904 16.9622V16.9614L14.6919 16.96C14.693 16.9585 14.6948 16.9562 14.6964 16.9541C14.6996 16.9499 14.704 16.9443 14.7092 16.9378C14.7196 16.9245 14.7342 16.9063 14.7526 16.8846C14.7896 16.841 14.8425 16.7815 14.9107 16.7139C15.0465 16.5794 15.2481 16.4066 15.5064 16.2601C16.0012 15.9797 16.7086 15.798 17.5279 16.1508L17.6928 16.2291L17.6943 16.2298C18.6774 16.7366 19.0508 17.5504 19.1733 18.2192C19.2328 18.5436 19.2334 18.8361 19.2198 19.0498C20.2003 19.2797 20.9266 19.7108 21.4511 20.213L21.4519 20.2138C22.0751 20.8119 22.4093 21.4942 22.5878 22.0221C22.6772 22.2867 22.7288 22.5154 22.7579 22.6798C22.7724 22.7621 22.7816 22.829 22.7871 22.8764C22.7898 22.8999 22.7911 22.9189 22.7923 22.9325C22.7929 22.9392 22.7935 22.9446 22.7938 22.9488C22.794 22.9509 22.7945 22.9533 22.7946 22.9547V22.9577L22.7953 22.9702L22.4117 22.982L22.7953 22.971V23.0301C22.795 23.0645 22.794 23.1129 22.7908 23.1734C22.7845 23.2938 22.7695 23.4627 22.7369 23.6649L22.7376 23.6656C22.6431 24.2899 22.3749 25.2632 21.6332 26.1339C20.8833 27.0142 19.6763 27.7571 17.7707 27.9518C15.2564 28.2088 13.9352 27.4003 13.2728 26.4265C12.9526 25.9557 12.8044 25.4714 12.7356 25.1089C12.7011 24.9269 12.6858 24.773 12.6794 24.6625C12.6762 24.6072 12.6751 24.5623 12.6749 24.5302C12.6748 24.5142 12.6747 24.5013 12.6749 24.4918C12.675 24.487 12.6756 24.4831 12.6757 24.48V3.61739C12.6757 3.57707 12.6797 2.68017 13.2713 1.7832C13.8817 0.857973 15.0726 0 17.3099 0C19.5622 0.000181421 20.9043 1.64438 21.1949 3.46589L21.2338 3.76001C21.3857 5.2401 20.8723 6.85479 19.5787 7.90504L19.5779 7.9043C19.1659 8.24378 18.6723 8.52474 18.0981 8.71351C17.8973 8.77939 17.6804 8.67212 17.6134 8.47407C17.5464 8.27592 17.6545 8.06138 17.8554 7.9952C18.3387 7.8363 18.7494 7.6027 19.0887 7.32272L19.0909 7.3205C20.2276 6.39767 20.6569 4.92139 20.4374 3.58709L20.4366 3.58487C20.1895 2.03237 19.0921 0.75691 17.3099 0.756732C15.3044 0.756732 14.3692 1.50709 13.9149 2.19556C13.4513 2.89846 13.4431 3.60708 13.4429 3.61739V24.4881C13.4429 24.4928 13.4423 24.4975 13.4422 24.5022V24.5258C13.4423 24.5459 13.4428 24.5776 13.4452 24.6189C13.45 24.7023 13.4617 24.8242 13.4894 24.9699C13.545 25.2631 13.6632 25.6429 13.9097 26.0053C14.3809 26.6981 15.3959 27.4335 17.692 27.1988C19.4153 27.0227 20.4338 26.3658 21.0458 25.6476C21.6659 24.9197 21.8967 24.0951 21.9786 23.554L21.9794 23.5503C22.0076 23.3762 22.0199 23.2324 22.0251 23.1343C22.0276 23.0856 22.0279 23.0483 22.0281 23.0242C22.0282 23.0121 22.0281 23.0027 22.0281 22.9976C22.0274 22.99 22.0261 22.9784 22.0243 22.9628C22.0204 22.9289 22.0136 22.8765 22.0018 22.8099C21.9782 22.6763 21.935 22.4849 21.8595 22.2615C21.7269 21.8694 21.4968 21.3868 21.0982 20.9432L20.9169 20.7562C20.4441 20.3034 19.7472 19.8987 18.7313 19.7223C18.6285 19.7044 18.5377 19.6459 18.4795 19.5605C18.4216 19.4753 18.4007 19.3704 18.4226 19.2701Z" fill="#274247"/>
<path d="M19.347 7.23436C19.9599 7.2532 20.4295 7.40614 20.7788 7.65485C21.1289 7.9042 21.3289 8.22888 21.4382 8.53943C21.5462 8.84621 21.568 9.14355 21.5648 9.35824C21.5632 9.46671 21.5547 9.55757 21.5468 9.6228C21.5429 9.65552 21.5395 9.68258 21.5364 9.70187C21.5348 9.71128 21.5329 9.7189 21.5319 9.72478C21.5313 9.72777 21.5307 9.73089 21.5304 9.73291C21.5302 9.7337 21.5305 9.7345 21.5304 9.73513L21.5296 9.73661L21.1535 9.66344L21.5296 9.73734C21.4883 9.94219 21.2863 10.0751 21.0785 10.0344C20.871 9.99369 20.7364 9.79505 20.7773 9.59028H20.7766C20.7769 9.58868 20.7781 9.58536 20.7788 9.58068C20.7804 9.57088 20.783 9.55483 20.7856 9.53338C20.7908 9.48996 20.7964 9.42546 20.7976 9.34715C20.7999 9.18801 20.7831 8.98509 20.7136 8.78773C20.6455 8.59421 20.5286 8.41046 20.33 8.26896C20.1306 8.12693 19.8185 8.00631 19.323 7.9911C19.1113 7.98457 18.9448 7.80976 18.9514 7.60091C18.958 7.39206 19.1352 7.22786 19.347 7.23436Z" fill="#274247"/>
<path d="M25.8808 16.019C25.8868 16.0165 25.8985 16.0119 25.9145 16.0042C25.9469 15.9886 25.998 15.9619 26.0614 15.9207C26.1881 15.8382 26.3645 15.6975 26.5417 15.4743C26.8912 15.0338 27.2702 14.2359 27.2303 12.8376C27.1921 11.5032 26.5189 10.6652 25.8434 10.1498C25.5031 9.89025 25.1635 9.71454 24.909 9.60373C24.7822 9.54851 24.6776 9.50976 24.6063 9.48549C24.5708 9.4734 24.5435 9.46488 24.5261 9.45962C24.5175 9.45702 24.511 9.45548 24.5074 9.45445L24.5052 9.45297V9.45371C24.3669 9.41648 24.261 9.30595 24.2309 9.16772C24.2009 9.02944 24.2513 8.88587 24.3621 8.79601L24.3875 8.77162C24.4116 8.74737 24.449 8.70734 24.4924 8.65042C24.5795 8.53632 24.6922 8.35514 24.7772 8.10135C24.9443 7.60181 25.019 6.77601 24.5052 5.55551L24.5044 5.55477C24.0269 4.41243 23.1505 4.0026 22.3675 3.87059C21.9708 3.80374 21.6009 3.81007 21.329 3.83365C21.1938 3.84537 21.0845 3.86166 21.0106 3.87429C20.9736 3.88059 20.9453 3.88612 20.9274 3.88981C20.9187 3.89161 20.9124 3.89268 20.9087 3.8935C20.9068 3.89392 20.9054 3.89413 20.9049 3.89424H20.9057C20.6997 3.94319 20.4922 3.81805 20.4426 3.6149C20.3931 3.41179 20.5199 3.20714 20.7258 3.1582L20.7678 3.32891L20.7266 3.1582H20.7281L20.7401 3.15525C20.7476 3.15358 20.7579 3.15126 20.7708 3.1486C20.7967 3.14325 20.8334 3.1365 20.8794 3.12864C20.9716 3.1129 21.1024 3.09368 21.2616 3.07987C21.5788 3.05236 22.0175 3.04425 22.4964 3.12495C23.4646 3.28811 24.6097 3.82107 25.214 5.26656H25.2132C25.7885 6.63357 25.7371 7.64637 25.5054 8.33857C25.4271 8.57259 25.3282 8.76416 25.2327 8.9172C25.5274 9.04649 25.9182 9.24994 26.3132 9.55126C27.1204 10.1672 27.9505 11.1993 27.9968 12.8161C28.0411 14.3685 27.6189 15.3451 27.1456 15.9414C27.0028 16.1212 26.8561 16.2617 26.7223 16.3729C26.9005 16.5199 27.0959 16.7212 27.2677 16.99C27.7086 17.6796 27.9545 18.7466 27.4963 20.3384L27.3951 20.6635C26.7861 22.486 25.5193 23.3283 24.4115 23.7045C23.8627 23.8909 23.3539 23.9637 22.9826 23.9898C22.7966 24.0028 22.6435 24.0042 22.5353 24.0023C22.4812 24.0014 22.4376 23.9995 22.4072 23.9979C22.3921 23.9971 22.3799 23.9963 22.3712 23.9957C22.367 23.9954 22.3634 23.9952 22.3607 23.9949H22.3563L22.3555 23.9942C22.1445 23.976 21.988 23.7929 22.0063 23.5848C22.0247 23.3771 22.2102 23.223 22.4207 23.2404H22.4214C22.4221 23.2405 22.4237 23.241 22.4259 23.2412C22.4305 23.2415 22.4384 23.2421 22.4492 23.2426C22.4707 23.2438 22.5047 23.2448 22.5488 23.2456C22.6372 23.2471 22.7673 23.2458 22.9279 23.2345C23.2508 23.2119 23.6914 23.149 24.162 22.9892C25.0931 22.6729 26.1473 21.9793 26.6661 20.4271C27.2027 18.8176 26.9408 17.8971 26.6189 17.3935C26.4531 17.1343 26.259 16.965 26.1086 16.8614C26.0335 16.8096 25.9696 16.7753 25.9273 16.7543C25.9062 16.7438 25.8905 16.7366 25.8816 16.7328C25.8794 16.7319 25.8777 16.7312 25.8763 16.7306L25.8224 16.7055C25.7021 16.639 25.6253 16.5127 25.6261 16.3737C25.6268 16.2345 25.705 16.1085 25.8261 16.0433L25.8786 16.0197C25.8792 16.0195 25.8801 16.0193 25.8808 16.019Z" fill="#274247"/>
<path d="M15.5869 20.4394C16.5969 20.4727 17.1902 20.9882 17.5156 21.5183C17.6836 21.7921 17.7782 22.0647 17.831 22.2662C17.8576 22.3677 17.8742 22.4534 17.8842 22.5152C17.8892 22.5461 17.8932 22.5715 17.8955 22.5899L17.8985 22.6194V22.6231C17.8954 22.6236 17.8638 22.6263 17.5336 22.6549L17.8985 22.6239C17.9168 22.8319 17.761 23.015 17.55 23.0333C17.339 23.0515 17.1527 22.8978 17.1342 22.6896H17.1334C17.1333 22.688 17.1339 22.6848 17.1334 22.6808C17.1323 22.6713 17.1301 22.6557 17.1267 22.635C17.1199 22.5931 17.1083 22.5309 17.0885 22.4554C17.0485 22.3026 16.978 22.1035 16.8592 21.91C16.6328 21.5412 16.2224 21.1703 15.4041 21.1954L15.4049 21.1961C14.5633 21.2254 14.0817 21.6121 13.7999 21.9876C13.6557 22.1799 13.5622 22.3721 13.5055 22.516C13.4774 22.5873 13.459 22.6457 13.4478 22.6845C13.4422 22.7036 13.4387 22.718 13.4365 22.7266C13.4355 22.7309 13.4346 22.7342 13.4343 22.7355V22.7347C13.3906 22.9389 13.1874 23.0694 12.9802 23.0266C12.7729 22.9837 12.6401 22.7833 12.6835 22.5788V22.5773C12.6837 22.5766 12.6841 22.5753 12.6843 22.5744C12.6847 22.5725 12.6852 22.5703 12.6858 22.5677C12.687 22.5623 12.6888 22.555 12.691 22.5463C12.6953 22.5289 12.7013 22.5051 12.7097 22.4761C12.7267 22.4178 12.753 22.3374 12.7907 22.2418C12.8656 22.0516 12.989 21.7965 13.1833 21.5375C13.5786 21.0107 14.2631 20.4782 15.3779 20.4394H15.5869Z" fill="#274247"/>
<path d="M24.0269 18.2312C24.2378 18.25 24.3936 18.434 24.3745 18.6421L23.9924 18.6081L24.3745 18.6428L24.3738 18.6443C24.3737 18.6451 24.3739 18.6461 24.3738 18.6472C24.3736 18.6494 24.3734 18.6521 24.373 18.6554C24.3723 18.6621 24.3715 18.6715 24.37 18.6827C24.3672 18.705 24.3623 18.7357 24.3558 18.7736C24.3428 18.8495 24.3215 18.9552 24.2869 19.0788C24.2182 19.3238 24.0942 19.6527 23.8725 19.9671C23.6489 20.2841 23.3226 20.5904 22.855 20.7733C22.3872 20.9563 21.8094 21.0033 21.104 20.8546C20.8969 20.811 20.7647 20.6102 20.8088 20.406C20.853 20.2017 21.0571 20.0712 21.2643 20.1149C21.8516 20.2386 22.2715 20.1876 22.5725 20.0698C22.8736 19.952 23.0879 19.7549 23.2431 19.5348C23.4003 19.3119 23.4935 19.0691 23.5473 18.8771C23.5739 18.7821 23.5897 18.7024 23.599 18.648C23.6037 18.6209 23.6071 18.6002 23.6088 18.5874C23.6096 18.5811 23.61 18.5764 23.6103 18.5741C23.6104 18.5733 23.6103 18.5728 23.6103 18.5726C23.6301 18.3652 23.8163 18.2124 24.0269 18.2312Z" fill="#274247"/>
<path d="M15.8185 11.6948C16.3207 11.482 16.8821 11.3458 17.4287 11.4753L17.4294 11.4746C17.8021 11.5628 18.3965 11.8861 18.7129 12.4715C19.0537 13.102 19.022 13.9355 18.3023 14.9109C18.1777 15.0797 17.9379 15.1172 17.7666 14.9944C17.5953 14.8715 17.5573 14.6343 17.6819 14.4653C18.2743 13.6624 18.2051 13.1412 18.0356 12.8277C17.8661 12.5141 17.5479 12.3139 17.335 12.2365L17.2504 12.2106C16.9381 12.1364 16.5604 12.2041 16.1212 12.3902C15.6861 12.5746 15.2399 12.8536 14.8077 13.1403C14.3161 13.4664 13.8677 13.5796 13.5302 13.6051C13.3631 13.6177 13.2255 13.6088 13.1256 13.5955C13.0756 13.5888 13.0345 13.5808 13.0042 13.5741C12.9892 13.5707 12.9766 13.5678 12.9668 13.5652C12.9619 13.5639 12.9576 13.5625 12.954 13.5615C12.9522 13.561 12.9503 13.5605 12.9488 13.56L12.9473 13.5593H12.9458V13.5586H12.945C12.7429 13.4966 12.63 13.285 12.6925 13.0856C12.755 12.887 12.9683 12.775 13.1698 12.8351L13.1683 12.8343C13.1696 12.8347 13.1717 12.8352 13.1743 12.8358C13.184 12.838 13.2022 12.8419 13.2283 12.8454C13.2806 12.8524 13.3639 12.8587 13.4718 12.8506C13.6848 12.8345 14.0039 12.7617 14.3792 12.5129C14.8139 12.2245 15.3119 11.9095 15.8185 11.6948Z" fill="#274247"/>
<path d="M23.3969 11.3161C23.607 11.3431 23.7554 11.5331 23.7281 11.7403L23.3475 11.6915L23.7281 11.741V11.7418C23.728 11.7424 23.7275 11.7438 23.7273 11.7447C23.7271 11.7465 23.727 11.7487 23.7266 11.7514C23.7257 11.7572 23.7244 11.7653 23.7228 11.775C23.7197 11.7944 23.7151 11.8213 23.7086 11.8548C23.6956 11.922 23.675 12.0166 23.6442 12.129C23.5828 12.3524 23.4786 12.6552 23.3077 12.9663C22.9648 13.5906 22.3289 14.2822 21.2165 14.3763C20.2073 14.4616 19.4842 14.2634 19.0032 14.0267C18.7646 13.9093 18.5894 13.7843 18.4704 13.6846C18.4111 13.6348 18.3654 13.5912 18.3333 13.5582C18.3174 13.5418 18.3047 13.5276 18.2951 13.5168C18.2904 13.5115 18.2863 13.5066 18.2831 13.5028C18.2815 13.5009 18.2799 13.4991 18.2786 13.4976C18.2781 13.4969 18.2776 13.496 18.2771 13.4954L18.2764 13.4947H18.2756C18.2755 13.4945 18.2757 13.4941 18.5753 13.2582L18.2756 13.4939C18.1435 13.3306 18.1708 13.0929 18.3363 12.9626C18.5019 12.8323 18.7429 12.8585 18.8751 13.0217L18.8743 13.021C18.8768 13.0237 18.8816 13.0286 18.8878 13.035C18.903 13.0506 18.9293 13.0763 18.9672 13.1082C19.0437 13.1723 19.1682 13.2622 19.3463 13.3498C19.6997 13.5236 20.2811 13.6961 21.1513 13.6225C21.9185 13.5576 22.3644 13.0955 22.6334 12.6056C22.7684 12.3598 22.8533 12.1154 22.9039 11.9309C22.929 11.8394 22.945 11.7639 22.9548 11.7129C22.9597 11.6876 22.9634 11.6681 22.9653 11.656C22.9663 11.6502 22.9665 11.6458 22.9668 11.6435L22.9676 11.642C22.9953 11.4352 23.1872 11.2893 23.3969 11.3161Z" fill="#274247"/>
<path d="M21.2093 13.6219C21.4205 13.6357 21.5803 13.8157 21.5667 14.0239C21.5667 14.0244 21.5668 14.0259 21.5667 14.0276C21.5665 14.0311 21.5663 14.0368 21.5659 14.0446C21.5653 14.0605 21.5641 14.0851 21.5637 14.117C21.5629 14.1813 21.5636 14.275 21.5704 14.3875C21.5842 14.6149 21.6218 14.909 21.7128 15.1945C21.8044 15.4819 21.9428 15.7357 22.1406 15.9121C22.3288 16.0798 22.596 16.2008 23.0045 16.187C23.2163 16.1798 23.3936 16.3432 23.4009 16.552C23.4081 16.7608 23.2425 16.9358 23.0308 16.943C22.4344 16.9631 21.97 16.7804 21.6259 16.4737C21.2914 16.1755 21.0963 15.7837 20.9808 15.4214C20.8646 15.0571 20.8207 14.6969 20.8047 14.4326C20.7966 14.2994 20.7955 14.1876 20.7964 14.1082C20.7969 14.0684 20.7985 14.0362 20.7994 14.0136C20.7999 14.0024 20.7998 13.9935 20.8002 13.987C20.8004 13.9838 20.8008 13.9809 20.8009 13.9789V13.9752C20.815 13.7667 20.9979 13.6082 21.2093 13.6219Z" fill="#274247"/>
<path d="M13.3968 4.82316V4.82242C13.3972 4.82308 13.3982 4.8249 13.3998 4.82759C13.403 4.83314 13.4088 4.84266 13.417 4.85567C13.4337 4.88207 13.4601 4.92262 13.4972 4.9717C13.5718 5.07044 13.6862 5.20215 13.8411 5.33085C14.1476 5.5854 14.6108 5.82698 15.2647 5.78237C15.9376 5.73615 16.2357 5.49279 16.3736 5.31311C16.4476 5.21678 16.4869 5.12339 16.5078 5.05668C16.5181 5.02362 16.5238 4.99792 16.5265 4.98278L16.528 4.9717V4.97465L16.5415 4.89927C16.5897 4.72996 16.7531 4.61134 16.9378 4.62437C17.1227 4.63749 17.2676 4.77801 17.2908 4.95248L17.293 5.02934V5.03451C17.2928 5.03639 17.2925 5.0388 17.2923 5.04116C17.2918 5.04606 17.2908 5.05204 17.29 5.0589C17.2883 5.07286 17.2855 5.09074 17.2818 5.1121C17.2742 5.15487 17.2622 5.21216 17.2413 5.27912C17.1995 5.41294 17.1231 5.58993 16.985 5.76981C16.699 6.14242 16.1869 6.4772 15.3179 6.53689C14.4222 6.59807 13.7689 6.26099 13.3466 5.91022C13.1372 5.73632 12.9839 5.55878 12.882 5.42396C12.831 5.35636 12.7926 5.29847 12.7659 5.25621C12.7525 5.23505 12.742 5.21739 12.7344 5.20448L12.7224 5.18379C12.722 5.18305 12.7213 5.18215 12.7209 5.18157V5.18083L12.7202 5.18009C12.6206 4.9957 12.6914 4.76627 12.8783 4.66797C13.0649 4.56986 13.2969 4.63945 13.3968 4.82316Z" fill="#274247"/>
<path d="M8.7085 22.8909V20.3258C8.7085 20.1168 8.88025 19.9474 9.09212 19.9474H12.9741C13.186 19.9474 13.3577 20.1168 13.3577 20.3258C13.3577 20.5348 13.186 20.7042 12.9741 20.7042H9.47575V22.8909C9.47575 23.0998 9.304 23.2692 9.09212 23.2692C8.88025 23.2692 8.7085 23.0998 8.7085 22.8909Z" fill="#274247"/>
</g>
<defs>
<clipPath id="clip0_8826_1633">
<rect width="28" height="28" fill="white"/>
</clipPath>
</defs>
</svg>
