<svg width="28" height="28" viewBox="0 0 28 28" fill="none" xmlns="http://www.w3.org/2000/svg">
<g clip-path="url(#clip0_8826_1785)">
<path d="M17.7007 2.45929L16.8153 5.18363L17.5115 7.84742L15.8013 8.30905L15.7104 8.58905L23.3008 11.1393L25.291 5.00957L17.7007 2.45929Z" fill="#274247"/>
<path d="M17.5307 2.12157C17.6209 2.07617 17.7254 2.06872 17.8211 2.10087L25.4117 4.65124C25.6082 4.71738 25.7151 4.92917 25.6511 5.12644L23.6609 11.2559C23.6297 11.352 23.5612 11.4322 23.471 11.4776C23.3809 11.5229 23.2762 11.5303 23.1805 11.4983L15.59 8.94793C15.3934 8.88187 15.2866 8.6693 15.3506 8.472L15.4415 8.19265L15.4592 8.1483C15.5061 8.04847 15.5944 7.97283 15.7024 7.9436L17.0503 7.58L16.4495 5.27941C16.4312 5.2094 16.4331 5.1354 16.4554 5.06658L17.3408 2.34253C17.372 2.24651 17.4405 2.16697 17.5307 2.12157ZM17.2092 5.19517L17.8773 7.75145C17.9298 7.95237 17.8109 8.15831 17.6105 8.2126L16.5944 8.48678L23.0586 10.6588L24.8153 5.24838L17.9423 2.93893L17.2092 5.19517Z" fill="#274247"/>
<path d="M16.3005 8.39986L8.24857 10.5718L6.15234 2.5501L14.2043 0.378197L16.3005 8.39986Z" fill="#274247"/>
<path d="M14.1057 0.0131165C14.203 -0.0131266 14.3067 0.000297375 14.3939 0.0508068C14.4812 0.101438 14.5451 0.185269 14.5706 0.28286L16.6664 8.30422C16.719 8.50529 16.5995 8.71126 16.3989 8.76538L8.34723 10.9374C8.24985 10.9636 8.14551 10.9496 8.05827 10.8989C7.97124 10.8483 7.90789 10.765 7.88239 10.6676L5.78652 2.64552C5.73408 2.44451 5.85345 2.23921 6.05404 2.18511L14.1057 0.0131165ZM6.61274 2.81697L8.51795 10.1067L15.8387 8.13203L13.9343 0.842301L6.61274 2.81697Z" fill="#274247"/>
<path d="M8.2714 19.6226H24.239L27.6218 7.71878H4.97192L8.2714 19.6226Z" fill="white"/>
<path d="M3.7535 3.05711C3.92426 3.05711 4.0738 3.17168 4.11858 3.33646L8.58376 19.7657C8.63842 19.9673 8.51925 20.175 8.31771 20.2298C8.11605 20.2846 7.90841 20.1654 7.85361 19.9638L3.46454 3.81387H0.37838C0.169407 3.81387 0 3.64447 0 3.43549C0 3.22652 0.169407 3.05711 0.37838 3.05711H3.7535Z" fill="#274247"/>
<path d="M4.04883 21.8171C4.04888 20.5394 5.07525 19.4862 6.34941 19.4862H24.0852L27.1293 8.09714H4.9194C4.71042 8.09714 4.54102 7.92773 4.54102 7.71876C4.54102 7.50978 4.71042 7.34038 4.9194 7.34038H27.6222L27.7087 7.35072C27.7927 7.37053 27.8686 7.41834 27.9223 7.48818C27.9938 7.58142 28.0176 7.70274 27.9873 7.81631L24.7408 19.9622C24.6965 20.1276 24.5469 20.2429 24.3757 20.243H6.34941C5.50469 20.243 4.80564 20.9457 4.80559 21.8171C4.80559 22.6885 5.50466 23.3912 6.34941 23.3912H21.1971C21.406 23.3913 21.5755 23.5607 21.5755 23.7696C21.5755 23.9786 21.4061 24.1479 21.1971 24.148H6.34941C5.07523 24.148 4.04883 23.0949 4.04883 21.8171Z" fill="#274247"/>
<path d="M10.1631 27.6216C11.208 27.6216 12.055 26.761 12.055 25.6994C12.055 24.6378 11.208 23.7772 10.1631 23.7772C9.11827 23.7772 8.27124 24.6378 8.27124 25.6994C8.27124 26.761 9.11827 27.6216 10.1631 27.6216Z" fill="white"/>
<path d="M11.6769 25.6994C11.6769 24.8411 10.9936 24.1556 10.1633 24.1556C9.33309 24.1556 8.64983 24.8411 8.64983 25.6994C8.64984 26.5577 9.3331 27.2433 10.1633 27.2433C10.9936 27.2433 11.6769 26.5577 11.6769 25.6994ZM12.4336 25.6994C12.4336 26.9643 11.4228 28 10.1633 28C8.90388 28 7.89308 26.9643 7.89307 25.6994C7.89307 24.4346 8.90387 23.3989 10.1633 23.3989C11.4228 23.3989 12.4336 24.4346 12.4336 25.6994Z" fill="#274247"/>
<path d="M21.1968 27.6216C22.2417 27.6216 23.0887 26.761 23.0887 25.6994C23.0887 24.6378 22.2417 23.7772 21.1968 23.7772C20.152 23.7772 19.3049 24.6378 19.3049 25.6994C19.3049 26.761 20.152 27.6216 21.1968 27.6216Z" fill="white"/>
<path d="M22.7103 25.6994C22.7103 24.8411 22.0271 24.1556 21.1968 24.1556C20.3665 24.1556 19.6833 24.8411 19.6833 25.6994C19.6833 26.5577 20.3666 27.2433 21.1968 27.2433C22.027 27.2433 22.7103 26.5577 22.7103 25.6994ZM23.4671 25.6994C23.4671 26.9643 22.4563 28 21.1968 28C19.9373 28 18.9265 26.9643 18.9265 25.6994C18.9265 24.4346 19.9373 23.3989 21.1968 23.3989C22.4563 23.3989 23.4671 24.4346 23.4671 25.6994Z" fill="#274247"/>
<path d="M12.3611 7.34185C12.5692 7.32267 12.7536 7.47593 12.7728 7.68401L13.8924 19.8299C13.9116 20.0378 13.7589 20.2221 13.551 20.2415C13.3429 20.2607 13.1585 20.1074 13.1393 19.8993L12.019 7.75348C11.9998 7.5454 12.153 7.36103 12.3611 7.34185Z" fill="#274247"/>
<path d="M20.2712 7.34185C20.4792 7.36143 20.6322 7.54617 20.6126 7.75423L19.4701 19.9001C19.4505 20.1081 19.2658 20.2611 19.0577 20.2415C18.8497 20.2219 18.6967 20.0372 18.7163 19.8291L19.8588 7.68328C19.8784 7.47528 20.0632 7.32237 20.2712 7.34185Z" fill="#274247"/>
<path d="M26.6156 11.0939C26.8244 11.094 26.9939 11.2634 26.9939 11.4723C26.9939 11.6812 26.8244 11.8505 26.6156 11.8507H5.94064C5.73166 11.8507 5.56226 11.6813 5.56226 11.4723C5.56226 11.2633 5.73166 11.0939 5.94064 11.0939H26.6156Z" fill="#274247"/>
<path d="M25.3816 15.7404C25.5906 15.7404 25.76 15.9098 25.76 16.1188C25.76 16.3277 25.5906 16.4971 25.3816 16.4971H7.20455C6.99558 16.4971 6.82617 16.3277 6.82617 16.1188C6.82617 15.9098 6.99558 15.7404 7.20455 15.7404H25.3816Z" fill="#274247"/>
</g>
<defs>
<clipPath id="clip0_8826_1785">
<rect width="28" height="28" fill="white"/>
</clipPath>
</defs>
</svg>
