<svg width="28" height="28" viewBox="0 0 28 28" fill="none" xmlns="http://www.w3.org/2000/svg">
<g clip-path="url(#clip0_8826_1691)">
<path d="M6.25325 3.07506C6.25325 1.18018 4.50325 -0.323448 2.50436 0.0601306C1.42325 0.259592 0.521029 1.06511 0.171029 2.0931C-0.14786 3.02136 0.00769569 3.87291 0.41214 4.57869L3.00992 8.96683C3.07214 9.06656 3.21992 9.06656 3.27436 8.96683L5.83325 4.57869C6.08992 4.13374 6.24547 3.62742 6.24547 3.07506H6.25325Z" fill="#274247"/>
<path d="M3.12635 4.2565C3.80505 4.2565 4.35524 3.71382 4.35524 3.04439C4.35524 2.37496 3.80505 1.83228 3.12635 1.83228C2.44765 1.83228 1.89746 2.37496 1.89746 3.04439C1.89746 3.71382 2.44765 4.2565 3.12635 4.2565Z" fill="white"/>
<path d="M3.12664 13.6158C3.98145 13.6158 4.67441 12.9357 4.67441 12.0968C4.67441 11.2579 3.98145 10.5779 3.12664 10.5779C2.27182 10.5779 1.57886 11.2579 1.57886 12.0968C1.57886 12.9357 2.27182 13.6158 3.12664 13.6158Z" fill="white"/>
<path d="M4.28586 12.0972C4.28586 11.472 3.76859 10.9615 3.12679 10.9614C2.4849 10.9614 1.96772 11.4719 1.96772 12.0972C1.96792 12.7223 2.48503 13.2322 3.12679 13.2322C3.76847 13.2321 4.28566 12.7222 4.28586 12.0972ZM5.06364 12.0972C5.06344 13.1495 4.19433 13.9993 3.12679 13.9993C2.05917 13.9993 1.19014 13.1496 1.18994 12.0972C1.18994 11.0446 2.05905 10.1943 3.12679 10.1943C4.19445 10.1944 5.06364 11.0447 5.06364 12.0972Z" fill="#274247"/>
<path d="M23.8078 27.6164C24.6626 27.6164 25.3556 26.9364 25.3556 26.0975C25.3556 25.2586 24.6626 24.5785 23.8078 24.5785C22.953 24.5785 22.26 25.2586 22.26 26.0975C22.26 26.9364 22.953 27.6164 23.8078 27.6164Z" fill="white"/>
<path d="M24.967 26.0978C24.967 25.4726 24.4497 24.9622 23.8079 24.9621C23.1661 24.9621 22.6489 25.4726 22.6489 26.0978C22.6491 26.7229 23.1662 27.2328 23.8079 27.2328C24.4496 27.2327 24.9668 26.7228 24.967 26.0978ZM25.7448 26.0978C25.7446 27.1502 24.8755 27.9999 23.8079 28C22.7403 28 21.8713 27.1502 21.8711 26.0978C21.8711 25.0453 22.7402 24.1949 23.8079 24.1949C24.8756 24.195 25.7448 25.0453 25.7448 26.0978Z" fill="#274247"/>
<path d="M12.1686 10.2025C12.315 10.1717 12.4668 10.2271 12.5582 10.3441C12.6494 10.4612 12.6647 10.6199 12.5969 10.7517L8.03053 19.6332L22.5098 25.1951C22.7099 25.2719 22.8087 25.4944 22.7308 25.6918C22.6529 25.8892 22.4274 25.9874 22.2273 25.9105L7.34846 20.195C7.24626 20.1557 7.16583 20.0751 7.12667 19.974C7.08761 19.873 7.09306 19.7603 7.14262 19.6639L11.5336 11.1218L4.74776 12.5564C4.53784 12.6007 4.33095 12.4683 4.28596 12.2613C4.2412 12.0543 4.37535 11.8509 4.58522 11.8065L12.1686 10.2025Z" fill="#274247"/>
<path d="M27.9997 15.0427C27.9997 12.4958 25.6508 10.4858 22.9752 10.9921C21.5208 11.2683 20.3152 12.3423 19.8408 13.7232C19.413 14.966 19.6308 16.1091 20.1675 17.0527L23.6519 22.9368C23.7297 23.0749 23.9319 23.0749 24.0097 22.9368L27.4475 17.0527C27.7897 16.4543 27.9997 15.7792 27.9997 15.0427Z" fill="#274247"/>
<path d="M23.8076 16.6307C24.7182 16.6307 25.4565 15.9026 25.4565 15.0043C25.4565 14.1061 24.7182 13.378 23.8076 13.378C22.8969 13.378 22.1587 14.1061 22.1587 15.0043C22.1587 15.9026 22.8969 16.6307 23.8076 16.6307Z" fill="white"/>
</g>
<defs>
<clipPath id="clip0_8826_1691">
<rect width="28" height="28" fill="white"/>
</clipPath>
</defs>
</svg>
